G04 #@! TF.GenerationSoftware,KiCad,Pcbnew,(5.1.6)-1*
G04 #@! TF.CreationDate,2020-09-10T18:56:50+07:00*
G04 #@! TF.ProjectId,Kicad_Valve-hardware,4b696361-645f-4566-916c-76652d686172,rev?*
G04 #@! TF.SameCoordinates,Original*
G04 #@! TF.FileFunction,Copper,L2,Bot*
G04 #@! TF.FilePolarity,Positive*
%FSLAX46Y46*%
G04 Gerber Fmt 4.6, Leading zero omitted, Abs format (unit mm)*
G04 Created by KiCad (PCBNEW (5.1.6)-1) date 2020-09-10 18:56:50*
%MOMM*%
%LPD*%
G01*
G04 APERTURE LIST*
G04 #@! TA.AperFunction,ViaPad*
%ADD10C,0.800000*%
G04 #@! TD*
G04 #@! TA.AperFunction,ComponentPad*
%ADD11O,1.700000X1.700000*%
G04 #@! TD*
G04 #@! TA.AperFunction,ComponentPad*
%ADD12R,1.700000X1.700000*%
G04 #@! TD*
G04 #@! TA.AperFunction,ComponentPad*
%ADD13C,6.000000*%
G04 #@! TD*
G04 #@! TA.AperFunction,ComponentPad*
%ADD14R,7.000000X2.000000*%
G04 #@! TD*
G04 #@! TA.AperFunction,ComponentPad*
%ADD15R,4.000000X3.000000*%
G04 #@! TD*
G04 #@! TA.AperFunction,ComponentPad*
%ADD16C,2.400000*%
G04 #@! TD*
G04 #@! TA.AperFunction,ComponentPad*
%ADD17R,2.400000X2.400000*%
G04 #@! TD*
G04 #@! TA.AperFunction,ViaPad*
%ADD18R,0.900000X0.500000*%
G04 #@! TD*
G04 #@! TA.AperFunction,ComponentPad*
%ADD19C,0.630000*%
G04 #@! TD*
G04 #@! TA.AperFunction,Conductor*
%ADD20R,2.600000X3.300000*%
G04 #@! TD*
G04 #@! TA.AperFunction,ViaPad*
%ADD21C,0.500000*%
G04 #@! TD*
G04 #@! TA.AperFunction,ViaPad*
%ADD22C,0.600000*%
G04 #@! TD*
G04 #@! TA.AperFunction,Conductor*
%ADD23C,0.249999*%
G04 #@! TD*
G04 #@! TA.AperFunction,Conductor*
%ADD24C,1.000000*%
G04 #@! TD*
G04 #@! TA.AperFunction,Conductor*
%ADD25C,0.500000*%
G04 #@! TD*
G04 #@! TA.AperFunction,Conductor*
%ADD26C,1.500000*%
G04 #@! TD*
G04 #@! TA.AperFunction,Conductor*
%ADD27C,0.254000*%
G04 #@! TD*
G04 APERTURE END LIST*
D10*
X235951420Y-123533640D03*
X235942120Y-122342940D03*
X235951420Y-121146040D03*
X235951420Y-119942940D03*
X237151420Y-119942940D03*
X237151420Y-121146040D03*
X237142120Y-122342940D03*
X237151420Y-123533640D03*
X238351420Y-121146040D03*
X238351420Y-123533640D03*
X238342120Y-122342940D03*
X238351420Y-119942940D03*
X239542120Y-122342940D03*
X239551420Y-121146040D03*
X239551420Y-123533640D03*
X239551420Y-119942940D03*
D11*
X210732120Y-124332940D03*
X210732120Y-121792940D03*
X210732120Y-119252940D03*
D12*
X210732120Y-116712940D03*
D13*
X213506349Y-103853200D03*
X249215688Y-116849786D03*
X242617057Y-79427091D03*
D14*
X212282120Y-85882940D03*
D15*
X212282120Y-93282940D03*
D14*
X212282120Y-80882940D03*
X259352120Y-113922940D03*
D15*
X259352120Y-121322940D03*
D14*
X259352120Y-108922940D03*
D16*
X221502120Y-67652940D03*
D17*
X225002120Y-67652940D03*
D16*
X229672120Y-67372940D03*
X233172120Y-67372940D03*
X236672120Y-67372940D03*
D17*
X240172120Y-67372940D03*
D11*
X244552120Y-130782940D03*
X247092120Y-130782940D03*
D12*
X249632120Y-130782940D03*
D11*
X219812120Y-130852940D03*
X222352120Y-130852940D03*
X224892120Y-130852940D03*
X227432120Y-130852940D03*
X229972120Y-130852940D03*
D12*
X232512120Y-130852940D03*
D18*
X237592120Y-132842940D03*
D19*
X250862120Y-124442940D03*
X249562120Y-124442940D03*
X250862120Y-121842940D03*
X250862120Y-123142940D03*
X249562120Y-123142940D03*
X249562120Y-121842940D03*
D20*
X250212120Y-123142940D03*
D21*
X222062120Y-116822940D03*
X222052120Y-118858215D03*
D22*
X242072120Y-125272940D03*
D21*
X225992120Y-116772940D03*
X226032120Y-118858215D03*
D10*
X253948400Y-110894660D03*
X242062120Y-129092940D03*
X240990120Y-129189440D03*
X253948400Y-111856660D03*
X253948400Y-112889220D03*
X227212120Y-115225440D03*
D22*
X232462120Y-123682940D03*
X232462120Y-124760940D03*
X232449620Y-126342940D03*
X232462120Y-127554940D03*
X232502120Y-128276940D03*
X232502120Y-129022940D03*
X232884120Y-118242940D03*
X247474120Y-129052940D03*
X248206120Y-129082940D03*
X248968120Y-129082940D03*
X215471120Y-129051940D03*
X216202120Y-129082940D03*
X216964120Y-129082940D03*
X217980120Y-129082940D03*
X225985660Y-115235400D03*
X224647200Y-115235400D03*
X233624120Y-117756940D03*
D10*
X243332120Y-129172940D03*
D22*
X243352120Y-125012940D03*
D10*
X242832120Y-121082940D03*
X263650120Y-125684940D03*
X261872120Y-127462940D03*
X262888120Y-126446940D03*
X267577600Y-91034000D03*
X268729060Y-91034000D03*
X269873120Y-91413940D03*
X270612120Y-92202940D03*
X270612120Y-93214940D03*
X270612120Y-94230940D03*
D21*
X212844380Y-132341620D03*
X215384380Y-132341620D03*
X217924380Y-132341620D03*
X220464380Y-132341620D03*
X223004380Y-132341620D03*
X225544380Y-132341620D03*
X228084380Y-132341620D03*
X230624380Y-132341620D03*
X242054380Y-132341620D03*
X244594380Y-132341620D03*
X247134380Y-132341620D03*
X249674380Y-132341620D03*
X252214380Y-132341620D03*
X254754380Y-132341620D03*
X254754380Y-132341620D03*
X256024380Y-132341620D03*
X257294380Y-132341620D03*
X220100680Y-125023860D03*
X218160120Y-124881620D03*
X215414380Y-111546620D03*
X214144380Y-111546620D03*
X214144380Y-112816620D03*
X259834380Y-92971620D03*
X261104380Y-92971620D03*
X262374380Y-92971620D03*
X263644380Y-92971620D03*
X259834380Y-94241620D03*
X261104380Y-94241620D03*
X262374380Y-94241620D03*
X263644380Y-94241620D03*
X262374380Y-89161620D03*
X263644380Y-89161620D03*
X262374380Y-87891620D03*
X263644380Y-87891620D03*
X250134120Y-84081620D03*
X249118120Y-84081620D03*
X249118120Y-83212940D03*
X249626120Y-80271620D03*
X259199380Y-82811620D03*
X257929380Y-81541620D03*
X259199380Y-81541620D03*
X253484380Y-85986620D03*
X246499380Y-65666620D03*
X247769380Y-65666620D03*
X249039380Y-65666620D03*
X250309380Y-65666620D03*
X250309380Y-66936620D03*
X250309380Y-68206620D03*
X250309380Y-69476620D03*
X250309380Y-70746620D03*
X265549380Y-77096620D03*
X265549380Y-75826620D03*
X263644380Y-73921620D03*
X266819380Y-77096620D03*
X266819380Y-78366620D03*
X268089380Y-78366620D03*
X268089380Y-79636620D03*
X268089380Y-80906620D03*
X266819380Y-80906620D03*
X265549380Y-80906620D03*
X231072120Y-65662940D03*
X229812120Y-65652940D03*
X228642120Y-65662940D03*
X227449380Y-66301620D03*
X227449380Y-67571620D03*
X227449380Y-68841620D03*
X227449380Y-70111620D03*
X228719380Y-70111620D03*
X229989380Y-70111620D03*
X231259380Y-70111620D03*
X245864380Y-66936620D03*
X245864380Y-68206620D03*
X245864380Y-69476620D03*
X249039380Y-70746620D03*
X247769380Y-70746620D03*
X246499380Y-70746620D03*
X254330200Y-85973920D03*
X258592320Y-81567020D03*
X259204460Y-82146140D03*
X258592320Y-82146140D03*
X251277120Y-86387940D03*
X250007120Y-86387940D03*
X248737120Y-86387940D03*
X247467120Y-86387940D03*
X247467120Y-87657940D03*
X247467120Y-88927940D03*
X203906120Y-89816940D03*
X200858120Y-89816940D03*
X201874120Y-89816940D03*
X202890120Y-89816940D03*
X203906120Y-90832940D03*
X200858120Y-90832940D03*
X201874120Y-90832940D03*
X202890120Y-90832940D03*
X203906120Y-91848940D03*
X200858120Y-91848940D03*
X201874120Y-91848940D03*
X202890120Y-91848940D03*
X239602120Y-132332940D03*
X238432120Y-132332940D03*
X240822120Y-132372940D03*
X265782120Y-123122940D03*
X266392120Y-122562940D03*
X266952120Y-122042940D03*
X267512120Y-121532940D03*
D10*
X256738120Y-116740940D03*
X258008120Y-116740940D03*
X259278120Y-116740940D03*
X260548120Y-116740940D03*
X261818120Y-116740940D03*
D22*
X199842120Y-108866940D03*
X200858120Y-108866940D03*
X201874120Y-108866940D03*
X202890120Y-108866940D03*
X203906120Y-108866940D03*
X204922120Y-108866940D03*
X205938120Y-108866940D03*
X206954120Y-108866940D03*
X207970120Y-108866940D03*
X199842120Y-109882940D03*
X200858120Y-109882940D03*
X201874120Y-109882940D03*
X202890120Y-109882940D03*
X203906120Y-109882940D03*
X204922120Y-109882940D03*
X205938120Y-109882940D03*
X206954120Y-109882940D03*
X207970120Y-109882940D03*
X223464120Y-121820940D03*
X224480120Y-121820940D03*
X224480120Y-122582940D03*
X223464120Y-122582940D03*
X223464120Y-123344940D03*
X224480120Y-123344940D03*
X224480120Y-124106940D03*
X223464120Y-124106940D03*
X228544120Y-124614940D03*
X229306120Y-124614940D03*
X229306120Y-125376940D03*
X228544120Y-125376940D03*
X228544120Y-126138940D03*
X229306120Y-126138940D03*
X229306120Y-118518940D03*
X230068120Y-118518940D03*
X244292120Y-125376940D03*
X245054120Y-125376940D03*
X245054120Y-126138940D03*
X244292120Y-126138940D03*
X257246120Y-125122940D03*
X258008120Y-125122940D03*
X258770120Y-125122940D03*
X259532120Y-125122940D03*
X259532120Y-125884940D03*
X258770120Y-125884940D03*
X258008120Y-125884940D03*
X257246120Y-125884940D03*
X220670120Y-114708940D03*
X219908120Y-114708940D03*
X219908120Y-113946940D03*
X220670120Y-113946940D03*
X220670120Y-113184940D03*
X219908120Y-113184940D03*
X222702120Y-77878940D03*
X223718120Y-77878940D03*
X224734120Y-77878940D03*
X225750120Y-77878940D03*
X226766120Y-77878940D03*
X226766120Y-78894940D03*
X225750120Y-78894940D03*
X224734120Y-78894940D03*
X223718120Y-78894940D03*
X222702120Y-78894940D03*
X239720120Y-116994940D03*
X240736120Y-115724940D03*
X241498120Y-115724940D03*
X218384120Y-118518940D03*
X219146120Y-118518940D03*
X219908120Y-118518940D03*
X241132120Y-125112940D03*
X241122120Y-125782940D03*
D10*
X223210120Y-114200940D03*
X224226120Y-114200940D03*
X225242120Y-114200940D03*
D22*
X240482120Y-126392940D03*
X214828120Y-118264940D03*
X215590120Y-118264940D03*
D10*
X255472120Y-121232940D03*
X255739900Y-94068900D03*
X255739900Y-95196660D03*
X255739900Y-96415860D03*
X257022600Y-94145100D03*
X257022600Y-95229680D03*
X257022600Y-96377760D03*
D22*
X229100465Y-119433224D03*
X229122113Y-120232951D03*
X240258528Y-127992940D03*
X244307120Y-127997940D03*
D10*
X258348480Y-94162880D03*
X258348480Y-95280480D03*
X258348480Y-96459040D03*
D23*
X222062120Y-118848215D02*
X222052120Y-118858215D01*
X222062120Y-116822940D02*
X222062120Y-118848215D01*
X242072120Y-118162940D02*
X242072120Y-125272940D01*
X239322120Y-115412940D02*
X242072120Y-118162940D01*
X222062120Y-113972940D02*
X222732120Y-113302940D01*
X222732120Y-113302940D02*
X227072120Y-113302940D01*
X222062120Y-116822940D02*
X222062120Y-113972940D01*
X227072120Y-113302940D02*
X229182120Y-115412940D01*
X229182120Y-115412940D02*
X239322120Y-115412940D01*
X225992120Y-118818215D02*
X226032120Y-118858215D01*
X225992120Y-116772940D02*
X225992120Y-118818215D01*
D24*
X232462120Y-126912940D02*
X232462120Y-125992940D01*
X232462120Y-129082940D02*
X232462120Y-127554940D01*
X252016120Y-129082940D02*
X248968120Y-129082940D01*
X253948400Y-110894660D02*
X253948400Y-111856660D01*
X253948400Y-127150660D02*
X252016120Y-129082940D01*
X242972120Y-129082940D02*
X242902120Y-129082940D01*
X242902120Y-129082940D02*
X242072120Y-129082940D01*
X242072120Y-129082940D02*
X215602120Y-129082940D01*
X253948400Y-111856660D02*
X253948400Y-127150660D01*
X232462120Y-126312940D02*
X232462120Y-125522940D01*
X232462120Y-118570440D02*
X232789620Y-118242940D01*
D25*
X228104620Y-115225440D02*
X227212120Y-115225440D01*
X230432119Y-117552939D02*
X228104620Y-115225440D01*
X232789620Y-118242940D02*
X232789620Y-117767940D01*
X232574619Y-117552939D02*
X230432119Y-117552939D01*
X232789620Y-117767940D02*
X232574619Y-117552939D01*
D24*
X232462120Y-125522940D02*
X232462120Y-118570440D01*
X232462120Y-127554940D02*
X232462120Y-126912940D01*
X248206120Y-129082940D02*
X242972120Y-129082940D01*
X248968120Y-129082940D02*
X248206120Y-129082940D01*
D25*
X243352120Y-121242940D02*
X243352120Y-125012940D01*
X243302120Y-121192940D02*
X243352120Y-121242940D01*
X242926370Y-121154690D02*
X242964620Y-121192940D01*
X242964620Y-121192940D02*
X243012120Y-121192940D01*
X243012120Y-121192940D02*
X243052120Y-121192940D01*
X243052120Y-121192940D02*
X243302120Y-121192940D01*
D26*
X263650120Y-125684940D02*
X262888120Y-126446940D01*
X262888120Y-126446940D02*
X262082120Y-127252940D01*
X270612120Y-92202940D02*
X269492120Y-91082940D01*
X269492120Y-91082940D02*
X269462120Y-91052940D01*
X269462120Y-91052940D02*
X267812120Y-91052940D01*
X270612120Y-92202940D02*
X270612120Y-92202940D01*
X270612120Y-93214940D02*
X270612120Y-92202940D01*
X270612120Y-94230940D02*
X270612120Y-93214940D01*
X270612120Y-115058940D02*
X270612120Y-94230940D01*
X263650120Y-125684940D02*
X263650120Y-122020940D01*
X263650120Y-122020940D02*
X270612120Y-115058940D01*
D25*
X259262120Y-121232940D02*
X259352120Y-121322940D01*
X255472120Y-121232940D02*
X259262120Y-121232940D01*
D24*
X255739900Y-94068900D02*
X255739900Y-96415860D01*
X255701800Y-84613180D02*
X255701800Y-94030800D01*
X219022120Y-77242940D02*
X221242120Y-75022940D01*
X246111560Y-75022940D02*
X255701800Y-84613180D01*
X219022120Y-84902942D02*
X219022120Y-77242940D01*
X221242120Y-75022940D02*
X246111560Y-75022940D01*
X212282120Y-90602940D02*
X215672120Y-90602940D01*
X212282120Y-93282940D02*
X212282120Y-90602940D01*
X215672120Y-90602940D02*
X219032120Y-87242940D01*
X219032120Y-87242940D02*
X219032120Y-84912942D01*
X219032120Y-84912942D02*
X219022120Y-84902942D01*
X257022600Y-94145100D02*
X257022600Y-96377760D01*
X257022600Y-84236910D02*
X257022600Y-94145100D01*
X246588630Y-73802940D02*
X257022600Y-84236910D01*
X214052120Y-73802940D02*
X246588630Y-73802940D01*
X212282120Y-80882940D02*
X212282120Y-75572940D01*
X212282120Y-75572940D02*
X214052120Y-73802940D01*
X221802120Y-73822940D02*
X222632120Y-73822940D01*
X221502120Y-67652940D02*
X221502120Y-73522940D01*
X221502120Y-73522940D02*
X221802120Y-73822940D01*
D23*
X211934201Y-119252940D02*
X212114485Y-119433224D01*
X212114485Y-119433224D02*
X229100465Y-119433224D01*
X210732120Y-119252940D02*
X211934201Y-119252940D01*
X229122120Y-120232944D02*
X229122113Y-120232951D01*
X210732120Y-121792940D02*
X212292109Y-120232951D01*
X212292109Y-120232951D02*
X229122113Y-120232951D01*
X244302120Y-127992940D02*
X244307120Y-127997940D01*
X240258528Y-127992940D02*
X244302120Y-127992940D01*
D24*
X258348480Y-94162880D02*
X258348480Y-96459040D01*
X224497860Y-67652940D02*
X225002120Y-67652940D01*
X224282000Y-67868800D02*
X224497860Y-67652940D01*
X247049320Y-72566560D02*
X258348480Y-83865720D01*
X225002120Y-69852940D02*
X227715740Y-72566560D01*
X227715740Y-72566560D02*
X247049320Y-72566560D01*
X258348480Y-83865720D02*
X258348480Y-94063820D01*
X225002120Y-67652940D02*
X225002120Y-69852940D01*
D27*
G36*
X238111449Y-60294532D02*
G01*
X240609638Y-60573143D01*
X243085127Y-61009639D01*
X245527947Y-61602261D01*
X247928263Y-62348623D01*
X250276409Y-63245719D01*
X252562931Y-64289939D01*
X254778620Y-65477076D01*
X256914555Y-66802350D01*
X258962137Y-68260426D01*
X260913118Y-69845432D01*
X262759645Y-71550986D01*
X264494281Y-73370220D01*
X266110041Y-75295808D01*
X267600420Y-77319998D01*
X268959417Y-79434637D01*
X270181559Y-81631213D01*
X271261924Y-83900879D01*
X272196164Y-86234496D01*
X272980515Y-88622668D01*
X273611820Y-91055779D01*
X274087537Y-93524031D01*
X274405749Y-96017485D01*
X274565177Y-98526101D01*
X274565177Y-101039779D01*
X274405749Y-103548395D01*
X274087537Y-106041849D01*
X273611820Y-108510101D01*
X272980515Y-110943212D01*
X272196164Y-113331384D01*
X271689120Y-114597918D01*
X271689120Y-92255849D01*
X271694331Y-92202940D01*
X271673537Y-91991811D01*
X271611953Y-91788796D01*
X271511946Y-91601696D01*
X271377359Y-91437701D01*
X271336260Y-91403972D01*
X270261093Y-90328805D01*
X270227359Y-90287701D01*
X270063364Y-90153114D01*
X269876264Y-90053107D01*
X269673249Y-89991523D01*
X269515029Y-89975940D01*
X269515027Y-89975940D01*
X269462120Y-89970729D01*
X269409213Y-89975940D01*
X267759211Y-89975940D01*
X267600991Y-89991523D01*
X267397976Y-90053107D01*
X267210876Y-90153114D01*
X267046881Y-90287701D01*
X266912294Y-90451696D01*
X266812287Y-90638796D01*
X266750703Y-90841811D01*
X266729909Y-91052940D01*
X266750703Y-91264069D01*
X266812287Y-91467084D01*
X266912294Y-91654184D01*
X267046881Y-91818179D01*
X267210876Y-91952766D01*
X267397976Y-92052773D01*
X267600991Y-92114357D01*
X267759211Y-92129940D01*
X269016013Y-92129940D01*
X269535120Y-92649048D01*
X269535120Y-94283848D01*
X269535121Y-94283858D01*
X269535120Y-114612832D01*
X262925981Y-121221972D01*
X262884882Y-121255701D01*
X262843561Y-121306051D01*
X262750295Y-121419696D01*
X262650288Y-121606796D01*
X262588704Y-121809811D01*
X262567909Y-122020940D01*
X262573121Y-122073856D01*
X262573120Y-125238832D01*
X262163983Y-125647970D01*
X262163978Y-125647974D01*
X261283154Y-126528799D01*
X261182295Y-126651696D01*
X261082288Y-126838796D01*
X261020704Y-127041811D01*
X260999909Y-127252940D01*
X261020704Y-127464069D01*
X261082288Y-127667084D01*
X261182295Y-127854184D01*
X261316882Y-128018178D01*
X261480876Y-128152765D01*
X261667976Y-128252772D01*
X261870991Y-128314356D01*
X262082120Y-128335151D01*
X262293249Y-128314356D01*
X262496264Y-128252772D01*
X262510128Y-128245361D01*
X260913118Y-129720448D01*
X258962137Y-131305454D01*
X257107251Y-132626312D01*
X238474651Y-132586735D01*
X238442289Y-129909940D01*
X240885839Y-129909940D01*
X240918517Y-129916440D01*
X241061723Y-129916440D01*
X241094401Y-129909940D01*
X246300590Y-129909940D01*
X246177884Y-130032646D01*
X246049076Y-130225421D01*
X245960351Y-130439622D01*
X245915120Y-130667016D01*
X245915120Y-130898864D01*
X245960351Y-131126258D01*
X246049076Y-131340459D01*
X246177884Y-131533234D01*
X246341826Y-131697176D01*
X246534601Y-131825984D01*
X246748802Y-131914709D01*
X246976196Y-131959940D01*
X247208044Y-131959940D01*
X247435438Y-131914709D01*
X247649639Y-131825984D01*
X247842414Y-131697176D01*
X248006356Y-131533234D01*
X248135164Y-131340459D01*
X248223889Y-131126258D01*
X248269120Y-130898864D01*
X248269120Y-130667016D01*
X248223889Y-130439622D01*
X248135164Y-130225421D01*
X248006356Y-130032646D01*
X247883650Y-129909940D01*
X248455803Y-129909940D01*
X248453538Y-129932940D01*
X248453538Y-131632940D01*
X248459852Y-131697043D01*
X248478550Y-131758683D01*
X248508914Y-131815490D01*
X248549777Y-131865283D01*
X248599570Y-131906146D01*
X248656377Y-131936510D01*
X248718017Y-131955208D01*
X248782120Y-131961522D01*
X250482120Y-131961522D01*
X250546223Y-131955208D01*
X250607863Y-131936510D01*
X250664670Y-131906146D01*
X250714463Y-131865283D01*
X250755326Y-131815490D01*
X250785690Y-131758683D01*
X250804388Y-131697043D01*
X250810702Y-131632940D01*
X250810702Y-129932940D01*
X250808437Y-129909940D01*
X251975506Y-129909940D01*
X252016120Y-129913940D01*
X252056734Y-129909940D01*
X252056744Y-129909940D01*
X252178240Y-129897974D01*
X252334130Y-129850685D01*
X252477799Y-129773892D01*
X252603726Y-129670546D01*
X252629625Y-129638988D01*
X254504458Y-127764157D01*
X254536006Y-127738266D01*
X254561896Y-127706719D01*
X254561903Y-127706712D01*
X254639352Y-127612340D01*
X254716145Y-127468671D01*
X254744675Y-127374619D01*
X254763434Y-127312780D01*
X254775400Y-127191284D01*
X254775400Y-127191274D01*
X254779400Y-127150660D01*
X254775400Y-127110046D01*
X254775400Y-121450652D01*
X254827861Y-121577304D01*
X254907422Y-121696376D01*
X255008684Y-121797638D01*
X255127756Y-121877199D01*
X255260062Y-121932002D01*
X255400517Y-121959940D01*
X255543723Y-121959940D01*
X255684178Y-121932002D01*
X255816484Y-121877199D01*
X255917145Y-121809940D01*
X257023538Y-121809940D01*
X257023538Y-122822940D01*
X257029852Y-122887043D01*
X257048550Y-122948683D01*
X257078914Y-123005490D01*
X257119777Y-123055283D01*
X257169570Y-123096146D01*
X257226377Y-123126510D01*
X257288017Y-123145208D01*
X257352120Y-123151522D01*
X261352120Y-123151522D01*
X261416223Y-123145208D01*
X261477863Y-123126510D01*
X261534670Y-123096146D01*
X261584463Y-123055283D01*
X261625326Y-123005490D01*
X261655690Y-122948683D01*
X261674388Y-122887043D01*
X261680702Y-122822940D01*
X261680702Y-119822940D01*
X261674388Y-119758837D01*
X261655690Y-119697197D01*
X261625326Y-119640390D01*
X261584463Y-119590597D01*
X261534670Y-119549734D01*
X261477863Y-119519370D01*
X261416223Y-119500672D01*
X261352120Y-119494358D01*
X257352120Y-119494358D01*
X257288017Y-119500672D01*
X257226377Y-119519370D01*
X257169570Y-119549734D01*
X257119777Y-119590597D01*
X257078914Y-119640390D01*
X257048550Y-119697197D01*
X257029852Y-119758837D01*
X257023538Y-119822940D01*
X257023538Y-120655940D01*
X255917145Y-120655940D01*
X255816484Y-120588681D01*
X255684178Y-120533878D01*
X255543723Y-120505940D01*
X255400517Y-120505940D01*
X255260062Y-120533878D01*
X255127756Y-120588681D01*
X255008684Y-120668242D01*
X254907422Y-120769504D01*
X254827861Y-120888576D01*
X254775400Y-121015228D01*
X254775400Y-112922940D01*
X255523538Y-112922940D01*
X255523538Y-114922940D01*
X255529852Y-114987043D01*
X255548550Y-115048683D01*
X255578914Y-115105490D01*
X255619777Y-115155283D01*
X255669570Y-115196146D01*
X255726377Y-115226510D01*
X255788017Y-115245208D01*
X255852120Y-115251522D01*
X262852120Y-115251522D01*
X262916223Y-115245208D01*
X262977863Y-115226510D01*
X263034670Y-115196146D01*
X263084463Y-115155283D01*
X263125326Y-115105490D01*
X263155690Y-115048683D01*
X263174388Y-114987043D01*
X263180702Y-114922940D01*
X263180702Y-112922940D01*
X263174388Y-112858837D01*
X263155690Y-112797197D01*
X263125326Y-112740390D01*
X263084463Y-112690597D01*
X263034670Y-112649734D01*
X262977863Y-112619370D01*
X262916223Y-112600672D01*
X262852120Y-112594358D01*
X255852120Y-112594358D01*
X255788017Y-112600672D01*
X255726377Y-112619370D01*
X255669570Y-112649734D01*
X255619777Y-112690597D01*
X255578914Y-112740390D01*
X255548550Y-112797197D01*
X255529852Y-112858837D01*
X255523538Y-112922940D01*
X254775400Y-112922940D01*
X254775400Y-110854036D01*
X254763434Y-110732540D01*
X254716145Y-110576650D01*
X254639352Y-110432981D01*
X254536006Y-110307054D01*
X254410078Y-110203708D01*
X254266409Y-110126915D01*
X254110519Y-110079626D01*
X253948400Y-110063659D01*
X253786280Y-110079626D01*
X253630390Y-110126915D01*
X253486721Y-110203708D01*
X253360794Y-110307054D01*
X253257448Y-110432982D01*
X253180655Y-110576651D01*
X253133366Y-110732541D01*
X253121400Y-110854037D01*
X253121401Y-111816028D01*
X253121400Y-111816037D01*
X253121401Y-126808104D01*
X251673567Y-128255940D01*
X244878913Y-128255940D01*
X244910025Y-128180829D01*
X244934120Y-128059694D01*
X244934120Y-127936186D01*
X244910025Y-127815051D01*
X244862760Y-127700944D01*
X244794143Y-127598251D01*
X244706809Y-127510917D01*
X244604116Y-127442300D01*
X244490009Y-127395035D01*
X244368874Y-127370940D01*
X244245366Y-127370940D01*
X244124231Y-127395035D01*
X244010124Y-127442300D01*
X243907431Y-127510917D01*
X243877407Y-127540941D01*
X240693241Y-127540941D01*
X240658217Y-127505917D01*
X240555524Y-127437300D01*
X240441417Y-127390035D01*
X240320282Y-127365940D01*
X240196774Y-127365940D01*
X240075639Y-127390035D01*
X239961532Y-127437300D01*
X239858839Y-127505917D01*
X239771505Y-127593251D01*
X239702888Y-127695944D01*
X239655623Y-127810051D01*
X239631528Y-127931186D01*
X239631528Y-128054694D01*
X239655623Y-128175829D01*
X239688806Y-128255940D01*
X238422292Y-128255940D01*
X238406692Y-126965581D01*
X238405569Y-126950199D01*
X238399850Y-126925968D01*
X238389514Y-126903319D01*
X238374958Y-126883121D01*
X238356741Y-126866151D01*
X238335563Y-126853062D01*
X238312239Y-126844355D01*
X238287664Y-126840366D01*
X236485116Y-126727117D01*
X236446045Y-126344224D01*
X236437274Y-126309098D01*
X236425647Y-126287084D01*
X236409948Y-126267760D01*
X236390782Y-126251871D01*
X236368884Y-126240026D01*
X236345095Y-126232681D01*
X236320331Y-126230118D01*
X234054081Y-126218868D01*
X234028942Y-126221253D01*
X234005102Y-126228429D01*
X233983120Y-126240118D01*
X233963841Y-126255871D01*
X233948006Y-126275082D01*
X233936223Y-126297014D01*
X233928945Y-126320822D01*
X233926451Y-126345594D01*
X233922354Y-128255940D01*
X233679120Y-128255940D01*
X233679120Y-127511425D01*
X233672837Y-127447630D01*
X233654229Y-127386288D01*
X233624011Y-127329754D01*
X233583344Y-127280201D01*
X233533791Y-127239534D01*
X233477257Y-127209316D01*
X233415915Y-127190708D01*
X233352120Y-127184425D01*
X233289120Y-127184425D01*
X233289120Y-119459940D01*
X234722120Y-119459940D01*
X234785915Y-119453657D01*
X234847257Y-119435049D01*
X234903791Y-119404831D01*
X234953344Y-119364164D01*
X234994011Y-119314611D01*
X235024229Y-119258077D01*
X235042837Y-119196735D01*
X235049120Y-119132940D01*
X235049120Y-117152940D01*
X235042837Y-117089145D01*
X235024229Y-117027803D01*
X234994011Y-116971269D01*
X234953344Y-116921716D01*
X234903791Y-116881049D01*
X234847257Y-116850831D01*
X234785915Y-116832223D01*
X234722120Y-116825940D01*
X232102120Y-116825940D01*
X232038325Y-116832223D01*
X231976983Y-116850831D01*
X231920449Y-116881049D01*
X231870896Y-116921716D01*
X231830229Y-116971269D01*
X231827733Y-116975939D01*
X230671120Y-116975939D01*
X229560120Y-115864939D01*
X239134897Y-115864939D01*
X241620121Y-118350164D01*
X241620122Y-124838226D01*
X241585097Y-124873251D01*
X241516480Y-124975944D01*
X241469215Y-125090051D01*
X241445120Y-125211186D01*
X241445120Y-125334694D01*
X241469215Y-125455829D01*
X241516480Y-125569936D01*
X241585097Y-125672629D01*
X241672431Y-125759963D01*
X241775124Y-125828580D01*
X241889231Y-125875845D01*
X242010366Y-125899940D01*
X242133874Y-125899940D01*
X242255009Y-125875845D01*
X242369116Y-125828580D01*
X242471809Y-125759963D01*
X242559143Y-125672629D01*
X242627760Y-125569936D01*
X242675025Y-125455829D01*
X242699120Y-125334694D01*
X242699120Y-125211186D01*
X242675025Y-125090051D01*
X242627760Y-124975944D01*
X242559143Y-124873251D01*
X242524119Y-124838227D01*
X242524119Y-121979940D01*
X242775120Y-121979940D01*
X242775121Y-124767509D01*
X242749215Y-124830051D01*
X242725120Y-124951186D01*
X242725120Y-125074694D01*
X242749215Y-125195829D01*
X242796480Y-125309936D01*
X242865097Y-125412629D01*
X242952431Y-125499963D01*
X243055124Y-125568580D01*
X243169231Y-125615845D01*
X243290366Y-125639940D01*
X243413874Y-125639940D01*
X243535009Y-125615845D01*
X243649116Y-125568580D01*
X243751809Y-125499963D01*
X243839143Y-125412629D01*
X243907760Y-125309936D01*
X243955025Y-125195829D01*
X243979120Y-125074694D01*
X243979120Y-124951186D01*
X243955025Y-124830051D01*
X243929120Y-124767511D01*
X243929120Y-121806344D01*
X243944229Y-121778077D01*
X243962837Y-121716735D01*
X243969120Y-121652940D01*
X243969120Y-120552940D01*
X243962837Y-120489145D01*
X243944229Y-120427803D01*
X243914011Y-120371269D01*
X243873344Y-120321716D01*
X243823791Y-120281049D01*
X243767257Y-120250831D01*
X243705915Y-120232223D01*
X243642120Y-120225940D01*
X242524119Y-120225940D01*
X242524119Y-118185134D01*
X242526305Y-118162939D01*
X242524119Y-118140744D01*
X242524119Y-118140735D01*
X242517579Y-118074333D01*
X242491733Y-117989131D01*
X242449762Y-117910608D01*
X242393278Y-117841782D01*
X242376031Y-117827628D01*
X241070508Y-116522105D01*
X245888688Y-116522105D01*
X245888688Y-117177467D01*
X246016543Y-117820236D01*
X246267339Y-118425711D01*
X246631438Y-118970625D01*
X247094849Y-119434036D01*
X247639763Y-119798135D01*
X248245238Y-120048931D01*
X248888007Y-120176786D01*
X249543369Y-120176786D01*
X250186138Y-120048931D01*
X250791613Y-119798135D01*
X251336527Y-119434036D01*
X251799938Y-118970625D01*
X252164037Y-118425711D01*
X252414833Y-117820236D01*
X252542688Y-117177467D01*
X252542688Y-116522105D01*
X252414833Y-115879336D01*
X252164037Y-115273861D01*
X251799938Y-114728947D01*
X251336527Y-114265536D01*
X250791613Y-113901437D01*
X250186138Y-113650641D01*
X249543369Y-113522786D01*
X248888007Y-113522786D01*
X248245238Y-113650641D01*
X247639763Y-113901437D01*
X247094849Y-114265536D01*
X246631438Y-114728947D01*
X246267339Y-115273861D01*
X246016543Y-115879336D01*
X245888688Y-116522105D01*
X241070508Y-116522105D01*
X239657438Y-115109036D01*
X239643278Y-115091782D01*
X239574452Y-115035298D01*
X239495929Y-114993327D01*
X239410727Y-114967481D01*
X239344325Y-114960941D01*
X239344315Y-114960941D01*
X239322120Y-114958755D01*
X239299925Y-114960941D01*
X238594536Y-114960941D01*
X239306035Y-114793029D01*
X240804247Y-114271873D01*
X242240932Y-113599432D01*
X243600861Y-112782834D01*
X244869619Y-111830734D01*
X246033757Y-110753226D01*
X247080934Y-109561730D01*
X248000050Y-108268878D01*
X248195837Y-107922940D01*
X255523538Y-107922940D01*
X255523538Y-109922940D01*
X255529852Y-109987043D01*
X255548550Y-110048683D01*
X255578914Y-110105490D01*
X255619777Y-110155283D01*
X255669570Y-110196146D01*
X255726377Y-110226510D01*
X255788017Y-110245208D01*
X255852120Y-110251522D01*
X262852120Y-110251522D01*
X262916223Y-110245208D01*
X262977863Y-110226510D01*
X263034670Y-110196146D01*
X263084463Y-110155283D01*
X263125326Y-110105490D01*
X263155690Y-110048683D01*
X263174388Y-109987043D01*
X263180702Y-109922940D01*
X263180702Y-107922940D01*
X263174388Y-107858837D01*
X263155690Y-107797197D01*
X263125326Y-107740390D01*
X263084463Y-107690597D01*
X263034670Y-107649734D01*
X262977863Y-107619370D01*
X262916223Y-107600672D01*
X262852120Y-107594358D01*
X255852120Y-107594358D01*
X255788017Y-107600672D01*
X255726377Y-107619370D01*
X255669570Y-107649734D01*
X255619777Y-107690597D01*
X255578914Y-107740390D01*
X255548550Y-107797197D01*
X255529852Y-107858837D01*
X255523538Y-107922940D01*
X248195837Y-107922940D01*
X248781362Y-106888374D01*
X249416589Y-105434851D01*
X249898996Y-103923718D01*
X250223470Y-102370992D01*
X250386572Y-100793133D01*
X250386572Y-99206867D01*
X250223470Y-97629008D01*
X249898996Y-96076282D01*
X249416589Y-94565149D01*
X248781362Y-93111626D01*
X248000050Y-91731122D01*
X247080934Y-90438270D01*
X246033757Y-89246774D01*
X244869619Y-88169266D01*
X243600861Y-87217166D01*
X242240932Y-86400568D01*
X240804247Y-85728127D01*
X239306035Y-85206971D01*
X237762179Y-84842625D01*
X236189042Y-84638951D01*
X234603302Y-84598108D01*
X233021767Y-84720529D01*
X231461201Y-85004916D01*
X229938148Y-85448254D01*
X228468751Y-86045845D01*
X227068587Y-86791354D01*
X225752499Y-87676877D01*
X224534436Y-88693028D01*
X223427310Y-89829036D01*
X222442858Y-91072859D01*
X221591515Y-92411312D01*
X220882305Y-93830207D01*
X220322747Y-95314503D01*
X219918770Y-96848466D01*
X219674659Y-98415837D01*
X219593000Y-100000000D01*
X219674659Y-101584163D01*
X219918770Y-103151534D01*
X220322747Y-104685497D01*
X220882305Y-106169793D01*
X221591515Y-107588688D01*
X222442858Y-108927141D01*
X223427310Y-110170964D01*
X224534436Y-111306972D01*
X225752499Y-112323123D01*
X226536956Y-112850941D01*
X222754314Y-112850941D01*
X222732119Y-112848755D01*
X222709924Y-112850941D01*
X222709915Y-112850941D01*
X222643513Y-112857481D01*
X222558311Y-112883327D01*
X222479788Y-112925298D01*
X222410962Y-112981782D01*
X222396806Y-112999031D01*
X221758211Y-113637627D01*
X221740963Y-113651782D01*
X221684479Y-113720608D01*
X221642508Y-113799131D01*
X221616662Y-113884333D01*
X221607935Y-113972940D01*
X221610122Y-113995145D01*
X221610121Y-116460832D01*
X221550789Y-116549628D01*
X221507294Y-116654635D01*
X221485120Y-116766110D01*
X221485120Y-116879770D01*
X221507294Y-116991245D01*
X221550789Y-117096252D01*
X221610121Y-117185048D01*
X221610122Y-118484212D01*
X221603935Y-118490399D01*
X221540789Y-118584903D01*
X221497294Y-118689910D01*
X221475120Y-118801385D01*
X221475120Y-118915045D01*
X221488284Y-118981225D01*
X212301708Y-118981225D01*
X212269519Y-118949036D01*
X212255359Y-118931782D01*
X212186533Y-118875298D01*
X212108010Y-118833327D01*
X212022808Y-118807481D01*
X211956406Y-118800941D01*
X211956396Y-118800941D01*
X211934201Y-118798755D01*
X211912006Y-118800941D01*
X211818872Y-118800941D01*
X211775164Y-118695421D01*
X211646356Y-118502646D01*
X211482414Y-118338704D01*
X211289639Y-118209896D01*
X211075438Y-118121171D01*
X210848044Y-118075940D01*
X210616196Y-118075940D01*
X210388802Y-118121171D01*
X210174601Y-118209896D01*
X209981826Y-118338704D01*
X209817884Y-118502646D01*
X209689076Y-118695421D01*
X209600351Y-118909622D01*
X209555120Y-119137016D01*
X209555120Y-119368864D01*
X209600351Y-119596258D01*
X209689076Y-119810459D01*
X209817884Y-120003234D01*
X209981826Y-120167176D01*
X210174601Y-120295984D01*
X210388802Y-120384709D01*
X210616196Y-120429940D01*
X210848044Y-120429940D01*
X211075438Y-120384709D01*
X211289639Y-120295984D01*
X211482414Y-120167176D01*
X211646356Y-120003234D01*
X211775164Y-119810459D01*
X211797107Y-119757484D01*
X211862153Y-119810866D01*
X211940676Y-119852837D01*
X212015231Y-119875453D01*
X211970951Y-119911793D01*
X211956796Y-119929041D01*
X211180958Y-120704879D01*
X211075438Y-120661171D01*
X210848044Y-120615940D01*
X210616196Y-120615940D01*
X210388802Y-120661171D01*
X210174601Y-120749896D01*
X209981826Y-120878704D01*
X209817884Y-121042646D01*
X209689076Y-121235421D01*
X209600351Y-121449622D01*
X209555120Y-121677016D01*
X209555120Y-121908864D01*
X209600351Y-122136258D01*
X209689076Y-122350459D01*
X209817884Y-122543234D01*
X209981826Y-122707176D01*
X210174601Y-122835984D01*
X210388802Y-122924709D01*
X210616196Y-122969940D01*
X210848044Y-122969940D01*
X211075438Y-122924709D01*
X211289639Y-122835984D01*
X211482414Y-122707176D01*
X211646356Y-122543234D01*
X211775164Y-122350459D01*
X211863889Y-122136258D01*
X211909120Y-121908864D01*
X211909120Y-121677016D01*
X211863889Y-121449622D01*
X211820181Y-121344102D01*
X212479333Y-120684950D01*
X228687400Y-120684950D01*
X228722424Y-120719974D01*
X228825117Y-120788591D01*
X228939224Y-120835856D01*
X229060359Y-120859951D01*
X229183867Y-120859951D01*
X229305002Y-120835856D01*
X229419109Y-120788591D01*
X229521802Y-120719974D01*
X229609136Y-120632640D01*
X229677753Y-120529947D01*
X229725018Y-120415840D01*
X229749113Y-120294705D01*
X229749113Y-120171197D01*
X229725018Y-120050062D01*
X229677753Y-119935955D01*
X229609136Y-119833262D01*
X229596019Y-119820145D01*
X229656105Y-119730220D01*
X229703370Y-119616113D01*
X229727465Y-119494978D01*
X229727465Y-119371470D01*
X229703370Y-119250335D01*
X229656105Y-119136228D01*
X229587488Y-119033535D01*
X229500154Y-118946201D01*
X229397461Y-118877584D01*
X229283354Y-118830319D01*
X229162219Y-118806224D01*
X229038711Y-118806224D01*
X228917576Y-118830319D01*
X228803469Y-118877584D01*
X228700776Y-118946201D01*
X228665752Y-118981225D01*
X226595956Y-118981225D01*
X226609120Y-118915045D01*
X226609120Y-118801385D01*
X226586946Y-118689910D01*
X226543451Y-118584903D01*
X226480305Y-118490399D01*
X226444119Y-118454213D01*
X226444119Y-117135048D01*
X226503451Y-117046252D01*
X226546946Y-116941245D01*
X226569120Y-116829770D01*
X226569120Y-116716110D01*
X226546946Y-116604635D01*
X226503451Y-116499628D01*
X226440305Y-116405124D01*
X226359936Y-116324755D01*
X226331778Y-116305940D01*
X228036120Y-116305940D01*
X228099915Y-116299657D01*
X228161257Y-116281049D01*
X228217791Y-116250831D01*
X228267344Y-116210164D01*
X228270048Y-116206869D01*
X230004080Y-117940901D01*
X230022145Y-117962913D01*
X230110004Y-118035018D01*
X230210243Y-118088596D01*
X230254901Y-118102143D01*
X230319007Y-118121590D01*
X230432119Y-118132730D01*
X230460458Y-118129939D01*
X231759848Y-118129939D01*
X231694376Y-118252430D01*
X231647087Y-118408320D01*
X231631120Y-118570440D01*
X231635121Y-118611064D01*
X231635120Y-125482316D01*
X231635120Y-126353563D01*
X231635121Y-126353569D01*
X231635120Y-126872315D01*
X231635120Y-127184425D01*
X231552120Y-127184425D01*
X231488325Y-127190708D01*
X231426983Y-127209316D01*
X231370449Y-127239534D01*
X231320896Y-127280201D01*
X231280229Y-127329754D01*
X231250011Y-127386288D01*
X231231403Y-127447630D01*
X231225120Y-127511425D01*
X231225120Y-128255940D01*
X217849120Y-128255940D01*
X217849120Y-124062940D01*
X217842837Y-123999145D01*
X217824229Y-123937803D01*
X217794011Y-123881269D01*
X217753344Y-123831716D01*
X217703791Y-123791049D01*
X217647257Y-123760831D01*
X217585915Y-123742223D01*
X217522120Y-123735940D01*
X214452120Y-123735940D01*
X214388325Y-123742223D01*
X214326983Y-123760831D01*
X214270449Y-123791049D01*
X214220896Y-123831716D01*
X214180229Y-123881269D01*
X214150011Y-123937803D01*
X214131403Y-123999145D01*
X214125120Y-124062940D01*
X214125120Y-129912940D01*
X214131403Y-129976735D01*
X214150011Y-130038077D01*
X214180229Y-130094611D01*
X214220896Y-130144164D01*
X214270449Y-130184831D01*
X214326983Y-130215049D01*
X214388325Y-130233657D01*
X214452120Y-130239940D01*
X217522120Y-130239940D01*
X217585915Y-130233657D01*
X217647257Y-130215049D01*
X217703791Y-130184831D01*
X217753344Y-130144164D01*
X217794011Y-130094611D01*
X217824229Y-130038077D01*
X217842837Y-129976735D01*
X217849120Y-129912940D01*
X217849120Y-129909940D01*
X219104874Y-129909940D01*
X219061826Y-129938704D01*
X218897884Y-130102646D01*
X218769076Y-130295421D01*
X218680351Y-130509622D01*
X218635120Y-130737016D01*
X218635120Y-130968864D01*
X218680351Y-131196258D01*
X218769076Y-131410459D01*
X218897884Y-131603234D01*
X219061826Y-131767176D01*
X219254601Y-131895984D01*
X219468802Y-131984709D01*
X219696196Y-132029940D01*
X219928044Y-132029940D01*
X220155438Y-131984709D01*
X220369639Y-131895984D01*
X220562414Y-131767176D01*
X220726356Y-131603234D01*
X220855164Y-131410459D01*
X220943889Y-131196258D01*
X220989120Y-130968864D01*
X220989120Y-130737016D01*
X220943889Y-130509622D01*
X220855164Y-130295421D01*
X220726356Y-130102646D01*
X220562414Y-129938704D01*
X220519366Y-129909940D01*
X221644874Y-129909940D01*
X221601826Y-129938704D01*
X221437884Y-130102646D01*
X221309076Y-130295421D01*
X221220351Y-130509622D01*
X221175120Y-130737016D01*
X221175120Y-130968864D01*
X221220351Y-131196258D01*
X221309076Y-131410459D01*
X221437884Y-131603234D01*
X221601826Y-131767176D01*
X221794601Y-131895984D01*
X222008802Y-131984709D01*
X222236196Y-132029940D01*
X222468044Y-132029940D01*
X222695438Y-131984709D01*
X222909639Y-131895984D01*
X223102414Y-131767176D01*
X223266356Y-131603234D01*
X223395164Y-131410459D01*
X223483889Y-131196258D01*
X223529120Y-130968864D01*
X223529120Y-130737016D01*
X223483889Y-130509622D01*
X223395164Y-130295421D01*
X223266356Y-130102646D01*
X223102414Y-129938704D01*
X223059366Y-129909940D01*
X224184874Y-129909940D01*
X224141826Y-129938704D01*
X223977884Y-130102646D01*
X223849076Y-130295421D01*
X223760351Y-130509622D01*
X223715120Y-130737016D01*
X223715120Y-130968864D01*
X223760351Y-131196258D01*
X223849076Y-131410459D01*
X223977884Y-131603234D01*
X224141826Y-131767176D01*
X224334601Y-131895984D01*
X224548802Y-131984709D01*
X224776196Y-132029940D01*
X225008044Y-132029940D01*
X225235438Y-131984709D01*
X225449639Y-131895984D01*
X225642414Y-131767176D01*
X225806356Y-131603234D01*
X225935164Y-131410459D01*
X226023889Y-131196258D01*
X226069120Y-130968864D01*
X226069120Y-130737016D01*
X226023889Y-130509622D01*
X225935164Y-130295421D01*
X225806356Y-130102646D01*
X225642414Y-129938704D01*
X225599366Y-129909940D01*
X226724874Y-129909940D01*
X226681826Y-129938704D01*
X226517884Y-130102646D01*
X226389076Y-130295421D01*
X226300351Y-130509622D01*
X226255120Y-130737016D01*
X226255120Y-130968864D01*
X226300351Y-131196258D01*
X226389076Y-131410459D01*
X226517884Y-131603234D01*
X226681826Y-131767176D01*
X226874601Y-131895984D01*
X227088802Y-131984709D01*
X227316196Y-132029940D01*
X227548044Y-132029940D01*
X227775438Y-131984709D01*
X227989639Y-131895984D01*
X228182414Y-131767176D01*
X228346356Y-131603234D01*
X228475164Y-131410459D01*
X228563889Y-131196258D01*
X228609120Y-130968864D01*
X228609120Y-130737016D01*
X228563889Y-130509622D01*
X228475164Y-130295421D01*
X228346356Y-130102646D01*
X228182414Y-129938704D01*
X228139366Y-129909940D01*
X231225120Y-129909940D01*
X231225120Y-131791425D01*
X231231403Y-131855220D01*
X231250011Y-131916562D01*
X231280229Y-131973096D01*
X231320896Y-132022649D01*
X231370449Y-132063316D01*
X231426983Y-132093534D01*
X231488325Y-132112142D01*
X231552120Y-132118425D01*
X233352120Y-132118425D01*
X233415915Y-132112142D01*
X233477257Y-132093534D01*
X233533791Y-132063316D01*
X233583344Y-132022649D01*
X233624011Y-131973096D01*
X233654229Y-131916562D01*
X233672837Y-131855220D01*
X233679120Y-131791425D01*
X233679120Y-131784410D01*
X233684388Y-131767043D01*
X233690702Y-131702940D01*
X233690702Y-130002940D01*
X233684388Y-129938837D01*
X233679120Y-129921470D01*
X233679120Y-129909940D01*
X233918807Y-129909940D01*
X233913087Y-132577045D01*
X212717726Y-132532025D01*
X211994326Y-132050737D01*
X209994037Y-130528430D01*
X208094327Y-128882321D01*
X206302844Y-127119040D01*
X204626801Y-125245686D01*
X203072949Y-123269802D01*
X201647544Y-121199345D01*
X200356325Y-119042651D01*
X199204491Y-116808406D01*
X198790713Y-115862940D01*
X209553538Y-115862940D01*
X209553538Y-117562940D01*
X209559852Y-117627043D01*
X209578550Y-117688683D01*
X209608914Y-117745490D01*
X209649777Y-117795283D01*
X209699570Y-117836146D01*
X209756377Y-117866510D01*
X209818017Y-117885208D01*
X209882120Y-117891522D01*
X211582120Y-117891522D01*
X211646223Y-117885208D01*
X211707863Y-117866510D01*
X211764670Y-117836146D01*
X211814463Y-117795283D01*
X211855326Y-117745490D01*
X211885690Y-117688683D01*
X211904388Y-117627043D01*
X211910702Y-117562940D01*
X211910702Y-115862940D01*
X211904388Y-115798837D01*
X211885690Y-115737197D01*
X211855326Y-115680390D01*
X211814463Y-115630597D01*
X211764670Y-115589734D01*
X211707863Y-115559370D01*
X211646223Y-115540672D01*
X211582120Y-115534358D01*
X209882120Y-115534358D01*
X209818017Y-115540672D01*
X209756377Y-115559370D01*
X209699570Y-115589734D01*
X209649777Y-115630597D01*
X209608914Y-115680390D01*
X209578550Y-115737197D01*
X209559852Y-115798837D01*
X209553538Y-115862940D01*
X198790713Y-115862940D01*
X198196681Y-114505605D01*
X197336953Y-112143521D01*
X196628768Y-109731665D01*
X196074979Y-107279750D01*
X195677814Y-104797647D01*
X195556341Y-103525519D01*
X210179349Y-103525519D01*
X210179349Y-104180881D01*
X210307204Y-104823650D01*
X210558000Y-105429125D01*
X210922099Y-105974039D01*
X211385510Y-106437450D01*
X211930424Y-106801549D01*
X212535899Y-107052345D01*
X213178668Y-107180200D01*
X213834030Y-107180200D01*
X214476799Y-107052345D01*
X215082274Y-106801549D01*
X215627188Y-106437450D01*
X216090599Y-105974039D01*
X216454698Y-105429125D01*
X216705494Y-104823650D01*
X216833349Y-104180881D01*
X216833349Y-103525519D01*
X216705494Y-102882750D01*
X216454698Y-102277275D01*
X216090599Y-101732361D01*
X215627188Y-101268950D01*
X215082274Y-100904851D01*
X214476799Y-100654055D01*
X213834030Y-100526200D01*
X213178668Y-100526200D01*
X212535899Y-100654055D01*
X211930424Y-100904851D01*
X211385510Y-101268950D01*
X210922099Y-101732361D01*
X210558000Y-102277275D01*
X210307204Y-102882750D01*
X210179349Y-103525519D01*
X195556341Y-103525519D01*
X195438874Y-102295352D01*
X195359120Y-99782940D01*
X195438874Y-97270528D01*
X195677814Y-94768233D01*
X196074979Y-92286130D01*
X196628768Y-89834215D01*
X197336953Y-87422359D01*
X198196681Y-85060275D01*
X198274290Y-84882940D01*
X208453538Y-84882940D01*
X208453538Y-86882940D01*
X208459852Y-86947043D01*
X208478550Y-87008683D01*
X208508914Y-87065490D01*
X208549777Y-87115283D01*
X208599570Y-87156146D01*
X208656377Y-87186510D01*
X208718017Y-87205208D01*
X208782120Y-87211522D01*
X215782120Y-87211522D01*
X215846223Y-87205208D01*
X215907863Y-87186510D01*
X215964670Y-87156146D01*
X216014463Y-87115283D01*
X216055326Y-87065490D01*
X216085690Y-87008683D01*
X216104388Y-86947043D01*
X216110702Y-86882940D01*
X216110702Y-84882940D01*
X216104388Y-84818837D01*
X216085690Y-84757197D01*
X216055326Y-84700390D01*
X216014463Y-84650597D01*
X215964670Y-84609734D01*
X215907863Y-84579370D01*
X215846223Y-84560672D01*
X215782120Y-84554358D01*
X208782120Y-84554358D01*
X208718017Y-84560672D01*
X208656377Y-84579370D01*
X208599570Y-84609734D01*
X208549777Y-84650597D01*
X208508914Y-84700390D01*
X208478550Y-84757197D01*
X208459852Y-84818837D01*
X208453538Y-84882940D01*
X198274290Y-84882940D01*
X199204491Y-82757474D01*
X200356325Y-80523229D01*
X200739667Y-79882940D01*
X208453538Y-79882940D01*
X208453538Y-81882940D01*
X208459852Y-81947043D01*
X208478550Y-82008683D01*
X208508914Y-82065490D01*
X208549777Y-82115283D01*
X208599570Y-82156146D01*
X208656377Y-82186510D01*
X208718017Y-82205208D01*
X208782120Y-82211522D01*
X215782120Y-82211522D01*
X215846223Y-82205208D01*
X215907863Y-82186510D01*
X215964670Y-82156146D01*
X216014463Y-82115283D01*
X216055326Y-82065490D01*
X216085690Y-82008683D01*
X216104388Y-81947043D01*
X216110702Y-81882940D01*
X216110702Y-79882940D01*
X216104388Y-79818837D01*
X216085690Y-79757197D01*
X216055326Y-79700390D01*
X216014463Y-79650597D01*
X215964670Y-79609734D01*
X215907863Y-79579370D01*
X215846223Y-79560672D01*
X215782120Y-79554358D01*
X213109120Y-79554358D01*
X213109120Y-75915493D01*
X214394674Y-74629940D01*
X220465566Y-74629940D01*
X218466068Y-76629439D01*
X218434515Y-76655334D01*
X218408620Y-76686887D01*
X218408618Y-76686889D01*
X218331168Y-76781261D01*
X218254376Y-76924930D01*
X218207087Y-77080820D01*
X218191120Y-77242940D01*
X218195121Y-77283564D01*
X218195120Y-84862328D01*
X218191120Y-84902942D01*
X218195120Y-84943556D01*
X218195120Y-84943565D01*
X218205121Y-85045109D01*
X218205120Y-86900385D01*
X215329567Y-89775940D01*
X212322744Y-89775940D01*
X212282120Y-89771939D01*
X212241496Y-89775940D01*
X212120000Y-89787906D01*
X211964110Y-89835195D01*
X211820441Y-89911988D01*
X211694514Y-90015334D01*
X211591168Y-90141261D01*
X211514375Y-90284930D01*
X211467086Y-90440820D01*
X211451119Y-90602940D01*
X211455121Y-90643574D01*
X211455121Y-91454358D01*
X210282120Y-91454358D01*
X210218017Y-91460672D01*
X210156377Y-91479370D01*
X210099570Y-91509734D01*
X210049777Y-91550597D01*
X210008914Y-91600390D01*
X209978550Y-91657197D01*
X209959852Y-91718837D01*
X209953538Y-91782940D01*
X209953538Y-94782940D01*
X209959852Y-94847043D01*
X209978550Y-94908683D01*
X210008914Y-94965490D01*
X210049777Y-95015283D01*
X210099570Y-95056146D01*
X210156377Y-95086510D01*
X210218017Y-95105208D01*
X210282120Y-95111522D01*
X214282120Y-95111522D01*
X214346223Y-95105208D01*
X214407863Y-95086510D01*
X214464670Y-95056146D01*
X214514463Y-95015283D01*
X214555326Y-94965490D01*
X214585690Y-94908683D01*
X214604388Y-94847043D01*
X214610702Y-94782940D01*
X214610702Y-91782940D01*
X214604388Y-91718837D01*
X214585690Y-91657197D01*
X214555326Y-91600390D01*
X214514463Y-91550597D01*
X214464670Y-91509734D01*
X214407863Y-91479370D01*
X214346223Y-91460672D01*
X214282120Y-91454358D01*
X213109120Y-91454358D01*
X213109120Y-91429940D01*
X215631506Y-91429940D01*
X215672120Y-91433940D01*
X215712734Y-91429940D01*
X215712744Y-91429940D01*
X215834240Y-91417974D01*
X215990130Y-91370685D01*
X216133799Y-91293892D01*
X216259726Y-91190546D01*
X216285625Y-91158988D01*
X219588180Y-87856435D01*
X219619726Y-87830546D01*
X219645616Y-87798999D01*
X219645623Y-87798992D01*
X219723072Y-87704620D01*
X219799865Y-87560951D01*
X219841906Y-87422359D01*
X219847154Y-87405060D01*
X219859120Y-87283564D01*
X219859120Y-87283554D01*
X219863120Y-87242940D01*
X219859120Y-87202326D01*
X219859120Y-84953555D01*
X219863120Y-84912941D01*
X219859120Y-84872327D01*
X219859120Y-84872318D01*
X219849120Y-84770784D01*
X219849120Y-79099410D01*
X239290057Y-79099410D01*
X239290057Y-79754772D01*
X239417912Y-80397541D01*
X239668708Y-81003016D01*
X240032807Y-81547930D01*
X240496218Y-82011341D01*
X241041132Y-82375440D01*
X241646607Y-82626236D01*
X242289376Y-82754091D01*
X242944738Y-82754091D01*
X243587507Y-82626236D01*
X244192982Y-82375440D01*
X244737896Y-82011341D01*
X245201307Y-81547930D01*
X245565406Y-81003016D01*
X245816202Y-80397541D01*
X245944057Y-79754772D01*
X245944057Y-79099410D01*
X245816202Y-78456641D01*
X245565406Y-77851166D01*
X245201307Y-77306252D01*
X244737896Y-76842841D01*
X244192982Y-76478742D01*
X243587507Y-76227946D01*
X242944738Y-76100091D01*
X242289376Y-76100091D01*
X241646607Y-76227946D01*
X241041132Y-76478742D01*
X240496218Y-76842841D01*
X240032807Y-77306252D01*
X239668708Y-77851166D01*
X239417912Y-78456641D01*
X239290057Y-79099410D01*
X219849120Y-79099410D01*
X219849120Y-77585493D01*
X221584674Y-75849940D01*
X245769007Y-75849940D01*
X254874800Y-84955735D01*
X254874801Y-94071424D01*
X254886767Y-94192920D01*
X254912900Y-94279069D01*
X254912901Y-96456484D01*
X254924867Y-96577980D01*
X254972156Y-96733870D01*
X255048949Y-96877539D01*
X255152295Y-97003466D01*
X255278222Y-97106812D01*
X255421891Y-97183605D01*
X255577781Y-97230894D01*
X255739900Y-97246861D01*
X255902020Y-97230894D01*
X256057910Y-97183605D01*
X256201579Y-97106812D01*
X256327506Y-97003466D01*
X256396884Y-96918928D01*
X256434995Y-96965366D01*
X256560922Y-97068712D01*
X256704591Y-97145505D01*
X256860481Y-97192794D01*
X257022600Y-97208761D01*
X257184720Y-97192794D01*
X257340610Y-97145505D01*
X257484279Y-97068712D01*
X257610206Y-96965366D01*
X257653316Y-96912837D01*
X257657529Y-96920719D01*
X257760875Y-97046646D01*
X257886802Y-97149992D01*
X258030471Y-97226785D01*
X258186361Y-97274074D01*
X258348480Y-97290041D01*
X258510600Y-97274074D01*
X258666490Y-97226785D01*
X258810159Y-97149992D01*
X258936086Y-97046646D01*
X259039432Y-96920719D01*
X259116225Y-96777050D01*
X259163514Y-96621160D01*
X259175480Y-96499664D01*
X259175480Y-94122256D01*
X259174603Y-94113350D01*
X259175480Y-94104444D01*
X259175480Y-83906330D01*
X259179480Y-83865719D01*
X259175480Y-83825108D01*
X259175480Y-83825096D01*
X259163514Y-83703600D01*
X259116225Y-83547710D01*
X259048965Y-83421876D01*
X259039431Y-83404039D01*
X258961982Y-83309667D01*
X258961976Y-83309661D01*
X258936086Y-83278114D01*
X258904540Y-83252225D01*
X247662825Y-72010512D01*
X247636926Y-71978954D01*
X247510999Y-71875608D01*
X247367330Y-71798815D01*
X247211440Y-71751526D01*
X247089944Y-71739560D01*
X247089934Y-71739560D01*
X247049320Y-71735560D01*
X247008706Y-71739560D01*
X228058294Y-71739560D01*
X225829120Y-69510387D01*
X225829120Y-69181522D01*
X226202120Y-69181522D01*
X226266223Y-69175208D01*
X226327863Y-69156510D01*
X226384670Y-69126146D01*
X226434463Y-69085283D01*
X226475326Y-69035490D01*
X226505690Y-68978683D01*
X226524388Y-68917043D01*
X226530702Y-68852940D01*
X226530702Y-67222544D01*
X231645120Y-67222544D01*
X231645120Y-67523336D01*
X231703801Y-67818350D01*
X231818910Y-68096246D01*
X231986021Y-68346346D01*
X232198714Y-68559039D01*
X232448814Y-68726150D01*
X232726710Y-68841259D01*
X233021724Y-68899940D01*
X233322516Y-68899940D01*
X233617530Y-68841259D01*
X233895426Y-68726150D01*
X234145526Y-68559039D01*
X234358219Y-68346346D01*
X234525330Y-68096246D01*
X234640439Y-67818350D01*
X234699120Y-67523336D01*
X234699120Y-67222544D01*
X235145120Y-67222544D01*
X235145120Y-67523336D01*
X235203801Y-67818350D01*
X235318910Y-68096246D01*
X235486021Y-68346346D01*
X235698714Y-68559039D01*
X235948814Y-68726150D01*
X236226710Y-68841259D01*
X236521724Y-68899940D01*
X236822516Y-68899940D01*
X237117530Y-68841259D01*
X237395426Y-68726150D01*
X237645526Y-68559039D01*
X237858219Y-68346346D01*
X238025330Y-68096246D01*
X238140439Y-67818350D01*
X238199120Y-67523336D01*
X238199120Y-67222544D01*
X238140439Y-66927530D01*
X238025330Y-66649634D01*
X237858219Y-66399534D01*
X237645526Y-66186841D01*
X237624722Y-66172940D01*
X238643538Y-66172940D01*
X238643538Y-68572940D01*
X238649852Y-68637043D01*
X238668550Y-68698683D01*
X238698914Y-68755490D01*
X238739777Y-68805283D01*
X238789570Y-68846146D01*
X238846377Y-68876510D01*
X238908017Y-68895208D01*
X238972120Y-68901522D01*
X241372120Y-68901522D01*
X241436223Y-68895208D01*
X241497863Y-68876510D01*
X241554670Y-68846146D01*
X241604463Y-68805283D01*
X241645326Y-68755490D01*
X241675690Y-68698683D01*
X241694388Y-68637043D01*
X241700702Y-68572940D01*
X241700702Y-66172940D01*
X241694388Y-66108837D01*
X241675690Y-66047197D01*
X241645326Y-65990390D01*
X241604463Y-65940597D01*
X241554670Y-65899734D01*
X241497863Y-65869370D01*
X241436223Y-65850672D01*
X241372120Y-65844358D01*
X238972120Y-65844358D01*
X238908017Y-65850672D01*
X238846377Y-65869370D01*
X238789570Y-65899734D01*
X238739777Y-65940597D01*
X238698914Y-65990390D01*
X238668550Y-66047197D01*
X238649852Y-66108837D01*
X238643538Y-66172940D01*
X237624722Y-66172940D01*
X237395426Y-66019730D01*
X237117530Y-65904621D01*
X236822516Y-65845940D01*
X236521724Y-65845940D01*
X236226710Y-65904621D01*
X235948814Y-66019730D01*
X235698714Y-66186841D01*
X235486021Y-66399534D01*
X235318910Y-66649634D01*
X235203801Y-66927530D01*
X235145120Y-67222544D01*
X234699120Y-67222544D01*
X234640439Y-66927530D01*
X234525330Y-66649634D01*
X234358219Y-66399534D01*
X234145526Y-66186841D01*
X233895426Y-66019730D01*
X233617530Y-65904621D01*
X233322516Y-65845940D01*
X233021724Y-65845940D01*
X232726710Y-65904621D01*
X232448814Y-66019730D01*
X232198714Y-66186841D01*
X231986021Y-66399534D01*
X231818910Y-66649634D01*
X231703801Y-66927530D01*
X231645120Y-67222544D01*
X226530702Y-67222544D01*
X226530702Y-66452940D01*
X226524388Y-66388837D01*
X226505690Y-66327197D01*
X226475326Y-66270390D01*
X226434463Y-66220597D01*
X226384670Y-66179734D01*
X226327863Y-66149370D01*
X226266223Y-66130672D01*
X226202120Y-66124358D01*
X223802120Y-66124358D01*
X223738017Y-66130672D01*
X223676377Y-66149370D01*
X223619570Y-66179734D01*
X223569777Y-66220597D01*
X223528914Y-66270390D01*
X223498550Y-66327197D01*
X223479852Y-66388837D01*
X223473538Y-66452940D01*
X223473538Y-67685018D01*
X223466967Y-67706680D01*
X223451000Y-67868800D01*
X223466967Y-68030920D01*
X223473538Y-68052582D01*
X223473538Y-68852940D01*
X223479852Y-68917043D01*
X223498550Y-68978683D01*
X223528914Y-69035490D01*
X223569777Y-69085283D01*
X223619570Y-69126146D01*
X223676377Y-69156510D01*
X223738017Y-69175208D01*
X223802120Y-69181522D01*
X224175121Y-69181522D01*
X224175121Y-69812316D01*
X224171120Y-69852940D01*
X224187087Y-70015060D01*
X224234376Y-70170950D01*
X224311168Y-70314619D01*
X224388618Y-70408991D01*
X224414515Y-70440546D01*
X224446068Y-70466441D01*
X226955566Y-72975940D01*
X222329120Y-72975940D01*
X222329120Y-68936864D01*
X222475526Y-68839039D01*
X222688219Y-68626346D01*
X222855330Y-68376246D01*
X222970439Y-68098350D01*
X223029120Y-67803336D01*
X223029120Y-67502544D01*
X222970439Y-67207530D01*
X222855330Y-66929634D01*
X222688219Y-66679534D01*
X222475526Y-66466841D01*
X222225426Y-66299730D01*
X221947530Y-66184621D01*
X221652516Y-66125940D01*
X221351724Y-66125940D01*
X221056710Y-66184621D01*
X220778814Y-66299730D01*
X220528714Y-66466841D01*
X220316021Y-66679534D01*
X220148910Y-66929634D01*
X220033801Y-67207530D01*
X219975120Y-67502544D01*
X219975120Y-67803336D01*
X220033801Y-68098350D01*
X220148910Y-68376246D01*
X220316021Y-68626346D01*
X220528714Y-68839039D01*
X220675120Y-68936864D01*
X220675121Y-72975940D01*
X214092733Y-72975940D01*
X214052119Y-72971940D01*
X214011505Y-72975940D01*
X214011496Y-72975940D01*
X213890000Y-72987906D01*
X213734110Y-73035195D01*
X213696693Y-73055195D01*
X213590440Y-73111988D01*
X213539047Y-73154166D01*
X213464514Y-73215334D01*
X213438619Y-73246887D01*
X211726068Y-74959439D01*
X211694515Y-74985334D01*
X211668620Y-75016887D01*
X211668618Y-75016889D01*
X211591168Y-75111261D01*
X211514376Y-75254930D01*
X211467087Y-75410820D01*
X211451120Y-75572940D01*
X211455121Y-75613564D01*
X211455120Y-79554358D01*
X208782120Y-79554358D01*
X208718017Y-79560672D01*
X208656377Y-79579370D01*
X208599570Y-79609734D01*
X208549777Y-79650597D01*
X208508914Y-79700390D01*
X208478550Y-79757197D01*
X208459852Y-79818837D01*
X208453538Y-79882940D01*
X200739667Y-79882940D01*
X201647544Y-78366535D01*
X203072949Y-76296078D01*
X204626801Y-74320194D01*
X206302844Y-72446840D01*
X208094327Y-70683559D01*
X209994037Y-69037450D01*
X211994326Y-67515143D01*
X214087138Y-66122767D01*
X216264046Y-64865928D01*
X218516285Y-63749688D01*
X220834786Y-62778541D01*
X223210213Y-61956398D01*
X225633001Y-61286568D01*
X228093395Y-60771750D01*
X230581486Y-60414017D01*
X233087258Y-60214808D01*
X235600618Y-60174926D01*
X238111449Y-60294532D01*
G37*
X238111449Y-60294532D02*
X240609638Y-60573143D01*
X243085127Y-61009639D01*
X245527947Y-61602261D01*
X247928263Y-62348623D01*
X250276409Y-63245719D01*
X252562931Y-64289939D01*
X254778620Y-65477076D01*
X256914555Y-66802350D01*
X258962137Y-68260426D01*
X260913118Y-69845432D01*
X262759645Y-71550986D01*
X264494281Y-73370220D01*
X266110041Y-75295808D01*
X267600420Y-77319998D01*
X268959417Y-79434637D01*
X270181559Y-81631213D01*
X271261924Y-83900879D01*
X272196164Y-86234496D01*
X272980515Y-88622668D01*
X273611820Y-91055779D01*
X274087537Y-93524031D01*
X274405749Y-96017485D01*
X274565177Y-98526101D01*
X274565177Y-101039779D01*
X274405749Y-103548395D01*
X274087537Y-106041849D01*
X273611820Y-108510101D01*
X272980515Y-110943212D01*
X272196164Y-113331384D01*
X271689120Y-114597918D01*
X271689120Y-92255849D01*
X271694331Y-92202940D01*
X271673537Y-91991811D01*
X271611953Y-91788796D01*
X271511946Y-91601696D01*
X271377359Y-91437701D01*
X271336260Y-91403972D01*
X270261093Y-90328805D01*
X270227359Y-90287701D01*
X270063364Y-90153114D01*
X269876264Y-90053107D01*
X269673249Y-89991523D01*
X269515029Y-89975940D01*
X269515027Y-89975940D01*
X269462120Y-89970729D01*
X269409213Y-89975940D01*
X267759211Y-89975940D01*
X267600991Y-89991523D01*
X267397976Y-90053107D01*
X267210876Y-90153114D01*
X267046881Y-90287701D01*
X266912294Y-90451696D01*
X266812287Y-90638796D01*
X266750703Y-90841811D01*
X266729909Y-91052940D01*
X266750703Y-91264069D01*
X266812287Y-91467084D01*
X266912294Y-91654184D01*
X267046881Y-91818179D01*
X267210876Y-91952766D01*
X267397976Y-92052773D01*
X267600991Y-92114357D01*
X267759211Y-92129940D01*
X269016013Y-92129940D01*
X269535120Y-92649048D01*
X269535120Y-94283848D01*
X269535121Y-94283858D01*
X269535120Y-114612832D01*
X262925981Y-121221972D01*
X262884882Y-121255701D01*
X262843561Y-121306051D01*
X262750295Y-121419696D01*
X262650288Y-121606796D01*
X262588704Y-121809811D01*
X262567909Y-122020940D01*
X262573121Y-122073856D01*
X262573120Y-125238832D01*
X262163983Y-125647970D01*
X262163978Y-125647974D01*
X261283154Y-126528799D01*
X261182295Y-126651696D01*
X261082288Y-126838796D01*
X261020704Y-127041811D01*
X260999909Y-127252940D01*
X261020704Y-127464069D01*
X261082288Y-127667084D01*
X261182295Y-127854184D01*
X261316882Y-128018178D01*
X261480876Y-128152765D01*
X261667976Y-128252772D01*
X261870991Y-128314356D01*
X262082120Y-128335151D01*
X262293249Y-128314356D01*
X262496264Y-128252772D01*
X262510128Y-128245361D01*
X260913118Y-129720448D01*
X258962137Y-131305454D01*
X257107251Y-132626312D01*
X238474651Y-132586735D01*
X238442289Y-129909940D01*
X240885839Y-129909940D01*
X240918517Y-129916440D01*
X241061723Y-129916440D01*
X241094401Y-129909940D01*
X246300590Y-129909940D01*
X246177884Y-130032646D01*
X246049076Y-130225421D01*
X245960351Y-130439622D01*
X245915120Y-130667016D01*
X245915120Y-130898864D01*
X245960351Y-131126258D01*
X246049076Y-131340459D01*
X246177884Y-131533234D01*
X246341826Y-131697176D01*
X246534601Y-131825984D01*
X246748802Y-131914709D01*
X246976196Y-131959940D01*
X247208044Y-131959940D01*
X247435438Y-131914709D01*
X247649639Y-131825984D01*
X247842414Y-131697176D01*
X248006356Y-131533234D01*
X248135164Y-131340459D01*
X248223889Y-131126258D01*
X248269120Y-130898864D01*
X248269120Y-130667016D01*
X248223889Y-130439622D01*
X248135164Y-130225421D01*
X248006356Y-130032646D01*
X247883650Y-129909940D01*
X248455803Y-129909940D01*
X248453538Y-129932940D01*
X248453538Y-131632940D01*
X248459852Y-131697043D01*
X248478550Y-131758683D01*
X248508914Y-131815490D01*
X248549777Y-131865283D01*
X248599570Y-131906146D01*
X248656377Y-131936510D01*
X248718017Y-131955208D01*
X248782120Y-131961522D01*
X250482120Y-131961522D01*
X250546223Y-131955208D01*
X250607863Y-131936510D01*
X250664670Y-131906146D01*
X250714463Y-131865283D01*
X250755326Y-131815490D01*
X250785690Y-131758683D01*
X250804388Y-131697043D01*
X250810702Y-131632940D01*
X250810702Y-129932940D01*
X250808437Y-129909940D01*
X251975506Y-129909940D01*
X252016120Y-129913940D01*
X252056734Y-129909940D01*
X252056744Y-129909940D01*
X252178240Y-129897974D01*
X252334130Y-129850685D01*
X252477799Y-129773892D01*
X252603726Y-129670546D01*
X252629625Y-129638988D01*
X254504458Y-127764157D01*
X254536006Y-127738266D01*
X254561896Y-127706719D01*
X254561903Y-127706712D01*
X254639352Y-127612340D01*
X254716145Y-127468671D01*
X254744675Y-127374619D01*
X254763434Y-127312780D01*
X254775400Y-127191284D01*
X254775400Y-127191274D01*
X254779400Y-127150660D01*
X254775400Y-127110046D01*
X254775400Y-121450652D01*
X254827861Y-121577304D01*
X254907422Y-121696376D01*
X255008684Y-121797638D01*
X255127756Y-121877199D01*
X255260062Y-121932002D01*
X255400517Y-121959940D01*
X255543723Y-121959940D01*
X255684178Y-121932002D01*
X255816484Y-121877199D01*
X255917145Y-121809940D01*
X257023538Y-121809940D01*
X257023538Y-122822940D01*
X257029852Y-122887043D01*
X257048550Y-122948683D01*
X257078914Y-123005490D01*
X257119777Y-123055283D01*
X257169570Y-123096146D01*
X257226377Y-123126510D01*
X257288017Y-123145208D01*
X257352120Y-123151522D01*
X261352120Y-123151522D01*
X261416223Y-123145208D01*
X261477863Y-123126510D01*
X261534670Y-123096146D01*
X261584463Y-123055283D01*
X261625326Y-123005490D01*
X261655690Y-122948683D01*
X261674388Y-122887043D01*
X261680702Y-122822940D01*
X261680702Y-119822940D01*
X261674388Y-119758837D01*
X261655690Y-119697197D01*
X261625326Y-119640390D01*
X261584463Y-119590597D01*
X261534670Y-119549734D01*
X261477863Y-119519370D01*
X261416223Y-119500672D01*
X261352120Y-119494358D01*
X257352120Y-119494358D01*
X257288017Y-119500672D01*
X257226377Y-119519370D01*
X257169570Y-119549734D01*
X257119777Y-119590597D01*
X257078914Y-119640390D01*
X257048550Y-119697197D01*
X257029852Y-119758837D01*
X257023538Y-119822940D01*
X257023538Y-120655940D01*
X255917145Y-120655940D01*
X255816484Y-120588681D01*
X255684178Y-120533878D01*
X255543723Y-120505940D01*
X255400517Y-120505940D01*
X255260062Y-120533878D01*
X255127756Y-120588681D01*
X255008684Y-120668242D01*
X254907422Y-120769504D01*
X254827861Y-120888576D01*
X254775400Y-121015228D01*
X254775400Y-112922940D01*
X255523538Y-112922940D01*
X255523538Y-114922940D01*
X255529852Y-114987043D01*
X255548550Y-115048683D01*
X255578914Y-115105490D01*
X255619777Y-115155283D01*
X255669570Y-115196146D01*
X255726377Y-115226510D01*
X255788017Y-115245208D01*
X255852120Y-115251522D01*
X262852120Y-115251522D01*
X262916223Y-115245208D01*
X262977863Y-115226510D01*
X263034670Y-115196146D01*
X263084463Y-115155283D01*
X263125326Y-115105490D01*
X263155690Y-115048683D01*
X263174388Y-114987043D01*
X263180702Y-114922940D01*
X263180702Y-112922940D01*
X263174388Y-112858837D01*
X263155690Y-112797197D01*
X263125326Y-112740390D01*
X263084463Y-112690597D01*
X263034670Y-112649734D01*
X262977863Y-112619370D01*
X262916223Y-112600672D01*
X262852120Y-112594358D01*
X255852120Y-112594358D01*
X255788017Y-112600672D01*
X255726377Y-112619370D01*
X255669570Y-112649734D01*
X255619777Y-112690597D01*
X255578914Y-112740390D01*
X255548550Y-112797197D01*
X255529852Y-112858837D01*
X255523538Y-112922940D01*
X254775400Y-112922940D01*
X254775400Y-110854036D01*
X254763434Y-110732540D01*
X254716145Y-110576650D01*
X254639352Y-110432981D01*
X254536006Y-110307054D01*
X254410078Y-110203708D01*
X254266409Y-110126915D01*
X254110519Y-110079626D01*
X253948400Y-110063659D01*
X253786280Y-110079626D01*
X253630390Y-110126915D01*
X253486721Y-110203708D01*
X253360794Y-110307054D01*
X253257448Y-110432982D01*
X253180655Y-110576651D01*
X253133366Y-110732541D01*
X253121400Y-110854037D01*
X253121401Y-111816028D01*
X253121400Y-111816037D01*
X253121401Y-126808104D01*
X251673567Y-128255940D01*
X244878913Y-128255940D01*
X244910025Y-128180829D01*
X244934120Y-128059694D01*
X244934120Y-127936186D01*
X244910025Y-127815051D01*
X244862760Y-127700944D01*
X244794143Y-127598251D01*
X244706809Y-127510917D01*
X244604116Y-127442300D01*
X244490009Y-127395035D01*
X244368874Y-127370940D01*
X244245366Y-127370940D01*
X244124231Y-127395035D01*
X244010124Y-127442300D01*
X243907431Y-127510917D01*
X243877407Y-127540941D01*
X240693241Y-127540941D01*
X240658217Y-127505917D01*
X240555524Y-127437300D01*
X240441417Y-127390035D01*
X240320282Y-127365940D01*
X240196774Y-127365940D01*
X240075639Y-127390035D01*
X239961532Y-127437300D01*
X239858839Y-127505917D01*
X239771505Y-127593251D01*
X239702888Y-127695944D01*
X239655623Y-127810051D01*
X239631528Y-127931186D01*
X239631528Y-128054694D01*
X239655623Y-128175829D01*
X239688806Y-128255940D01*
X238422292Y-128255940D01*
X238406692Y-126965581D01*
X238405569Y-126950199D01*
X238399850Y-126925968D01*
X238389514Y-126903319D01*
X238374958Y-126883121D01*
X238356741Y-126866151D01*
X238335563Y-126853062D01*
X238312239Y-126844355D01*
X238287664Y-126840366D01*
X236485116Y-126727117D01*
X236446045Y-126344224D01*
X236437274Y-126309098D01*
X236425647Y-126287084D01*
X236409948Y-126267760D01*
X236390782Y-126251871D01*
X236368884Y-126240026D01*
X236345095Y-126232681D01*
X236320331Y-126230118D01*
X234054081Y-126218868D01*
X234028942Y-126221253D01*
X234005102Y-126228429D01*
X233983120Y-126240118D01*
X233963841Y-126255871D01*
X233948006Y-126275082D01*
X233936223Y-126297014D01*
X233928945Y-126320822D01*
X233926451Y-126345594D01*
X233922354Y-128255940D01*
X233679120Y-128255940D01*
X233679120Y-127511425D01*
X233672837Y-127447630D01*
X233654229Y-127386288D01*
X233624011Y-127329754D01*
X233583344Y-127280201D01*
X233533791Y-127239534D01*
X233477257Y-127209316D01*
X233415915Y-127190708D01*
X233352120Y-127184425D01*
X233289120Y-127184425D01*
X233289120Y-119459940D01*
X234722120Y-119459940D01*
X234785915Y-119453657D01*
X234847257Y-119435049D01*
X234903791Y-119404831D01*
X234953344Y-119364164D01*
X234994011Y-119314611D01*
X235024229Y-119258077D01*
X235042837Y-119196735D01*
X235049120Y-119132940D01*
X235049120Y-117152940D01*
X235042837Y-117089145D01*
X235024229Y-117027803D01*
X234994011Y-116971269D01*
X234953344Y-116921716D01*
X234903791Y-116881049D01*
X234847257Y-116850831D01*
X234785915Y-116832223D01*
X234722120Y-116825940D01*
X232102120Y-116825940D01*
X232038325Y-116832223D01*
X231976983Y-116850831D01*
X231920449Y-116881049D01*
X231870896Y-116921716D01*
X231830229Y-116971269D01*
X231827733Y-116975939D01*
X230671120Y-116975939D01*
X229560120Y-115864939D01*
X239134897Y-115864939D01*
X241620121Y-118350164D01*
X241620122Y-124838226D01*
X241585097Y-124873251D01*
X241516480Y-124975944D01*
X241469215Y-125090051D01*
X241445120Y-125211186D01*
X241445120Y-125334694D01*
X241469215Y-125455829D01*
X241516480Y-125569936D01*
X241585097Y-125672629D01*
X241672431Y-125759963D01*
X241775124Y-125828580D01*
X241889231Y-125875845D01*
X242010366Y-125899940D01*
X242133874Y-125899940D01*
X242255009Y-125875845D01*
X242369116Y-125828580D01*
X242471809Y-125759963D01*
X242559143Y-125672629D01*
X242627760Y-125569936D01*
X242675025Y-125455829D01*
X242699120Y-125334694D01*
X242699120Y-125211186D01*
X242675025Y-125090051D01*
X242627760Y-124975944D01*
X242559143Y-124873251D01*
X242524119Y-124838227D01*
X242524119Y-121979940D01*
X242775120Y-121979940D01*
X242775121Y-124767509D01*
X242749215Y-124830051D01*
X242725120Y-124951186D01*
X242725120Y-125074694D01*
X242749215Y-125195829D01*
X242796480Y-125309936D01*
X242865097Y-125412629D01*
X242952431Y-125499963D01*
X243055124Y-125568580D01*
X243169231Y-125615845D01*
X243290366Y-125639940D01*
X243413874Y-125639940D01*
X243535009Y-125615845D01*
X243649116Y-125568580D01*
X243751809Y-125499963D01*
X243839143Y-125412629D01*
X243907760Y-125309936D01*
X243955025Y-125195829D01*
X243979120Y-125074694D01*
X243979120Y-124951186D01*
X243955025Y-124830051D01*
X243929120Y-124767511D01*
X243929120Y-121806344D01*
X243944229Y-121778077D01*
X243962837Y-121716735D01*
X243969120Y-121652940D01*
X243969120Y-120552940D01*
X243962837Y-120489145D01*
X243944229Y-120427803D01*
X243914011Y-120371269D01*
X243873344Y-120321716D01*
X243823791Y-120281049D01*
X243767257Y-120250831D01*
X243705915Y-120232223D01*
X243642120Y-120225940D01*
X242524119Y-120225940D01*
X242524119Y-118185134D01*
X242526305Y-118162939D01*
X242524119Y-118140744D01*
X242524119Y-118140735D01*
X242517579Y-118074333D01*
X242491733Y-117989131D01*
X242449762Y-117910608D01*
X242393278Y-117841782D01*
X242376031Y-117827628D01*
X241070508Y-116522105D01*
X245888688Y-116522105D01*
X245888688Y-117177467D01*
X246016543Y-117820236D01*
X246267339Y-118425711D01*
X246631438Y-118970625D01*
X247094849Y-119434036D01*
X247639763Y-119798135D01*
X248245238Y-120048931D01*
X248888007Y-120176786D01*
X249543369Y-120176786D01*
X250186138Y-120048931D01*
X250791613Y-119798135D01*
X251336527Y-119434036D01*
X251799938Y-118970625D01*
X252164037Y-118425711D01*
X252414833Y-117820236D01*
X252542688Y-117177467D01*
X252542688Y-116522105D01*
X252414833Y-115879336D01*
X252164037Y-115273861D01*
X251799938Y-114728947D01*
X251336527Y-114265536D01*
X250791613Y-113901437D01*
X250186138Y-113650641D01*
X249543369Y-113522786D01*
X248888007Y-113522786D01*
X248245238Y-113650641D01*
X247639763Y-113901437D01*
X247094849Y-114265536D01*
X246631438Y-114728947D01*
X246267339Y-115273861D01*
X246016543Y-115879336D01*
X245888688Y-116522105D01*
X241070508Y-116522105D01*
X239657438Y-115109036D01*
X239643278Y-115091782D01*
X239574452Y-115035298D01*
X239495929Y-114993327D01*
X239410727Y-114967481D01*
X239344325Y-114960941D01*
X239344315Y-114960941D01*
X239322120Y-114958755D01*
X239299925Y-114960941D01*
X238594536Y-114960941D01*
X239306035Y-114793029D01*
X240804247Y-114271873D01*
X242240932Y-113599432D01*
X243600861Y-112782834D01*
X244869619Y-111830734D01*
X246033757Y-110753226D01*
X247080934Y-109561730D01*
X248000050Y-108268878D01*
X248195837Y-107922940D01*
X255523538Y-107922940D01*
X255523538Y-109922940D01*
X255529852Y-109987043D01*
X255548550Y-110048683D01*
X255578914Y-110105490D01*
X255619777Y-110155283D01*
X255669570Y-110196146D01*
X255726377Y-110226510D01*
X255788017Y-110245208D01*
X255852120Y-110251522D01*
X262852120Y-110251522D01*
X262916223Y-110245208D01*
X262977863Y-110226510D01*
X263034670Y-110196146D01*
X263084463Y-110155283D01*
X263125326Y-110105490D01*
X263155690Y-110048683D01*
X263174388Y-109987043D01*
X263180702Y-109922940D01*
X263180702Y-107922940D01*
X263174388Y-107858837D01*
X263155690Y-107797197D01*
X263125326Y-107740390D01*
X263084463Y-107690597D01*
X263034670Y-107649734D01*
X262977863Y-107619370D01*
X262916223Y-107600672D01*
X262852120Y-107594358D01*
X255852120Y-107594358D01*
X255788017Y-107600672D01*
X255726377Y-107619370D01*
X255669570Y-107649734D01*
X255619777Y-107690597D01*
X255578914Y-107740390D01*
X255548550Y-107797197D01*
X255529852Y-107858837D01*
X255523538Y-107922940D01*
X248195837Y-107922940D01*
X248781362Y-106888374D01*
X249416589Y-105434851D01*
X249898996Y-103923718D01*
X250223470Y-102370992D01*
X250386572Y-100793133D01*
X250386572Y-99206867D01*
X250223470Y-97629008D01*
X249898996Y-96076282D01*
X249416589Y-94565149D01*
X248781362Y-93111626D01*
X248000050Y-91731122D01*
X247080934Y-90438270D01*
X246033757Y-89246774D01*
X244869619Y-88169266D01*
X243600861Y-87217166D01*
X242240932Y-86400568D01*
X240804247Y-85728127D01*
X239306035Y-85206971D01*
X237762179Y-84842625D01*
X236189042Y-84638951D01*
X234603302Y-84598108D01*
X233021767Y-84720529D01*
X231461201Y-85004916D01*
X229938148Y-85448254D01*
X228468751Y-86045845D01*
X227068587Y-86791354D01*
X225752499Y-87676877D01*
X224534436Y-88693028D01*
X223427310Y-89829036D01*
X222442858Y-91072859D01*
X221591515Y-92411312D01*
X220882305Y-93830207D01*
X220322747Y-95314503D01*
X219918770Y-96848466D01*
X219674659Y-98415837D01*
X219593000Y-100000000D01*
X219674659Y-101584163D01*
X219918770Y-103151534D01*
X220322747Y-104685497D01*
X220882305Y-106169793D01*
X221591515Y-107588688D01*
X222442858Y-108927141D01*
X223427310Y-110170964D01*
X224534436Y-111306972D01*
X225752499Y-112323123D01*
X226536956Y-112850941D01*
X222754314Y-112850941D01*
X222732119Y-112848755D01*
X222709924Y-112850941D01*
X222709915Y-112850941D01*
X222643513Y-112857481D01*
X222558311Y-112883327D01*
X222479788Y-112925298D01*
X222410962Y-112981782D01*
X222396806Y-112999031D01*
X221758211Y-113637627D01*
X221740963Y-113651782D01*
X221684479Y-113720608D01*
X221642508Y-113799131D01*
X221616662Y-113884333D01*
X221607935Y-113972940D01*
X221610122Y-113995145D01*
X221610121Y-116460832D01*
X221550789Y-116549628D01*
X221507294Y-116654635D01*
X221485120Y-116766110D01*
X221485120Y-116879770D01*
X221507294Y-116991245D01*
X221550789Y-117096252D01*
X221610121Y-117185048D01*
X221610122Y-118484212D01*
X221603935Y-118490399D01*
X221540789Y-118584903D01*
X221497294Y-118689910D01*
X221475120Y-118801385D01*
X221475120Y-118915045D01*
X221488284Y-118981225D01*
X212301708Y-118981225D01*
X212269519Y-118949036D01*
X212255359Y-118931782D01*
X212186533Y-118875298D01*
X212108010Y-118833327D01*
X212022808Y-118807481D01*
X211956406Y-118800941D01*
X211956396Y-118800941D01*
X211934201Y-118798755D01*
X211912006Y-118800941D01*
X211818872Y-118800941D01*
X211775164Y-118695421D01*
X211646356Y-118502646D01*
X211482414Y-118338704D01*
X211289639Y-118209896D01*
X211075438Y-118121171D01*
X210848044Y-118075940D01*
X210616196Y-118075940D01*
X210388802Y-118121171D01*
X210174601Y-118209896D01*
X209981826Y-118338704D01*
X209817884Y-118502646D01*
X209689076Y-118695421D01*
X209600351Y-118909622D01*
X209555120Y-119137016D01*
X209555120Y-119368864D01*
X209600351Y-119596258D01*
X209689076Y-119810459D01*
X209817884Y-120003234D01*
X209981826Y-120167176D01*
X210174601Y-120295984D01*
X210388802Y-120384709D01*
X210616196Y-120429940D01*
X210848044Y-120429940D01*
X211075438Y-120384709D01*
X211289639Y-120295984D01*
X211482414Y-120167176D01*
X211646356Y-120003234D01*
X211775164Y-119810459D01*
X211797107Y-119757484D01*
X211862153Y-119810866D01*
X211940676Y-119852837D01*
X212015231Y-119875453D01*
X211970951Y-119911793D01*
X211956796Y-119929041D01*
X211180958Y-120704879D01*
X211075438Y-120661171D01*
X210848044Y-120615940D01*
X210616196Y-120615940D01*
X210388802Y-120661171D01*
X210174601Y-120749896D01*
X209981826Y-120878704D01*
X209817884Y-121042646D01*
X209689076Y-121235421D01*
X209600351Y-121449622D01*
X209555120Y-121677016D01*
X209555120Y-121908864D01*
X209600351Y-122136258D01*
X209689076Y-122350459D01*
X209817884Y-122543234D01*
X209981826Y-122707176D01*
X210174601Y-122835984D01*
X210388802Y-122924709D01*
X210616196Y-122969940D01*
X210848044Y-122969940D01*
X211075438Y-122924709D01*
X211289639Y-122835984D01*
X211482414Y-122707176D01*
X211646356Y-122543234D01*
X211775164Y-122350459D01*
X211863889Y-122136258D01*
X211909120Y-121908864D01*
X211909120Y-121677016D01*
X211863889Y-121449622D01*
X211820181Y-121344102D01*
X212479333Y-120684950D01*
X228687400Y-120684950D01*
X228722424Y-120719974D01*
X228825117Y-120788591D01*
X228939224Y-120835856D01*
X229060359Y-120859951D01*
X229183867Y-120859951D01*
X229305002Y-120835856D01*
X229419109Y-120788591D01*
X229521802Y-120719974D01*
X229609136Y-120632640D01*
X229677753Y-120529947D01*
X229725018Y-120415840D01*
X229749113Y-120294705D01*
X229749113Y-120171197D01*
X229725018Y-120050062D01*
X229677753Y-119935955D01*
X229609136Y-119833262D01*
X229596019Y-119820145D01*
X229656105Y-119730220D01*
X229703370Y-119616113D01*
X229727465Y-119494978D01*
X229727465Y-119371470D01*
X229703370Y-119250335D01*
X229656105Y-119136228D01*
X229587488Y-119033535D01*
X229500154Y-118946201D01*
X229397461Y-118877584D01*
X229283354Y-118830319D01*
X229162219Y-118806224D01*
X229038711Y-118806224D01*
X228917576Y-118830319D01*
X228803469Y-118877584D01*
X228700776Y-118946201D01*
X228665752Y-118981225D01*
X226595956Y-118981225D01*
X226609120Y-118915045D01*
X226609120Y-118801385D01*
X226586946Y-118689910D01*
X226543451Y-118584903D01*
X226480305Y-118490399D01*
X226444119Y-118454213D01*
X226444119Y-117135048D01*
X226503451Y-117046252D01*
X226546946Y-116941245D01*
X226569120Y-116829770D01*
X226569120Y-116716110D01*
X226546946Y-116604635D01*
X226503451Y-116499628D01*
X226440305Y-116405124D01*
X226359936Y-116324755D01*
X226331778Y-116305940D01*
X228036120Y-116305940D01*
X228099915Y-116299657D01*
X228161257Y-116281049D01*
X228217791Y-116250831D01*
X228267344Y-116210164D01*
X228270048Y-116206869D01*
X230004080Y-117940901D01*
X230022145Y-117962913D01*
X230110004Y-118035018D01*
X230210243Y-118088596D01*
X230254901Y-118102143D01*
X230319007Y-118121590D01*
X230432119Y-118132730D01*
X230460458Y-118129939D01*
X231759848Y-118129939D01*
X231694376Y-118252430D01*
X231647087Y-118408320D01*
X231631120Y-118570440D01*
X231635121Y-118611064D01*
X231635120Y-125482316D01*
X231635120Y-126353563D01*
X231635121Y-126353569D01*
X231635120Y-126872315D01*
X231635120Y-127184425D01*
X231552120Y-127184425D01*
X231488325Y-127190708D01*
X231426983Y-127209316D01*
X231370449Y-127239534D01*
X231320896Y-127280201D01*
X231280229Y-127329754D01*
X231250011Y-127386288D01*
X231231403Y-127447630D01*
X231225120Y-127511425D01*
X231225120Y-128255940D01*
X217849120Y-128255940D01*
X217849120Y-124062940D01*
X217842837Y-123999145D01*
X217824229Y-123937803D01*
X217794011Y-123881269D01*
X217753344Y-123831716D01*
X217703791Y-123791049D01*
X217647257Y-123760831D01*
X217585915Y-123742223D01*
X217522120Y-123735940D01*
X214452120Y-123735940D01*
X214388325Y-123742223D01*
X214326983Y-123760831D01*
X214270449Y-123791049D01*
X214220896Y-123831716D01*
X214180229Y-123881269D01*
X214150011Y-123937803D01*
X214131403Y-123999145D01*
X214125120Y-124062940D01*
X214125120Y-129912940D01*
X214131403Y-129976735D01*
X214150011Y-130038077D01*
X214180229Y-130094611D01*
X214220896Y-130144164D01*
X214270449Y-130184831D01*
X214326983Y-130215049D01*
X214388325Y-130233657D01*
X214452120Y-130239940D01*
X217522120Y-130239940D01*
X217585915Y-130233657D01*
X217647257Y-130215049D01*
X217703791Y-130184831D01*
X217753344Y-130144164D01*
X217794011Y-130094611D01*
X217824229Y-130038077D01*
X217842837Y-129976735D01*
X217849120Y-129912940D01*
X217849120Y-129909940D01*
X219104874Y-129909940D01*
X219061826Y-129938704D01*
X218897884Y-130102646D01*
X218769076Y-130295421D01*
X218680351Y-130509622D01*
X218635120Y-130737016D01*
X218635120Y-130968864D01*
X218680351Y-131196258D01*
X218769076Y-131410459D01*
X218897884Y-131603234D01*
X219061826Y-131767176D01*
X219254601Y-131895984D01*
X219468802Y-131984709D01*
X219696196Y-132029940D01*
X219928044Y-132029940D01*
X220155438Y-131984709D01*
X220369639Y-131895984D01*
X220562414Y-131767176D01*
X220726356Y-131603234D01*
X220855164Y-131410459D01*
X220943889Y-131196258D01*
X220989120Y-130968864D01*
X220989120Y-130737016D01*
X220943889Y-130509622D01*
X220855164Y-130295421D01*
X220726356Y-130102646D01*
X220562414Y-129938704D01*
X220519366Y-129909940D01*
X221644874Y-129909940D01*
X221601826Y-129938704D01*
X221437884Y-130102646D01*
X221309076Y-130295421D01*
X221220351Y-130509622D01*
X221175120Y-130737016D01*
X221175120Y-130968864D01*
X221220351Y-131196258D01*
X221309076Y-131410459D01*
X221437884Y-131603234D01*
X221601826Y-131767176D01*
X221794601Y-131895984D01*
X222008802Y-131984709D01*
X222236196Y-132029940D01*
X222468044Y-132029940D01*
X222695438Y-131984709D01*
X222909639Y-131895984D01*
X223102414Y-131767176D01*
X223266356Y-131603234D01*
X223395164Y-131410459D01*
X223483889Y-131196258D01*
X223529120Y-130968864D01*
X223529120Y-130737016D01*
X223483889Y-130509622D01*
X223395164Y-130295421D01*
X223266356Y-130102646D01*
X223102414Y-129938704D01*
X223059366Y-129909940D01*
X224184874Y-129909940D01*
X224141826Y-129938704D01*
X223977884Y-130102646D01*
X223849076Y-130295421D01*
X223760351Y-130509622D01*
X223715120Y-130737016D01*
X223715120Y-130968864D01*
X223760351Y-131196258D01*
X223849076Y-131410459D01*
X223977884Y-131603234D01*
X224141826Y-131767176D01*
X224334601Y-131895984D01*
X224548802Y-131984709D01*
X224776196Y-132029940D01*
X225008044Y-132029940D01*
X225235438Y-131984709D01*
X225449639Y-131895984D01*
X225642414Y-131767176D01*
X225806356Y-131603234D01*
X225935164Y-131410459D01*
X226023889Y-131196258D01*
X226069120Y-130968864D01*
X226069120Y-130737016D01*
X226023889Y-130509622D01*
X225935164Y-130295421D01*
X225806356Y-130102646D01*
X225642414Y-129938704D01*
X225599366Y-129909940D01*
X226724874Y-129909940D01*
X226681826Y-129938704D01*
X226517884Y-130102646D01*
X226389076Y-130295421D01*
X226300351Y-130509622D01*
X226255120Y-130737016D01*
X226255120Y-130968864D01*
X226300351Y-131196258D01*
X226389076Y-131410459D01*
X226517884Y-131603234D01*
X226681826Y-131767176D01*
X226874601Y-131895984D01*
X227088802Y-131984709D01*
X227316196Y-132029940D01*
X227548044Y-132029940D01*
X227775438Y-131984709D01*
X227989639Y-131895984D01*
X228182414Y-131767176D01*
X228346356Y-131603234D01*
X228475164Y-131410459D01*
X228563889Y-131196258D01*
X228609120Y-130968864D01*
X228609120Y-130737016D01*
X228563889Y-130509622D01*
X228475164Y-130295421D01*
X228346356Y-130102646D01*
X228182414Y-129938704D01*
X228139366Y-129909940D01*
X231225120Y-129909940D01*
X231225120Y-131791425D01*
X231231403Y-131855220D01*
X231250011Y-131916562D01*
X231280229Y-131973096D01*
X231320896Y-132022649D01*
X231370449Y-132063316D01*
X231426983Y-132093534D01*
X231488325Y-132112142D01*
X231552120Y-132118425D01*
X233352120Y-132118425D01*
X233415915Y-132112142D01*
X233477257Y-132093534D01*
X233533791Y-132063316D01*
X233583344Y-132022649D01*
X233624011Y-131973096D01*
X233654229Y-131916562D01*
X233672837Y-131855220D01*
X233679120Y-131791425D01*
X233679120Y-131784410D01*
X233684388Y-131767043D01*
X233690702Y-131702940D01*
X233690702Y-130002940D01*
X233684388Y-129938837D01*
X233679120Y-129921470D01*
X233679120Y-129909940D01*
X233918807Y-129909940D01*
X233913087Y-132577045D01*
X212717726Y-132532025D01*
X211994326Y-132050737D01*
X209994037Y-130528430D01*
X208094327Y-128882321D01*
X206302844Y-127119040D01*
X204626801Y-125245686D01*
X203072949Y-123269802D01*
X201647544Y-121199345D01*
X200356325Y-119042651D01*
X199204491Y-116808406D01*
X198790713Y-115862940D01*
X209553538Y-115862940D01*
X209553538Y-117562940D01*
X209559852Y-117627043D01*
X209578550Y-117688683D01*
X209608914Y-117745490D01*
X209649777Y-117795283D01*
X209699570Y-117836146D01*
X209756377Y-117866510D01*
X209818017Y-117885208D01*
X209882120Y-117891522D01*
X211582120Y-117891522D01*
X211646223Y-117885208D01*
X211707863Y-117866510D01*
X211764670Y-117836146D01*
X211814463Y-117795283D01*
X211855326Y-117745490D01*
X211885690Y-117688683D01*
X211904388Y-117627043D01*
X211910702Y-117562940D01*
X211910702Y-115862940D01*
X211904388Y-115798837D01*
X211885690Y-115737197D01*
X211855326Y-115680390D01*
X211814463Y-115630597D01*
X211764670Y-115589734D01*
X211707863Y-115559370D01*
X211646223Y-115540672D01*
X211582120Y-115534358D01*
X209882120Y-115534358D01*
X209818017Y-115540672D01*
X209756377Y-115559370D01*
X209699570Y-115589734D01*
X209649777Y-115630597D01*
X209608914Y-115680390D01*
X209578550Y-115737197D01*
X209559852Y-115798837D01*
X209553538Y-115862940D01*
X198790713Y-115862940D01*
X198196681Y-114505605D01*
X197336953Y-112143521D01*
X196628768Y-109731665D01*
X196074979Y-107279750D01*
X195677814Y-104797647D01*
X195556341Y-103525519D01*
X210179349Y-103525519D01*
X210179349Y-104180881D01*
X210307204Y-104823650D01*
X210558000Y-105429125D01*
X210922099Y-105974039D01*
X211385510Y-106437450D01*
X211930424Y-106801549D01*
X212535899Y-107052345D01*
X213178668Y-107180200D01*
X213834030Y-107180200D01*
X214476799Y-107052345D01*
X215082274Y-106801549D01*
X215627188Y-106437450D01*
X216090599Y-105974039D01*
X216454698Y-105429125D01*
X216705494Y-104823650D01*
X216833349Y-104180881D01*
X216833349Y-103525519D01*
X216705494Y-102882750D01*
X216454698Y-102277275D01*
X216090599Y-101732361D01*
X215627188Y-101268950D01*
X215082274Y-100904851D01*
X214476799Y-100654055D01*
X213834030Y-100526200D01*
X213178668Y-100526200D01*
X212535899Y-100654055D01*
X211930424Y-100904851D01*
X211385510Y-101268950D01*
X210922099Y-101732361D01*
X210558000Y-102277275D01*
X210307204Y-102882750D01*
X210179349Y-103525519D01*
X195556341Y-103525519D01*
X195438874Y-102295352D01*
X195359120Y-99782940D01*
X195438874Y-97270528D01*
X195677814Y-94768233D01*
X196074979Y-92286130D01*
X196628768Y-89834215D01*
X197336953Y-87422359D01*
X198196681Y-85060275D01*
X198274290Y-84882940D01*
X208453538Y-84882940D01*
X208453538Y-86882940D01*
X208459852Y-86947043D01*
X208478550Y-87008683D01*
X208508914Y-87065490D01*
X208549777Y-87115283D01*
X208599570Y-87156146D01*
X208656377Y-87186510D01*
X208718017Y-87205208D01*
X208782120Y-87211522D01*
X215782120Y-87211522D01*
X215846223Y-87205208D01*
X215907863Y-87186510D01*
X215964670Y-87156146D01*
X216014463Y-87115283D01*
X216055326Y-87065490D01*
X216085690Y-87008683D01*
X216104388Y-86947043D01*
X216110702Y-86882940D01*
X216110702Y-84882940D01*
X216104388Y-84818837D01*
X216085690Y-84757197D01*
X216055326Y-84700390D01*
X216014463Y-84650597D01*
X215964670Y-84609734D01*
X215907863Y-84579370D01*
X215846223Y-84560672D01*
X215782120Y-84554358D01*
X208782120Y-84554358D01*
X208718017Y-84560672D01*
X208656377Y-84579370D01*
X208599570Y-84609734D01*
X208549777Y-84650597D01*
X208508914Y-84700390D01*
X208478550Y-84757197D01*
X208459852Y-84818837D01*
X208453538Y-84882940D01*
X198274290Y-84882940D01*
X199204491Y-82757474D01*
X200356325Y-80523229D01*
X200739667Y-79882940D01*
X208453538Y-79882940D01*
X208453538Y-81882940D01*
X208459852Y-81947043D01*
X208478550Y-82008683D01*
X208508914Y-82065490D01*
X208549777Y-82115283D01*
X208599570Y-82156146D01*
X208656377Y-82186510D01*
X208718017Y-82205208D01*
X208782120Y-82211522D01*
X215782120Y-82211522D01*
X215846223Y-82205208D01*
X215907863Y-82186510D01*
X215964670Y-82156146D01*
X216014463Y-82115283D01*
X216055326Y-82065490D01*
X216085690Y-82008683D01*
X216104388Y-81947043D01*
X216110702Y-81882940D01*
X216110702Y-79882940D01*
X216104388Y-79818837D01*
X216085690Y-79757197D01*
X216055326Y-79700390D01*
X216014463Y-79650597D01*
X215964670Y-79609734D01*
X215907863Y-79579370D01*
X215846223Y-79560672D01*
X215782120Y-79554358D01*
X213109120Y-79554358D01*
X213109120Y-75915493D01*
X214394674Y-74629940D01*
X220465566Y-74629940D01*
X218466068Y-76629439D01*
X218434515Y-76655334D01*
X218408620Y-76686887D01*
X218408618Y-76686889D01*
X218331168Y-76781261D01*
X218254376Y-76924930D01*
X218207087Y-77080820D01*
X218191120Y-77242940D01*
X218195121Y-77283564D01*
X218195120Y-84862328D01*
X218191120Y-84902942D01*
X218195120Y-84943556D01*
X218195120Y-84943565D01*
X218205121Y-85045109D01*
X218205120Y-86900385D01*
X215329567Y-89775940D01*
X212322744Y-89775940D01*
X212282120Y-89771939D01*
X212241496Y-89775940D01*
X212120000Y-89787906D01*
X211964110Y-89835195D01*
X211820441Y-89911988D01*
X211694514Y-90015334D01*
X211591168Y-90141261D01*
X211514375Y-90284930D01*
X211467086Y-90440820D01*
X211451119Y-90602940D01*
X211455121Y-90643574D01*
X211455121Y-91454358D01*
X210282120Y-91454358D01*
X210218017Y-91460672D01*
X210156377Y-91479370D01*
X210099570Y-91509734D01*
X210049777Y-91550597D01*
X210008914Y-91600390D01*
X209978550Y-91657197D01*
X209959852Y-91718837D01*
X209953538Y-91782940D01*
X209953538Y-94782940D01*
X209959852Y-94847043D01*
X209978550Y-94908683D01*
X210008914Y-94965490D01*
X210049777Y-95015283D01*
X210099570Y-95056146D01*
X210156377Y-95086510D01*
X210218017Y-95105208D01*
X210282120Y-95111522D01*
X214282120Y-95111522D01*
X214346223Y-95105208D01*
X214407863Y-95086510D01*
X214464670Y-95056146D01*
X214514463Y-95015283D01*
X214555326Y-94965490D01*
X214585690Y-94908683D01*
X214604388Y-94847043D01*
X214610702Y-94782940D01*
X214610702Y-91782940D01*
X214604388Y-91718837D01*
X214585690Y-91657197D01*
X214555326Y-91600390D01*
X214514463Y-91550597D01*
X214464670Y-91509734D01*
X214407863Y-91479370D01*
X214346223Y-91460672D01*
X214282120Y-91454358D01*
X213109120Y-91454358D01*
X213109120Y-91429940D01*
X215631506Y-91429940D01*
X215672120Y-91433940D01*
X215712734Y-91429940D01*
X215712744Y-91429940D01*
X215834240Y-91417974D01*
X215990130Y-91370685D01*
X216133799Y-91293892D01*
X216259726Y-91190546D01*
X216285625Y-91158988D01*
X219588180Y-87856435D01*
X219619726Y-87830546D01*
X219645616Y-87798999D01*
X219645623Y-87798992D01*
X219723072Y-87704620D01*
X219799865Y-87560951D01*
X219841906Y-87422359D01*
X219847154Y-87405060D01*
X219859120Y-87283564D01*
X219859120Y-87283554D01*
X219863120Y-87242940D01*
X219859120Y-87202326D01*
X219859120Y-84953555D01*
X219863120Y-84912941D01*
X219859120Y-84872327D01*
X219859120Y-84872318D01*
X219849120Y-84770784D01*
X219849120Y-79099410D01*
X239290057Y-79099410D01*
X239290057Y-79754772D01*
X239417912Y-80397541D01*
X239668708Y-81003016D01*
X240032807Y-81547930D01*
X240496218Y-82011341D01*
X241041132Y-82375440D01*
X241646607Y-82626236D01*
X242289376Y-82754091D01*
X242944738Y-82754091D01*
X243587507Y-82626236D01*
X244192982Y-82375440D01*
X244737896Y-82011341D01*
X245201307Y-81547930D01*
X245565406Y-81003016D01*
X245816202Y-80397541D01*
X245944057Y-79754772D01*
X245944057Y-79099410D01*
X245816202Y-78456641D01*
X245565406Y-77851166D01*
X245201307Y-77306252D01*
X244737896Y-76842841D01*
X244192982Y-76478742D01*
X243587507Y-76227946D01*
X242944738Y-76100091D01*
X242289376Y-76100091D01*
X241646607Y-76227946D01*
X241041132Y-76478742D01*
X240496218Y-76842841D01*
X240032807Y-77306252D01*
X239668708Y-77851166D01*
X239417912Y-78456641D01*
X239290057Y-79099410D01*
X219849120Y-79099410D01*
X219849120Y-77585493D01*
X221584674Y-75849940D01*
X245769007Y-75849940D01*
X254874800Y-84955735D01*
X254874801Y-94071424D01*
X254886767Y-94192920D01*
X254912900Y-94279069D01*
X254912901Y-96456484D01*
X254924867Y-96577980D01*
X254972156Y-96733870D01*
X255048949Y-96877539D01*
X255152295Y-97003466D01*
X255278222Y-97106812D01*
X255421891Y-97183605D01*
X255577781Y-97230894D01*
X255739900Y-97246861D01*
X255902020Y-97230894D01*
X256057910Y-97183605D01*
X256201579Y-97106812D01*
X256327506Y-97003466D01*
X256396884Y-96918928D01*
X256434995Y-96965366D01*
X256560922Y-97068712D01*
X256704591Y-97145505D01*
X256860481Y-97192794D01*
X257022600Y-97208761D01*
X257184720Y-97192794D01*
X257340610Y-97145505D01*
X257484279Y-97068712D01*
X257610206Y-96965366D01*
X257653316Y-96912837D01*
X257657529Y-96920719D01*
X257760875Y-97046646D01*
X257886802Y-97149992D01*
X258030471Y-97226785D01*
X258186361Y-97274074D01*
X258348480Y-97290041D01*
X258510600Y-97274074D01*
X258666490Y-97226785D01*
X258810159Y-97149992D01*
X258936086Y-97046646D01*
X259039432Y-96920719D01*
X259116225Y-96777050D01*
X259163514Y-96621160D01*
X259175480Y-96499664D01*
X259175480Y-94122256D01*
X259174603Y-94113350D01*
X259175480Y-94104444D01*
X259175480Y-83906330D01*
X259179480Y-83865719D01*
X259175480Y-83825108D01*
X259175480Y-83825096D01*
X259163514Y-83703600D01*
X259116225Y-83547710D01*
X259048965Y-83421876D01*
X259039431Y-83404039D01*
X258961982Y-83309667D01*
X258961976Y-83309661D01*
X258936086Y-83278114D01*
X258904540Y-83252225D01*
X247662825Y-72010512D01*
X247636926Y-71978954D01*
X247510999Y-71875608D01*
X247367330Y-71798815D01*
X247211440Y-71751526D01*
X247089944Y-71739560D01*
X247089934Y-71739560D01*
X247049320Y-71735560D01*
X247008706Y-71739560D01*
X228058294Y-71739560D01*
X225829120Y-69510387D01*
X225829120Y-69181522D01*
X226202120Y-69181522D01*
X226266223Y-69175208D01*
X226327863Y-69156510D01*
X226384670Y-69126146D01*
X226434463Y-69085283D01*
X226475326Y-69035490D01*
X226505690Y-68978683D01*
X226524388Y-68917043D01*
X226530702Y-68852940D01*
X226530702Y-67222544D01*
X231645120Y-67222544D01*
X231645120Y-67523336D01*
X231703801Y-67818350D01*
X231818910Y-68096246D01*
X231986021Y-68346346D01*
X232198714Y-68559039D01*
X232448814Y-68726150D01*
X232726710Y-68841259D01*
X233021724Y-68899940D01*
X233322516Y-68899940D01*
X233617530Y-68841259D01*
X233895426Y-68726150D01*
X234145526Y-68559039D01*
X234358219Y-68346346D01*
X234525330Y-68096246D01*
X234640439Y-67818350D01*
X234699120Y-67523336D01*
X234699120Y-67222544D01*
X235145120Y-67222544D01*
X235145120Y-67523336D01*
X235203801Y-67818350D01*
X235318910Y-68096246D01*
X235486021Y-68346346D01*
X235698714Y-68559039D01*
X235948814Y-68726150D01*
X236226710Y-68841259D01*
X236521724Y-68899940D01*
X236822516Y-68899940D01*
X237117530Y-68841259D01*
X237395426Y-68726150D01*
X237645526Y-68559039D01*
X237858219Y-68346346D01*
X238025330Y-68096246D01*
X238140439Y-67818350D01*
X238199120Y-67523336D01*
X238199120Y-67222544D01*
X238140439Y-66927530D01*
X238025330Y-66649634D01*
X237858219Y-66399534D01*
X237645526Y-66186841D01*
X237624722Y-66172940D01*
X238643538Y-66172940D01*
X238643538Y-68572940D01*
X238649852Y-68637043D01*
X238668550Y-68698683D01*
X238698914Y-68755490D01*
X238739777Y-68805283D01*
X238789570Y-68846146D01*
X238846377Y-68876510D01*
X238908017Y-68895208D01*
X238972120Y-68901522D01*
X241372120Y-68901522D01*
X241436223Y-68895208D01*
X241497863Y-68876510D01*
X241554670Y-68846146D01*
X241604463Y-68805283D01*
X241645326Y-68755490D01*
X241675690Y-68698683D01*
X241694388Y-68637043D01*
X241700702Y-68572940D01*
X241700702Y-66172940D01*
X241694388Y-66108837D01*
X241675690Y-66047197D01*
X241645326Y-65990390D01*
X241604463Y-65940597D01*
X241554670Y-65899734D01*
X241497863Y-65869370D01*
X241436223Y-65850672D01*
X241372120Y-65844358D01*
X238972120Y-65844358D01*
X238908017Y-65850672D01*
X238846377Y-65869370D01*
X238789570Y-65899734D01*
X238739777Y-65940597D01*
X238698914Y-65990390D01*
X238668550Y-66047197D01*
X238649852Y-66108837D01*
X238643538Y-66172940D01*
X237624722Y-66172940D01*
X237395426Y-66019730D01*
X237117530Y-65904621D01*
X236822516Y-65845940D01*
X236521724Y-65845940D01*
X236226710Y-65904621D01*
X235948814Y-66019730D01*
X235698714Y-66186841D01*
X235486021Y-66399534D01*
X235318910Y-66649634D01*
X235203801Y-66927530D01*
X235145120Y-67222544D01*
X234699120Y-67222544D01*
X234640439Y-66927530D01*
X234525330Y-66649634D01*
X234358219Y-66399534D01*
X234145526Y-66186841D01*
X233895426Y-66019730D01*
X233617530Y-65904621D01*
X233322516Y-65845940D01*
X233021724Y-65845940D01*
X232726710Y-65904621D01*
X232448814Y-66019730D01*
X232198714Y-66186841D01*
X231986021Y-66399534D01*
X231818910Y-66649634D01*
X231703801Y-66927530D01*
X231645120Y-67222544D01*
X226530702Y-67222544D01*
X226530702Y-66452940D01*
X226524388Y-66388837D01*
X226505690Y-66327197D01*
X226475326Y-66270390D01*
X226434463Y-66220597D01*
X226384670Y-66179734D01*
X226327863Y-66149370D01*
X226266223Y-66130672D01*
X226202120Y-66124358D01*
X223802120Y-66124358D01*
X223738017Y-66130672D01*
X223676377Y-66149370D01*
X223619570Y-66179734D01*
X223569777Y-66220597D01*
X223528914Y-66270390D01*
X223498550Y-66327197D01*
X223479852Y-66388837D01*
X223473538Y-66452940D01*
X223473538Y-67685018D01*
X223466967Y-67706680D01*
X223451000Y-67868800D01*
X223466967Y-68030920D01*
X223473538Y-68052582D01*
X223473538Y-68852940D01*
X223479852Y-68917043D01*
X223498550Y-68978683D01*
X223528914Y-69035490D01*
X223569777Y-69085283D01*
X223619570Y-69126146D01*
X223676377Y-69156510D01*
X223738017Y-69175208D01*
X223802120Y-69181522D01*
X224175121Y-69181522D01*
X224175121Y-69812316D01*
X224171120Y-69852940D01*
X224187087Y-70015060D01*
X224234376Y-70170950D01*
X224311168Y-70314619D01*
X224388618Y-70408991D01*
X224414515Y-70440546D01*
X224446068Y-70466441D01*
X226955566Y-72975940D01*
X222329120Y-72975940D01*
X222329120Y-68936864D01*
X222475526Y-68839039D01*
X222688219Y-68626346D01*
X222855330Y-68376246D01*
X222970439Y-68098350D01*
X223029120Y-67803336D01*
X223029120Y-67502544D01*
X222970439Y-67207530D01*
X222855330Y-66929634D01*
X222688219Y-66679534D01*
X222475526Y-66466841D01*
X222225426Y-66299730D01*
X221947530Y-66184621D01*
X221652516Y-66125940D01*
X221351724Y-66125940D01*
X221056710Y-66184621D01*
X220778814Y-66299730D01*
X220528714Y-66466841D01*
X220316021Y-66679534D01*
X220148910Y-66929634D01*
X220033801Y-67207530D01*
X219975120Y-67502544D01*
X219975120Y-67803336D01*
X220033801Y-68098350D01*
X220148910Y-68376246D01*
X220316021Y-68626346D01*
X220528714Y-68839039D01*
X220675120Y-68936864D01*
X220675121Y-72975940D01*
X214092733Y-72975940D01*
X214052119Y-72971940D01*
X214011505Y-72975940D01*
X214011496Y-72975940D01*
X213890000Y-72987906D01*
X213734110Y-73035195D01*
X213696693Y-73055195D01*
X213590440Y-73111988D01*
X213539047Y-73154166D01*
X213464514Y-73215334D01*
X213438619Y-73246887D01*
X211726068Y-74959439D01*
X211694515Y-74985334D01*
X211668620Y-75016887D01*
X211668618Y-75016889D01*
X211591168Y-75111261D01*
X211514376Y-75254930D01*
X211467087Y-75410820D01*
X211451120Y-75572940D01*
X211455121Y-75613564D01*
X211455120Y-79554358D01*
X208782120Y-79554358D01*
X208718017Y-79560672D01*
X208656377Y-79579370D01*
X208599570Y-79609734D01*
X208549777Y-79650597D01*
X208508914Y-79700390D01*
X208478550Y-79757197D01*
X208459852Y-79818837D01*
X208453538Y-79882940D01*
X200739667Y-79882940D01*
X201647544Y-78366535D01*
X203072949Y-76296078D01*
X204626801Y-74320194D01*
X206302844Y-72446840D01*
X208094327Y-70683559D01*
X209994037Y-69037450D01*
X211994326Y-67515143D01*
X214087138Y-66122767D01*
X216264046Y-64865928D01*
X218516285Y-63749688D01*
X220834786Y-62778541D01*
X223210213Y-61956398D01*
X225633001Y-61286568D01*
X228093395Y-60771750D01*
X230581486Y-60414017D01*
X233087258Y-60214808D01*
X235600618Y-60174926D01*
X238111449Y-60294532D01*
G36*
X270181559Y-117934667D02*
G01*
X268959417Y-120131243D01*
X267600420Y-122245882D01*
X266110041Y-124270072D01*
X264692212Y-125959775D01*
X264711537Y-125896069D01*
X264727120Y-125737849D01*
X264727120Y-125737847D01*
X264732331Y-125684940D01*
X264727120Y-125632033D01*
X264727120Y-122467047D01*
X271019160Y-116175008D01*
X270181559Y-117934667D01*
G37*
X270181559Y-117934667D02*
X268959417Y-120131243D01*
X267600420Y-122245882D01*
X266110041Y-124270072D01*
X264692212Y-125959775D01*
X264711537Y-125896069D01*
X264727120Y-125737849D01*
X264727120Y-125737847D01*
X264732331Y-125684940D01*
X264727120Y-125632033D01*
X264727120Y-122467047D01*
X271019160Y-116175008D01*
X270181559Y-117934667D01*
G36*
X227511898Y-114381940D02*
G01*
X223972120Y-114381940D01*
X223908325Y-114388223D01*
X223846983Y-114406831D01*
X223790449Y-114437049D01*
X223740896Y-114477716D01*
X223700229Y-114527269D01*
X223670011Y-114583803D01*
X223651403Y-114645145D01*
X223645120Y-114708940D01*
X223645120Y-115978940D01*
X223651403Y-116042735D01*
X223670011Y-116104077D01*
X223700229Y-116160611D01*
X223740896Y-116210164D01*
X223790449Y-116250831D01*
X223846983Y-116281049D01*
X223908325Y-116299657D01*
X223972120Y-116305940D01*
X225652462Y-116305940D01*
X225624304Y-116324755D01*
X225543935Y-116405124D01*
X225480789Y-116499628D01*
X225437294Y-116604635D01*
X225415120Y-116716110D01*
X225415120Y-116829770D01*
X225437294Y-116941245D01*
X225480789Y-117046252D01*
X225540121Y-117135048D01*
X225540122Y-118555970D01*
X225520789Y-118584903D01*
X225477294Y-118689910D01*
X225455120Y-118801385D01*
X225455120Y-118915045D01*
X225468284Y-118981225D01*
X222615956Y-118981225D01*
X222629120Y-118915045D01*
X222629120Y-118801385D01*
X222606946Y-118689910D01*
X222563451Y-118584903D01*
X222514119Y-118511073D01*
X222514119Y-117185048D01*
X222573451Y-117096252D01*
X222616946Y-116991245D01*
X222639120Y-116879770D01*
X222639120Y-116766110D01*
X222616946Y-116654635D01*
X222573451Y-116549628D01*
X222514119Y-116460832D01*
X222514119Y-114160163D01*
X222919344Y-113754939D01*
X226884897Y-113754939D01*
X227511898Y-114381940D01*
G37*
X227511898Y-114381940D02*
X223972120Y-114381940D01*
X223908325Y-114388223D01*
X223846983Y-114406831D01*
X223790449Y-114437049D01*
X223740896Y-114477716D01*
X223700229Y-114527269D01*
X223670011Y-114583803D01*
X223651403Y-114645145D01*
X223645120Y-114708940D01*
X223645120Y-115978940D01*
X223651403Y-116042735D01*
X223670011Y-116104077D01*
X223700229Y-116160611D01*
X223740896Y-116210164D01*
X223790449Y-116250831D01*
X223846983Y-116281049D01*
X223908325Y-116299657D01*
X223972120Y-116305940D01*
X225652462Y-116305940D01*
X225624304Y-116324755D01*
X225543935Y-116405124D01*
X225480789Y-116499628D01*
X225437294Y-116604635D01*
X225415120Y-116716110D01*
X225415120Y-116829770D01*
X225437294Y-116941245D01*
X225480789Y-117046252D01*
X225540121Y-117135048D01*
X225540122Y-118555970D01*
X225520789Y-118584903D01*
X225477294Y-118689910D01*
X225455120Y-118801385D01*
X225455120Y-118915045D01*
X225468284Y-118981225D01*
X222615956Y-118981225D01*
X222629120Y-118915045D01*
X222629120Y-118801385D01*
X222606946Y-118689910D01*
X222563451Y-118584903D01*
X222514119Y-118511073D01*
X222514119Y-117185048D01*
X222573451Y-117096252D01*
X222616946Y-116991245D01*
X222639120Y-116879770D01*
X222639120Y-116766110D01*
X222616946Y-116654635D01*
X222573451Y-116549628D01*
X222514119Y-116460832D01*
X222514119Y-114160163D01*
X222919344Y-113754939D01*
X226884897Y-113754939D01*
X227511898Y-114381940D01*
G36*
X217395120Y-129785940D02*
G01*
X214579120Y-129785940D01*
X214579120Y-124189940D01*
X217395120Y-124189940D01*
X217395120Y-129785940D01*
G37*
X217395120Y-129785940D02*
X214579120Y-129785940D01*
X214579120Y-124189940D01*
X217395120Y-124189940D01*
X217395120Y-129785940D01*
G36*
X233225120Y-131664425D02*
G01*
X231679120Y-131664425D01*
X231679120Y-127638425D01*
X233225120Y-127638425D01*
X233225120Y-131664425D01*
G37*
X233225120Y-131664425D02*
X231679120Y-131664425D01*
X231679120Y-127638425D01*
X233225120Y-127638425D01*
X233225120Y-131664425D01*
G36*
X234595120Y-119005940D02*
G01*
X232229120Y-119005940D01*
X232229120Y-117279940D01*
X234595120Y-117279940D01*
X234595120Y-119005940D01*
G37*
X234595120Y-119005940D02*
X232229120Y-119005940D01*
X232229120Y-117279940D01*
X234595120Y-117279940D01*
X234595120Y-119005940D01*
G36*
X224897756Y-114845199D02*
G01*
X225030062Y-114900002D01*
X225170517Y-114927940D01*
X225313723Y-114927940D01*
X225454178Y-114900002D01*
X225586484Y-114845199D01*
X225600341Y-114835940D01*
X227909120Y-114835940D01*
X227909120Y-115851940D01*
X224099120Y-115851940D01*
X224099120Y-114916921D01*
X224154517Y-114927940D01*
X224297723Y-114927940D01*
X224438178Y-114900002D01*
X224570484Y-114845199D01*
X224584341Y-114835940D01*
X224883899Y-114835940D01*
X224897756Y-114845199D01*
G37*
X224897756Y-114845199D02*
X225030062Y-114900002D01*
X225170517Y-114927940D01*
X225313723Y-114927940D01*
X225454178Y-114900002D01*
X225586484Y-114845199D01*
X225600341Y-114835940D01*
X227909120Y-114835940D01*
X227909120Y-115851940D01*
X224099120Y-115851940D01*
X224099120Y-114916921D01*
X224154517Y-114927940D01*
X224297723Y-114927940D01*
X224438178Y-114900002D01*
X224570484Y-114845199D01*
X224584341Y-114835940D01*
X224883899Y-114835940D01*
X224897756Y-114845199D01*
G36*
X243515120Y-121525940D02*
G01*
X242524119Y-121525940D01*
X242524119Y-120679940D01*
X243515120Y-120679940D01*
X243515120Y-121525940D01*
G37*
X243515120Y-121525940D02*
X242524119Y-121525940D01*
X242524119Y-120679940D01*
X243515120Y-120679940D01*
X243515120Y-121525940D01*
M02*
