G04 #@! TF.GenerationSoftware,KiCad,Pcbnew,(5.1.6)-1*
G04 #@! TF.CreationDate,2020-09-10T18:56:50+07:00*
G04 #@! TF.ProjectId,Kicad_Valve-hardware,4b696361-645f-4566-916c-76652d686172,rev?*
G04 #@! TF.SameCoordinates,Original*
G04 #@! TF.FileFunction,Soldermask,Top*
G04 #@! TF.FilePolarity,Negative*
%FSLAX46Y46*%
G04 Gerber Fmt 4.6, Leading zero omitted, Abs format (unit mm)*
G04 Created by KiCad (PCBNEW (5.1.6)-1) date 2020-09-10 18:56:50*
%MOMM*%
%LPD*%
G01*
G04 APERTURE LIST*
%ADD10C,0.100000*%
G04 APERTURE END LIST*
D10*
G36*
X237371711Y-131461025D02*
G01*
X237405689Y-131471333D01*
X237437010Y-131488074D01*
X237464459Y-131510601D01*
X237486986Y-131538050D01*
X237503727Y-131569371D01*
X237514035Y-131603349D01*
X237518120Y-131644830D01*
X237518120Y-132321050D01*
X237514035Y-132362531D01*
X237503727Y-132396509D01*
X237486986Y-132427830D01*
X237464459Y-132455279D01*
X237437010Y-132477806D01*
X237405689Y-132494547D01*
X237371711Y-132504855D01*
X237330230Y-132508940D01*
X236729010Y-132508940D01*
X236687529Y-132504855D01*
X236653551Y-132494547D01*
X236622230Y-132477806D01*
X236594781Y-132455279D01*
X236572254Y-132427830D01*
X236555513Y-132396509D01*
X236545205Y-132362531D01*
X236541120Y-132321050D01*
X236541120Y-131644830D01*
X236545205Y-131603349D01*
X236555513Y-131569371D01*
X236572254Y-131538050D01*
X236594781Y-131510601D01*
X236622230Y-131488074D01*
X236653551Y-131471333D01*
X236687529Y-131461025D01*
X236729010Y-131456940D01*
X237330230Y-131456940D01*
X237371711Y-131461025D01*
G37*
G36*
X235796711Y-131461025D02*
G01*
X235830689Y-131471333D01*
X235862010Y-131488074D01*
X235889459Y-131510601D01*
X235911986Y-131538050D01*
X235928727Y-131569371D01*
X235939035Y-131603349D01*
X235943120Y-131644830D01*
X235943120Y-132321050D01*
X235939035Y-132362531D01*
X235928727Y-132396509D01*
X235911986Y-132427830D01*
X235889459Y-132455279D01*
X235862010Y-132477806D01*
X235830689Y-132494547D01*
X235796711Y-132504855D01*
X235755230Y-132508940D01*
X235154010Y-132508940D01*
X235112529Y-132504855D01*
X235078551Y-132494547D01*
X235047230Y-132477806D01*
X235019781Y-132455279D01*
X234997254Y-132427830D01*
X234980513Y-132396509D01*
X234970205Y-132362531D01*
X234966120Y-132321050D01*
X234966120Y-131644830D01*
X234970205Y-131603349D01*
X234980513Y-131569371D01*
X234997254Y-131538050D01*
X235019781Y-131510601D01*
X235047230Y-131488074D01*
X235078551Y-131471333D01*
X235112529Y-131461025D01*
X235154010Y-131456940D01*
X235755230Y-131456940D01*
X235796711Y-131461025D01*
G37*
G36*
X230085632Y-129956867D02*
G01*
X230234932Y-129986564D01*
X230398904Y-130054484D01*
X230546474Y-130153087D01*
X230671973Y-130278586D01*
X230770576Y-130426156D01*
X230838496Y-130590128D01*
X230873120Y-130764199D01*
X230873120Y-130941681D01*
X230838496Y-131115752D01*
X230770576Y-131279724D01*
X230671973Y-131427294D01*
X230546474Y-131552793D01*
X230398904Y-131651396D01*
X230234932Y-131719316D01*
X230085632Y-131749013D01*
X230060862Y-131753940D01*
X229883378Y-131753940D01*
X229858608Y-131749013D01*
X229709308Y-131719316D01*
X229545336Y-131651396D01*
X229397766Y-131552793D01*
X229272267Y-131427294D01*
X229173664Y-131279724D01*
X229105744Y-131115752D01*
X229071120Y-130941681D01*
X229071120Y-130764199D01*
X229105744Y-130590128D01*
X229173664Y-130426156D01*
X229272267Y-130278586D01*
X229397766Y-130153087D01*
X229545336Y-130054484D01*
X229709308Y-129986564D01*
X229858608Y-129956867D01*
X229883378Y-129951940D01*
X230060862Y-129951940D01*
X230085632Y-129956867D01*
G37*
G36*
X225005632Y-129956867D02*
G01*
X225154932Y-129986564D01*
X225318904Y-130054484D01*
X225466474Y-130153087D01*
X225591973Y-130278586D01*
X225690576Y-130426156D01*
X225758496Y-130590128D01*
X225793120Y-130764199D01*
X225793120Y-130941681D01*
X225758496Y-131115752D01*
X225690576Y-131279724D01*
X225591973Y-131427294D01*
X225466474Y-131552793D01*
X225318904Y-131651396D01*
X225154932Y-131719316D01*
X225005632Y-131749013D01*
X224980862Y-131753940D01*
X224803378Y-131753940D01*
X224778608Y-131749013D01*
X224629308Y-131719316D01*
X224465336Y-131651396D01*
X224317766Y-131552793D01*
X224192267Y-131427294D01*
X224093664Y-131279724D01*
X224025744Y-131115752D01*
X223991120Y-130941681D01*
X223991120Y-130764199D01*
X224025744Y-130590128D01*
X224093664Y-130426156D01*
X224192267Y-130278586D01*
X224317766Y-130153087D01*
X224465336Y-130054484D01*
X224629308Y-129986564D01*
X224778608Y-129956867D01*
X224803378Y-129951940D01*
X224980862Y-129951940D01*
X225005632Y-129956867D01*
G37*
G36*
X219925632Y-129956867D02*
G01*
X220074932Y-129986564D01*
X220238904Y-130054484D01*
X220386474Y-130153087D01*
X220511973Y-130278586D01*
X220610576Y-130426156D01*
X220678496Y-130590128D01*
X220713120Y-130764199D01*
X220713120Y-130941681D01*
X220678496Y-131115752D01*
X220610576Y-131279724D01*
X220511973Y-131427294D01*
X220386474Y-131552793D01*
X220238904Y-131651396D01*
X220074932Y-131719316D01*
X219925632Y-131749013D01*
X219900862Y-131753940D01*
X219723378Y-131753940D01*
X219698608Y-131749013D01*
X219549308Y-131719316D01*
X219385336Y-131651396D01*
X219237766Y-131552793D01*
X219112267Y-131427294D01*
X219013664Y-131279724D01*
X218945744Y-131115752D01*
X218911120Y-130941681D01*
X218911120Y-130764199D01*
X218945744Y-130590128D01*
X219013664Y-130426156D01*
X219112267Y-130278586D01*
X219237766Y-130153087D01*
X219385336Y-130054484D01*
X219549308Y-129986564D01*
X219698608Y-129956867D01*
X219723378Y-129951940D01*
X219900862Y-129951940D01*
X219925632Y-129956867D01*
G37*
G36*
X222465632Y-129956867D02*
G01*
X222614932Y-129986564D01*
X222778904Y-130054484D01*
X222926474Y-130153087D01*
X223051973Y-130278586D01*
X223150576Y-130426156D01*
X223218496Y-130590128D01*
X223253120Y-130764199D01*
X223253120Y-130941681D01*
X223218496Y-131115752D01*
X223150576Y-131279724D01*
X223051973Y-131427294D01*
X222926474Y-131552793D01*
X222778904Y-131651396D01*
X222614932Y-131719316D01*
X222465632Y-131749013D01*
X222440862Y-131753940D01*
X222263378Y-131753940D01*
X222238608Y-131749013D01*
X222089308Y-131719316D01*
X221925336Y-131651396D01*
X221777766Y-131552793D01*
X221652267Y-131427294D01*
X221553664Y-131279724D01*
X221485744Y-131115752D01*
X221451120Y-130941681D01*
X221451120Y-130764199D01*
X221485744Y-130590128D01*
X221553664Y-130426156D01*
X221652267Y-130278586D01*
X221777766Y-130153087D01*
X221925336Y-130054484D01*
X222089308Y-129986564D01*
X222238608Y-129956867D01*
X222263378Y-129951940D01*
X222440862Y-129951940D01*
X222465632Y-129956867D01*
G37*
G36*
X233413120Y-131753940D02*
G01*
X231611120Y-131753940D01*
X231611120Y-129951940D01*
X233413120Y-129951940D01*
X233413120Y-131753940D01*
G37*
G36*
X227545632Y-129956867D02*
G01*
X227694932Y-129986564D01*
X227858904Y-130054484D01*
X228006474Y-130153087D01*
X228131973Y-130278586D01*
X228230576Y-130426156D01*
X228298496Y-130590128D01*
X228333120Y-130764199D01*
X228333120Y-130941681D01*
X228298496Y-131115752D01*
X228230576Y-131279724D01*
X228131973Y-131427294D01*
X228006474Y-131552793D01*
X227858904Y-131651396D01*
X227694932Y-131719316D01*
X227545632Y-131749013D01*
X227520862Y-131753940D01*
X227343378Y-131753940D01*
X227318608Y-131749013D01*
X227169308Y-131719316D01*
X227005336Y-131651396D01*
X226857766Y-131552793D01*
X226732267Y-131427294D01*
X226633664Y-131279724D01*
X226565744Y-131115752D01*
X226531120Y-130941681D01*
X226531120Y-130764199D01*
X226565744Y-130590128D01*
X226633664Y-130426156D01*
X226732267Y-130278586D01*
X226857766Y-130153087D01*
X227005336Y-130054484D01*
X227169308Y-129986564D01*
X227318608Y-129956867D01*
X227343378Y-129951940D01*
X227520862Y-129951940D01*
X227545632Y-129956867D01*
G37*
G36*
X250533120Y-131683940D02*
G01*
X248731120Y-131683940D01*
X248731120Y-129881940D01*
X250533120Y-129881940D01*
X250533120Y-131683940D01*
G37*
G36*
X244665632Y-129886867D02*
G01*
X244814932Y-129916564D01*
X244978904Y-129984484D01*
X245126474Y-130083087D01*
X245251973Y-130208586D01*
X245350576Y-130356156D01*
X245418496Y-130520128D01*
X245453120Y-130694199D01*
X245453120Y-130871681D01*
X245418496Y-131045752D01*
X245350576Y-131209724D01*
X245251973Y-131357294D01*
X245126474Y-131482793D01*
X244978904Y-131581396D01*
X244814932Y-131649316D01*
X244665632Y-131679013D01*
X244640862Y-131683940D01*
X244463378Y-131683940D01*
X244438608Y-131679013D01*
X244289308Y-131649316D01*
X244125336Y-131581396D01*
X243977766Y-131482793D01*
X243852267Y-131357294D01*
X243753664Y-131209724D01*
X243685744Y-131045752D01*
X243651120Y-130871681D01*
X243651120Y-130694199D01*
X243685744Y-130520128D01*
X243753664Y-130356156D01*
X243852267Y-130208586D01*
X243977766Y-130083087D01*
X244125336Y-129984484D01*
X244289308Y-129916564D01*
X244438608Y-129886867D01*
X244463378Y-129881940D01*
X244640862Y-129881940D01*
X244665632Y-129886867D01*
G37*
G36*
X247205632Y-129886867D02*
G01*
X247354932Y-129916564D01*
X247518904Y-129984484D01*
X247666474Y-130083087D01*
X247791973Y-130208586D01*
X247890576Y-130356156D01*
X247958496Y-130520128D01*
X247993120Y-130694199D01*
X247993120Y-130871681D01*
X247958496Y-131045752D01*
X247890576Y-131209724D01*
X247791973Y-131357294D01*
X247666474Y-131482793D01*
X247518904Y-131581396D01*
X247354932Y-131649316D01*
X247205632Y-131679013D01*
X247180862Y-131683940D01*
X247003378Y-131683940D01*
X246978608Y-131679013D01*
X246829308Y-131649316D01*
X246665336Y-131581396D01*
X246517766Y-131482793D01*
X246392267Y-131357294D01*
X246293664Y-131209724D01*
X246225744Y-131045752D01*
X246191120Y-130871681D01*
X246191120Y-130694199D01*
X246225744Y-130520128D01*
X246293664Y-130356156D01*
X246392267Y-130208586D01*
X246517766Y-130083087D01*
X246665336Y-129984484D01*
X246829308Y-129916564D01*
X246978608Y-129886867D01*
X247003378Y-129881940D01*
X247180862Y-129881940D01*
X247205632Y-129886867D01*
G37*
G36*
X239845711Y-130280025D02*
G01*
X239879689Y-130290333D01*
X239911010Y-130307074D01*
X239938459Y-130329601D01*
X239960986Y-130357050D01*
X239977727Y-130388371D01*
X239988035Y-130422349D01*
X239992120Y-130463830D01*
X239992120Y-131065050D01*
X239988035Y-131106531D01*
X239977727Y-131140509D01*
X239960986Y-131171830D01*
X239938459Y-131199279D01*
X239911010Y-131221806D01*
X239879689Y-131238547D01*
X239845711Y-131248855D01*
X239804230Y-131252940D01*
X239128010Y-131252940D01*
X239086529Y-131248855D01*
X239052551Y-131238547D01*
X239021230Y-131221806D01*
X238993781Y-131199279D01*
X238971254Y-131171830D01*
X238954513Y-131140509D01*
X238944205Y-131106531D01*
X238940120Y-131065050D01*
X238940120Y-130463830D01*
X238944205Y-130422349D01*
X238954513Y-130388371D01*
X238971254Y-130357050D01*
X238993781Y-130329601D01*
X239021230Y-130307074D01*
X239052551Y-130290333D01*
X239086529Y-130280025D01*
X239128010Y-130275940D01*
X239804230Y-130275940D01*
X239845711Y-130280025D01*
G37*
G36*
X241369711Y-130280025D02*
G01*
X241403689Y-130290333D01*
X241435010Y-130307074D01*
X241462459Y-130329601D01*
X241484986Y-130357050D01*
X241501727Y-130388371D01*
X241512035Y-130422349D01*
X241516120Y-130463830D01*
X241516120Y-131065050D01*
X241512035Y-131106531D01*
X241501727Y-131140509D01*
X241484986Y-131171830D01*
X241462459Y-131199279D01*
X241435010Y-131221806D01*
X241403689Y-131238547D01*
X241369711Y-131248855D01*
X241328230Y-131252940D01*
X240652010Y-131252940D01*
X240610529Y-131248855D01*
X240576551Y-131238547D01*
X240545230Y-131221806D01*
X240517781Y-131199279D01*
X240495254Y-131171830D01*
X240478513Y-131140509D01*
X240468205Y-131106531D01*
X240464120Y-131065050D01*
X240464120Y-130463830D01*
X240468205Y-130422349D01*
X240478513Y-130388371D01*
X240495254Y-130357050D01*
X240517781Y-130329601D01*
X240545230Y-130307074D01*
X240576551Y-130290333D01*
X240610529Y-130280025D01*
X240652010Y-130275940D01*
X241328230Y-130275940D01*
X241369711Y-130280025D01*
G37*
G36*
X235801711Y-130148525D02*
G01*
X235835689Y-130158833D01*
X235867010Y-130175574D01*
X235894459Y-130198101D01*
X235916986Y-130225550D01*
X235933727Y-130256871D01*
X235944035Y-130290849D01*
X235948120Y-130332330D01*
X235948120Y-130933550D01*
X235944035Y-130975031D01*
X235933727Y-131009009D01*
X235916986Y-131040330D01*
X235894459Y-131067779D01*
X235867010Y-131090306D01*
X235835689Y-131107047D01*
X235801711Y-131117355D01*
X235760230Y-131121440D01*
X235084010Y-131121440D01*
X235042529Y-131117355D01*
X235008551Y-131107047D01*
X234977230Y-131090306D01*
X234949781Y-131067779D01*
X234927254Y-131040330D01*
X234910513Y-131009009D01*
X234900205Y-130975031D01*
X234896120Y-130933550D01*
X234896120Y-130332330D01*
X234900205Y-130290849D01*
X234910513Y-130256871D01*
X234927254Y-130225550D01*
X234949781Y-130198101D01*
X234977230Y-130175574D01*
X235008551Y-130158833D01*
X235042529Y-130148525D01*
X235084010Y-130144440D01*
X235760230Y-130144440D01*
X235801711Y-130148525D01*
G37*
G36*
X241369711Y-128705025D02*
G01*
X241403689Y-128715333D01*
X241435010Y-128732074D01*
X241462459Y-128754601D01*
X241484986Y-128782050D01*
X241501727Y-128813371D01*
X241512035Y-128847349D01*
X241516120Y-128888830D01*
X241516120Y-129490050D01*
X241512035Y-129531531D01*
X241501727Y-129565509D01*
X241484986Y-129596830D01*
X241462459Y-129624279D01*
X241435010Y-129646806D01*
X241403689Y-129663547D01*
X241369711Y-129673855D01*
X241328230Y-129677940D01*
X240652010Y-129677940D01*
X240610529Y-129673855D01*
X240576551Y-129663547D01*
X240545230Y-129646806D01*
X240517781Y-129624279D01*
X240495254Y-129596830D01*
X240478513Y-129565509D01*
X240468205Y-129531531D01*
X240464120Y-129490050D01*
X240464120Y-128888830D01*
X240468205Y-128847349D01*
X240478513Y-128813371D01*
X240495254Y-128782050D01*
X240517781Y-128754601D01*
X240545230Y-128732074D01*
X240576551Y-128715333D01*
X240610529Y-128705025D01*
X240652010Y-128700940D01*
X241328230Y-128700940D01*
X241369711Y-128705025D01*
G37*
G36*
X239845711Y-128705025D02*
G01*
X239879689Y-128715333D01*
X239911010Y-128732074D01*
X239938459Y-128754601D01*
X239960986Y-128782050D01*
X239977727Y-128813371D01*
X239988035Y-128847349D01*
X239992120Y-128888830D01*
X239992120Y-129490050D01*
X239988035Y-129531531D01*
X239977727Y-129565509D01*
X239960986Y-129596830D01*
X239938459Y-129624279D01*
X239911010Y-129646806D01*
X239879689Y-129663547D01*
X239845711Y-129673855D01*
X239804230Y-129677940D01*
X239128010Y-129677940D01*
X239086529Y-129673855D01*
X239052551Y-129663547D01*
X239021230Y-129646806D01*
X238993781Y-129624279D01*
X238971254Y-129596830D01*
X238954513Y-129565509D01*
X238944205Y-129531531D01*
X238940120Y-129490050D01*
X238940120Y-128888830D01*
X238944205Y-128847349D01*
X238954513Y-128813371D01*
X238971254Y-128782050D01*
X238993781Y-128754601D01*
X239021230Y-128732074D01*
X239052551Y-128715333D01*
X239086529Y-128705025D01*
X239128010Y-128700940D01*
X239804230Y-128700940D01*
X239845711Y-128705025D01*
G37*
G36*
X235801711Y-128573525D02*
G01*
X235835689Y-128583833D01*
X235867010Y-128600574D01*
X235894459Y-128623101D01*
X235916986Y-128650550D01*
X235933727Y-128681871D01*
X235944035Y-128715849D01*
X235948120Y-128757330D01*
X235948120Y-129358550D01*
X235944035Y-129400031D01*
X235933727Y-129434009D01*
X235916986Y-129465330D01*
X235894459Y-129492779D01*
X235867010Y-129515306D01*
X235835689Y-129532047D01*
X235801711Y-129542355D01*
X235760230Y-129546440D01*
X235084010Y-129546440D01*
X235042529Y-129542355D01*
X235008551Y-129532047D01*
X234977230Y-129515306D01*
X234949781Y-129492779D01*
X234927254Y-129465330D01*
X234910513Y-129434009D01*
X234900205Y-129400031D01*
X234896120Y-129358550D01*
X234896120Y-128757330D01*
X234900205Y-128715849D01*
X234910513Y-128681871D01*
X234927254Y-128650550D01*
X234949781Y-128623101D01*
X234977230Y-128600574D01*
X235008551Y-128583833D01*
X235042529Y-128573525D01*
X235084010Y-128569440D01*
X235760230Y-128569440D01*
X235801711Y-128573525D01*
G37*
G36*
X251839491Y-128267285D02*
G01*
X251873469Y-128277593D01*
X251904790Y-128294334D01*
X251932239Y-128316861D01*
X251954766Y-128344310D01*
X251971507Y-128375631D01*
X251981815Y-128409609D01*
X251985900Y-128451090D01*
X251985900Y-129127310D01*
X251981815Y-129168791D01*
X251971507Y-129202769D01*
X251954766Y-129234090D01*
X251932239Y-129261539D01*
X251904790Y-129284066D01*
X251873469Y-129300807D01*
X251839491Y-129311115D01*
X251798010Y-129315200D01*
X251196790Y-129315200D01*
X251155309Y-129311115D01*
X251121331Y-129300807D01*
X251090010Y-129284066D01*
X251062561Y-129261539D01*
X251040034Y-129234090D01*
X251023293Y-129202769D01*
X251012985Y-129168791D01*
X251008900Y-129127310D01*
X251008900Y-128451090D01*
X251012985Y-128409609D01*
X251023293Y-128375631D01*
X251040034Y-128344310D01*
X251062561Y-128316861D01*
X251090010Y-128294334D01*
X251121331Y-128277593D01*
X251155309Y-128267285D01*
X251196790Y-128263200D01*
X251798010Y-128263200D01*
X251839491Y-128267285D01*
G37*
G36*
X253414491Y-128267285D02*
G01*
X253448469Y-128277593D01*
X253479790Y-128294334D01*
X253507239Y-128316861D01*
X253529766Y-128344310D01*
X253546507Y-128375631D01*
X253556815Y-128409609D01*
X253560900Y-128451090D01*
X253560900Y-129127310D01*
X253556815Y-129168791D01*
X253546507Y-129202769D01*
X253529766Y-129234090D01*
X253507239Y-129261539D01*
X253479790Y-129284066D01*
X253448469Y-129300807D01*
X253414491Y-129311115D01*
X253373010Y-129315200D01*
X252771790Y-129315200D01*
X252730309Y-129311115D01*
X252696331Y-129300807D01*
X252665010Y-129284066D01*
X252637561Y-129261539D01*
X252615034Y-129234090D01*
X252598293Y-129202769D01*
X252587985Y-129168791D01*
X252583900Y-129127310D01*
X252583900Y-128451090D01*
X252587985Y-128409609D01*
X252598293Y-128375631D01*
X252615034Y-128344310D01*
X252637561Y-128316861D01*
X252665010Y-128294334D01*
X252696331Y-128277593D01*
X252730309Y-128267285D01*
X252771790Y-128263200D01*
X253373010Y-128263200D01*
X253414491Y-128267285D01*
G37*
G36*
X247641711Y-127486025D02*
G01*
X247675689Y-127496333D01*
X247707010Y-127513074D01*
X247734459Y-127535601D01*
X247756986Y-127563050D01*
X247773727Y-127594371D01*
X247784035Y-127628349D01*
X247788120Y-127669830D01*
X247788120Y-128271050D01*
X247784035Y-128312531D01*
X247773727Y-128346509D01*
X247756986Y-128377830D01*
X247734459Y-128405279D01*
X247707010Y-128427806D01*
X247675689Y-128444547D01*
X247641711Y-128454855D01*
X247600230Y-128458940D01*
X246924010Y-128458940D01*
X246882529Y-128454855D01*
X246848551Y-128444547D01*
X246817230Y-128427806D01*
X246789781Y-128405279D01*
X246767254Y-128377830D01*
X246750513Y-128346509D01*
X246740205Y-128312531D01*
X246736120Y-128271050D01*
X246736120Y-127669830D01*
X246740205Y-127628349D01*
X246750513Y-127594371D01*
X246767254Y-127563050D01*
X246789781Y-127535601D01*
X246817230Y-127513074D01*
X246848551Y-127496333D01*
X246882529Y-127486025D01*
X246924010Y-127481940D01*
X247600230Y-127481940D01*
X247641711Y-127486025D01*
G37*
G36*
X235816711Y-127201025D02*
G01*
X235850689Y-127211333D01*
X235882010Y-127228074D01*
X235909459Y-127250601D01*
X235931986Y-127278050D01*
X235948727Y-127309371D01*
X235959035Y-127343349D01*
X235963120Y-127384830D01*
X235963120Y-128061050D01*
X235959035Y-128102531D01*
X235948727Y-128136509D01*
X235931986Y-128167830D01*
X235909459Y-128195279D01*
X235882010Y-128217806D01*
X235850689Y-128234547D01*
X235816711Y-128244855D01*
X235775230Y-128248940D01*
X235174010Y-128248940D01*
X235132529Y-128244855D01*
X235098551Y-128234547D01*
X235067230Y-128217806D01*
X235039781Y-128195279D01*
X235017254Y-128167830D01*
X235000513Y-128136509D01*
X234990205Y-128102531D01*
X234986120Y-128061050D01*
X234986120Y-127384830D01*
X234990205Y-127343349D01*
X235000513Y-127309371D01*
X235017254Y-127278050D01*
X235039781Y-127250601D01*
X235067230Y-127228074D01*
X235098551Y-127211333D01*
X235132529Y-127201025D01*
X235174010Y-127196940D01*
X235775230Y-127196940D01*
X235816711Y-127201025D01*
G37*
G36*
X237391711Y-127201025D02*
G01*
X237425689Y-127211333D01*
X237457010Y-127228074D01*
X237484459Y-127250601D01*
X237506986Y-127278050D01*
X237523727Y-127309371D01*
X237534035Y-127343349D01*
X237538120Y-127384830D01*
X237538120Y-128061050D01*
X237534035Y-128102531D01*
X237523727Y-128136509D01*
X237506986Y-128167830D01*
X237484459Y-128195279D01*
X237457010Y-128217806D01*
X237425689Y-128234547D01*
X237391711Y-128244855D01*
X237350230Y-128248940D01*
X236749010Y-128248940D01*
X236707529Y-128244855D01*
X236673551Y-128234547D01*
X236642230Y-128217806D01*
X236614781Y-128195279D01*
X236592254Y-128167830D01*
X236575513Y-128136509D01*
X236565205Y-128102531D01*
X236561120Y-128061050D01*
X236561120Y-127384830D01*
X236565205Y-127343349D01*
X236575513Y-127309371D01*
X236592254Y-127278050D01*
X236614781Y-127250601D01*
X236642230Y-127228074D01*
X236673551Y-127211333D01*
X236707529Y-127201025D01*
X236749010Y-127196940D01*
X237350230Y-127196940D01*
X237391711Y-127201025D01*
G37*
G36*
X253414391Y-126781385D02*
G01*
X253448369Y-126791693D01*
X253479690Y-126808434D01*
X253507139Y-126830961D01*
X253529666Y-126858410D01*
X253546407Y-126889731D01*
X253556715Y-126923709D01*
X253560800Y-126965190D01*
X253560800Y-127641410D01*
X253556715Y-127682891D01*
X253546407Y-127716869D01*
X253529666Y-127748190D01*
X253507139Y-127775639D01*
X253479690Y-127798166D01*
X253448369Y-127814907D01*
X253414391Y-127825215D01*
X253372910Y-127829300D01*
X252771690Y-127829300D01*
X252730209Y-127825215D01*
X252696231Y-127814907D01*
X252664910Y-127798166D01*
X252637461Y-127775639D01*
X252614934Y-127748190D01*
X252598193Y-127716869D01*
X252587885Y-127682891D01*
X252583800Y-127641410D01*
X252583800Y-126965190D01*
X252587885Y-126923709D01*
X252598193Y-126889731D01*
X252614934Y-126858410D01*
X252637461Y-126830961D01*
X252664910Y-126808434D01*
X252696231Y-126791693D01*
X252730209Y-126781385D01*
X252771690Y-126777300D01*
X253372910Y-126777300D01*
X253414391Y-126781385D01*
G37*
G36*
X251839391Y-126781385D02*
G01*
X251873369Y-126791693D01*
X251904690Y-126808434D01*
X251932139Y-126830961D01*
X251954666Y-126858410D01*
X251971407Y-126889731D01*
X251981715Y-126923709D01*
X251985800Y-126965190D01*
X251985800Y-127641410D01*
X251981715Y-127682891D01*
X251971407Y-127716869D01*
X251954666Y-127748190D01*
X251932139Y-127775639D01*
X251904690Y-127798166D01*
X251873369Y-127814907D01*
X251839391Y-127825215D01*
X251797910Y-127829300D01*
X251196690Y-127829300D01*
X251155209Y-127825215D01*
X251121231Y-127814907D01*
X251089910Y-127798166D01*
X251062461Y-127775639D01*
X251039934Y-127748190D01*
X251023193Y-127716869D01*
X251012885Y-127682891D01*
X251008800Y-127641410D01*
X251008800Y-126965190D01*
X251012885Y-126923709D01*
X251023193Y-126889731D01*
X251039934Y-126858410D01*
X251062461Y-126830961D01*
X251089910Y-126808434D01*
X251121231Y-126791693D01*
X251155209Y-126781385D01*
X251196690Y-126777300D01*
X251797910Y-126777300D01*
X251839391Y-126781385D01*
G37*
G36*
X247641711Y-125911025D02*
G01*
X247675689Y-125921333D01*
X247707010Y-125938074D01*
X247734459Y-125960601D01*
X247756986Y-125988050D01*
X247773727Y-126019371D01*
X247784035Y-126053349D01*
X247788120Y-126094830D01*
X247788120Y-126696050D01*
X247784035Y-126737531D01*
X247773727Y-126771509D01*
X247756986Y-126802830D01*
X247734459Y-126830279D01*
X247707010Y-126852806D01*
X247675689Y-126869547D01*
X247641711Y-126879855D01*
X247600230Y-126883940D01*
X246924010Y-126883940D01*
X246882529Y-126879855D01*
X246848551Y-126869547D01*
X246817230Y-126852806D01*
X246789781Y-126830279D01*
X246767254Y-126802830D01*
X246750513Y-126771509D01*
X246740205Y-126737531D01*
X246736120Y-126696050D01*
X246736120Y-126094830D01*
X246740205Y-126053349D01*
X246750513Y-126019371D01*
X246767254Y-125988050D01*
X246789781Y-125960601D01*
X246817230Y-125938074D01*
X246848551Y-125921333D01*
X246882529Y-125911025D01*
X246924010Y-125906940D01*
X247600230Y-125906940D01*
X247641711Y-125911025D01*
G37*
G36*
X232791711Y-125821025D02*
G01*
X232825689Y-125831333D01*
X232857010Y-125848074D01*
X232884459Y-125870601D01*
X232906986Y-125898050D01*
X232923727Y-125929371D01*
X232934035Y-125963349D01*
X232938120Y-126004830D01*
X232938120Y-126681050D01*
X232934035Y-126722531D01*
X232923727Y-126756509D01*
X232906986Y-126787830D01*
X232884459Y-126815279D01*
X232857010Y-126837806D01*
X232825689Y-126854547D01*
X232791711Y-126864855D01*
X232750230Y-126868940D01*
X232149010Y-126868940D01*
X232107529Y-126864855D01*
X232073551Y-126854547D01*
X232042230Y-126837806D01*
X232014781Y-126815279D01*
X231992254Y-126787830D01*
X231975513Y-126756509D01*
X231965205Y-126722531D01*
X231961120Y-126681050D01*
X231961120Y-126004830D01*
X231965205Y-125963349D01*
X231975513Y-125929371D01*
X231992254Y-125898050D01*
X232014781Y-125870601D01*
X232042230Y-125848074D01*
X232073551Y-125831333D01*
X232107529Y-125821025D01*
X232149010Y-125816940D01*
X232750230Y-125816940D01*
X232791711Y-125821025D01*
G37*
G36*
X231216711Y-125821025D02*
G01*
X231250689Y-125831333D01*
X231282010Y-125848074D01*
X231309459Y-125870601D01*
X231331986Y-125898050D01*
X231348727Y-125929371D01*
X231359035Y-125963349D01*
X231363120Y-126004830D01*
X231363120Y-126681050D01*
X231359035Y-126722531D01*
X231348727Y-126756509D01*
X231331986Y-126787830D01*
X231309459Y-126815279D01*
X231282010Y-126837806D01*
X231250689Y-126854547D01*
X231216711Y-126864855D01*
X231175230Y-126868940D01*
X230574010Y-126868940D01*
X230532529Y-126864855D01*
X230498551Y-126854547D01*
X230467230Y-126837806D01*
X230439781Y-126815279D01*
X230417254Y-126787830D01*
X230400513Y-126756509D01*
X230390205Y-126722531D01*
X230386120Y-126681050D01*
X230386120Y-126004830D01*
X230390205Y-125963349D01*
X230400513Y-125929371D01*
X230417254Y-125898050D01*
X230439781Y-125870601D01*
X230467230Y-125848074D01*
X230498551Y-125831333D01*
X230532529Y-125821025D01*
X230574010Y-125816940D01*
X231175230Y-125816940D01*
X231216711Y-125821025D01*
G37*
G36*
X240668120Y-118691941D02*
G01*
X240670522Y-118716327D01*
X240677635Y-118739776D01*
X240689186Y-118761387D01*
X240704731Y-118780329D01*
X240723673Y-118795874D01*
X240745284Y-118807425D01*
X240768733Y-118814538D01*
X240793119Y-118816940D01*
X241793120Y-118816940D01*
X241793120Y-124668940D01*
X240793119Y-124668940D01*
X240768733Y-124671342D01*
X240745284Y-124678455D01*
X240723673Y-124690006D01*
X240704731Y-124705551D01*
X240689186Y-124724493D01*
X240677635Y-124746104D01*
X240670522Y-124769553D01*
X240668120Y-124793939D01*
X240668120Y-125793940D01*
X234816120Y-125793940D01*
X234816120Y-124793939D01*
X234813718Y-124769553D01*
X234806605Y-124746104D01*
X234795054Y-124724493D01*
X234779509Y-124705551D01*
X234760567Y-124690006D01*
X234738956Y-124678455D01*
X234715507Y-124671342D01*
X234691121Y-124668940D01*
X233691120Y-124668940D01*
X233691120Y-118918939D01*
X234793120Y-118918939D01*
X234793120Y-124566941D01*
X234795522Y-124591327D01*
X234802635Y-124614776D01*
X234814186Y-124636387D01*
X234829731Y-124655329D01*
X234848673Y-124670874D01*
X234870284Y-124682425D01*
X234893733Y-124689538D01*
X234918119Y-124691940D01*
X240566121Y-124691940D01*
X240590507Y-124689538D01*
X240613956Y-124682425D01*
X240635567Y-124670874D01*
X240654509Y-124655329D01*
X240670054Y-124636387D01*
X240681605Y-124614776D01*
X240688718Y-124591327D01*
X240691120Y-124566941D01*
X240691120Y-118918939D01*
X240688718Y-118894553D01*
X240681605Y-118871104D01*
X240670054Y-118849493D01*
X240654509Y-118830551D01*
X240635567Y-118815006D01*
X240613956Y-118803455D01*
X240590507Y-118796342D01*
X240566121Y-118793940D01*
X234918119Y-118793940D01*
X234893733Y-118796342D01*
X234870284Y-118803455D01*
X234848673Y-118815006D01*
X234829731Y-118830551D01*
X234814186Y-118849493D01*
X234802635Y-118871104D01*
X234795522Y-118894553D01*
X234793120Y-118918939D01*
X233691120Y-118918939D01*
X233691120Y-118816940D01*
X234691121Y-118816940D01*
X234715507Y-118814538D01*
X234738956Y-118807425D01*
X234760567Y-118795874D01*
X234779509Y-118780329D01*
X234795054Y-118761387D01*
X234806605Y-118739776D01*
X234813718Y-118716327D01*
X234816120Y-118691941D01*
X234816120Y-117691940D01*
X240668120Y-117691940D01*
X240668120Y-118691941D01*
G37*
G36*
X240183820Y-124184640D02*
G01*
X235300420Y-124184640D01*
X235300420Y-119301240D01*
X240183820Y-119301240D01*
X240183820Y-124184640D01*
G37*
G36*
X219627080Y-125617140D02*
G01*
X218625080Y-125617140D01*
X218625080Y-124715140D01*
X219627080Y-124715140D01*
X219627080Y-125617140D01*
G37*
G36*
X248507120Y-125367940D02*
G01*
X246167120Y-125367940D01*
X246167120Y-124727940D01*
X248507120Y-124727940D01*
X248507120Y-125367940D01*
G37*
G36*
X254257120Y-125367940D02*
G01*
X251917120Y-125367940D01*
X251917120Y-124727940D01*
X254257120Y-124727940D01*
X254257120Y-125367940D01*
G37*
G36*
X217156791Y-124303485D02*
G01*
X217190769Y-124313793D01*
X217222090Y-124330534D01*
X217249539Y-124353061D01*
X217272066Y-124380510D01*
X217288807Y-124411831D01*
X217299115Y-124445809D01*
X217303200Y-124487290D01*
X217303200Y-125088510D01*
X217299115Y-125129991D01*
X217288807Y-125163969D01*
X217272066Y-125195290D01*
X217249539Y-125222739D01*
X217222090Y-125245266D01*
X217190769Y-125262007D01*
X217156791Y-125272315D01*
X217115310Y-125276400D01*
X216439090Y-125276400D01*
X216397609Y-125272315D01*
X216363631Y-125262007D01*
X216332310Y-125245266D01*
X216304861Y-125222739D01*
X216282334Y-125195290D01*
X216265593Y-125163969D01*
X216255285Y-125129991D01*
X216251200Y-125088510D01*
X216251200Y-124487290D01*
X216255285Y-124445809D01*
X216265593Y-124411831D01*
X216282334Y-124380510D01*
X216304861Y-124353061D01*
X216332310Y-124330534D01*
X216363631Y-124313793D01*
X216397609Y-124303485D01*
X216439090Y-124299400D01*
X217115310Y-124299400D01*
X217156791Y-124303485D01*
G37*
G36*
X215631791Y-124290985D02*
G01*
X215665769Y-124301293D01*
X215697090Y-124318034D01*
X215724539Y-124340561D01*
X215747066Y-124368010D01*
X215763807Y-124399331D01*
X215774115Y-124433309D01*
X215778200Y-124474790D01*
X215778200Y-125076010D01*
X215774115Y-125117491D01*
X215763807Y-125151469D01*
X215747066Y-125182790D01*
X215724539Y-125210239D01*
X215697090Y-125232766D01*
X215665769Y-125249507D01*
X215631791Y-125259815D01*
X215590310Y-125263900D01*
X214914090Y-125263900D01*
X214872609Y-125259815D01*
X214838631Y-125249507D01*
X214807310Y-125232766D01*
X214779861Y-125210239D01*
X214757334Y-125182790D01*
X214740593Y-125151469D01*
X214730285Y-125117491D01*
X214726200Y-125076010D01*
X214726200Y-124474790D01*
X214730285Y-124433309D01*
X214740593Y-124399331D01*
X214757334Y-124368010D01*
X214779861Y-124340561D01*
X214807310Y-124318034D01*
X214838631Y-124301293D01*
X214872609Y-124290985D01*
X214914090Y-124286900D01*
X215590310Y-124286900D01*
X215631791Y-124290985D01*
G37*
G36*
X210845632Y-123436867D02*
G01*
X210994932Y-123466564D01*
X211158904Y-123534484D01*
X211306474Y-123633087D01*
X211431973Y-123758586D01*
X211530576Y-123906156D01*
X211598496Y-124070128D01*
X211633120Y-124244199D01*
X211633120Y-124421681D01*
X211598496Y-124595752D01*
X211530576Y-124759724D01*
X211431973Y-124907294D01*
X211306474Y-125032793D01*
X211158904Y-125131396D01*
X210994932Y-125199316D01*
X210845632Y-125229013D01*
X210820862Y-125233940D01*
X210643378Y-125233940D01*
X210618608Y-125229013D01*
X210469308Y-125199316D01*
X210305336Y-125131396D01*
X210157766Y-125032793D01*
X210032267Y-124907294D01*
X209933664Y-124759724D01*
X209865744Y-124595752D01*
X209831120Y-124421681D01*
X209831120Y-124244199D01*
X209865744Y-124070128D01*
X209933664Y-123906156D01*
X210032267Y-123758586D01*
X210157766Y-123633087D01*
X210305336Y-123534484D01*
X210469308Y-123466564D01*
X210618608Y-123436867D01*
X210643378Y-123431940D01*
X210820862Y-123431940D01*
X210845632Y-123436867D01*
G37*
G36*
X249674422Y-121472735D02*
G01*
X249744483Y-121501755D01*
X249807542Y-121543890D01*
X249819981Y-121556329D01*
X249838923Y-121571874D01*
X249860534Y-121583425D01*
X249883983Y-121590538D01*
X249908369Y-121592940D01*
X250515871Y-121592940D01*
X250540257Y-121590538D01*
X250563706Y-121583425D01*
X250585317Y-121571874D01*
X250604259Y-121556329D01*
X250616698Y-121543890D01*
X250679757Y-121501755D01*
X250749818Y-121472735D01*
X250824199Y-121457940D01*
X250900041Y-121457940D01*
X250974422Y-121472735D01*
X251044483Y-121501755D01*
X251107542Y-121543890D01*
X251119981Y-121556329D01*
X251138923Y-121571874D01*
X251160534Y-121583425D01*
X251183983Y-121590538D01*
X251208369Y-121592940D01*
X251412120Y-121592940D01*
X251412120Y-124692940D01*
X251208369Y-124692940D01*
X251183983Y-124695342D01*
X251160534Y-124702455D01*
X251138923Y-124714006D01*
X251119981Y-124729551D01*
X251107542Y-124741990D01*
X251044483Y-124784125D01*
X250974422Y-124813145D01*
X250900041Y-124827940D01*
X250824199Y-124827940D01*
X250749818Y-124813145D01*
X250679757Y-124784125D01*
X250616698Y-124741990D01*
X250604259Y-124729551D01*
X250585317Y-124714006D01*
X250563706Y-124702455D01*
X250540257Y-124695342D01*
X250515871Y-124692940D01*
X249908369Y-124692940D01*
X249883983Y-124695342D01*
X249860534Y-124702455D01*
X249838923Y-124714006D01*
X249819981Y-124729551D01*
X249807542Y-124741990D01*
X249744483Y-124784125D01*
X249674422Y-124813145D01*
X249600041Y-124827940D01*
X249524199Y-124827940D01*
X249449818Y-124813145D01*
X249379757Y-124784125D01*
X249316698Y-124741990D01*
X249304259Y-124729551D01*
X249285317Y-124714006D01*
X249263706Y-124702455D01*
X249240257Y-124695342D01*
X249215871Y-124692940D01*
X249012120Y-124692940D01*
X249012120Y-121592940D01*
X249215871Y-121592940D01*
X249240257Y-121590538D01*
X249263706Y-121583425D01*
X249285317Y-121571874D01*
X249304259Y-121556329D01*
X249316698Y-121543890D01*
X249379757Y-121501755D01*
X249449818Y-121472735D01*
X249524199Y-121457940D01*
X249600041Y-121457940D01*
X249674422Y-121472735D01*
G37*
G36*
X221627080Y-124667140D02*
G01*
X220625080Y-124667140D01*
X220625080Y-123765140D01*
X221627080Y-123765140D01*
X221627080Y-124667140D01*
G37*
G36*
X232814211Y-123151025D02*
G01*
X232848189Y-123161333D01*
X232879510Y-123178074D01*
X232906959Y-123200601D01*
X232929486Y-123228050D01*
X232946227Y-123259371D01*
X232956535Y-123293349D01*
X232960620Y-123334830D01*
X232960620Y-124011050D01*
X232956535Y-124052531D01*
X232946227Y-124086509D01*
X232929486Y-124117830D01*
X232906959Y-124145279D01*
X232879510Y-124167806D01*
X232848189Y-124184547D01*
X232814211Y-124194855D01*
X232772730Y-124198940D01*
X232171510Y-124198940D01*
X232130029Y-124194855D01*
X232096051Y-124184547D01*
X232064730Y-124167806D01*
X232037281Y-124145279D01*
X232014754Y-124117830D01*
X231998013Y-124086509D01*
X231987705Y-124052531D01*
X231983620Y-124011050D01*
X231983620Y-123334830D01*
X231987705Y-123293349D01*
X231998013Y-123259371D01*
X232014754Y-123228050D01*
X232037281Y-123200601D01*
X232064730Y-123178074D01*
X232096051Y-123161333D01*
X232130029Y-123151025D01*
X232171510Y-123146940D01*
X232772730Y-123146940D01*
X232814211Y-123151025D01*
G37*
G36*
X231239211Y-123151025D02*
G01*
X231273189Y-123161333D01*
X231304510Y-123178074D01*
X231331959Y-123200601D01*
X231354486Y-123228050D01*
X231371227Y-123259371D01*
X231381535Y-123293349D01*
X231385620Y-123334830D01*
X231385620Y-124011050D01*
X231381535Y-124052531D01*
X231371227Y-124086509D01*
X231354486Y-124117830D01*
X231331959Y-124145279D01*
X231304510Y-124167806D01*
X231273189Y-124184547D01*
X231239211Y-124194855D01*
X231197730Y-124198940D01*
X230596510Y-124198940D01*
X230555029Y-124194855D01*
X230521051Y-124184547D01*
X230489730Y-124167806D01*
X230462281Y-124145279D01*
X230439754Y-124117830D01*
X230423013Y-124086509D01*
X230412705Y-124052531D01*
X230408620Y-124011050D01*
X230408620Y-123334830D01*
X230412705Y-123293349D01*
X230423013Y-123259371D01*
X230439754Y-123228050D01*
X230462281Y-123200601D01*
X230489730Y-123178074D01*
X230521051Y-123161333D01*
X230555029Y-123151025D01*
X230596510Y-123146940D01*
X231197730Y-123146940D01*
X231239211Y-123151025D01*
G37*
G36*
X248507120Y-124097940D02*
G01*
X246167120Y-124097940D01*
X246167120Y-123457940D01*
X248507120Y-123457940D01*
X248507120Y-124097940D01*
G37*
G36*
X254257120Y-124097940D02*
G01*
X251917120Y-124097940D01*
X251917120Y-123457940D01*
X254257120Y-123457940D01*
X254257120Y-124097940D01*
G37*
G36*
X219627080Y-123717140D02*
G01*
X218625080Y-123717140D01*
X218625080Y-122815140D01*
X219627080Y-122815140D01*
X219627080Y-123717140D01*
G37*
G36*
X217156791Y-122728485D02*
G01*
X217190769Y-122738793D01*
X217222090Y-122755534D01*
X217249539Y-122778061D01*
X217272066Y-122805510D01*
X217288807Y-122836831D01*
X217299115Y-122870809D01*
X217303200Y-122912290D01*
X217303200Y-123513510D01*
X217299115Y-123554991D01*
X217288807Y-123588969D01*
X217272066Y-123620290D01*
X217249539Y-123647739D01*
X217222090Y-123670266D01*
X217190769Y-123687007D01*
X217156791Y-123697315D01*
X217115310Y-123701400D01*
X216439090Y-123701400D01*
X216397609Y-123697315D01*
X216363631Y-123687007D01*
X216332310Y-123670266D01*
X216304861Y-123647739D01*
X216282334Y-123620290D01*
X216265593Y-123588969D01*
X216255285Y-123554991D01*
X216251200Y-123513510D01*
X216251200Y-122912290D01*
X216255285Y-122870809D01*
X216265593Y-122836831D01*
X216282334Y-122805510D01*
X216304861Y-122778061D01*
X216332310Y-122755534D01*
X216363631Y-122738793D01*
X216397609Y-122728485D01*
X216439090Y-122724400D01*
X217115310Y-122724400D01*
X217156791Y-122728485D01*
G37*
G36*
X215631791Y-122715985D02*
G01*
X215665769Y-122726293D01*
X215697090Y-122743034D01*
X215724539Y-122765561D01*
X215747066Y-122793010D01*
X215763807Y-122824331D01*
X215774115Y-122858309D01*
X215778200Y-122899790D01*
X215778200Y-123501010D01*
X215774115Y-123542491D01*
X215763807Y-123576469D01*
X215747066Y-123607790D01*
X215724539Y-123635239D01*
X215697090Y-123657766D01*
X215665769Y-123674507D01*
X215631791Y-123684815D01*
X215590310Y-123688900D01*
X214914090Y-123688900D01*
X214872609Y-123684815D01*
X214838631Y-123674507D01*
X214807310Y-123657766D01*
X214779861Y-123635239D01*
X214757334Y-123607790D01*
X214740593Y-123576469D01*
X214730285Y-123542491D01*
X214726200Y-123501010D01*
X214726200Y-122899790D01*
X214730285Y-122858309D01*
X214740593Y-122824331D01*
X214757334Y-122793010D01*
X214779861Y-122765561D01*
X214807310Y-122743034D01*
X214838631Y-122726293D01*
X214872609Y-122715985D01*
X214914090Y-122711900D01*
X215590310Y-122711900D01*
X215631791Y-122715985D01*
G37*
G36*
X261403120Y-122873940D02*
G01*
X257301120Y-122873940D01*
X257301120Y-119771940D01*
X261403120Y-119771940D01*
X261403120Y-122873940D01*
G37*
G36*
X248507120Y-122827940D02*
G01*
X246167120Y-122827940D01*
X246167120Y-122187940D01*
X248507120Y-122187940D01*
X248507120Y-122827940D01*
G37*
G36*
X254257120Y-122827940D02*
G01*
X251917120Y-122827940D01*
X251917120Y-122187940D01*
X254257120Y-122187940D01*
X254257120Y-122827940D01*
G37*
G36*
X210845632Y-120896867D02*
G01*
X210994932Y-120926564D01*
X211158904Y-120994484D01*
X211306474Y-121093087D01*
X211431973Y-121218586D01*
X211530576Y-121366156D01*
X211598496Y-121530128D01*
X211633120Y-121704199D01*
X211633120Y-121881681D01*
X211598496Y-122055752D01*
X211530576Y-122219724D01*
X211431973Y-122367294D01*
X211306474Y-122492793D01*
X211158904Y-122591396D01*
X210994932Y-122659316D01*
X210845632Y-122689013D01*
X210820862Y-122693940D01*
X210643378Y-122693940D01*
X210618608Y-122689013D01*
X210469308Y-122659316D01*
X210305336Y-122591396D01*
X210157766Y-122492793D01*
X210032267Y-122367294D01*
X209933664Y-122219724D01*
X209865744Y-122055752D01*
X209831120Y-121881681D01*
X209831120Y-121704199D01*
X209865744Y-121530128D01*
X209933664Y-121366156D01*
X210032267Y-121218586D01*
X210157766Y-121093087D01*
X210305336Y-120994484D01*
X210469308Y-120926564D01*
X210618608Y-120896867D01*
X210643378Y-120891940D01*
X210820862Y-120891940D01*
X210845632Y-120896867D01*
G37*
G36*
X221081791Y-121253485D02*
G01*
X221115769Y-121263793D01*
X221147090Y-121280534D01*
X221174539Y-121303061D01*
X221197066Y-121330510D01*
X221213807Y-121361831D01*
X221224115Y-121395809D01*
X221228200Y-121437290D01*
X221228200Y-122038510D01*
X221224115Y-122079991D01*
X221213807Y-122113969D01*
X221197066Y-122145290D01*
X221174539Y-122172739D01*
X221147090Y-122195266D01*
X221115769Y-122212007D01*
X221081791Y-122222315D01*
X221040310Y-122226400D01*
X220364090Y-122226400D01*
X220322609Y-122222315D01*
X220288631Y-122212007D01*
X220257310Y-122195266D01*
X220229861Y-122172739D01*
X220207334Y-122145290D01*
X220190593Y-122113969D01*
X220180285Y-122079991D01*
X220176200Y-122038510D01*
X220176200Y-121437290D01*
X220180285Y-121395809D01*
X220190593Y-121361831D01*
X220207334Y-121330510D01*
X220229861Y-121303061D01*
X220257310Y-121280534D01*
X220288631Y-121263793D01*
X220322609Y-121253485D01*
X220364090Y-121249400D01*
X221040310Y-121249400D01*
X221081791Y-121253485D01*
G37*
G36*
X216821908Y-120175904D02*
G01*
X216842989Y-120182300D01*
X216862425Y-120192688D01*
X216879456Y-120206664D01*
X216893432Y-120223695D01*
X216903820Y-120243131D01*
X216910216Y-120264212D01*
X216912980Y-120292280D01*
X216912980Y-122106000D01*
X216910216Y-122134068D01*
X216903820Y-122155149D01*
X216893432Y-122174585D01*
X216879456Y-122191616D01*
X216862425Y-122205592D01*
X216842989Y-122215980D01*
X216821908Y-122222376D01*
X216793840Y-122225140D01*
X216330120Y-122225140D01*
X216302052Y-122222376D01*
X216280971Y-122215980D01*
X216261535Y-122205592D01*
X216244504Y-122191616D01*
X216230528Y-122174585D01*
X216220140Y-122155149D01*
X216213744Y-122134068D01*
X216210980Y-122106000D01*
X216210980Y-120292280D01*
X216213744Y-120264212D01*
X216220140Y-120243131D01*
X216230528Y-120223695D01*
X216244504Y-120206664D01*
X216261535Y-120192688D01*
X216280971Y-120182300D01*
X216302052Y-120175904D01*
X216330120Y-120173140D01*
X216793840Y-120173140D01*
X216821908Y-120175904D01*
G37*
G36*
X215551908Y-120175904D02*
G01*
X215572989Y-120182300D01*
X215592425Y-120192688D01*
X215609456Y-120206664D01*
X215623432Y-120223695D01*
X215633820Y-120243131D01*
X215640216Y-120264212D01*
X215642980Y-120292280D01*
X215642980Y-122106000D01*
X215640216Y-122134068D01*
X215633820Y-122155149D01*
X215623432Y-122174585D01*
X215609456Y-122191616D01*
X215592425Y-122205592D01*
X215572989Y-122215980D01*
X215551908Y-122222376D01*
X215523840Y-122225140D01*
X215060120Y-122225140D01*
X215032052Y-122222376D01*
X215010971Y-122215980D01*
X214991535Y-122205592D01*
X214974504Y-122191616D01*
X214960528Y-122174585D01*
X214950140Y-122155149D01*
X214943744Y-122134068D01*
X214940980Y-122106000D01*
X214940980Y-120292280D01*
X214943744Y-120264212D01*
X214950140Y-120243131D01*
X214960528Y-120223695D01*
X214974504Y-120206664D01*
X214991535Y-120192688D01*
X215010971Y-120182300D01*
X215032052Y-120175904D01*
X215060120Y-120173140D01*
X215523840Y-120173140D01*
X215551908Y-120175904D01*
G37*
G36*
X219361908Y-120175904D02*
G01*
X219382989Y-120182300D01*
X219402425Y-120192688D01*
X219419456Y-120206664D01*
X219433432Y-120223695D01*
X219443820Y-120243131D01*
X219450216Y-120264212D01*
X219452980Y-120292280D01*
X219452980Y-122106000D01*
X219450216Y-122134068D01*
X219443820Y-122155149D01*
X219433432Y-122174585D01*
X219419456Y-122191616D01*
X219402425Y-122205592D01*
X219382989Y-122215980D01*
X219361908Y-122222376D01*
X219333840Y-122225140D01*
X218870120Y-122225140D01*
X218842052Y-122222376D01*
X218820971Y-122215980D01*
X218801535Y-122205592D01*
X218784504Y-122191616D01*
X218770528Y-122174585D01*
X218760140Y-122155149D01*
X218753744Y-122134068D01*
X218750980Y-122106000D01*
X218750980Y-120292280D01*
X218753744Y-120264212D01*
X218760140Y-120243131D01*
X218770528Y-120223695D01*
X218784504Y-120206664D01*
X218801535Y-120192688D01*
X218820971Y-120182300D01*
X218842052Y-120175904D01*
X218870120Y-120173140D01*
X219333840Y-120173140D01*
X219361908Y-120175904D01*
G37*
G36*
X218091908Y-120175904D02*
G01*
X218112989Y-120182300D01*
X218132425Y-120192688D01*
X218149456Y-120206664D01*
X218163432Y-120223695D01*
X218173820Y-120243131D01*
X218180216Y-120264212D01*
X218182980Y-120292280D01*
X218182980Y-122106000D01*
X218180216Y-122134068D01*
X218173820Y-122155149D01*
X218163432Y-122174585D01*
X218149456Y-122191616D01*
X218132425Y-122205592D01*
X218112989Y-122215980D01*
X218091908Y-122222376D01*
X218063840Y-122225140D01*
X217600120Y-122225140D01*
X217572052Y-122222376D01*
X217550971Y-122215980D01*
X217531535Y-122205592D01*
X217514504Y-122191616D01*
X217500528Y-122174585D01*
X217490140Y-122155149D01*
X217483744Y-122134068D01*
X217480980Y-122106000D01*
X217480980Y-120292280D01*
X217483744Y-120264212D01*
X217490140Y-120243131D01*
X217500528Y-120223695D01*
X217514504Y-120206664D01*
X217531535Y-120192688D01*
X217550971Y-120182300D01*
X217572052Y-120175904D01*
X217600120Y-120173140D01*
X218063840Y-120173140D01*
X218091908Y-120175904D01*
G37*
G36*
X244761711Y-120551025D02*
G01*
X244795689Y-120561333D01*
X244827010Y-120578074D01*
X244854459Y-120600601D01*
X244876986Y-120628050D01*
X244893727Y-120659371D01*
X244904035Y-120693349D01*
X244908120Y-120734830D01*
X244908120Y-121411050D01*
X244904035Y-121452531D01*
X244893727Y-121486509D01*
X244876986Y-121517830D01*
X244854459Y-121545279D01*
X244827010Y-121567806D01*
X244795689Y-121584547D01*
X244761711Y-121594855D01*
X244720230Y-121598940D01*
X244119010Y-121598940D01*
X244077529Y-121594855D01*
X244043551Y-121584547D01*
X244012230Y-121567806D01*
X243984781Y-121545279D01*
X243962254Y-121517830D01*
X243945513Y-121486509D01*
X243935205Y-121452531D01*
X243931120Y-121411050D01*
X243931120Y-120734830D01*
X243935205Y-120693349D01*
X243945513Y-120659371D01*
X243962254Y-120628050D01*
X243984781Y-120600601D01*
X244012230Y-120578074D01*
X244043551Y-120561333D01*
X244077529Y-120551025D01*
X244119010Y-120546940D01*
X244720230Y-120546940D01*
X244761711Y-120551025D01*
G37*
G36*
X243186711Y-120551025D02*
G01*
X243220689Y-120561333D01*
X243252010Y-120578074D01*
X243279459Y-120600601D01*
X243301986Y-120628050D01*
X243318727Y-120659371D01*
X243329035Y-120693349D01*
X243333120Y-120734830D01*
X243333120Y-121411050D01*
X243329035Y-121452531D01*
X243318727Y-121486509D01*
X243301986Y-121517830D01*
X243279459Y-121545279D01*
X243252010Y-121567806D01*
X243220689Y-121584547D01*
X243186711Y-121594855D01*
X243145230Y-121598940D01*
X242544010Y-121598940D01*
X242502529Y-121594855D01*
X242468551Y-121584547D01*
X242437230Y-121567806D01*
X242409781Y-121545279D01*
X242387254Y-121517830D01*
X242370513Y-121486509D01*
X242360205Y-121452531D01*
X242356120Y-121411050D01*
X242356120Y-120734830D01*
X242360205Y-120693349D01*
X242370513Y-120659371D01*
X242387254Y-120628050D01*
X242409781Y-120600601D01*
X242437230Y-120578074D01*
X242468551Y-120561333D01*
X242502529Y-120551025D01*
X242544010Y-120546940D01*
X243145230Y-120546940D01*
X243186711Y-120551025D01*
G37*
G36*
X248507120Y-121557940D02*
G01*
X246167120Y-121557940D01*
X246167120Y-120917940D01*
X248507120Y-120917940D01*
X248507120Y-121557940D01*
G37*
G36*
X254257120Y-121557940D02*
G01*
X251917120Y-121557940D01*
X251917120Y-120917940D01*
X254257120Y-120917940D01*
X254257120Y-121557940D01*
G37*
G36*
X221081791Y-119678485D02*
G01*
X221115769Y-119688793D01*
X221147090Y-119705534D01*
X221174539Y-119728061D01*
X221197066Y-119755510D01*
X221213807Y-119786831D01*
X221224115Y-119820809D01*
X221228200Y-119862290D01*
X221228200Y-120463510D01*
X221224115Y-120504991D01*
X221213807Y-120538969D01*
X221197066Y-120570290D01*
X221174539Y-120597739D01*
X221147090Y-120620266D01*
X221115769Y-120637007D01*
X221081791Y-120647315D01*
X221040310Y-120651400D01*
X220364090Y-120651400D01*
X220322609Y-120647315D01*
X220288631Y-120637007D01*
X220257310Y-120620266D01*
X220229861Y-120597739D01*
X220207334Y-120570290D01*
X220190593Y-120538969D01*
X220180285Y-120504991D01*
X220176200Y-120463510D01*
X220176200Y-119862290D01*
X220180285Y-119820809D01*
X220190593Y-119786831D01*
X220207334Y-119755510D01*
X220229861Y-119728061D01*
X220257310Y-119705534D01*
X220288631Y-119688793D01*
X220322609Y-119678485D01*
X220364090Y-119674400D01*
X221040310Y-119674400D01*
X221081791Y-119678485D01*
G37*
G36*
X210845632Y-118356867D02*
G01*
X210994932Y-118386564D01*
X211158904Y-118454484D01*
X211306474Y-118553087D01*
X211431973Y-118678586D01*
X211530576Y-118826156D01*
X211598496Y-118990128D01*
X211628193Y-119139428D01*
X211633120Y-119164198D01*
X211633120Y-119341682D01*
X211628193Y-119366452D01*
X211598496Y-119515752D01*
X211530576Y-119679724D01*
X211431973Y-119827294D01*
X211306474Y-119952793D01*
X211158904Y-120051396D01*
X210994932Y-120119316D01*
X210845632Y-120149013D01*
X210820862Y-120153940D01*
X210643378Y-120153940D01*
X210618608Y-120149013D01*
X210469308Y-120119316D01*
X210305336Y-120051396D01*
X210157766Y-119952793D01*
X210032267Y-119827294D01*
X209933664Y-119679724D01*
X209865744Y-119515752D01*
X209836047Y-119366452D01*
X209831120Y-119341682D01*
X209831120Y-119164198D01*
X209836047Y-119139428D01*
X209865744Y-118990128D01*
X209933664Y-118826156D01*
X210032267Y-118678586D01*
X210157766Y-118553087D01*
X210305336Y-118454484D01*
X210469308Y-118386564D01*
X210618608Y-118356867D01*
X210643378Y-118351940D01*
X210820862Y-118351940D01*
X210845632Y-118356867D01*
G37*
G36*
X250105631Y-113916034D02*
G01*
X250660877Y-114146024D01*
X250708313Y-114177720D01*
X251160587Y-114479920D01*
X251585554Y-114904887D01*
X251753636Y-115156439D01*
X251919450Y-115404597D01*
X252149440Y-115959843D01*
X252266688Y-116549287D01*
X252266688Y-117150285D01*
X252149440Y-117739729D01*
X251919450Y-118294975D01*
X251919449Y-118294976D01*
X251585554Y-118794685D01*
X251160587Y-119219652D01*
X251038482Y-119301240D01*
X250660877Y-119553548D01*
X250105631Y-119783538D01*
X249516187Y-119900786D01*
X248915189Y-119900786D01*
X248325745Y-119783538D01*
X247770499Y-119553548D01*
X247392894Y-119301240D01*
X247270789Y-119219652D01*
X246845822Y-118794685D01*
X246511927Y-118294976D01*
X246511926Y-118294975D01*
X246281936Y-117739729D01*
X246164688Y-117150285D01*
X246164688Y-116549287D01*
X246281936Y-115959843D01*
X246511926Y-115404597D01*
X246677740Y-115156439D01*
X246845822Y-114904887D01*
X247270789Y-114479920D01*
X247723063Y-114177720D01*
X247770499Y-114146024D01*
X248325745Y-113916034D01*
X248915189Y-113798786D01*
X249516187Y-113798786D01*
X250105631Y-113916034D01*
G37*
G36*
X253931711Y-118616025D02*
G01*
X253965689Y-118626333D01*
X253997010Y-118643074D01*
X254024459Y-118665601D01*
X254046986Y-118693050D01*
X254063727Y-118724371D01*
X254074035Y-118758349D01*
X254078120Y-118799830D01*
X254078120Y-119401050D01*
X254074035Y-119442531D01*
X254063727Y-119476509D01*
X254046986Y-119507830D01*
X254024459Y-119535279D01*
X253997010Y-119557806D01*
X253965689Y-119574547D01*
X253931711Y-119584855D01*
X253890230Y-119588940D01*
X253214010Y-119588940D01*
X253172529Y-119584855D01*
X253138551Y-119574547D01*
X253107230Y-119557806D01*
X253079781Y-119535279D01*
X253057254Y-119507830D01*
X253040513Y-119476509D01*
X253030205Y-119442531D01*
X253026120Y-119401050D01*
X253026120Y-118799830D01*
X253030205Y-118758349D01*
X253040513Y-118724371D01*
X253057254Y-118693050D01*
X253079781Y-118665601D01*
X253107230Y-118643074D01*
X253138551Y-118626333D01*
X253172529Y-118616025D01*
X253214010Y-118611940D01*
X253890230Y-118611940D01*
X253931711Y-118616025D01*
G37*
G36*
X206448791Y-117847985D02*
G01*
X206482769Y-117858293D01*
X206514090Y-117875034D01*
X206541539Y-117897561D01*
X206564066Y-117925010D01*
X206580807Y-117956331D01*
X206591115Y-117990309D01*
X206595200Y-118031790D01*
X206595200Y-118633010D01*
X206591115Y-118674491D01*
X206580807Y-118708469D01*
X206564066Y-118739790D01*
X206541539Y-118767239D01*
X206514090Y-118789766D01*
X206482769Y-118806507D01*
X206448791Y-118816815D01*
X206407310Y-118820900D01*
X205731090Y-118820900D01*
X205689609Y-118816815D01*
X205655631Y-118806507D01*
X205624310Y-118789766D01*
X205596861Y-118767239D01*
X205574334Y-118739790D01*
X205557593Y-118708469D01*
X205547285Y-118674491D01*
X205543200Y-118633010D01*
X205543200Y-118031790D01*
X205547285Y-117990309D01*
X205557593Y-117956331D01*
X205574334Y-117925010D01*
X205596861Y-117897561D01*
X205624310Y-117875034D01*
X205655631Y-117858293D01*
X205689609Y-117847985D01*
X205731090Y-117843900D01*
X206407310Y-117843900D01*
X206448791Y-117847985D01*
G37*
G36*
X207968791Y-117847985D02*
G01*
X208002769Y-117858293D01*
X208034090Y-117875034D01*
X208061539Y-117897561D01*
X208084066Y-117925010D01*
X208100807Y-117956331D01*
X208111115Y-117990309D01*
X208115200Y-118031790D01*
X208115200Y-118633010D01*
X208111115Y-118674491D01*
X208100807Y-118708469D01*
X208084066Y-118739790D01*
X208061539Y-118767239D01*
X208034090Y-118789766D01*
X208002769Y-118806507D01*
X207968791Y-118816815D01*
X207927310Y-118820900D01*
X207251090Y-118820900D01*
X207209609Y-118816815D01*
X207175631Y-118806507D01*
X207144310Y-118789766D01*
X207116861Y-118767239D01*
X207094334Y-118739790D01*
X207077593Y-118708469D01*
X207067285Y-118674491D01*
X207063200Y-118633010D01*
X207063200Y-118031790D01*
X207067285Y-117990309D01*
X207077593Y-117956331D01*
X207094334Y-117925010D01*
X207116861Y-117897561D01*
X207144310Y-117875034D01*
X207175631Y-117858293D01*
X207209609Y-117847985D01*
X207251090Y-117843900D01*
X207927310Y-117843900D01*
X207968791Y-117847985D01*
G37*
G36*
X231556711Y-117721025D02*
G01*
X231590689Y-117731333D01*
X231622010Y-117748074D01*
X231649459Y-117770601D01*
X231671986Y-117798050D01*
X231688727Y-117829371D01*
X231699035Y-117863349D01*
X231703120Y-117904830D01*
X231703120Y-118581050D01*
X231699035Y-118622531D01*
X231688727Y-118656509D01*
X231671986Y-118687830D01*
X231649459Y-118715279D01*
X231622010Y-118737806D01*
X231590689Y-118754547D01*
X231556711Y-118764855D01*
X231515230Y-118768940D01*
X230914010Y-118768940D01*
X230872529Y-118764855D01*
X230838551Y-118754547D01*
X230807230Y-118737806D01*
X230779781Y-118715279D01*
X230757254Y-118687830D01*
X230740513Y-118656509D01*
X230730205Y-118622531D01*
X230726120Y-118581050D01*
X230726120Y-117904830D01*
X230730205Y-117863349D01*
X230740513Y-117829371D01*
X230757254Y-117798050D01*
X230779781Y-117770601D01*
X230807230Y-117748074D01*
X230838551Y-117731333D01*
X230872529Y-117721025D01*
X230914010Y-117716940D01*
X231515230Y-117716940D01*
X231556711Y-117721025D01*
G37*
G36*
X233131711Y-117721025D02*
G01*
X233165689Y-117731333D01*
X233197010Y-117748074D01*
X233224459Y-117770601D01*
X233246986Y-117798050D01*
X233263727Y-117829371D01*
X233274035Y-117863349D01*
X233278120Y-117904830D01*
X233278120Y-118581050D01*
X233274035Y-118622531D01*
X233263727Y-118656509D01*
X233246986Y-118687830D01*
X233224459Y-118715279D01*
X233197010Y-118737806D01*
X233165689Y-118754547D01*
X233131711Y-118764855D01*
X233090230Y-118768940D01*
X232489010Y-118768940D01*
X232447529Y-118764855D01*
X232413551Y-118754547D01*
X232382230Y-118737806D01*
X232354781Y-118715279D01*
X232332254Y-118687830D01*
X232315513Y-118656509D01*
X232305205Y-118622531D01*
X232301120Y-118581050D01*
X232301120Y-117904830D01*
X232305205Y-117863349D01*
X232315513Y-117829371D01*
X232332254Y-117798050D01*
X232354781Y-117770601D01*
X232382230Y-117748074D01*
X232413551Y-117731333D01*
X232447529Y-117721025D01*
X232489010Y-117716940D01*
X233090230Y-117716940D01*
X233131711Y-117721025D01*
G37*
G36*
X243241711Y-117076025D02*
G01*
X243275689Y-117086333D01*
X243307010Y-117103074D01*
X243334459Y-117125601D01*
X243356986Y-117153050D01*
X243373727Y-117184371D01*
X243384035Y-117218349D01*
X243388120Y-117259830D01*
X243388120Y-117861050D01*
X243384035Y-117902531D01*
X243373727Y-117936509D01*
X243356986Y-117967830D01*
X243334459Y-117995279D01*
X243307010Y-118017806D01*
X243275689Y-118034547D01*
X243241711Y-118044855D01*
X243200230Y-118048940D01*
X242524010Y-118048940D01*
X242482529Y-118044855D01*
X242448551Y-118034547D01*
X242417230Y-118017806D01*
X242389781Y-117995279D01*
X242367254Y-117967830D01*
X242350513Y-117936509D01*
X242340205Y-117902531D01*
X242336120Y-117861050D01*
X242336120Y-117259830D01*
X242340205Y-117218349D01*
X242350513Y-117184371D01*
X242367254Y-117153050D01*
X242389781Y-117125601D01*
X242417230Y-117103074D01*
X242448551Y-117086333D01*
X242482529Y-117076025D01*
X242524010Y-117071940D01*
X243200230Y-117071940D01*
X243241711Y-117076025D01*
G37*
G36*
X244641711Y-117056025D02*
G01*
X244675689Y-117066333D01*
X244707010Y-117083074D01*
X244734459Y-117105601D01*
X244756986Y-117133050D01*
X244773727Y-117164371D01*
X244784035Y-117198349D01*
X244788120Y-117239830D01*
X244788120Y-117841050D01*
X244784035Y-117882531D01*
X244773727Y-117916509D01*
X244756986Y-117947830D01*
X244734459Y-117975279D01*
X244707010Y-117997806D01*
X244675689Y-118014547D01*
X244641711Y-118024855D01*
X244600230Y-118028940D01*
X243924010Y-118028940D01*
X243882529Y-118024855D01*
X243848551Y-118014547D01*
X243817230Y-117997806D01*
X243789781Y-117975279D01*
X243767254Y-117947830D01*
X243750513Y-117916509D01*
X243740205Y-117882531D01*
X243736120Y-117841050D01*
X243736120Y-117239830D01*
X243740205Y-117198349D01*
X243750513Y-117164371D01*
X243767254Y-117133050D01*
X243789781Y-117105601D01*
X243817230Y-117083074D01*
X243848551Y-117066333D01*
X243882529Y-117056025D01*
X243924010Y-117051940D01*
X244600230Y-117051940D01*
X244641711Y-117056025D01*
G37*
G36*
X253931711Y-117041025D02*
G01*
X253965689Y-117051333D01*
X253997010Y-117068074D01*
X254024459Y-117090601D01*
X254046986Y-117118050D01*
X254063727Y-117149371D01*
X254074035Y-117183349D01*
X254078120Y-117224830D01*
X254078120Y-117826050D01*
X254074035Y-117867531D01*
X254063727Y-117901509D01*
X254046986Y-117932830D01*
X254024459Y-117960279D01*
X253997010Y-117982806D01*
X253965689Y-117999547D01*
X253931711Y-118009855D01*
X253890230Y-118013940D01*
X253214010Y-118013940D01*
X253172529Y-118009855D01*
X253138551Y-117999547D01*
X253107230Y-117982806D01*
X253079781Y-117960279D01*
X253057254Y-117932830D01*
X253040513Y-117901509D01*
X253030205Y-117867531D01*
X253026120Y-117826050D01*
X253026120Y-117224830D01*
X253030205Y-117183349D01*
X253040513Y-117149371D01*
X253057254Y-117118050D01*
X253079781Y-117090601D01*
X253107230Y-117068074D01*
X253138551Y-117051333D01*
X253172529Y-117041025D01*
X253214010Y-117036940D01*
X253890230Y-117036940D01*
X253931711Y-117041025D01*
G37*
G36*
X211633120Y-117613940D02*
G01*
X209831120Y-117613940D01*
X209831120Y-115811940D01*
X211633120Y-115811940D01*
X211633120Y-117613940D01*
G37*
G36*
X268363120Y-117393940D02*
G01*
X265961120Y-117393940D01*
X265961120Y-114791940D01*
X268363120Y-114791940D01*
X268363120Y-117393940D01*
G37*
G36*
X223516791Y-116335985D02*
G01*
X223550769Y-116346293D01*
X223582090Y-116363034D01*
X223609539Y-116385561D01*
X223632066Y-116413010D01*
X223648807Y-116444331D01*
X223659115Y-116478309D01*
X223663200Y-116519790D01*
X223663200Y-117121010D01*
X223659115Y-117162491D01*
X223648807Y-117196469D01*
X223632066Y-117227790D01*
X223609539Y-117255239D01*
X223582090Y-117277766D01*
X223550769Y-117294507D01*
X223516791Y-117304815D01*
X223475310Y-117308900D01*
X222799090Y-117308900D01*
X222757609Y-117304815D01*
X222723631Y-117294507D01*
X222692310Y-117277766D01*
X222664861Y-117255239D01*
X222642334Y-117227790D01*
X222625593Y-117196469D01*
X222615285Y-117162491D01*
X222611200Y-117121010D01*
X222611200Y-116519790D01*
X222615285Y-116478309D01*
X222625593Y-116444331D01*
X222642334Y-116413010D01*
X222664861Y-116385561D01*
X222692310Y-116363034D01*
X222723631Y-116346293D01*
X222757609Y-116335985D01*
X222799090Y-116331900D01*
X223475310Y-116331900D01*
X223516791Y-116335985D01*
G37*
G36*
X225026791Y-116325985D02*
G01*
X225060769Y-116336293D01*
X225092090Y-116353034D01*
X225119539Y-116375561D01*
X225142066Y-116403010D01*
X225158807Y-116434331D01*
X225169115Y-116468309D01*
X225173200Y-116509790D01*
X225173200Y-117111010D01*
X225169115Y-117152491D01*
X225158807Y-117186469D01*
X225142066Y-117217790D01*
X225119539Y-117245239D01*
X225092090Y-117267766D01*
X225060769Y-117284507D01*
X225026791Y-117294815D01*
X224985310Y-117298900D01*
X224309090Y-117298900D01*
X224267609Y-117294815D01*
X224233631Y-117284507D01*
X224202310Y-117267766D01*
X224174861Y-117245239D01*
X224152334Y-117217790D01*
X224135593Y-117186469D01*
X224125285Y-117152491D01*
X224121200Y-117111010D01*
X224121200Y-116509790D01*
X224125285Y-116468309D01*
X224135593Y-116434331D01*
X224152334Y-116403010D01*
X224174861Y-116375561D01*
X224202310Y-116353034D01*
X224233631Y-116336293D01*
X224267609Y-116325985D01*
X224309090Y-116321900D01*
X224985310Y-116321900D01*
X225026791Y-116325985D01*
G37*
G36*
X227591711Y-116316025D02*
G01*
X227625689Y-116326333D01*
X227657010Y-116343074D01*
X227684459Y-116365601D01*
X227706986Y-116393050D01*
X227723727Y-116424371D01*
X227734035Y-116458349D01*
X227738120Y-116499830D01*
X227738120Y-117101050D01*
X227734035Y-117142531D01*
X227723727Y-117176509D01*
X227706986Y-117207830D01*
X227684459Y-117235279D01*
X227657010Y-117257806D01*
X227625689Y-117274547D01*
X227591711Y-117284855D01*
X227550230Y-117288940D01*
X226874010Y-117288940D01*
X226832529Y-117284855D01*
X226798551Y-117274547D01*
X226767230Y-117257806D01*
X226739781Y-117235279D01*
X226717254Y-117207830D01*
X226700513Y-117176509D01*
X226690205Y-117142531D01*
X226686120Y-117101050D01*
X226686120Y-116499830D01*
X226690205Y-116458349D01*
X226700513Y-116424371D01*
X226717254Y-116393050D01*
X226739781Y-116365601D01*
X226767230Y-116343074D01*
X226798551Y-116326333D01*
X226832529Y-116316025D01*
X226874010Y-116311940D01*
X227550230Y-116311940D01*
X227591711Y-116316025D01*
G37*
G36*
X219361908Y-115225904D02*
G01*
X219382989Y-115232300D01*
X219402425Y-115242688D01*
X219419456Y-115256664D01*
X219433432Y-115273695D01*
X219443820Y-115293131D01*
X219450216Y-115314212D01*
X219452980Y-115342280D01*
X219452980Y-117156000D01*
X219450216Y-117184068D01*
X219443820Y-117205149D01*
X219433432Y-117224585D01*
X219419456Y-117241616D01*
X219402425Y-117255592D01*
X219382989Y-117265980D01*
X219361908Y-117272376D01*
X219333840Y-117275140D01*
X218870120Y-117275140D01*
X218842052Y-117272376D01*
X218820971Y-117265980D01*
X218801535Y-117255592D01*
X218784504Y-117241616D01*
X218770528Y-117224585D01*
X218760140Y-117205149D01*
X218753744Y-117184068D01*
X218750980Y-117156000D01*
X218750980Y-115342280D01*
X218753744Y-115314212D01*
X218760140Y-115293131D01*
X218770528Y-115273695D01*
X218784504Y-115256664D01*
X218801535Y-115242688D01*
X218820971Y-115232300D01*
X218842052Y-115225904D01*
X218870120Y-115223140D01*
X219333840Y-115223140D01*
X219361908Y-115225904D01*
G37*
G36*
X215551908Y-115225904D02*
G01*
X215572989Y-115232300D01*
X215592425Y-115242688D01*
X215609456Y-115256664D01*
X215623432Y-115273695D01*
X215633820Y-115293131D01*
X215640216Y-115314212D01*
X215642980Y-115342280D01*
X215642980Y-117156000D01*
X215640216Y-117184068D01*
X215633820Y-117205149D01*
X215623432Y-117224585D01*
X215609456Y-117241616D01*
X215592425Y-117255592D01*
X215572989Y-117265980D01*
X215551908Y-117272376D01*
X215523840Y-117275140D01*
X215060120Y-117275140D01*
X215032052Y-117272376D01*
X215010971Y-117265980D01*
X214991535Y-117255592D01*
X214974504Y-117241616D01*
X214960528Y-117224585D01*
X214950140Y-117205149D01*
X214943744Y-117184068D01*
X214940980Y-117156000D01*
X214940980Y-115342280D01*
X214943744Y-115314212D01*
X214950140Y-115293131D01*
X214960528Y-115273695D01*
X214974504Y-115256664D01*
X214991535Y-115242688D01*
X215010971Y-115232300D01*
X215032052Y-115225904D01*
X215060120Y-115223140D01*
X215523840Y-115223140D01*
X215551908Y-115225904D01*
G37*
G36*
X216821908Y-115225904D02*
G01*
X216842989Y-115232300D01*
X216862425Y-115242688D01*
X216879456Y-115256664D01*
X216893432Y-115273695D01*
X216903820Y-115293131D01*
X216910216Y-115314212D01*
X216912980Y-115342280D01*
X216912980Y-117156000D01*
X216910216Y-117184068D01*
X216903820Y-117205149D01*
X216893432Y-117224585D01*
X216879456Y-117241616D01*
X216862425Y-117255592D01*
X216842989Y-117265980D01*
X216821908Y-117272376D01*
X216793840Y-117275140D01*
X216330120Y-117275140D01*
X216302052Y-117272376D01*
X216280971Y-117265980D01*
X216261535Y-117255592D01*
X216244504Y-117241616D01*
X216230528Y-117224585D01*
X216220140Y-117205149D01*
X216213744Y-117184068D01*
X216210980Y-117156000D01*
X216210980Y-115342280D01*
X216213744Y-115314212D01*
X216220140Y-115293131D01*
X216230528Y-115273695D01*
X216244504Y-115256664D01*
X216261535Y-115242688D01*
X216280971Y-115232300D01*
X216302052Y-115225904D01*
X216330120Y-115223140D01*
X216793840Y-115223140D01*
X216821908Y-115225904D01*
G37*
G36*
X218091908Y-115225904D02*
G01*
X218112989Y-115232300D01*
X218132425Y-115242688D01*
X218149456Y-115256664D01*
X218163432Y-115273695D01*
X218173820Y-115293131D01*
X218180216Y-115314212D01*
X218182980Y-115342280D01*
X218182980Y-117156000D01*
X218180216Y-117184068D01*
X218173820Y-117205149D01*
X218163432Y-117224585D01*
X218149456Y-117241616D01*
X218132425Y-117255592D01*
X218112989Y-117265980D01*
X218091908Y-117272376D01*
X218063840Y-117275140D01*
X217600120Y-117275140D01*
X217572052Y-117272376D01*
X217550971Y-117265980D01*
X217531535Y-117255592D01*
X217514504Y-117241616D01*
X217500528Y-117224585D01*
X217490140Y-117205149D01*
X217483744Y-117184068D01*
X217480980Y-117156000D01*
X217480980Y-115342280D01*
X217483744Y-115314212D01*
X217490140Y-115293131D01*
X217500528Y-115273695D01*
X217514504Y-115256664D01*
X217531535Y-115242688D01*
X217550971Y-115232300D01*
X217572052Y-115225904D01*
X217600120Y-115223140D01*
X218063840Y-115223140D01*
X218091908Y-115225904D01*
G37*
G36*
X207968791Y-116272985D02*
G01*
X208002769Y-116283293D01*
X208034090Y-116300034D01*
X208061539Y-116322561D01*
X208084066Y-116350010D01*
X208100807Y-116381331D01*
X208111115Y-116415309D01*
X208115200Y-116456790D01*
X208115200Y-117058010D01*
X208111115Y-117099491D01*
X208100807Y-117133469D01*
X208084066Y-117164790D01*
X208061539Y-117192239D01*
X208034090Y-117214766D01*
X208002769Y-117231507D01*
X207968791Y-117241815D01*
X207927310Y-117245900D01*
X207251090Y-117245900D01*
X207209609Y-117241815D01*
X207175631Y-117231507D01*
X207144310Y-117214766D01*
X207116861Y-117192239D01*
X207094334Y-117164790D01*
X207077593Y-117133469D01*
X207067285Y-117099491D01*
X207063200Y-117058010D01*
X207063200Y-116456790D01*
X207067285Y-116415309D01*
X207077593Y-116381331D01*
X207094334Y-116350010D01*
X207116861Y-116322561D01*
X207144310Y-116300034D01*
X207175631Y-116283293D01*
X207209609Y-116272985D01*
X207251090Y-116268900D01*
X207927310Y-116268900D01*
X207968791Y-116272985D01*
G37*
G36*
X206448791Y-116272985D02*
G01*
X206482769Y-116283293D01*
X206514090Y-116300034D01*
X206541539Y-116322561D01*
X206564066Y-116350010D01*
X206580807Y-116381331D01*
X206591115Y-116415309D01*
X206595200Y-116456790D01*
X206595200Y-117058010D01*
X206591115Y-117099491D01*
X206580807Y-117133469D01*
X206564066Y-117164790D01*
X206541539Y-117192239D01*
X206514090Y-117214766D01*
X206482769Y-117231507D01*
X206448791Y-117241815D01*
X206407310Y-117245900D01*
X205731090Y-117245900D01*
X205689609Y-117241815D01*
X205655631Y-117231507D01*
X205624310Y-117214766D01*
X205596861Y-117192239D01*
X205574334Y-117164790D01*
X205557593Y-117133469D01*
X205547285Y-117099491D01*
X205543200Y-117058010D01*
X205543200Y-116456790D01*
X205547285Y-116415309D01*
X205557593Y-116381331D01*
X205574334Y-116350010D01*
X205596861Y-116322561D01*
X205624310Y-116300034D01*
X205655631Y-116283293D01*
X205689609Y-116272985D01*
X205731090Y-116268900D01*
X206407310Y-116268900D01*
X206448791Y-116272985D01*
G37*
G36*
X243241711Y-115501025D02*
G01*
X243275689Y-115511333D01*
X243307010Y-115528074D01*
X243334459Y-115550601D01*
X243356986Y-115578050D01*
X243373727Y-115609371D01*
X243384035Y-115643349D01*
X243388120Y-115684830D01*
X243388120Y-116286050D01*
X243384035Y-116327531D01*
X243373727Y-116361509D01*
X243356986Y-116392830D01*
X243334459Y-116420279D01*
X243307010Y-116442806D01*
X243275689Y-116459547D01*
X243241711Y-116469855D01*
X243200230Y-116473940D01*
X242524010Y-116473940D01*
X242482529Y-116469855D01*
X242448551Y-116459547D01*
X242417230Y-116442806D01*
X242389781Y-116420279D01*
X242367254Y-116392830D01*
X242350513Y-116361509D01*
X242340205Y-116327531D01*
X242336120Y-116286050D01*
X242336120Y-115684830D01*
X242340205Y-115643349D01*
X242350513Y-115609371D01*
X242367254Y-115578050D01*
X242389781Y-115550601D01*
X242417230Y-115528074D01*
X242448551Y-115511333D01*
X242482529Y-115501025D01*
X242524010Y-115496940D01*
X243200230Y-115496940D01*
X243241711Y-115501025D01*
G37*
G36*
X244641711Y-115481025D02*
G01*
X244675689Y-115491333D01*
X244707010Y-115508074D01*
X244734459Y-115530601D01*
X244756986Y-115558050D01*
X244773727Y-115589371D01*
X244784035Y-115623349D01*
X244788120Y-115664830D01*
X244788120Y-116266050D01*
X244784035Y-116307531D01*
X244773727Y-116341509D01*
X244756986Y-116372830D01*
X244734459Y-116400279D01*
X244707010Y-116422806D01*
X244675689Y-116439547D01*
X244641711Y-116449855D01*
X244600230Y-116453940D01*
X243924010Y-116453940D01*
X243882529Y-116449855D01*
X243848551Y-116439547D01*
X243817230Y-116422806D01*
X243789781Y-116400279D01*
X243767254Y-116372830D01*
X243750513Y-116341509D01*
X243740205Y-116307531D01*
X243736120Y-116266050D01*
X243736120Y-115664830D01*
X243740205Y-115623349D01*
X243750513Y-115589371D01*
X243767254Y-115558050D01*
X243789781Y-115530601D01*
X243817230Y-115508074D01*
X243848551Y-115491333D01*
X243882529Y-115481025D01*
X243924010Y-115476940D01*
X244600230Y-115476940D01*
X244641711Y-115481025D01*
G37*
G36*
X223516791Y-114760985D02*
G01*
X223550769Y-114771293D01*
X223582090Y-114788034D01*
X223609539Y-114810561D01*
X223632066Y-114838010D01*
X223648807Y-114869331D01*
X223659115Y-114903309D01*
X223663200Y-114944790D01*
X223663200Y-115546010D01*
X223659115Y-115587491D01*
X223648807Y-115621469D01*
X223632066Y-115652790D01*
X223609539Y-115680239D01*
X223582090Y-115702766D01*
X223550769Y-115719507D01*
X223516791Y-115729815D01*
X223475310Y-115733900D01*
X222799090Y-115733900D01*
X222757609Y-115729815D01*
X222723631Y-115719507D01*
X222692310Y-115702766D01*
X222664861Y-115680239D01*
X222642334Y-115652790D01*
X222625593Y-115621469D01*
X222615285Y-115587491D01*
X222611200Y-115546010D01*
X222611200Y-114944790D01*
X222615285Y-114903309D01*
X222625593Y-114869331D01*
X222642334Y-114838010D01*
X222664861Y-114810561D01*
X222692310Y-114788034D01*
X222723631Y-114771293D01*
X222757609Y-114760985D01*
X222799090Y-114756900D01*
X223475310Y-114756900D01*
X223516791Y-114760985D01*
G37*
G36*
X225026791Y-114750985D02*
G01*
X225060769Y-114761293D01*
X225092090Y-114778034D01*
X225119539Y-114800561D01*
X225142066Y-114828010D01*
X225158807Y-114859331D01*
X225169115Y-114893309D01*
X225173200Y-114934790D01*
X225173200Y-115536010D01*
X225169115Y-115577491D01*
X225158807Y-115611469D01*
X225142066Y-115642790D01*
X225119539Y-115670239D01*
X225092090Y-115692766D01*
X225060769Y-115709507D01*
X225026791Y-115719815D01*
X224985310Y-115723900D01*
X224309090Y-115723900D01*
X224267609Y-115719815D01*
X224233631Y-115709507D01*
X224202310Y-115692766D01*
X224174861Y-115670239D01*
X224152334Y-115642790D01*
X224135593Y-115611469D01*
X224125285Y-115577491D01*
X224121200Y-115536010D01*
X224121200Y-114934790D01*
X224125285Y-114893309D01*
X224135593Y-114859331D01*
X224152334Y-114828010D01*
X224174861Y-114800561D01*
X224202310Y-114778034D01*
X224233631Y-114761293D01*
X224267609Y-114750985D01*
X224309090Y-114746900D01*
X224985310Y-114746900D01*
X225026791Y-114750985D01*
G37*
G36*
X227591711Y-114741025D02*
G01*
X227625689Y-114751333D01*
X227657010Y-114768074D01*
X227684459Y-114790601D01*
X227706986Y-114818050D01*
X227723727Y-114849371D01*
X227734035Y-114883349D01*
X227738120Y-114924830D01*
X227738120Y-115526050D01*
X227734035Y-115567531D01*
X227723727Y-115601509D01*
X227706986Y-115632830D01*
X227684459Y-115660279D01*
X227657010Y-115682806D01*
X227625689Y-115699547D01*
X227591711Y-115709855D01*
X227550230Y-115713940D01*
X226874010Y-115713940D01*
X226832529Y-115709855D01*
X226798551Y-115699547D01*
X226767230Y-115682806D01*
X226739781Y-115660279D01*
X226717254Y-115632830D01*
X226700513Y-115601509D01*
X226690205Y-115567531D01*
X226686120Y-115526050D01*
X226686120Y-114924830D01*
X226690205Y-114883349D01*
X226700513Y-114849371D01*
X226717254Y-114818050D01*
X226739781Y-114790601D01*
X226767230Y-114768074D01*
X226798551Y-114751333D01*
X226832529Y-114741025D01*
X226874010Y-114736940D01*
X227550230Y-114736940D01*
X227591711Y-114741025D01*
G37*
G36*
X244606711Y-113679025D02*
G01*
X244640689Y-113689333D01*
X244672010Y-113706074D01*
X244699459Y-113728601D01*
X244721986Y-113756050D01*
X244738727Y-113787371D01*
X244749035Y-113821349D01*
X244753120Y-113862830D01*
X244753120Y-114539050D01*
X244749035Y-114580531D01*
X244738727Y-114614509D01*
X244721986Y-114645830D01*
X244699459Y-114673279D01*
X244672010Y-114695806D01*
X244640689Y-114712547D01*
X244606711Y-114722855D01*
X244565230Y-114726940D01*
X243964010Y-114726940D01*
X243922529Y-114722855D01*
X243888551Y-114712547D01*
X243857230Y-114695806D01*
X243829781Y-114673279D01*
X243807254Y-114645830D01*
X243790513Y-114614509D01*
X243780205Y-114580531D01*
X243780016Y-114578608D01*
X243775236Y-114554575D01*
X243765858Y-114531936D01*
X243752245Y-114511562D01*
X243734918Y-114494235D01*
X243714543Y-114480621D01*
X243691904Y-114471243D01*
X243667871Y-114466463D01*
X243643367Y-114466463D01*
X243619334Y-114471243D01*
X243596695Y-114480621D01*
X243576321Y-114494234D01*
X243558994Y-114511561D01*
X243545380Y-114531936D01*
X243536002Y-114554575D01*
X243531222Y-114578608D01*
X243530620Y-114590860D01*
X243530620Y-114891050D01*
X243526535Y-114932531D01*
X243516227Y-114966509D01*
X243499486Y-114997830D01*
X243476959Y-115025279D01*
X243449510Y-115047806D01*
X243418189Y-115064547D01*
X243384211Y-115074855D01*
X243342730Y-115078940D01*
X242741510Y-115078940D01*
X242700029Y-115074855D01*
X242666051Y-115064547D01*
X242634730Y-115047806D01*
X242607281Y-115025279D01*
X242584754Y-114997830D01*
X242568013Y-114966509D01*
X242557705Y-114932531D01*
X242553620Y-114891050D01*
X242553620Y-114214830D01*
X242557705Y-114173349D01*
X242568013Y-114139371D01*
X242584754Y-114108050D01*
X242607281Y-114080601D01*
X242634730Y-114058074D01*
X242666051Y-114041333D01*
X242700029Y-114031025D01*
X242741510Y-114026940D01*
X243342730Y-114026940D01*
X243384211Y-114031025D01*
X243418189Y-114041333D01*
X243449510Y-114058074D01*
X243476959Y-114080601D01*
X243499486Y-114108050D01*
X243516227Y-114139371D01*
X243526535Y-114173349D01*
X243526724Y-114175272D01*
X243531504Y-114199305D01*
X243540882Y-114221944D01*
X243554495Y-114242318D01*
X243571822Y-114259645D01*
X243592197Y-114273259D01*
X243614836Y-114282637D01*
X243638869Y-114287417D01*
X243663373Y-114287417D01*
X243687406Y-114282637D01*
X243710045Y-114273259D01*
X243730419Y-114259646D01*
X243747746Y-114242319D01*
X243761360Y-114221944D01*
X243770738Y-114199305D01*
X243775518Y-114175272D01*
X243776120Y-114163020D01*
X243776120Y-113862830D01*
X243780205Y-113821349D01*
X243790513Y-113787371D01*
X243807254Y-113756050D01*
X243829781Y-113728601D01*
X243857230Y-113706074D01*
X243888551Y-113689333D01*
X243922529Y-113679025D01*
X243964010Y-113674940D01*
X244565230Y-113674940D01*
X244606711Y-113679025D01*
G37*
G36*
X241809211Y-114031025D02*
G01*
X241843189Y-114041333D01*
X241874510Y-114058074D01*
X241901959Y-114080601D01*
X241924486Y-114108050D01*
X241941227Y-114139371D01*
X241951535Y-114173349D01*
X241955620Y-114214830D01*
X241955620Y-114891050D01*
X241951535Y-114932531D01*
X241941227Y-114966509D01*
X241924486Y-114997830D01*
X241901959Y-115025279D01*
X241874510Y-115047806D01*
X241843189Y-115064547D01*
X241809211Y-115074855D01*
X241767730Y-115078940D01*
X241166510Y-115078940D01*
X241125029Y-115074855D01*
X241091051Y-115064547D01*
X241059730Y-115047806D01*
X241032281Y-115025279D01*
X241009754Y-114997830D01*
X240993013Y-114966509D01*
X240982705Y-114932531D01*
X240978620Y-114891050D01*
X240978620Y-114214830D01*
X240982705Y-114173349D01*
X240993013Y-114139371D01*
X241009754Y-114108050D01*
X241032281Y-114080601D01*
X241059730Y-114058074D01*
X241091051Y-114041333D01*
X241125029Y-114031025D01*
X241166510Y-114026940D01*
X241767730Y-114026940D01*
X241809211Y-114031025D01*
G37*
G36*
X262903120Y-114973940D02*
G01*
X255801120Y-114973940D01*
X255801120Y-112871940D01*
X262903120Y-112871940D01*
X262903120Y-114973940D01*
G37*
G36*
X218613171Y-113820125D02*
G01*
X218647149Y-113830433D01*
X218678470Y-113847174D01*
X218705919Y-113869701D01*
X218728446Y-113897150D01*
X218745187Y-113928471D01*
X218755495Y-113962449D01*
X218759580Y-114003930D01*
X218759580Y-114605150D01*
X218755495Y-114646631D01*
X218745187Y-114680609D01*
X218728446Y-114711930D01*
X218705919Y-114739379D01*
X218678470Y-114761906D01*
X218647149Y-114778647D01*
X218613171Y-114788955D01*
X218571690Y-114793040D01*
X217895470Y-114793040D01*
X217853989Y-114788955D01*
X217820011Y-114778647D01*
X217788690Y-114761906D01*
X217761241Y-114739379D01*
X217738714Y-114711930D01*
X217721973Y-114680609D01*
X217711665Y-114646631D01*
X217707580Y-114605150D01*
X217707580Y-114003930D01*
X217711665Y-113962449D01*
X217721973Y-113928471D01*
X217738714Y-113897150D01*
X217761241Y-113869701D01*
X217788690Y-113847174D01*
X217820011Y-113830433D01*
X217853989Y-113820125D01*
X217895470Y-113816040D01*
X218571690Y-113816040D01*
X218613171Y-113820125D01*
G37*
G36*
X217101871Y-113807425D02*
G01*
X217135849Y-113817733D01*
X217167170Y-113834474D01*
X217194619Y-113857001D01*
X217217146Y-113884450D01*
X217233887Y-113915771D01*
X217244195Y-113949749D01*
X217248280Y-113991230D01*
X217248280Y-114592450D01*
X217244195Y-114633931D01*
X217233887Y-114667909D01*
X217217146Y-114699230D01*
X217194619Y-114726679D01*
X217167170Y-114749206D01*
X217135849Y-114765947D01*
X217101871Y-114776255D01*
X217060390Y-114780340D01*
X216384170Y-114780340D01*
X216342689Y-114776255D01*
X216308711Y-114765947D01*
X216277390Y-114749206D01*
X216249941Y-114726679D01*
X216227414Y-114699230D01*
X216210673Y-114667909D01*
X216200365Y-114633931D01*
X216196280Y-114592450D01*
X216196280Y-113991230D01*
X216200365Y-113949749D01*
X216210673Y-113915771D01*
X216227414Y-113884450D01*
X216249941Y-113857001D01*
X216277390Y-113834474D01*
X216308711Y-113817733D01*
X216342689Y-113807425D01*
X216384170Y-113803340D01*
X217060390Y-113803340D01*
X217101871Y-113807425D01*
G37*
G36*
X215616791Y-113805985D02*
G01*
X215650769Y-113816293D01*
X215682090Y-113833034D01*
X215709539Y-113855561D01*
X215732066Y-113883010D01*
X215748807Y-113914331D01*
X215759115Y-113948309D01*
X215763200Y-113989790D01*
X215763200Y-114591010D01*
X215759115Y-114632491D01*
X215748807Y-114666469D01*
X215732066Y-114697790D01*
X215709539Y-114725239D01*
X215682090Y-114747766D01*
X215650769Y-114764507D01*
X215616791Y-114774815D01*
X215575310Y-114778900D01*
X214899090Y-114778900D01*
X214857609Y-114774815D01*
X214823631Y-114764507D01*
X214792310Y-114747766D01*
X214764861Y-114725239D01*
X214742334Y-114697790D01*
X214725593Y-114666469D01*
X214715285Y-114632491D01*
X214711200Y-114591010D01*
X214711200Y-113989790D01*
X214715285Y-113948309D01*
X214725593Y-113914331D01*
X214742334Y-113883010D01*
X214764861Y-113855561D01*
X214792310Y-113833034D01*
X214823631Y-113816293D01*
X214857609Y-113805985D01*
X214899090Y-113801900D01*
X215575310Y-113801900D01*
X215616791Y-113805985D01*
G37*
G36*
X246181711Y-113679025D02*
G01*
X246215689Y-113689333D01*
X246247010Y-113706074D01*
X246274459Y-113728601D01*
X246296986Y-113756050D01*
X246313727Y-113787371D01*
X246324035Y-113821349D01*
X246328120Y-113862830D01*
X246328120Y-114539050D01*
X246324035Y-114580531D01*
X246313727Y-114614509D01*
X246296986Y-114645830D01*
X246274459Y-114673279D01*
X246247010Y-114695806D01*
X246215689Y-114712547D01*
X246181711Y-114722855D01*
X246140230Y-114726940D01*
X245539010Y-114726940D01*
X245497529Y-114722855D01*
X245463551Y-114712547D01*
X245432230Y-114695806D01*
X245404781Y-114673279D01*
X245382254Y-114645830D01*
X245365513Y-114614509D01*
X245355205Y-114580531D01*
X245351120Y-114539050D01*
X245351120Y-113862830D01*
X245355205Y-113821349D01*
X245365513Y-113787371D01*
X245382254Y-113756050D01*
X245404781Y-113728601D01*
X245432230Y-113706074D01*
X245463551Y-113689333D01*
X245497529Y-113679025D01*
X245539010Y-113674940D01*
X246140230Y-113674940D01*
X246181711Y-113679025D01*
G37*
G36*
X218613171Y-112245125D02*
G01*
X218647149Y-112255433D01*
X218678470Y-112272174D01*
X218705919Y-112294701D01*
X218728446Y-112322150D01*
X218745187Y-112353471D01*
X218755495Y-112387449D01*
X218759580Y-112428930D01*
X218759580Y-113030150D01*
X218755495Y-113071631D01*
X218745187Y-113105609D01*
X218728446Y-113136930D01*
X218705919Y-113164379D01*
X218678470Y-113186906D01*
X218647149Y-113203647D01*
X218613171Y-113213955D01*
X218571690Y-113218040D01*
X217895470Y-113218040D01*
X217853989Y-113213955D01*
X217820011Y-113203647D01*
X217788690Y-113186906D01*
X217761241Y-113164379D01*
X217738714Y-113136930D01*
X217721973Y-113105609D01*
X217711665Y-113071631D01*
X217707580Y-113030150D01*
X217707580Y-112428930D01*
X217711665Y-112387449D01*
X217721973Y-112353471D01*
X217738714Y-112322150D01*
X217761241Y-112294701D01*
X217788690Y-112272174D01*
X217820011Y-112255433D01*
X217853989Y-112245125D01*
X217895470Y-112241040D01*
X218571690Y-112241040D01*
X218613171Y-112245125D01*
G37*
G36*
X217101871Y-112232425D02*
G01*
X217135849Y-112242733D01*
X217167170Y-112259474D01*
X217194619Y-112282001D01*
X217217146Y-112309450D01*
X217233887Y-112340771D01*
X217244195Y-112374749D01*
X217248280Y-112416230D01*
X217248280Y-113017450D01*
X217244195Y-113058931D01*
X217233887Y-113092909D01*
X217217146Y-113124230D01*
X217194619Y-113151679D01*
X217167170Y-113174206D01*
X217135849Y-113190947D01*
X217101871Y-113201255D01*
X217060390Y-113205340D01*
X216384170Y-113205340D01*
X216342689Y-113201255D01*
X216308711Y-113190947D01*
X216277390Y-113174206D01*
X216249941Y-113151679D01*
X216227414Y-113124230D01*
X216210673Y-113092909D01*
X216200365Y-113058931D01*
X216196280Y-113017450D01*
X216196280Y-112416230D01*
X216200365Y-112374749D01*
X216210673Y-112340771D01*
X216227414Y-112309450D01*
X216249941Y-112282001D01*
X216277390Y-112259474D01*
X216308711Y-112242733D01*
X216342689Y-112232425D01*
X216384170Y-112228340D01*
X217060390Y-112228340D01*
X217101871Y-112232425D01*
G37*
G36*
X215616791Y-112230985D02*
G01*
X215650769Y-112241293D01*
X215682090Y-112258034D01*
X215709539Y-112280561D01*
X215732066Y-112308010D01*
X215748807Y-112339331D01*
X215759115Y-112373309D01*
X215763200Y-112414790D01*
X215763200Y-113016010D01*
X215759115Y-113057491D01*
X215748807Y-113091469D01*
X215732066Y-113122790D01*
X215709539Y-113150239D01*
X215682090Y-113172766D01*
X215650769Y-113189507D01*
X215616791Y-113199815D01*
X215575310Y-113203900D01*
X214899090Y-113203900D01*
X214857609Y-113199815D01*
X214823631Y-113189507D01*
X214792310Y-113172766D01*
X214764861Y-113150239D01*
X214742334Y-113122790D01*
X214725593Y-113091469D01*
X214715285Y-113057491D01*
X214711200Y-113016010D01*
X214711200Y-112414790D01*
X214715285Y-112373309D01*
X214725593Y-112339331D01*
X214742334Y-112308010D01*
X214764861Y-112280561D01*
X214792310Y-112258034D01*
X214823631Y-112241293D01*
X214857609Y-112230985D01*
X214899090Y-112226900D01*
X215575310Y-112226900D01*
X215616791Y-112230985D01*
G37*
G36*
X268363120Y-113093940D02*
G01*
X265961120Y-113093940D01*
X265961120Y-110491940D01*
X268363120Y-110491940D01*
X268363120Y-113093940D01*
G37*
G36*
X217026171Y-110734625D02*
G01*
X217060149Y-110744933D01*
X217091470Y-110761674D01*
X217118919Y-110784201D01*
X217141446Y-110811650D01*
X217158187Y-110842971D01*
X217168495Y-110876949D01*
X217172580Y-110918430D01*
X217172580Y-111594650D01*
X217168495Y-111636131D01*
X217158187Y-111670109D01*
X217141446Y-111701430D01*
X217118919Y-111728879D01*
X217091470Y-111751406D01*
X217060149Y-111768147D01*
X217026171Y-111778455D01*
X216984690Y-111782540D01*
X216383470Y-111782540D01*
X216341989Y-111778455D01*
X216308011Y-111768147D01*
X216276690Y-111751406D01*
X216249241Y-111728879D01*
X216226714Y-111701430D01*
X216209973Y-111670109D01*
X216199665Y-111636131D01*
X216195580Y-111594650D01*
X216195580Y-110918430D01*
X216199665Y-110876949D01*
X216209973Y-110842971D01*
X216226714Y-110811650D01*
X216249241Y-110784201D01*
X216276690Y-110761674D01*
X216308011Y-110744933D01*
X216341989Y-110734625D01*
X216383470Y-110730540D01*
X216984690Y-110730540D01*
X217026171Y-110734625D01*
G37*
G36*
X218601171Y-110734625D02*
G01*
X218635149Y-110744933D01*
X218666470Y-110761674D01*
X218693919Y-110784201D01*
X218716446Y-110811650D01*
X218733187Y-110842971D01*
X218743495Y-110876949D01*
X218747580Y-110918430D01*
X218747580Y-111594650D01*
X218743495Y-111636131D01*
X218733187Y-111670109D01*
X218716446Y-111701430D01*
X218693919Y-111728879D01*
X218666470Y-111751406D01*
X218635149Y-111768147D01*
X218601171Y-111778455D01*
X218559690Y-111782540D01*
X217958470Y-111782540D01*
X217916989Y-111778455D01*
X217883011Y-111768147D01*
X217851690Y-111751406D01*
X217824241Y-111728879D01*
X217801714Y-111701430D01*
X217784973Y-111670109D01*
X217774665Y-111636131D01*
X217770580Y-111594650D01*
X217770580Y-110918430D01*
X217774665Y-110876949D01*
X217784973Y-110842971D01*
X217801714Y-110811650D01*
X217824241Y-110784201D01*
X217851690Y-110761674D01*
X217883011Y-110744933D01*
X217916989Y-110734625D01*
X217958470Y-110730540D01*
X218559690Y-110730540D01*
X218601171Y-110734625D01*
G37*
G36*
X262903120Y-109973940D02*
G01*
X255801120Y-109973940D01*
X255801120Y-107871940D01*
X262903120Y-107871940D01*
X262903120Y-109973940D01*
G37*
G36*
X268363120Y-109943940D02*
G01*
X265961120Y-109943940D01*
X265961120Y-107341940D01*
X268363120Y-107341940D01*
X268363120Y-109943940D01*
G37*
G36*
X214396292Y-100919448D02*
G01*
X214951538Y-101149438D01*
X214951539Y-101149439D01*
X215451248Y-101483334D01*
X215876215Y-101908301D01*
X215876216Y-101908303D01*
X216210111Y-102408011D01*
X216440101Y-102963257D01*
X216557349Y-103552701D01*
X216557349Y-104153699D01*
X216440101Y-104743143D01*
X216210111Y-105298389D01*
X216210110Y-105298390D01*
X215876215Y-105798099D01*
X215451248Y-106223066D01*
X215199696Y-106391148D01*
X214951538Y-106556962D01*
X214396292Y-106786952D01*
X213806848Y-106904200D01*
X213205850Y-106904200D01*
X212616406Y-106786952D01*
X212061160Y-106556962D01*
X211813002Y-106391148D01*
X211561450Y-106223066D01*
X211136483Y-105798099D01*
X210802588Y-105298390D01*
X210802587Y-105298389D01*
X210572597Y-104743143D01*
X210455349Y-104153699D01*
X210455349Y-103552701D01*
X210572597Y-102963257D01*
X210802587Y-102408011D01*
X211136482Y-101908303D01*
X211136483Y-101908301D01*
X211561450Y-101483334D01*
X212061159Y-101149439D01*
X212061160Y-101149438D01*
X212616406Y-100919448D01*
X213205850Y-100802200D01*
X213806848Y-100802200D01*
X214396292Y-100919448D01*
G37*
G36*
X268363120Y-105643940D02*
G01*
X265961120Y-105643940D01*
X265961120Y-103041940D01*
X268363120Y-103041940D01*
X268363120Y-105643940D01*
G37*
G36*
X214333120Y-94833940D02*
G01*
X210231120Y-94833940D01*
X210231120Y-91731940D01*
X214333120Y-91731940D01*
X214333120Y-94833940D01*
G37*
G36*
X261299400Y-92229600D02*
G01*
X259197400Y-92229600D01*
X259197400Y-90627600D01*
X261299400Y-90627600D01*
X261299400Y-92229600D01*
G37*
G36*
X266078600Y-92085000D02*
G01*
X264476600Y-92085000D01*
X264476600Y-89983000D01*
X266078600Y-89983000D01*
X266078600Y-92085000D01*
G37*
G36*
X268378600Y-92085000D02*
G01*
X266776600Y-92085000D01*
X266776600Y-89983000D01*
X268378600Y-89983000D01*
X268378600Y-92085000D01*
G37*
G36*
X263778600Y-92085000D02*
G01*
X262176600Y-92085000D01*
X262176600Y-89983000D01*
X263778600Y-89983000D01*
X263778600Y-92085000D01*
G37*
G36*
X254999400Y-91079600D02*
G01*
X252897400Y-91079600D01*
X252897400Y-87177600D01*
X254999400Y-87177600D01*
X254999400Y-91079600D01*
G37*
G36*
X261299400Y-89929600D02*
G01*
X259197400Y-89929600D01*
X259197400Y-88327600D01*
X261299400Y-88327600D01*
X261299400Y-89929600D01*
G37*
G36*
X252165511Y-88825125D02*
G01*
X252199489Y-88835433D01*
X252230810Y-88852174D01*
X252258259Y-88874701D01*
X252280786Y-88902150D01*
X252297527Y-88933471D01*
X252307835Y-88967449D01*
X252311920Y-89008930D01*
X252311920Y-89685150D01*
X252307835Y-89726631D01*
X252297527Y-89760609D01*
X252280786Y-89791930D01*
X252258259Y-89819379D01*
X252230810Y-89841906D01*
X252199489Y-89858647D01*
X252165511Y-89868955D01*
X252124030Y-89873040D01*
X251522810Y-89873040D01*
X251481329Y-89868955D01*
X251447351Y-89858647D01*
X251416030Y-89841906D01*
X251388581Y-89819379D01*
X251366054Y-89791930D01*
X251349313Y-89760609D01*
X251339005Y-89726631D01*
X251334920Y-89685150D01*
X251334920Y-89008930D01*
X251339005Y-88967449D01*
X251349313Y-88933471D01*
X251366054Y-88902150D01*
X251388581Y-88874701D01*
X251416030Y-88852174D01*
X251447351Y-88835433D01*
X251481329Y-88825125D01*
X251522810Y-88821040D01*
X252124030Y-88821040D01*
X252165511Y-88825125D01*
G37*
G36*
X250590511Y-88825125D02*
G01*
X250624489Y-88835433D01*
X250655810Y-88852174D01*
X250683259Y-88874701D01*
X250705786Y-88902150D01*
X250722527Y-88933471D01*
X250732835Y-88967449D01*
X250736920Y-89008930D01*
X250736920Y-89685150D01*
X250732835Y-89726631D01*
X250722527Y-89760609D01*
X250705786Y-89791930D01*
X250683259Y-89819379D01*
X250655810Y-89841906D01*
X250624489Y-89858647D01*
X250590511Y-89868955D01*
X250549030Y-89873040D01*
X249947810Y-89873040D01*
X249906329Y-89868955D01*
X249872351Y-89858647D01*
X249841030Y-89841906D01*
X249813581Y-89819379D01*
X249791054Y-89791930D01*
X249774313Y-89760609D01*
X249764005Y-89726631D01*
X249759920Y-89685150D01*
X249759920Y-89008930D01*
X249764005Y-88967449D01*
X249774313Y-88933471D01*
X249791054Y-88902150D01*
X249813581Y-88874701D01*
X249841030Y-88852174D01*
X249872351Y-88835433D01*
X249906329Y-88825125D01*
X249947810Y-88821040D01*
X250549030Y-88821040D01*
X250590511Y-88825125D01*
G37*
G36*
X249065911Y-88888125D02*
G01*
X249099889Y-88898433D01*
X249131210Y-88915174D01*
X249158659Y-88937701D01*
X249181186Y-88965150D01*
X249197927Y-88996471D01*
X249208235Y-89030449D01*
X249212320Y-89071930D01*
X249212320Y-89673150D01*
X249208235Y-89714631D01*
X249197927Y-89748609D01*
X249181186Y-89779930D01*
X249158659Y-89807379D01*
X249131210Y-89829906D01*
X249099889Y-89846647D01*
X249065911Y-89856955D01*
X249024430Y-89861040D01*
X248348210Y-89861040D01*
X248306729Y-89856955D01*
X248272751Y-89846647D01*
X248241430Y-89829906D01*
X248213981Y-89807379D01*
X248191454Y-89779930D01*
X248174713Y-89748609D01*
X248164405Y-89714631D01*
X248160320Y-89673150D01*
X248160320Y-89071930D01*
X248164405Y-89030449D01*
X248174713Y-88996471D01*
X248191454Y-88965150D01*
X248213981Y-88937701D01*
X248241430Y-88915174D01*
X248272751Y-88898433D01*
X248306729Y-88888125D01*
X248348210Y-88884040D01*
X249024430Y-88884040D01*
X249065911Y-88888125D01*
G37*
G36*
X250590411Y-87288425D02*
G01*
X250624389Y-87298733D01*
X250655710Y-87315474D01*
X250683159Y-87338001D01*
X250705686Y-87365450D01*
X250722427Y-87396771D01*
X250732735Y-87430749D01*
X250736820Y-87472230D01*
X250736820Y-88148450D01*
X250732735Y-88189931D01*
X250722427Y-88223909D01*
X250705686Y-88255230D01*
X250683159Y-88282679D01*
X250655710Y-88305206D01*
X250624389Y-88321947D01*
X250590411Y-88332255D01*
X250548930Y-88336340D01*
X249947710Y-88336340D01*
X249906229Y-88332255D01*
X249872251Y-88321947D01*
X249840930Y-88305206D01*
X249813481Y-88282679D01*
X249790954Y-88255230D01*
X249774213Y-88223909D01*
X249763905Y-88189931D01*
X249759820Y-88148450D01*
X249759820Y-87472230D01*
X249763905Y-87430749D01*
X249774213Y-87396771D01*
X249790954Y-87365450D01*
X249813481Y-87338001D01*
X249840930Y-87315474D01*
X249872251Y-87298733D01*
X249906229Y-87288425D01*
X249947710Y-87284340D01*
X250548930Y-87284340D01*
X250590411Y-87288425D01*
G37*
G36*
X252165411Y-87288425D02*
G01*
X252199389Y-87298733D01*
X252230710Y-87315474D01*
X252258159Y-87338001D01*
X252280686Y-87365450D01*
X252297427Y-87396771D01*
X252307735Y-87430749D01*
X252311820Y-87472230D01*
X252311820Y-88148450D01*
X252307735Y-88189931D01*
X252297427Y-88223909D01*
X252280686Y-88255230D01*
X252258159Y-88282679D01*
X252230710Y-88305206D01*
X252199389Y-88321947D01*
X252165411Y-88332255D01*
X252123930Y-88336340D01*
X251522710Y-88336340D01*
X251481229Y-88332255D01*
X251447251Y-88321947D01*
X251415930Y-88305206D01*
X251388481Y-88282679D01*
X251365954Y-88255230D01*
X251349213Y-88223909D01*
X251338905Y-88189931D01*
X251334820Y-88148450D01*
X251334820Y-87472230D01*
X251338905Y-87430749D01*
X251349213Y-87396771D01*
X251365954Y-87365450D01*
X251388481Y-87338001D01*
X251415930Y-87315474D01*
X251447251Y-87298733D01*
X251481229Y-87288425D01*
X251522710Y-87284340D01*
X252123930Y-87284340D01*
X252165411Y-87288425D01*
G37*
G36*
X249065911Y-87313125D02*
G01*
X249099889Y-87323433D01*
X249131210Y-87340174D01*
X249158659Y-87362701D01*
X249181186Y-87390150D01*
X249197927Y-87421471D01*
X249208235Y-87455449D01*
X249212320Y-87496930D01*
X249212320Y-88098150D01*
X249208235Y-88139631D01*
X249197927Y-88173609D01*
X249181186Y-88204930D01*
X249158659Y-88232379D01*
X249131210Y-88254906D01*
X249099889Y-88271647D01*
X249065911Y-88281955D01*
X249024430Y-88286040D01*
X248348210Y-88286040D01*
X248306729Y-88281955D01*
X248272751Y-88271647D01*
X248241430Y-88254906D01*
X248213981Y-88232379D01*
X248191454Y-88204930D01*
X248174713Y-88173609D01*
X248164405Y-88139631D01*
X248160320Y-88098150D01*
X248160320Y-87496930D01*
X248164405Y-87455449D01*
X248174713Y-87421471D01*
X248191454Y-87390150D01*
X248213981Y-87362701D01*
X248241430Y-87340174D01*
X248272751Y-87323433D01*
X248306729Y-87313125D01*
X248348210Y-87309040D01*
X249024430Y-87309040D01*
X249065911Y-87313125D01*
G37*
G36*
X261299400Y-87629600D02*
G01*
X259197400Y-87629600D01*
X259197400Y-86027600D01*
X261299400Y-86027600D01*
X261299400Y-87629600D01*
G37*
G36*
X215833120Y-86933940D02*
G01*
X208731120Y-86933940D01*
X208731120Y-84831940D01*
X215833120Y-84831940D01*
X215833120Y-86933940D01*
G37*
G36*
X267228600Y-85785000D02*
G01*
X263326600Y-85785000D01*
X263326600Y-83683000D01*
X267228600Y-83683000D01*
X267228600Y-85785000D01*
G37*
G36*
X256567331Y-83968645D02*
G01*
X256601309Y-83978953D01*
X256632630Y-83995694D01*
X256660079Y-84018221D01*
X256682606Y-84045670D01*
X256699347Y-84076991D01*
X256709655Y-84110969D01*
X256713740Y-84152450D01*
X256713740Y-84828670D01*
X256709655Y-84870151D01*
X256699347Y-84904129D01*
X256682606Y-84935450D01*
X256660079Y-84962899D01*
X256632630Y-84985426D01*
X256601309Y-85002167D01*
X256567331Y-85012475D01*
X256525850Y-85016560D01*
X255924630Y-85016560D01*
X255883149Y-85012475D01*
X255849171Y-85002167D01*
X255817850Y-84985426D01*
X255790401Y-84962899D01*
X255767874Y-84935450D01*
X255751133Y-84904129D01*
X255740825Y-84870151D01*
X255736740Y-84828670D01*
X255736740Y-84152450D01*
X255740825Y-84110969D01*
X255751133Y-84076991D01*
X255767874Y-84045670D01*
X255790401Y-84018221D01*
X255817850Y-83995694D01*
X255849171Y-83978953D01*
X255883149Y-83968645D01*
X255924630Y-83964560D01*
X256525850Y-83964560D01*
X256567331Y-83968645D01*
G37*
G36*
X254992331Y-83968645D02*
G01*
X255026309Y-83978953D01*
X255057630Y-83995694D01*
X255085079Y-84018221D01*
X255107606Y-84045670D01*
X255124347Y-84076991D01*
X255134655Y-84110969D01*
X255138740Y-84152450D01*
X255138740Y-84828670D01*
X255134655Y-84870151D01*
X255124347Y-84904129D01*
X255107606Y-84935450D01*
X255085079Y-84962899D01*
X255057630Y-84985426D01*
X255026309Y-85002167D01*
X254992331Y-85012475D01*
X254950850Y-85016560D01*
X254349630Y-85016560D01*
X254308149Y-85012475D01*
X254274171Y-85002167D01*
X254242850Y-84985426D01*
X254215401Y-84962899D01*
X254192874Y-84935450D01*
X254176133Y-84904129D01*
X254165825Y-84870151D01*
X254161740Y-84828670D01*
X254161740Y-84152450D01*
X254165825Y-84110969D01*
X254176133Y-84076991D01*
X254192874Y-84045670D01*
X254215401Y-84018221D01*
X254242850Y-83995694D01*
X254274171Y-83978953D01*
X254308149Y-83968645D01*
X254349630Y-83964560D01*
X254950850Y-83964560D01*
X254992331Y-83968645D01*
G37*
G36*
X253587711Y-83950865D02*
G01*
X253621689Y-83961173D01*
X253653010Y-83977914D01*
X253680459Y-84000441D01*
X253702986Y-84027890D01*
X253719727Y-84059211D01*
X253730035Y-84093189D01*
X253734120Y-84134670D01*
X253734120Y-84810890D01*
X253730035Y-84852371D01*
X253719727Y-84886349D01*
X253702986Y-84917670D01*
X253680459Y-84945119D01*
X253653010Y-84967646D01*
X253621689Y-84984387D01*
X253587711Y-84994695D01*
X253546230Y-84998780D01*
X252945010Y-84998780D01*
X252903529Y-84994695D01*
X252869551Y-84984387D01*
X252838230Y-84967646D01*
X252810781Y-84945119D01*
X252788254Y-84917670D01*
X252771513Y-84886349D01*
X252761205Y-84852371D01*
X252757120Y-84810890D01*
X252757120Y-84134670D01*
X252761205Y-84093189D01*
X252771513Y-84059211D01*
X252788254Y-84027890D01*
X252810781Y-84000441D01*
X252838230Y-83977914D01*
X252869551Y-83961173D01*
X252903529Y-83950865D01*
X252945010Y-83946780D01*
X253546230Y-83946780D01*
X253587711Y-83950865D01*
G37*
G36*
X252012711Y-83950865D02*
G01*
X252046689Y-83961173D01*
X252078010Y-83977914D01*
X252105459Y-84000441D01*
X252127986Y-84027890D01*
X252144727Y-84059211D01*
X252155035Y-84093189D01*
X252159120Y-84134670D01*
X252159120Y-84810890D01*
X252155035Y-84852371D01*
X252144727Y-84886349D01*
X252127986Y-84917670D01*
X252105459Y-84945119D01*
X252078010Y-84967646D01*
X252046689Y-84984387D01*
X252012711Y-84994695D01*
X251971230Y-84998780D01*
X251370010Y-84998780D01*
X251328529Y-84994695D01*
X251294551Y-84984387D01*
X251263230Y-84967646D01*
X251235781Y-84945119D01*
X251213254Y-84917670D01*
X251196513Y-84886349D01*
X251186205Y-84852371D01*
X251182120Y-84810890D01*
X251182120Y-84134670D01*
X251186205Y-84093189D01*
X251196513Y-84059211D01*
X251213254Y-84027890D01*
X251235781Y-84000441D01*
X251263230Y-83977914D01*
X251294551Y-83961173D01*
X251328529Y-83950865D01*
X251370010Y-83946780D01*
X251971230Y-83946780D01*
X252012711Y-83950865D01*
G37*
G36*
X258990191Y-83945785D02*
G01*
X259024169Y-83956093D01*
X259055490Y-83972834D01*
X259082939Y-83995361D01*
X259105466Y-84022810D01*
X259122207Y-84054131D01*
X259132515Y-84088109D01*
X259136600Y-84129590D01*
X259136600Y-84805810D01*
X259132515Y-84847291D01*
X259122207Y-84881269D01*
X259105466Y-84912590D01*
X259082939Y-84940039D01*
X259055490Y-84962566D01*
X259024169Y-84979307D01*
X258990191Y-84989615D01*
X258948710Y-84993700D01*
X258347490Y-84993700D01*
X258306009Y-84989615D01*
X258272031Y-84979307D01*
X258240710Y-84962566D01*
X258213261Y-84940039D01*
X258190734Y-84912590D01*
X258173993Y-84881269D01*
X258163685Y-84847291D01*
X258159600Y-84805810D01*
X258159600Y-84129590D01*
X258163685Y-84088109D01*
X258173993Y-84054131D01*
X258190734Y-84022810D01*
X258213261Y-83995361D01*
X258240710Y-83972834D01*
X258272031Y-83956093D01*
X258306009Y-83945785D01*
X258347490Y-83941700D01*
X258948710Y-83941700D01*
X258990191Y-83945785D01*
G37*
G36*
X260565191Y-83945785D02*
G01*
X260599169Y-83956093D01*
X260630490Y-83972834D01*
X260657939Y-83995361D01*
X260680466Y-84022810D01*
X260697207Y-84054131D01*
X260707515Y-84088109D01*
X260711600Y-84129590D01*
X260711600Y-84805810D01*
X260707515Y-84847291D01*
X260697207Y-84881269D01*
X260680466Y-84912590D01*
X260657939Y-84940039D01*
X260630490Y-84962566D01*
X260599169Y-84979307D01*
X260565191Y-84989615D01*
X260523710Y-84993700D01*
X259922490Y-84993700D01*
X259881009Y-84989615D01*
X259847031Y-84979307D01*
X259815710Y-84962566D01*
X259788261Y-84940039D01*
X259765734Y-84912590D01*
X259748993Y-84881269D01*
X259738685Y-84847291D01*
X259734600Y-84805810D01*
X259734600Y-84129590D01*
X259738685Y-84088109D01*
X259748993Y-84054131D01*
X259765734Y-84022810D01*
X259788261Y-83995361D01*
X259815710Y-83972834D01*
X259847031Y-83956093D01*
X259881009Y-83945785D01*
X259922490Y-83941700D01*
X260523710Y-83941700D01*
X260565191Y-83945785D01*
G37*
G36*
X255283120Y-83693940D02*
G01*
X252881120Y-83693940D01*
X252881120Y-82571940D01*
X255283120Y-82571940D01*
X255283120Y-83693940D01*
G37*
G36*
X250425211Y-82363365D02*
G01*
X250459189Y-82373673D01*
X250490510Y-82390414D01*
X250517959Y-82412941D01*
X250540486Y-82440390D01*
X250557227Y-82471711D01*
X250567535Y-82505689D01*
X250571620Y-82547170D01*
X250571620Y-83223390D01*
X250567535Y-83264871D01*
X250557227Y-83298849D01*
X250540486Y-83330170D01*
X250517959Y-83357619D01*
X250490510Y-83380146D01*
X250459189Y-83396887D01*
X250425211Y-83407195D01*
X250383730Y-83411280D01*
X249782510Y-83411280D01*
X249741029Y-83407195D01*
X249707051Y-83396887D01*
X249675730Y-83380146D01*
X249648281Y-83357619D01*
X249625754Y-83330170D01*
X249609013Y-83298849D01*
X249598705Y-83264871D01*
X249594620Y-83223390D01*
X249594620Y-82547170D01*
X249598705Y-82505689D01*
X249609013Y-82471711D01*
X249625754Y-82440390D01*
X249648281Y-82412941D01*
X249675730Y-82390414D01*
X249707051Y-82373673D01*
X249741029Y-82363365D01*
X249782510Y-82359280D01*
X250383730Y-82359280D01*
X250425211Y-82363365D01*
G37*
G36*
X252000211Y-82363365D02*
G01*
X252034189Y-82373673D01*
X252065510Y-82390414D01*
X252092959Y-82412941D01*
X252115486Y-82440390D01*
X252132227Y-82471711D01*
X252142535Y-82505689D01*
X252146620Y-82547170D01*
X252146620Y-83223390D01*
X252142535Y-83264871D01*
X252132227Y-83298849D01*
X252115486Y-83330170D01*
X252092959Y-83357619D01*
X252065510Y-83380146D01*
X252034189Y-83396887D01*
X252000211Y-83407195D01*
X251958730Y-83411280D01*
X251357510Y-83411280D01*
X251316029Y-83407195D01*
X251282051Y-83396887D01*
X251250730Y-83380146D01*
X251223281Y-83357619D01*
X251200754Y-83330170D01*
X251184013Y-83298849D01*
X251173705Y-83264871D01*
X251169620Y-83223390D01*
X251169620Y-82547170D01*
X251173705Y-82505689D01*
X251184013Y-82471711D01*
X251200754Y-82440390D01*
X251223281Y-82412941D01*
X251250730Y-82390414D01*
X251282051Y-82373673D01*
X251316029Y-82363365D01*
X251357510Y-82359280D01*
X251958730Y-82359280D01*
X252000211Y-82363365D01*
G37*
G36*
X265310240Y-83228220D02*
G01*
X261008240Y-83228220D01*
X261008240Y-81626220D01*
X265310240Y-81626220D01*
X265310240Y-83228220D01*
G37*
G36*
X267839444Y-81830547D02*
G01*
X267875984Y-81841632D01*
X267909661Y-81859633D01*
X267939181Y-81883859D01*
X267963407Y-81913379D01*
X267981408Y-81947056D01*
X267992493Y-81983596D01*
X267996840Y-82027738D01*
X267996840Y-82976662D01*
X267992493Y-83020804D01*
X267981408Y-83057344D01*
X267963407Y-83091021D01*
X267939181Y-83120541D01*
X267909661Y-83144767D01*
X267875984Y-83162768D01*
X267839444Y-83173853D01*
X267795302Y-83178200D01*
X266346378Y-83178200D01*
X266302236Y-83173853D01*
X266265696Y-83162768D01*
X266232019Y-83144767D01*
X266202499Y-83120541D01*
X266178273Y-83091021D01*
X266160272Y-83057344D01*
X266149187Y-83020804D01*
X266144840Y-82976662D01*
X266144840Y-82027738D01*
X266149187Y-81983596D01*
X266160272Y-81947056D01*
X266178273Y-81913379D01*
X266202499Y-81883859D01*
X266232019Y-81859633D01*
X266265696Y-81841632D01*
X266302236Y-81830547D01*
X266346378Y-81826200D01*
X267795302Y-81826200D01*
X267839444Y-81830547D01*
G37*
G36*
X269314791Y-81788925D02*
G01*
X269348769Y-81799233D01*
X269380090Y-81815974D01*
X269407539Y-81838501D01*
X269430066Y-81865950D01*
X269446807Y-81897271D01*
X269457115Y-81931249D01*
X269461200Y-81972730D01*
X269461200Y-82573950D01*
X269457115Y-82615431D01*
X269446807Y-82649409D01*
X269430066Y-82680730D01*
X269407539Y-82708179D01*
X269380090Y-82730706D01*
X269348769Y-82747447D01*
X269314791Y-82757755D01*
X269273310Y-82761840D01*
X268597090Y-82761840D01*
X268555609Y-82757755D01*
X268521631Y-82747447D01*
X268490310Y-82730706D01*
X268462861Y-82708179D01*
X268440334Y-82680730D01*
X268423593Y-82649409D01*
X268413285Y-82615431D01*
X268409200Y-82573950D01*
X268409200Y-81972730D01*
X268413285Y-81931249D01*
X268423593Y-81897271D01*
X268440334Y-81865950D01*
X268462861Y-81838501D01*
X268490310Y-81815974D01*
X268521631Y-81799233D01*
X268555609Y-81788925D01*
X268597090Y-81784840D01*
X269273310Y-81784840D01*
X269314791Y-81788925D01*
G37*
G36*
X243507000Y-76493339D02*
G01*
X244062246Y-76723329D01*
X244209170Y-76821501D01*
X244561956Y-77057225D01*
X244986923Y-77482192D01*
X245134683Y-77703331D01*
X245320819Y-77981902D01*
X245550809Y-78537148D01*
X245668057Y-79126592D01*
X245668057Y-79727590D01*
X245550809Y-80317034D01*
X245320819Y-80872280D01*
X245164832Y-81105730D01*
X244986923Y-81371990D01*
X244561956Y-81796957D01*
X244354432Y-81935620D01*
X244062246Y-82130853D01*
X243507000Y-82360843D01*
X242917556Y-82478091D01*
X242316558Y-82478091D01*
X241727114Y-82360843D01*
X241171868Y-82130853D01*
X240879682Y-81935620D01*
X240672158Y-81796957D01*
X240247191Y-81371990D01*
X240069282Y-81105730D01*
X239913295Y-80872280D01*
X239683305Y-80317034D01*
X239566057Y-79727590D01*
X239566057Y-79126592D01*
X239683305Y-78537148D01*
X239913295Y-77981902D01*
X240099431Y-77703331D01*
X240247191Y-77482192D01*
X240672158Y-77057225D01*
X241024944Y-76821501D01*
X241171868Y-76723329D01*
X241727114Y-76493339D01*
X242316558Y-76376091D01*
X242917556Y-76376091D01*
X243507000Y-76493339D01*
G37*
G36*
X215833120Y-81933940D02*
G01*
X208731120Y-81933940D01*
X208731120Y-79831940D01*
X215833120Y-79831940D01*
X215833120Y-81933940D01*
G37*
G36*
X252000211Y-80826665D02*
G01*
X252034189Y-80836973D01*
X252065510Y-80853714D01*
X252092959Y-80876241D01*
X252115486Y-80903690D01*
X252132227Y-80935011D01*
X252142535Y-80968989D01*
X252146620Y-81010470D01*
X252146620Y-81686690D01*
X252142535Y-81728171D01*
X252132227Y-81762149D01*
X252115486Y-81793470D01*
X252092959Y-81820919D01*
X252065510Y-81843446D01*
X252034189Y-81860187D01*
X252000211Y-81870495D01*
X251958730Y-81874580D01*
X251357510Y-81874580D01*
X251316029Y-81870495D01*
X251282051Y-81860187D01*
X251250730Y-81843446D01*
X251223281Y-81820919D01*
X251200754Y-81793470D01*
X251184013Y-81762149D01*
X251173705Y-81728171D01*
X251169620Y-81686690D01*
X251169620Y-81010470D01*
X251173705Y-80968989D01*
X251184013Y-80935011D01*
X251200754Y-80903690D01*
X251223281Y-80876241D01*
X251250730Y-80853714D01*
X251282051Y-80836973D01*
X251316029Y-80826665D01*
X251357510Y-80822580D01*
X251958730Y-80822580D01*
X252000211Y-80826665D01*
G37*
G36*
X250425211Y-80826665D02*
G01*
X250459189Y-80836973D01*
X250490510Y-80853714D01*
X250517959Y-80876241D01*
X250540486Y-80903690D01*
X250557227Y-80935011D01*
X250567535Y-80968989D01*
X250571620Y-81010470D01*
X250571620Y-81686690D01*
X250567535Y-81728171D01*
X250557227Y-81762149D01*
X250540486Y-81793470D01*
X250517959Y-81820919D01*
X250490510Y-81843446D01*
X250459189Y-81860187D01*
X250425211Y-81870495D01*
X250383730Y-81874580D01*
X249782510Y-81874580D01*
X249741029Y-81870495D01*
X249707051Y-81860187D01*
X249675730Y-81843446D01*
X249648281Y-81820919D01*
X249625754Y-81793470D01*
X249609013Y-81762149D01*
X249598705Y-81728171D01*
X249594620Y-81686690D01*
X249594620Y-81010470D01*
X249598705Y-80968989D01*
X249609013Y-80935011D01*
X249625754Y-80903690D01*
X249648281Y-80876241D01*
X249675730Y-80853714D01*
X249707051Y-80836973D01*
X249741029Y-80826665D01*
X249782510Y-80822580D01*
X250383730Y-80822580D01*
X250425211Y-80826665D01*
G37*
G36*
X255083120Y-81648940D02*
G01*
X253081120Y-81648940D01*
X253081120Y-79816940D01*
X255083120Y-79816940D01*
X255083120Y-81648940D01*
G37*
G36*
X269314791Y-80213925D02*
G01*
X269348769Y-80224233D01*
X269380090Y-80240974D01*
X269407539Y-80263501D01*
X269430066Y-80290950D01*
X269446807Y-80322271D01*
X269457115Y-80356249D01*
X269461200Y-80397730D01*
X269461200Y-80998950D01*
X269457115Y-81040431D01*
X269446807Y-81074409D01*
X269430066Y-81105730D01*
X269407539Y-81133179D01*
X269380090Y-81155706D01*
X269348769Y-81172447D01*
X269314791Y-81182755D01*
X269273310Y-81186840D01*
X268597090Y-81186840D01*
X268555609Y-81182755D01*
X268521631Y-81172447D01*
X268490310Y-81155706D01*
X268462861Y-81133179D01*
X268440334Y-81105730D01*
X268423593Y-81074409D01*
X268413285Y-81040431D01*
X268409200Y-80998950D01*
X268409200Y-80397730D01*
X268413285Y-80356249D01*
X268423593Y-80322271D01*
X268440334Y-80290950D01*
X268462861Y-80263501D01*
X268490310Y-80240974D01*
X268521631Y-80224233D01*
X268555609Y-80213925D01*
X268597090Y-80209840D01*
X269273310Y-80209840D01*
X269314791Y-80213925D01*
G37*
G36*
X267839444Y-79030547D02*
G01*
X267875984Y-79041632D01*
X267909661Y-79059633D01*
X267939181Y-79083859D01*
X267963407Y-79113379D01*
X267981408Y-79147056D01*
X267992493Y-79183596D01*
X267996840Y-79227738D01*
X267996840Y-80176662D01*
X267992493Y-80220804D01*
X267981408Y-80257344D01*
X267963407Y-80291021D01*
X267939181Y-80320541D01*
X267909661Y-80344767D01*
X267875984Y-80362768D01*
X267839444Y-80373853D01*
X267795302Y-80378200D01*
X266346378Y-80378200D01*
X266302236Y-80373853D01*
X266265696Y-80362768D01*
X266232019Y-80344767D01*
X266202499Y-80320541D01*
X266178273Y-80291021D01*
X266160272Y-80257344D01*
X266149187Y-80220804D01*
X266144840Y-80176662D01*
X266144840Y-79227738D01*
X266149187Y-79183596D01*
X266160272Y-79147056D01*
X266178273Y-79113379D01*
X266202499Y-79083859D01*
X266232019Y-79059633D01*
X266265696Y-79041632D01*
X266302236Y-79030547D01*
X266346378Y-79026200D01*
X267795302Y-79026200D01*
X267839444Y-79030547D01*
G37*
G36*
X259916791Y-79169985D02*
G01*
X259950769Y-79180293D01*
X259982090Y-79197034D01*
X260009539Y-79219561D01*
X260032066Y-79247010D01*
X260048807Y-79278331D01*
X260059115Y-79312309D01*
X260063200Y-79353790D01*
X260063200Y-79955010D01*
X260059115Y-79996491D01*
X260048807Y-80030469D01*
X260032066Y-80061790D01*
X260009539Y-80089239D01*
X259982090Y-80111766D01*
X259950769Y-80128507D01*
X259916791Y-80138815D01*
X259875310Y-80142900D01*
X259199090Y-80142900D01*
X259157609Y-80138815D01*
X259123631Y-80128507D01*
X259092310Y-80111766D01*
X259064861Y-80089239D01*
X259042334Y-80061790D01*
X259025593Y-80030469D01*
X259015285Y-79996491D01*
X259011200Y-79955010D01*
X259011200Y-79353790D01*
X259015285Y-79312309D01*
X259025593Y-79278331D01*
X259042334Y-79247010D01*
X259064861Y-79219561D01*
X259092310Y-79197034D01*
X259123631Y-79180293D01*
X259157609Y-79169985D01*
X259199090Y-79165900D01*
X259875310Y-79165900D01*
X259916791Y-79169985D01*
G37*
G36*
X256868791Y-79157485D02*
G01*
X256902769Y-79167793D01*
X256934090Y-79184534D01*
X256961539Y-79207061D01*
X256984066Y-79234510D01*
X257000807Y-79265831D01*
X257011115Y-79299809D01*
X257015200Y-79341290D01*
X257015200Y-79942510D01*
X257011115Y-79983991D01*
X257000807Y-80017969D01*
X256984066Y-80049290D01*
X256961539Y-80076739D01*
X256934090Y-80099266D01*
X256902769Y-80116007D01*
X256868791Y-80126315D01*
X256827310Y-80130400D01*
X256151090Y-80130400D01*
X256109609Y-80126315D01*
X256075631Y-80116007D01*
X256044310Y-80099266D01*
X256016861Y-80076739D01*
X255994334Y-80049290D01*
X255977593Y-80017969D01*
X255967285Y-79983991D01*
X255963200Y-79942510D01*
X255963200Y-79341290D01*
X255967285Y-79299809D01*
X255977593Y-79265831D01*
X255994334Y-79234510D01*
X256016861Y-79207061D01*
X256044310Y-79184534D01*
X256075631Y-79167793D01*
X256109609Y-79157485D01*
X256151090Y-79153400D01*
X256827310Y-79153400D01*
X256868791Y-79157485D01*
G37*
G36*
X258392791Y-79157485D02*
G01*
X258426769Y-79167793D01*
X258458090Y-79184534D01*
X258485539Y-79207061D01*
X258508066Y-79234510D01*
X258524807Y-79265831D01*
X258535115Y-79299809D01*
X258539200Y-79341290D01*
X258539200Y-79942510D01*
X258535115Y-79983991D01*
X258524807Y-80017969D01*
X258508066Y-80049290D01*
X258485539Y-80076739D01*
X258458090Y-80099266D01*
X258426769Y-80116007D01*
X258392791Y-80126315D01*
X258351310Y-80130400D01*
X257675090Y-80130400D01*
X257633609Y-80126315D01*
X257599631Y-80116007D01*
X257568310Y-80099266D01*
X257540861Y-80076739D01*
X257518334Y-80049290D01*
X257501593Y-80017969D01*
X257491285Y-79983991D01*
X257487200Y-79942510D01*
X257487200Y-79341290D01*
X257491285Y-79299809D01*
X257501593Y-79265831D01*
X257518334Y-79234510D01*
X257540861Y-79207061D01*
X257568310Y-79184534D01*
X257599631Y-79167793D01*
X257633609Y-79157485D01*
X257675090Y-79153400D01*
X258351310Y-79153400D01*
X258392791Y-79157485D01*
G37*
G36*
X265310240Y-79628220D02*
G01*
X261008240Y-79628220D01*
X261008240Y-78026220D01*
X265310240Y-78026220D01*
X265310240Y-79628220D01*
G37*
G36*
X255283120Y-78893940D02*
G01*
X252881120Y-78893940D01*
X252881120Y-77771940D01*
X255283120Y-77771940D01*
X255283120Y-78893940D01*
G37*
G36*
X259916791Y-77594985D02*
G01*
X259950769Y-77605293D01*
X259982090Y-77622034D01*
X260009539Y-77644561D01*
X260032066Y-77672010D01*
X260048807Y-77703331D01*
X260059115Y-77737309D01*
X260063200Y-77778790D01*
X260063200Y-78380010D01*
X260059115Y-78421491D01*
X260048807Y-78455469D01*
X260032066Y-78486790D01*
X260009539Y-78514239D01*
X259982090Y-78536766D01*
X259950769Y-78553507D01*
X259916791Y-78563815D01*
X259875310Y-78567900D01*
X259199090Y-78567900D01*
X259157609Y-78563815D01*
X259123631Y-78553507D01*
X259092310Y-78536766D01*
X259064861Y-78514239D01*
X259042334Y-78486790D01*
X259025593Y-78455469D01*
X259015285Y-78421491D01*
X259011200Y-78380010D01*
X259011200Y-77778790D01*
X259015285Y-77737309D01*
X259025593Y-77703331D01*
X259042334Y-77672010D01*
X259064861Y-77644561D01*
X259092310Y-77622034D01*
X259123631Y-77605293D01*
X259157609Y-77594985D01*
X259199090Y-77590900D01*
X259875310Y-77590900D01*
X259916791Y-77594985D01*
G37*
G36*
X258392791Y-77582485D02*
G01*
X258426769Y-77592793D01*
X258458090Y-77609534D01*
X258485539Y-77632061D01*
X258508066Y-77659510D01*
X258524807Y-77690831D01*
X258535115Y-77724809D01*
X258539200Y-77766290D01*
X258539200Y-78367510D01*
X258535115Y-78408991D01*
X258524807Y-78442969D01*
X258508066Y-78474290D01*
X258485539Y-78501739D01*
X258458090Y-78524266D01*
X258426769Y-78541007D01*
X258392791Y-78551315D01*
X258351310Y-78555400D01*
X257675090Y-78555400D01*
X257633609Y-78551315D01*
X257599631Y-78541007D01*
X257568310Y-78524266D01*
X257540861Y-78501739D01*
X257518334Y-78474290D01*
X257501593Y-78442969D01*
X257491285Y-78408991D01*
X257487200Y-78367510D01*
X257487200Y-77766290D01*
X257491285Y-77724809D01*
X257501593Y-77690831D01*
X257518334Y-77659510D01*
X257540861Y-77632061D01*
X257568310Y-77609534D01*
X257599631Y-77592793D01*
X257633609Y-77582485D01*
X257675090Y-77578400D01*
X258351310Y-77578400D01*
X258392791Y-77582485D01*
G37*
G36*
X256868791Y-77582485D02*
G01*
X256902769Y-77592793D01*
X256934090Y-77609534D01*
X256961539Y-77632061D01*
X256984066Y-77659510D01*
X257000807Y-77690831D01*
X257011115Y-77724809D01*
X257015200Y-77766290D01*
X257015200Y-78367510D01*
X257011115Y-78408991D01*
X257000807Y-78442969D01*
X256984066Y-78474290D01*
X256961539Y-78501739D01*
X256934090Y-78524266D01*
X256902769Y-78541007D01*
X256868791Y-78551315D01*
X256827310Y-78555400D01*
X256151090Y-78555400D01*
X256109609Y-78551315D01*
X256075631Y-78541007D01*
X256044310Y-78524266D01*
X256016861Y-78501739D01*
X255994334Y-78474290D01*
X255977593Y-78442969D01*
X255967285Y-78408991D01*
X255963200Y-78367510D01*
X255963200Y-77766290D01*
X255967285Y-77724809D01*
X255977593Y-77690831D01*
X255994334Y-77659510D01*
X256016861Y-77632061D01*
X256044310Y-77609534D01*
X256075631Y-77592793D01*
X256109609Y-77582485D01*
X256151090Y-77578400D01*
X256827310Y-77578400D01*
X256868791Y-77582485D01*
G37*
G36*
X257738460Y-77097140D02*
G01*
X255336460Y-77097140D01*
X255336460Y-74495140D01*
X257738460Y-74495140D01*
X257738460Y-77097140D01*
G37*
G36*
X260399998Y-74345647D02*
G01*
X260435567Y-74356437D01*
X260468339Y-74373954D01*
X260497069Y-74397531D01*
X260520646Y-74426261D01*
X260538163Y-74459033D01*
X260548953Y-74494602D01*
X260553200Y-74537725D01*
X260553200Y-76897075D01*
X260548953Y-76940198D01*
X260538163Y-76975767D01*
X260520646Y-77008539D01*
X260497069Y-77037269D01*
X260468339Y-77060846D01*
X260435567Y-77078363D01*
X260399998Y-77089153D01*
X260356875Y-77093400D01*
X259297525Y-77093400D01*
X259254402Y-77089153D01*
X259218833Y-77078363D01*
X259186061Y-77060846D01*
X259157331Y-77037269D01*
X259133754Y-77008539D01*
X259116237Y-76975767D01*
X259105447Y-76940198D01*
X259101200Y-76897075D01*
X259101200Y-74537725D01*
X259105447Y-74494602D01*
X259116237Y-74459033D01*
X259133754Y-74426261D01*
X259157331Y-74397531D01*
X259186061Y-74373954D01*
X259218833Y-74356437D01*
X259254402Y-74345647D01*
X259297525Y-74341400D01*
X260356875Y-74341400D01*
X260399998Y-74345647D01*
G37*
G36*
X264899998Y-74345647D02*
G01*
X264935567Y-74356437D01*
X264968339Y-74373954D01*
X264997069Y-74397531D01*
X265020646Y-74426261D01*
X265038163Y-74459033D01*
X265048953Y-74494602D01*
X265053200Y-74537725D01*
X265053200Y-76897075D01*
X265048953Y-76940198D01*
X265038163Y-76975767D01*
X265020646Y-77008539D01*
X264997069Y-77037269D01*
X264968339Y-77060846D01*
X264935567Y-77078363D01*
X264899998Y-77089153D01*
X264856875Y-77093400D01*
X263797525Y-77093400D01*
X263754402Y-77089153D01*
X263718833Y-77078363D01*
X263686061Y-77060846D01*
X263657331Y-77037269D01*
X263633754Y-77008539D01*
X263616237Y-76975767D01*
X263605447Y-76940198D01*
X263601200Y-76897075D01*
X263601200Y-74537725D01*
X263605447Y-74494602D01*
X263616237Y-74459033D01*
X263633754Y-74426261D01*
X263657331Y-74397531D01*
X263686061Y-74373954D01*
X263718833Y-74356437D01*
X263754402Y-74345647D01*
X263797525Y-74341400D01*
X264856875Y-74341400D01*
X264899998Y-74345647D01*
G37*
G36*
X253664011Y-75970185D02*
G01*
X253697989Y-75980493D01*
X253729310Y-75997234D01*
X253756759Y-76019761D01*
X253779286Y-76047210D01*
X253796027Y-76078531D01*
X253806335Y-76112509D01*
X253810420Y-76153990D01*
X253810420Y-76830210D01*
X253806335Y-76871691D01*
X253796027Y-76905669D01*
X253779286Y-76936990D01*
X253756759Y-76964439D01*
X253729310Y-76986966D01*
X253697989Y-77003707D01*
X253664011Y-77014015D01*
X253622530Y-77018100D01*
X253021310Y-77018100D01*
X252979829Y-77014015D01*
X252945851Y-77003707D01*
X252914530Y-76986966D01*
X252887081Y-76964439D01*
X252864554Y-76936990D01*
X252847813Y-76905669D01*
X252837505Y-76871691D01*
X252833420Y-76830210D01*
X252833420Y-76153990D01*
X252837505Y-76112509D01*
X252847813Y-76078531D01*
X252864554Y-76047210D01*
X252887081Y-76019761D01*
X252914530Y-75997234D01*
X252945851Y-75980493D01*
X252979829Y-75970185D01*
X253021310Y-75966100D01*
X253622530Y-75966100D01*
X253664011Y-75970185D01*
G37*
G36*
X252089011Y-75970185D02*
G01*
X252122989Y-75980493D01*
X252154310Y-75997234D01*
X252181759Y-76019761D01*
X252204286Y-76047210D01*
X252221027Y-76078531D01*
X252231335Y-76112509D01*
X252235420Y-76153990D01*
X252235420Y-76830210D01*
X252231335Y-76871691D01*
X252221027Y-76905669D01*
X252204286Y-76936990D01*
X252181759Y-76964439D01*
X252154310Y-76986966D01*
X252122989Y-77003707D01*
X252089011Y-77014015D01*
X252047530Y-77018100D01*
X251446310Y-77018100D01*
X251404829Y-77014015D01*
X251370851Y-77003707D01*
X251339530Y-76986966D01*
X251312081Y-76964439D01*
X251289554Y-76936990D01*
X251272813Y-76905669D01*
X251262505Y-76871691D01*
X251258420Y-76830210D01*
X251258420Y-76153990D01*
X251262505Y-76112509D01*
X251272813Y-76078531D01*
X251289554Y-76047210D01*
X251312081Y-76019761D01*
X251339530Y-75997234D01*
X251370851Y-75980493D01*
X251404829Y-75970185D01*
X251446310Y-75966100D01*
X252047530Y-75966100D01*
X252089011Y-75970185D01*
G37*
G36*
X249177534Y-72775871D02*
G01*
X249207477Y-72784954D01*
X249235065Y-72799700D01*
X249259251Y-72819549D01*
X249279100Y-72843735D01*
X249293846Y-72871323D01*
X249302929Y-72901266D01*
X249306600Y-72938540D01*
X249306600Y-76207860D01*
X249302929Y-76245134D01*
X249293846Y-76275077D01*
X249279100Y-76302665D01*
X249259251Y-76326851D01*
X249235065Y-76346700D01*
X249207477Y-76361446D01*
X249177534Y-76370529D01*
X249140260Y-76374200D01*
X246870940Y-76374200D01*
X246833666Y-76370529D01*
X246803723Y-76361446D01*
X246776135Y-76346700D01*
X246751949Y-76326851D01*
X246732100Y-76302665D01*
X246717354Y-76275077D01*
X246708271Y-76245134D01*
X246704600Y-76207860D01*
X246704600Y-72938540D01*
X246708271Y-72901266D01*
X246717354Y-72871323D01*
X246732100Y-72843735D01*
X246751949Y-72819549D01*
X246776135Y-72799700D01*
X246803723Y-72784954D01*
X246833666Y-72775871D01*
X246870940Y-72772200D01*
X249140260Y-72772200D01*
X249177534Y-72775871D01*
G37*
G36*
X241173120Y-75763940D02*
G01*
X239271120Y-75763940D01*
X239271120Y-73161940D01*
X241173120Y-73161940D01*
X241173120Y-75763940D01*
G37*
G36*
X257738460Y-72797140D02*
G01*
X255336460Y-72797140D01*
X255336460Y-70195140D01*
X257738460Y-70195140D01*
X257738460Y-72797140D01*
G37*
G36*
X241173120Y-71763940D02*
G01*
X239271120Y-71763940D01*
X239271120Y-69161940D01*
X241173120Y-69161940D01*
X241173120Y-71763940D01*
G37*
G36*
X249177534Y-66275871D02*
G01*
X249207477Y-66284954D01*
X249235065Y-66299700D01*
X249259251Y-66319549D01*
X249279100Y-66343735D01*
X249293846Y-66371323D01*
X249302929Y-66401266D01*
X249306600Y-66438540D01*
X249306600Y-69707860D01*
X249302929Y-69745134D01*
X249293846Y-69775077D01*
X249279100Y-69802665D01*
X249259251Y-69826851D01*
X249235065Y-69846700D01*
X249207477Y-69861446D01*
X249177534Y-69870529D01*
X249140260Y-69874200D01*
X246870940Y-69874200D01*
X246833666Y-69870529D01*
X246803723Y-69861446D01*
X246776135Y-69846700D01*
X246751949Y-69826851D01*
X246732100Y-69802665D01*
X246717354Y-69775077D01*
X246708271Y-69745134D01*
X246704600Y-69707860D01*
X246704600Y-66438540D01*
X246708271Y-66401266D01*
X246717354Y-66371323D01*
X246732100Y-66343735D01*
X246751949Y-66319549D01*
X246776135Y-66299700D01*
X246803723Y-66284954D01*
X246833666Y-66275871D01*
X246870940Y-66272200D01*
X249140260Y-66272200D01*
X249177534Y-66275871D01*
G37*
G36*
X226253120Y-68903940D02*
G01*
X223751120Y-68903940D01*
X223751120Y-66401940D01*
X226253120Y-66401940D01*
X226253120Y-68903940D01*
G37*
G36*
X221867023Y-66450015D02*
G01*
X222065919Y-66532400D01*
X222094691Y-66544318D01*
X222299586Y-66681225D01*
X222473835Y-66855474D01*
X222610742Y-67060369D01*
X222610743Y-67060371D01*
X222705045Y-67288037D01*
X222753120Y-67529726D01*
X222753120Y-67776154D01*
X222705045Y-68017843D01*
X222641852Y-68170406D01*
X222610742Y-68245511D01*
X222473835Y-68450406D01*
X222299586Y-68624655D01*
X222094691Y-68761562D01*
X222094690Y-68761563D01*
X222094689Y-68761563D01*
X221867023Y-68855865D01*
X221625334Y-68903940D01*
X221378906Y-68903940D01*
X221137217Y-68855865D01*
X220909551Y-68761563D01*
X220909550Y-68761563D01*
X220909549Y-68761562D01*
X220704654Y-68624655D01*
X220530405Y-68450406D01*
X220393498Y-68245511D01*
X220362389Y-68170406D01*
X220299195Y-68017843D01*
X220251120Y-67776154D01*
X220251120Y-67529726D01*
X220299195Y-67288037D01*
X220393497Y-67060371D01*
X220393498Y-67060369D01*
X220530405Y-66855474D01*
X220704654Y-66681225D01*
X220909549Y-66544318D01*
X220938322Y-66532400D01*
X221137217Y-66450015D01*
X221378906Y-66401940D01*
X221625334Y-66401940D01*
X221867023Y-66450015D01*
G37*
G36*
X237037023Y-66170015D02*
G01*
X237264691Y-66264318D01*
X237469586Y-66401225D01*
X237643835Y-66575474D01*
X237643836Y-66575476D01*
X237780743Y-66780371D01*
X237811852Y-66855476D01*
X237875045Y-67008037D01*
X237923120Y-67249727D01*
X237923120Y-67496153D01*
X237875045Y-67737843D01*
X237780742Y-67965511D01*
X237643835Y-68170406D01*
X237469586Y-68344655D01*
X237264691Y-68481562D01*
X237264690Y-68481563D01*
X237264689Y-68481563D01*
X237037023Y-68575865D01*
X236795334Y-68623940D01*
X236548906Y-68623940D01*
X236307217Y-68575865D01*
X236079551Y-68481563D01*
X236079550Y-68481563D01*
X236079549Y-68481562D01*
X235874654Y-68344655D01*
X235700405Y-68170406D01*
X235563498Y-67965511D01*
X235469195Y-67737843D01*
X235421120Y-67496153D01*
X235421120Y-67249727D01*
X235469195Y-67008037D01*
X235532388Y-66855476D01*
X235563497Y-66780371D01*
X235700404Y-66575476D01*
X235700405Y-66575474D01*
X235874654Y-66401225D01*
X236079549Y-66264318D01*
X236307217Y-66170015D01*
X236548906Y-66121940D01*
X236795334Y-66121940D01*
X237037023Y-66170015D01*
G37*
G36*
X233537023Y-66170015D02*
G01*
X233764691Y-66264318D01*
X233969586Y-66401225D01*
X234143835Y-66575474D01*
X234143836Y-66575476D01*
X234280743Y-66780371D01*
X234311852Y-66855476D01*
X234375045Y-67008037D01*
X234423120Y-67249727D01*
X234423120Y-67496153D01*
X234375045Y-67737843D01*
X234280742Y-67965511D01*
X234143835Y-68170406D01*
X233969586Y-68344655D01*
X233764691Y-68481562D01*
X233764690Y-68481563D01*
X233764689Y-68481563D01*
X233537023Y-68575865D01*
X233295334Y-68623940D01*
X233048906Y-68623940D01*
X232807217Y-68575865D01*
X232579551Y-68481563D01*
X232579550Y-68481563D01*
X232579549Y-68481562D01*
X232374654Y-68344655D01*
X232200405Y-68170406D01*
X232063498Y-67965511D01*
X231969195Y-67737843D01*
X231921120Y-67496153D01*
X231921120Y-67249727D01*
X231969195Y-67008037D01*
X232032388Y-66855476D01*
X232063497Y-66780371D01*
X232200404Y-66575476D01*
X232200405Y-66575474D01*
X232374654Y-66401225D01*
X232579549Y-66264318D01*
X232807217Y-66170015D01*
X233048906Y-66121940D01*
X233295334Y-66121940D01*
X233537023Y-66170015D01*
G37*
G36*
X230037023Y-66170015D02*
G01*
X230264691Y-66264318D01*
X230469586Y-66401225D01*
X230643835Y-66575474D01*
X230643836Y-66575476D01*
X230780743Y-66780371D01*
X230811852Y-66855476D01*
X230875045Y-67008037D01*
X230923120Y-67249727D01*
X230923120Y-67496153D01*
X230875045Y-67737843D01*
X230780742Y-67965511D01*
X230643835Y-68170406D01*
X230469586Y-68344655D01*
X230264691Y-68481562D01*
X230264690Y-68481563D01*
X230264689Y-68481563D01*
X230037023Y-68575865D01*
X229795334Y-68623940D01*
X229548906Y-68623940D01*
X229307217Y-68575865D01*
X229079551Y-68481563D01*
X229079550Y-68481563D01*
X229079549Y-68481562D01*
X228874654Y-68344655D01*
X228700405Y-68170406D01*
X228563498Y-67965511D01*
X228469195Y-67737843D01*
X228421120Y-67496153D01*
X228421120Y-67249727D01*
X228469195Y-67008037D01*
X228532388Y-66855476D01*
X228563497Y-66780371D01*
X228700404Y-66575476D01*
X228700405Y-66575474D01*
X228874654Y-66401225D01*
X229079549Y-66264318D01*
X229307217Y-66170015D01*
X229548906Y-66121940D01*
X229795334Y-66121940D01*
X230037023Y-66170015D01*
G37*
G36*
X241423120Y-68623940D02*
G01*
X238921120Y-68623940D01*
X238921120Y-66121940D01*
X241423120Y-66121940D01*
X241423120Y-68623940D01*
G37*
M02*
