G04 #@! TF.GenerationSoftware,KiCad,Pcbnew,(5.1.6)-1*
G04 #@! TF.CreationDate,2020-09-10T18:56:50+07:00*
G04 #@! TF.ProjectId,Kicad_Valve-hardware,4b696361-645f-4566-916c-76652d686172,rev?*
G04 #@! TF.SameCoordinates,Original*
G04 #@! TF.FileFunction,Soldermask,Bot*
G04 #@! TF.FilePolarity,Negative*
%FSLAX46Y46*%
G04 Gerber Fmt 4.6, Leading zero omitted, Abs format (unit mm)*
G04 Created by KiCad (PCBNEW (5.1.6)-1) date 2020-09-10 18:56:50*
%MOMM*%
%LPD*%
G01*
G04 APERTURE LIST*
%ADD10C,0.100000*%
G04 APERTURE END LIST*
D10*
G36*
X219925632Y-129956867D02*
G01*
X220074932Y-129986564D01*
X220238904Y-130054484D01*
X220386474Y-130153087D01*
X220511973Y-130278586D01*
X220610576Y-130426156D01*
X220678496Y-130590128D01*
X220713120Y-130764199D01*
X220713120Y-130941681D01*
X220678496Y-131115752D01*
X220610576Y-131279724D01*
X220511973Y-131427294D01*
X220386474Y-131552793D01*
X220238904Y-131651396D01*
X220074932Y-131719316D01*
X219925632Y-131749013D01*
X219900862Y-131753940D01*
X219723378Y-131753940D01*
X219698608Y-131749013D01*
X219549308Y-131719316D01*
X219385336Y-131651396D01*
X219237766Y-131552793D01*
X219112267Y-131427294D01*
X219013664Y-131279724D01*
X218945744Y-131115752D01*
X218911120Y-130941681D01*
X218911120Y-130764199D01*
X218945744Y-130590128D01*
X219013664Y-130426156D01*
X219112267Y-130278586D01*
X219237766Y-130153087D01*
X219385336Y-130054484D01*
X219549308Y-129986564D01*
X219698608Y-129956867D01*
X219723378Y-129951940D01*
X219900862Y-129951940D01*
X219925632Y-129956867D01*
G37*
G36*
X233413120Y-131753940D02*
G01*
X231611120Y-131753940D01*
X231611120Y-129951940D01*
X233413120Y-129951940D01*
X233413120Y-131753940D01*
G37*
G36*
X230085632Y-129956867D02*
G01*
X230234932Y-129986564D01*
X230398904Y-130054484D01*
X230546474Y-130153087D01*
X230671973Y-130278586D01*
X230770576Y-130426156D01*
X230838496Y-130590128D01*
X230873120Y-130764199D01*
X230873120Y-130941681D01*
X230838496Y-131115752D01*
X230770576Y-131279724D01*
X230671973Y-131427294D01*
X230546474Y-131552793D01*
X230398904Y-131651396D01*
X230234932Y-131719316D01*
X230085632Y-131749013D01*
X230060862Y-131753940D01*
X229883378Y-131753940D01*
X229858608Y-131749013D01*
X229709308Y-131719316D01*
X229545336Y-131651396D01*
X229397766Y-131552793D01*
X229272267Y-131427294D01*
X229173664Y-131279724D01*
X229105744Y-131115752D01*
X229071120Y-130941681D01*
X229071120Y-130764199D01*
X229105744Y-130590128D01*
X229173664Y-130426156D01*
X229272267Y-130278586D01*
X229397766Y-130153087D01*
X229545336Y-130054484D01*
X229709308Y-129986564D01*
X229858608Y-129956867D01*
X229883378Y-129951940D01*
X230060862Y-129951940D01*
X230085632Y-129956867D01*
G37*
G36*
X227545632Y-129956867D02*
G01*
X227694932Y-129986564D01*
X227858904Y-130054484D01*
X228006474Y-130153087D01*
X228131973Y-130278586D01*
X228230576Y-130426156D01*
X228298496Y-130590128D01*
X228333120Y-130764199D01*
X228333120Y-130941681D01*
X228298496Y-131115752D01*
X228230576Y-131279724D01*
X228131973Y-131427294D01*
X228006474Y-131552793D01*
X227858904Y-131651396D01*
X227694932Y-131719316D01*
X227545632Y-131749013D01*
X227520862Y-131753940D01*
X227343378Y-131753940D01*
X227318608Y-131749013D01*
X227169308Y-131719316D01*
X227005336Y-131651396D01*
X226857766Y-131552793D01*
X226732267Y-131427294D01*
X226633664Y-131279724D01*
X226565744Y-131115752D01*
X226531120Y-130941681D01*
X226531120Y-130764199D01*
X226565744Y-130590128D01*
X226633664Y-130426156D01*
X226732267Y-130278586D01*
X226857766Y-130153087D01*
X227005336Y-130054484D01*
X227169308Y-129986564D01*
X227318608Y-129956867D01*
X227343378Y-129951940D01*
X227520862Y-129951940D01*
X227545632Y-129956867D01*
G37*
G36*
X225005632Y-129956867D02*
G01*
X225154932Y-129986564D01*
X225318904Y-130054484D01*
X225466474Y-130153087D01*
X225591973Y-130278586D01*
X225690576Y-130426156D01*
X225758496Y-130590128D01*
X225793120Y-130764199D01*
X225793120Y-130941681D01*
X225758496Y-131115752D01*
X225690576Y-131279724D01*
X225591973Y-131427294D01*
X225466474Y-131552793D01*
X225318904Y-131651396D01*
X225154932Y-131719316D01*
X225005632Y-131749013D01*
X224980862Y-131753940D01*
X224803378Y-131753940D01*
X224778608Y-131749013D01*
X224629308Y-131719316D01*
X224465336Y-131651396D01*
X224317766Y-131552793D01*
X224192267Y-131427294D01*
X224093664Y-131279724D01*
X224025744Y-131115752D01*
X223991120Y-130941681D01*
X223991120Y-130764199D01*
X224025744Y-130590128D01*
X224093664Y-130426156D01*
X224192267Y-130278586D01*
X224317766Y-130153087D01*
X224465336Y-130054484D01*
X224629308Y-129986564D01*
X224778608Y-129956867D01*
X224803378Y-129951940D01*
X224980862Y-129951940D01*
X225005632Y-129956867D01*
G37*
G36*
X222465632Y-129956867D02*
G01*
X222614932Y-129986564D01*
X222778904Y-130054484D01*
X222926474Y-130153087D01*
X223051973Y-130278586D01*
X223150576Y-130426156D01*
X223218496Y-130590128D01*
X223253120Y-130764199D01*
X223253120Y-130941681D01*
X223218496Y-131115752D01*
X223150576Y-131279724D01*
X223051973Y-131427294D01*
X222926474Y-131552793D01*
X222778904Y-131651396D01*
X222614932Y-131719316D01*
X222465632Y-131749013D01*
X222440862Y-131753940D01*
X222263378Y-131753940D01*
X222238608Y-131749013D01*
X222089308Y-131719316D01*
X221925336Y-131651396D01*
X221777766Y-131552793D01*
X221652267Y-131427294D01*
X221553664Y-131279724D01*
X221485744Y-131115752D01*
X221451120Y-130941681D01*
X221451120Y-130764199D01*
X221485744Y-130590128D01*
X221553664Y-130426156D01*
X221652267Y-130278586D01*
X221777766Y-130153087D01*
X221925336Y-130054484D01*
X222089308Y-129986564D01*
X222238608Y-129956867D01*
X222263378Y-129951940D01*
X222440862Y-129951940D01*
X222465632Y-129956867D01*
G37*
G36*
X247205632Y-129886867D02*
G01*
X247354932Y-129916564D01*
X247518904Y-129984484D01*
X247666474Y-130083087D01*
X247791973Y-130208586D01*
X247890576Y-130356156D01*
X247958496Y-130520128D01*
X247993120Y-130694199D01*
X247993120Y-130871681D01*
X247958496Y-131045752D01*
X247890576Y-131209724D01*
X247791973Y-131357294D01*
X247666474Y-131482793D01*
X247518904Y-131581396D01*
X247354932Y-131649316D01*
X247205632Y-131679013D01*
X247180862Y-131683940D01*
X247003378Y-131683940D01*
X246978608Y-131679013D01*
X246829308Y-131649316D01*
X246665336Y-131581396D01*
X246517766Y-131482793D01*
X246392267Y-131357294D01*
X246293664Y-131209724D01*
X246225744Y-131045752D01*
X246191120Y-130871681D01*
X246191120Y-130694199D01*
X246225744Y-130520128D01*
X246293664Y-130356156D01*
X246392267Y-130208586D01*
X246517766Y-130083087D01*
X246665336Y-129984484D01*
X246829308Y-129916564D01*
X246978608Y-129886867D01*
X247003378Y-129881940D01*
X247180862Y-129881940D01*
X247205632Y-129886867D01*
G37*
G36*
X244665632Y-129886867D02*
G01*
X244814932Y-129916564D01*
X244978904Y-129984484D01*
X245126474Y-130083087D01*
X245251973Y-130208586D01*
X245350576Y-130356156D01*
X245418496Y-130520128D01*
X245453120Y-130694199D01*
X245453120Y-130871681D01*
X245418496Y-131045752D01*
X245350576Y-131209724D01*
X245251973Y-131357294D01*
X245126474Y-131482793D01*
X244978904Y-131581396D01*
X244814932Y-131649316D01*
X244665632Y-131679013D01*
X244640862Y-131683940D01*
X244463378Y-131683940D01*
X244438608Y-131679013D01*
X244289308Y-131649316D01*
X244125336Y-131581396D01*
X243977766Y-131482793D01*
X243852267Y-131357294D01*
X243753664Y-131209724D01*
X243685744Y-131045752D01*
X243651120Y-130871681D01*
X243651120Y-130694199D01*
X243685744Y-130520128D01*
X243753664Y-130356156D01*
X243852267Y-130208586D01*
X243977766Y-130083087D01*
X244125336Y-129984484D01*
X244289308Y-129916564D01*
X244438608Y-129886867D01*
X244463378Y-129881940D01*
X244640862Y-129881940D01*
X244665632Y-129886867D01*
G37*
G36*
X250533120Y-131683940D02*
G01*
X248731120Y-131683940D01*
X248731120Y-129881940D01*
X250533120Y-129881940D01*
X250533120Y-131683940D01*
G37*
G36*
X210845632Y-123436867D02*
G01*
X210994932Y-123466564D01*
X211158904Y-123534484D01*
X211306474Y-123633087D01*
X211431973Y-123758586D01*
X211530576Y-123906156D01*
X211598496Y-124070128D01*
X211633120Y-124244199D01*
X211633120Y-124421681D01*
X211598496Y-124595752D01*
X211530576Y-124759724D01*
X211431973Y-124907294D01*
X211306474Y-125032793D01*
X211158904Y-125131396D01*
X210994932Y-125199316D01*
X210845632Y-125229013D01*
X210820862Y-125233940D01*
X210643378Y-125233940D01*
X210618608Y-125229013D01*
X210469308Y-125199316D01*
X210305336Y-125131396D01*
X210157766Y-125032793D01*
X210032267Y-124907294D01*
X209933664Y-124759724D01*
X209865744Y-124595752D01*
X209831120Y-124421681D01*
X209831120Y-124244199D01*
X209865744Y-124070128D01*
X209933664Y-123906156D01*
X210032267Y-123758586D01*
X210157766Y-123633087D01*
X210305336Y-123534484D01*
X210469308Y-123466564D01*
X210618608Y-123436867D01*
X210643378Y-123431940D01*
X210820862Y-123431940D01*
X210845632Y-123436867D01*
G37*
G36*
X249674422Y-124072735D02*
G01*
X249744483Y-124101755D01*
X249807542Y-124143890D01*
X249861170Y-124197518D01*
X249903305Y-124260577D01*
X249932325Y-124330638D01*
X249947120Y-124405019D01*
X249947120Y-124480861D01*
X249932325Y-124555242D01*
X249903305Y-124625303D01*
X249861170Y-124688362D01*
X249807542Y-124741990D01*
X249744483Y-124784125D01*
X249674422Y-124813145D01*
X249600041Y-124827940D01*
X249524199Y-124827940D01*
X249449818Y-124813145D01*
X249379757Y-124784125D01*
X249316698Y-124741990D01*
X249263070Y-124688362D01*
X249220935Y-124625303D01*
X249191915Y-124555242D01*
X249177120Y-124480861D01*
X249177120Y-124405019D01*
X249191915Y-124330638D01*
X249220935Y-124260577D01*
X249263070Y-124197518D01*
X249316698Y-124143890D01*
X249379757Y-124101755D01*
X249449818Y-124072735D01*
X249524199Y-124057940D01*
X249600041Y-124057940D01*
X249674422Y-124072735D01*
G37*
G36*
X250974422Y-124072735D02*
G01*
X251044483Y-124101755D01*
X251107542Y-124143890D01*
X251161170Y-124197518D01*
X251203305Y-124260577D01*
X251232325Y-124330638D01*
X251247120Y-124405019D01*
X251247120Y-124480861D01*
X251232325Y-124555242D01*
X251203305Y-124625303D01*
X251161170Y-124688362D01*
X251107542Y-124741990D01*
X251044483Y-124784125D01*
X250974422Y-124813145D01*
X250900041Y-124827940D01*
X250824199Y-124827940D01*
X250749818Y-124813145D01*
X250679757Y-124784125D01*
X250616698Y-124741990D01*
X250563070Y-124688362D01*
X250520935Y-124625303D01*
X250491915Y-124555242D01*
X250477120Y-124480861D01*
X250477120Y-124405019D01*
X250491915Y-124330638D01*
X250520935Y-124260577D01*
X250563070Y-124197518D01*
X250616698Y-124143890D01*
X250679757Y-124101755D01*
X250749818Y-124072735D01*
X250824199Y-124057940D01*
X250900041Y-124057940D01*
X250974422Y-124072735D01*
G37*
G36*
X249674422Y-122772735D02*
G01*
X249744483Y-122801755D01*
X249807542Y-122843890D01*
X249861170Y-122897518D01*
X249903305Y-122960577D01*
X249932325Y-123030638D01*
X249947120Y-123105019D01*
X249947120Y-123180861D01*
X249932325Y-123255242D01*
X249903305Y-123325303D01*
X249861170Y-123388362D01*
X249807542Y-123441990D01*
X249744483Y-123484125D01*
X249674422Y-123513145D01*
X249600041Y-123527940D01*
X249524199Y-123527940D01*
X249449818Y-123513145D01*
X249379757Y-123484125D01*
X249316698Y-123441990D01*
X249263070Y-123388362D01*
X249220935Y-123325303D01*
X249191915Y-123255242D01*
X249177120Y-123180861D01*
X249177120Y-123105019D01*
X249191915Y-123030638D01*
X249220935Y-122960577D01*
X249263070Y-122897518D01*
X249316698Y-122843890D01*
X249379757Y-122801755D01*
X249449818Y-122772735D01*
X249524199Y-122757940D01*
X249600041Y-122757940D01*
X249674422Y-122772735D01*
G37*
G36*
X250974422Y-122772735D02*
G01*
X251044483Y-122801755D01*
X251107542Y-122843890D01*
X251161170Y-122897518D01*
X251203305Y-122960577D01*
X251232325Y-123030638D01*
X251247120Y-123105019D01*
X251247120Y-123180861D01*
X251232325Y-123255242D01*
X251203305Y-123325303D01*
X251161170Y-123388362D01*
X251107542Y-123441990D01*
X251044483Y-123484125D01*
X250974422Y-123513145D01*
X250900041Y-123527940D01*
X250824199Y-123527940D01*
X250749818Y-123513145D01*
X250679757Y-123484125D01*
X250616698Y-123441990D01*
X250563070Y-123388362D01*
X250520935Y-123325303D01*
X250491915Y-123255242D01*
X250477120Y-123180861D01*
X250477120Y-123105019D01*
X250491915Y-123030638D01*
X250520935Y-122960577D01*
X250563070Y-122897518D01*
X250616698Y-122843890D01*
X250679757Y-122801755D01*
X250749818Y-122772735D01*
X250824199Y-122757940D01*
X250900041Y-122757940D01*
X250974422Y-122772735D01*
G37*
G36*
X261403120Y-122873940D02*
G01*
X257301120Y-122873940D01*
X257301120Y-119771940D01*
X261403120Y-119771940D01*
X261403120Y-122873940D01*
G37*
G36*
X210845632Y-120896867D02*
G01*
X210994932Y-120926564D01*
X211158904Y-120994484D01*
X211306474Y-121093087D01*
X211431973Y-121218586D01*
X211530576Y-121366156D01*
X211598496Y-121530128D01*
X211633120Y-121704199D01*
X211633120Y-121881681D01*
X211598496Y-122055752D01*
X211530576Y-122219724D01*
X211431973Y-122367294D01*
X211306474Y-122492793D01*
X211158904Y-122591396D01*
X210994932Y-122659316D01*
X210845632Y-122689013D01*
X210820862Y-122693940D01*
X210643378Y-122693940D01*
X210618608Y-122689013D01*
X210469308Y-122659316D01*
X210305336Y-122591396D01*
X210157766Y-122492793D01*
X210032267Y-122367294D01*
X209933664Y-122219724D01*
X209865744Y-122055752D01*
X209831120Y-121881681D01*
X209831120Y-121704199D01*
X209865744Y-121530128D01*
X209933664Y-121366156D01*
X210032267Y-121218586D01*
X210157766Y-121093087D01*
X210305336Y-120994484D01*
X210469308Y-120926564D01*
X210618608Y-120896867D01*
X210643378Y-120891940D01*
X210820862Y-120891940D01*
X210845632Y-120896867D01*
G37*
G36*
X249674422Y-121472735D02*
G01*
X249744483Y-121501755D01*
X249807542Y-121543890D01*
X249861170Y-121597518D01*
X249903305Y-121660577D01*
X249932325Y-121730638D01*
X249947120Y-121805019D01*
X249947120Y-121880861D01*
X249932325Y-121955242D01*
X249903305Y-122025303D01*
X249861170Y-122088362D01*
X249807542Y-122141990D01*
X249744483Y-122184125D01*
X249674422Y-122213145D01*
X249600041Y-122227940D01*
X249524199Y-122227940D01*
X249449818Y-122213145D01*
X249379757Y-122184125D01*
X249316698Y-122141990D01*
X249263070Y-122088362D01*
X249220935Y-122025303D01*
X249191915Y-121955242D01*
X249177120Y-121880861D01*
X249177120Y-121805019D01*
X249191915Y-121730638D01*
X249220935Y-121660577D01*
X249263070Y-121597518D01*
X249316698Y-121543890D01*
X249379757Y-121501755D01*
X249449818Y-121472735D01*
X249524199Y-121457940D01*
X249600041Y-121457940D01*
X249674422Y-121472735D01*
G37*
G36*
X250974422Y-121472735D02*
G01*
X251044483Y-121501755D01*
X251107542Y-121543890D01*
X251161170Y-121597518D01*
X251203305Y-121660577D01*
X251232325Y-121730638D01*
X251247120Y-121805019D01*
X251247120Y-121880861D01*
X251232325Y-121955242D01*
X251203305Y-122025303D01*
X251161170Y-122088362D01*
X251107542Y-122141990D01*
X251044483Y-122184125D01*
X250974422Y-122213145D01*
X250900041Y-122227940D01*
X250824199Y-122227940D01*
X250749818Y-122213145D01*
X250679757Y-122184125D01*
X250616698Y-122141990D01*
X250563070Y-122088362D01*
X250520935Y-122025303D01*
X250491915Y-121955242D01*
X250477120Y-121880861D01*
X250477120Y-121805019D01*
X250491915Y-121730638D01*
X250520935Y-121660577D01*
X250563070Y-121597518D01*
X250616698Y-121543890D01*
X250679757Y-121501755D01*
X250749818Y-121472735D01*
X250824199Y-121457940D01*
X250900041Y-121457940D01*
X250974422Y-121472735D01*
G37*
G36*
X210845632Y-118356867D02*
G01*
X210994932Y-118386564D01*
X211158904Y-118454484D01*
X211306474Y-118553087D01*
X211431973Y-118678586D01*
X211530576Y-118826156D01*
X211598496Y-118990128D01*
X211633120Y-119164199D01*
X211633120Y-119341681D01*
X211598496Y-119515752D01*
X211530576Y-119679724D01*
X211431973Y-119827294D01*
X211306474Y-119952793D01*
X211158904Y-120051396D01*
X210994932Y-120119316D01*
X210845632Y-120149013D01*
X210820862Y-120153940D01*
X210643378Y-120153940D01*
X210618608Y-120149013D01*
X210469308Y-120119316D01*
X210305336Y-120051396D01*
X210157766Y-119952793D01*
X210032267Y-119827294D01*
X209933664Y-119679724D01*
X209865744Y-119515752D01*
X209831120Y-119341681D01*
X209831120Y-119164199D01*
X209865744Y-118990128D01*
X209933664Y-118826156D01*
X210032267Y-118678586D01*
X210157766Y-118553087D01*
X210305336Y-118454484D01*
X210469308Y-118386564D01*
X210618608Y-118356867D01*
X210643378Y-118351940D01*
X210820862Y-118351940D01*
X210845632Y-118356867D01*
G37*
G36*
X250105631Y-113916034D02*
G01*
X250660877Y-114146024D01*
X250660878Y-114146025D01*
X251160587Y-114479920D01*
X251585554Y-114904887D01*
X251585555Y-114904889D01*
X251919450Y-115404597D01*
X252149440Y-115959843D01*
X252266688Y-116549287D01*
X252266688Y-117150285D01*
X252149440Y-117739729D01*
X251919450Y-118294975D01*
X251919449Y-118294976D01*
X251585554Y-118794685D01*
X251160587Y-119219652D01*
X250977958Y-119341681D01*
X250660877Y-119553548D01*
X250105631Y-119783538D01*
X249516187Y-119900786D01*
X248915189Y-119900786D01*
X248325745Y-119783538D01*
X247770499Y-119553548D01*
X247453418Y-119341681D01*
X247270789Y-119219652D01*
X246845822Y-118794685D01*
X246511927Y-118294976D01*
X246511926Y-118294975D01*
X246281936Y-117739729D01*
X246164688Y-117150285D01*
X246164688Y-116549287D01*
X246281936Y-115959843D01*
X246511926Y-115404597D01*
X246845821Y-114904889D01*
X246845822Y-114904887D01*
X247270789Y-114479920D01*
X247770498Y-114146025D01*
X247770499Y-114146024D01*
X248325745Y-113916034D01*
X248915189Y-113798786D01*
X249516187Y-113798786D01*
X250105631Y-113916034D01*
G37*
G36*
X211633120Y-117613940D02*
G01*
X209831120Y-117613940D01*
X209831120Y-115811940D01*
X211633120Y-115811940D01*
X211633120Y-117613940D01*
G37*
G36*
X262903120Y-114973940D02*
G01*
X255801120Y-114973940D01*
X255801120Y-112871940D01*
X262903120Y-112871940D01*
X262903120Y-114973940D01*
G37*
G36*
X262903120Y-109973940D02*
G01*
X255801120Y-109973940D01*
X255801120Y-107871940D01*
X262903120Y-107871940D01*
X262903120Y-109973940D01*
G37*
G36*
X214396292Y-100919448D02*
G01*
X214951538Y-101149438D01*
X214951539Y-101149439D01*
X215451248Y-101483334D01*
X215876215Y-101908301D01*
X215876216Y-101908303D01*
X216210111Y-102408011D01*
X216440101Y-102963257D01*
X216557349Y-103552701D01*
X216557349Y-104153699D01*
X216440101Y-104743143D01*
X216210111Y-105298389D01*
X216210110Y-105298390D01*
X215876215Y-105798099D01*
X215451248Y-106223066D01*
X215199696Y-106391148D01*
X214951538Y-106556962D01*
X214396292Y-106786952D01*
X213806848Y-106904200D01*
X213205850Y-106904200D01*
X212616406Y-106786952D01*
X212061160Y-106556962D01*
X211813002Y-106391148D01*
X211561450Y-106223066D01*
X211136483Y-105798099D01*
X210802588Y-105298390D01*
X210802587Y-105298389D01*
X210572597Y-104743143D01*
X210455349Y-104153699D01*
X210455349Y-103552701D01*
X210572597Y-102963257D01*
X210802587Y-102408011D01*
X211136482Y-101908303D01*
X211136483Y-101908301D01*
X211561450Y-101483334D01*
X212061159Y-101149439D01*
X212061160Y-101149438D01*
X212616406Y-100919448D01*
X213205850Y-100802200D01*
X213806848Y-100802200D01*
X214396292Y-100919448D01*
G37*
G36*
X214333120Y-94833940D02*
G01*
X210231120Y-94833940D01*
X210231120Y-91731940D01*
X214333120Y-91731940D01*
X214333120Y-94833940D01*
G37*
G36*
X215833120Y-86933940D02*
G01*
X208731120Y-86933940D01*
X208731120Y-84831940D01*
X215833120Y-84831940D01*
X215833120Y-86933940D01*
G37*
G36*
X243507000Y-76493339D02*
G01*
X244062246Y-76723329D01*
X244062247Y-76723330D01*
X244561956Y-77057225D01*
X244986923Y-77482192D01*
X244986924Y-77482194D01*
X245320819Y-77981902D01*
X245550809Y-78537148D01*
X245668057Y-79126592D01*
X245668057Y-79727590D01*
X245550809Y-80317034D01*
X245320819Y-80872280D01*
X245320818Y-80872281D01*
X244986923Y-81371990D01*
X244561956Y-81796957D01*
X244310404Y-81965039D01*
X244062246Y-82130853D01*
X243507000Y-82360843D01*
X242917556Y-82478091D01*
X242316558Y-82478091D01*
X241727114Y-82360843D01*
X241171868Y-82130853D01*
X240923710Y-81965039D01*
X240672158Y-81796957D01*
X240247191Y-81371990D01*
X239913296Y-80872281D01*
X239913295Y-80872280D01*
X239683305Y-80317034D01*
X239566057Y-79727590D01*
X239566057Y-79126592D01*
X239683305Y-78537148D01*
X239913295Y-77981902D01*
X240247190Y-77482194D01*
X240247191Y-77482192D01*
X240672158Y-77057225D01*
X241171867Y-76723330D01*
X241171868Y-76723329D01*
X241727114Y-76493339D01*
X242316558Y-76376091D01*
X242917556Y-76376091D01*
X243507000Y-76493339D01*
G37*
G36*
X215833120Y-81933940D02*
G01*
X208731120Y-81933940D01*
X208731120Y-79831940D01*
X215833120Y-79831940D01*
X215833120Y-81933940D01*
G37*
G36*
X221867023Y-66450015D02*
G01*
X222094691Y-66544318D01*
X222299586Y-66681225D01*
X222473835Y-66855474D01*
X222610742Y-67060369D01*
X222610743Y-67060371D01*
X222705045Y-67288037D01*
X222753120Y-67529726D01*
X222753120Y-67776154D01*
X222705045Y-68017843D01*
X222641852Y-68170406D01*
X222610742Y-68245511D01*
X222473835Y-68450406D01*
X222299586Y-68624655D01*
X222094691Y-68761562D01*
X222094690Y-68761563D01*
X222094689Y-68761563D01*
X221867023Y-68855865D01*
X221625334Y-68903940D01*
X221378906Y-68903940D01*
X221137217Y-68855865D01*
X220909551Y-68761563D01*
X220909550Y-68761563D01*
X220909549Y-68761562D01*
X220704654Y-68624655D01*
X220530405Y-68450406D01*
X220393498Y-68245511D01*
X220362389Y-68170406D01*
X220299195Y-68017843D01*
X220251120Y-67776154D01*
X220251120Y-67529726D01*
X220299195Y-67288037D01*
X220393497Y-67060371D01*
X220393498Y-67060369D01*
X220530405Y-66855474D01*
X220704654Y-66681225D01*
X220909549Y-66544318D01*
X221137217Y-66450015D01*
X221378906Y-66401940D01*
X221625334Y-66401940D01*
X221867023Y-66450015D01*
G37*
G36*
X226253120Y-68903940D02*
G01*
X223751120Y-68903940D01*
X223751120Y-66401940D01*
X226253120Y-66401940D01*
X226253120Y-68903940D01*
G37*
G36*
X241423120Y-68623940D02*
G01*
X238921120Y-68623940D01*
X238921120Y-66121940D01*
X241423120Y-66121940D01*
X241423120Y-68623940D01*
G37*
G36*
X230037023Y-66170015D02*
G01*
X230264691Y-66264318D01*
X230469586Y-66401225D01*
X230643835Y-66575474D01*
X230643836Y-66575476D01*
X230780743Y-66780371D01*
X230811852Y-66855476D01*
X230875045Y-67008037D01*
X230923120Y-67249727D01*
X230923120Y-67496153D01*
X230875045Y-67737843D01*
X230780742Y-67965511D01*
X230643835Y-68170406D01*
X230469586Y-68344655D01*
X230264691Y-68481562D01*
X230264690Y-68481563D01*
X230264689Y-68481563D01*
X230037023Y-68575865D01*
X229795334Y-68623940D01*
X229548906Y-68623940D01*
X229307217Y-68575865D01*
X229079551Y-68481563D01*
X229079550Y-68481563D01*
X229079549Y-68481562D01*
X228874654Y-68344655D01*
X228700405Y-68170406D01*
X228563498Y-67965511D01*
X228469195Y-67737843D01*
X228421120Y-67496153D01*
X228421120Y-67249727D01*
X228469195Y-67008037D01*
X228532388Y-66855476D01*
X228563497Y-66780371D01*
X228700404Y-66575476D01*
X228700405Y-66575474D01*
X228874654Y-66401225D01*
X229079549Y-66264318D01*
X229307217Y-66170015D01*
X229548906Y-66121940D01*
X229795334Y-66121940D01*
X230037023Y-66170015D01*
G37*
G36*
X233537023Y-66170015D02*
G01*
X233764691Y-66264318D01*
X233969586Y-66401225D01*
X234143835Y-66575474D01*
X234143836Y-66575476D01*
X234280743Y-66780371D01*
X234311852Y-66855476D01*
X234375045Y-67008037D01*
X234423120Y-67249727D01*
X234423120Y-67496153D01*
X234375045Y-67737843D01*
X234280742Y-67965511D01*
X234143835Y-68170406D01*
X233969586Y-68344655D01*
X233764691Y-68481562D01*
X233764690Y-68481563D01*
X233764689Y-68481563D01*
X233537023Y-68575865D01*
X233295334Y-68623940D01*
X233048906Y-68623940D01*
X232807217Y-68575865D01*
X232579551Y-68481563D01*
X232579550Y-68481563D01*
X232579549Y-68481562D01*
X232374654Y-68344655D01*
X232200405Y-68170406D01*
X232063498Y-67965511D01*
X231969195Y-67737843D01*
X231921120Y-67496153D01*
X231921120Y-67249727D01*
X231969195Y-67008037D01*
X232032388Y-66855476D01*
X232063497Y-66780371D01*
X232200404Y-66575476D01*
X232200405Y-66575474D01*
X232374654Y-66401225D01*
X232579549Y-66264318D01*
X232807217Y-66170015D01*
X233048906Y-66121940D01*
X233295334Y-66121940D01*
X233537023Y-66170015D01*
G37*
G36*
X237037023Y-66170015D02*
G01*
X237264691Y-66264318D01*
X237469586Y-66401225D01*
X237643835Y-66575474D01*
X237643836Y-66575476D01*
X237780743Y-66780371D01*
X237811852Y-66855476D01*
X237875045Y-67008037D01*
X237923120Y-67249727D01*
X237923120Y-67496153D01*
X237875045Y-67737843D01*
X237780742Y-67965511D01*
X237643835Y-68170406D01*
X237469586Y-68344655D01*
X237264691Y-68481562D01*
X237264690Y-68481563D01*
X237264689Y-68481563D01*
X237037023Y-68575865D01*
X236795334Y-68623940D01*
X236548906Y-68623940D01*
X236307217Y-68575865D01*
X236079551Y-68481563D01*
X236079550Y-68481563D01*
X236079549Y-68481562D01*
X235874654Y-68344655D01*
X235700405Y-68170406D01*
X235563498Y-67965511D01*
X235469195Y-67737843D01*
X235421120Y-67496153D01*
X235421120Y-67249727D01*
X235469195Y-67008037D01*
X235532388Y-66855476D01*
X235563497Y-66780371D01*
X235700404Y-66575476D01*
X235700405Y-66575474D01*
X235874654Y-66401225D01*
X236079549Y-66264318D01*
X236307217Y-66170015D01*
X236548906Y-66121940D01*
X236795334Y-66121940D01*
X237037023Y-66170015D01*
G37*
M02*
