M48
INCH,TZ
T1C0.0118
T2C0.0130
T3C0.0157
T4C0.0197
T5C0.0394
T6C0.0472
T7C0.0591
T8C0.1181
%
G90
G05
T1
X78678Y-42861
X78678Y-43261
X79078Y-35361
X79078Y-35761
X79078Y-36161
X79078Y-42861
X79078Y-43261
X79478Y-35361
X79478Y-35761
X79478Y-36161
X79478Y-42861
X79478Y-43261
X79878Y-35361
X79878Y-35761
X79878Y-36161
X79878Y-42861
X79878Y-43261
X80278Y-35361
X80278Y-35761
X80278Y-36161
X80278Y-42861
X80278Y-43261
X80678Y-42861
X80678Y-43261
X81078Y-42861
X81078Y-43261
X81478Y-42861
X81478Y-43261
X81878Y-42861
X81878Y-43261
X83797Y-52103
X84309Y-43916
X84309Y-44416
X84578Y-46561
X84797Y-52103
X84809Y-43916
X84831Y-50808
X84878Y-46561
X85119Y-50820
X85419Y-50820
X85797Y-52103
X85819Y-50820
X85890Y-49166
X85978Y-46661
X86278Y-46661
X86578Y-44561
X86578Y-44861
X86578Y-45161
X86578Y-46661
X86654Y-49222
X86797Y-52103
X86878Y-44561
X86878Y-44861
X86878Y-45161
X87678Y-30661
X87678Y-31061
X87797Y-52103
X87978Y-47961
X87978Y-48261
X87978Y-48561
X87978Y-48861
X88078Y-30661
X88078Y-31061
X88378Y-47961
X88378Y-48261
X88378Y-48561
X88378Y-48861
X88444Y-45368
X88478Y-30661
X88478Y-31061
X88797Y-52103
X88878Y-30661
X88878Y-31061
X88971Y-45368
X89278Y-30661
X89278Y-31061
X89547Y-26103
X89547Y-26603
X89547Y-27103
X89547Y-27603
X89797Y-52103
X89978Y-49061
X89978Y-49361
X89978Y-49661
X90017Y-25852
X90047Y-27603
X90197Y-47021
X90206Y-47336
X90278Y-46661
X90278Y-49061
X90278Y-49361
X90278Y-49661
X90477Y-25848
X90547Y-27603
X90578Y-46661
X90797Y-52103
X90973Y-25852
X91047Y-27603
X91516Y-49741
X91521Y-48694
X91521Y-49118
X91521Y-50218
X91536Y-50503
X91536Y-50796
X91687Y-46552
X91978Y-46361
X93871Y-52100
X94332Y-52100
X94378Y-46061
X94590Y-50391
X94678Y-49761
X94778Y-45561
X94812Y-52115
X94930Y-49521
X94934Y-49257
X95078Y-45561
X95297Y-52103
X95304Y-49320
X95808Y-49218
X96178Y-49361
X96178Y-49661
X96184Y-50393
X96297Y-52103
X96478Y-49361
X96478Y-49661
X96797Y-26353
X96797Y-26853
X96797Y-27353
X97047Y-25853
X97047Y-27853
X97297Y-52103
X97428Y-34011
X97428Y-34511
X97428Y-35011
X97431Y-50808
X97547Y-25853
X97547Y-27853
X97719Y-50820
X97928Y-34011
X98019Y-50820
X98047Y-25853
X98047Y-27853
X98078Y-32761
X98078Y-33103
X98278Y-31603
X98297Y-52103
X98428Y-34011
X98478Y-33103
X98547Y-25853
X98547Y-26353
X98547Y-26853
X98547Y-27353
X98547Y-27853
X98928Y-34011
X99297Y-52103
X99797Y-33853
X100130Y-33848
X100297Y-52103
X100297Y-52103
X100797Y-52103
X101278Y-49261
X101278Y-49561
X101297Y-52103
X101547Y-32103
X101578Y-49261
X101578Y-49561
X101808Y-32113
X101808Y-32341
X101878Y-49261
X101878Y-49561
X102047Y-32103
X102047Y-32603
X102049Y-32341
X102178Y-49261
X102178Y-49561
X102297Y-36603
X102297Y-37103
X102797Y-36603
X102797Y-37103
X103297Y-34603
X103297Y-35103
X103297Y-36603
X103297Y-37103
X103797Y-29103
X103797Y-34603
X103797Y-35103
X103797Y-36603
X103797Y-37103
X104547Y-29853
X104547Y-30353
X104547Y-31853
X104639Y-48474
X104879Y-48253
X105047Y-30353
X105047Y-30853
X105047Y-31853
X105099Y-48048
X105320Y-47848
X105547Y-30853
X105547Y-31353
X105547Y-31853
X93540Y-52300
T2
X98253Y-47970
X98253Y-48481
X98253Y-48993
X98765Y-47970
X98765Y-48481
X98765Y-48993
T3
X87422Y-46795
X87426Y-45993
X87878Y-44961
X88278Y-44961
X88678Y-44961
X88973Y-45974
X88989Y-46795
X89454Y-45364
X94878Y-50862
X95300Y-50824
X95603Y-47670
X95800Y-50855
X99980Y-43659
X99980Y-44038
X99980Y-44445
X100580Y-47730
X101078Y-45961
X101578Y-45961
X102078Y-45961
X102578Y-45961
X103078Y-45961
X103099Y-50182
X103499Y-49782
X103799Y-49482
X105346Y-35840
X105799Y-35840
X106249Y-35990
X106540Y-36300
X106540Y-36699
X106540Y-37099
X92891Y-48167
X92894Y-47222
X92894Y-47695
X92894Y-48635
X93363Y-48167
X93367Y-47222
X93367Y-47695
X93367Y-48635
X93835Y-48167
X93839Y-47222
X93839Y-47695
X93839Y-48635
X94308Y-48167
X94312Y-47222
X94312Y-47695
X94312Y-48635
T4
X100685Y-37035
X100685Y-37479
X100685Y-37959
X101190Y-37065
X101190Y-37492
X101190Y-37944
X101712Y-37072
X101712Y-37512
X101712Y-37976
T5
X86540Y-51517
X87540Y-51517
X88540Y-51517
X89540Y-51517
X90540Y-51517
X91540Y-51517
X82965Y-45950
X82965Y-46950
X82965Y-47950
X82965Y-48950
X96280Y-51489
X97280Y-51489
X98280Y-51489
T6
X90422Y-26525
X91800Y-26525
X93178Y-26525
X94556Y-26525
X87206Y-26635
X88584Y-26635
T8
X84058Y-40887
X95519Y-31271
X98116Y-46004
T5
G00X101320Y-42883
M15
G01X102895Y-42883
M16
G05
G00X101320Y-44852
M15
G01X102895Y-44852
M16
G05
G00X82788Y-31844
M15
G01X84363Y-31844
M16
G05
G00X82788Y-33812
M15
G01X84363Y-33812
M16
G05
T7
G00X102107Y-47765
M15
G01X102107Y-47765
M16
G05
G00X83576Y-36726
M15
G01X83576Y-36726
M16
G05
T0
M30
