G04 #@! TF.GenerationSoftware,KiCad,Pcbnew,(5.1.6)-1*
G04 #@! TF.CreationDate,2020-09-10T18:56:50+07:00*
G04 #@! TF.ProjectId,Kicad_Valve-hardware,4b696361-645f-4566-916c-76652d686172,rev?*
G04 #@! TF.SameCoordinates,Original*
G04 #@! TF.FileFunction,Paste,Top*
G04 #@! TF.FilePolarity,Positive*
%FSLAX46Y46*%
G04 Gerber Fmt 4.6, Leading zero omitted, Abs format (unit mm)*
G04 Created by KiCad (PCBNEW (5.1.6)-1) date 2020-09-10 18:56:50*
%MOMM*%
%LPD*%
G01*
G04 APERTURE LIST*
%ADD10R,1.440000X1.440000*%
%ADD11R,1.000000X0.250000*%
%ADD12R,0.250000X1.000000*%
%ADD13R,2.300000X2.500000*%
%ADD14R,1.900000X1.730000*%
%ADD15R,0.300000X1.020000*%
%ADD16R,0.900000X0.800000*%
%ADD17R,1.800000X2.500000*%
%ADD18R,1.500000X2.000000*%
%ADD19R,3.800000X2.000000*%
%ADD20R,2.000000X1.500000*%
%ADD21R,2.000000X3.800000*%
%ADD22R,4.200000X1.500000*%
%ADD23R,2.200000X0.500000*%
%ADD24R,2.400000X3.100000*%
G04 APERTURE END LIST*
G36*
G01*
X243282120Y-120816690D02*
X243282120Y-121329190D01*
G75*
G02*
X243063370Y-121547940I-218750J0D01*
G01*
X242625870Y-121547940D01*
G75*
G02*
X242407120Y-121329190I0J218750D01*
G01*
X242407120Y-120816690D01*
G75*
G02*
X242625870Y-120597940I218750J0D01*
G01*
X243063370Y-120597940D01*
G75*
G02*
X243282120Y-120816690I0J-218750D01*
G01*
G37*
G36*
G01*
X244857120Y-120816690D02*
X244857120Y-121329190D01*
G75*
G02*
X244638370Y-121547940I-218750J0D01*
G01*
X244200870Y-121547940D01*
G75*
G02*
X243982120Y-121329190I0J218750D01*
G01*
X243982120Y-120816690D01*
G75*
G02*
X244200870Y-120597940I218750J0D01*
G01*
X244638370Y-120597940D01*
G75*
G02*
X244857120Y-120816690I0J-218750D01*
G01*
G37*
D10*
X238642120Y-120842940D03*
X238642120Y-122642940D03*
X236842120Y-120842940D03*
X236842120Y-122642940D03*
D11*
X234242120Y-124492940D03*
X234242120Y-123992940D03*
X234242120Y-123492940D03*
X234242120Y-122992940D03*
X234242120Y-122492940D03*
X234242120Y-121992940D03*
X234242120Y-121492940D03*
X234242120Y-120992940D03*
X234242120Y-120492940D03*
X234242120Y-119992940D03*
X234242120Y-119492940D03*
X234242120Y-118992940D03*
D12*
X234992120Y-118242940D03*
X235492120Y-118242940D03*
X235992120Y-118242940D03*
X236492120Y-118242940D03*
X236992120Y-118242940D03*
X237492120Y-118242940D03*
X237992120Y-118242940D03*
X238492120Y-118242940D03*
X238992120Y-118242940D03*
X239492120Y-118242940D03*
X239992120Y-118242940D03*
X240492120Y-118242940D03*
D11*
X241242120Y-118992940D03*
X241242120Y-119492940D03*
X241242120Y-119992940D03*
X241242120Y-120492940D03*
X241242120Y-120992940D03*
X241242120Y-121492940D03*
X241242120Y-121992940D03*
X241242120Y-122492940D03*
X241242120Y-122992940D03*
X241242120Y-123492940D03*
X241242120Y-123992940D03*
X241242120Y-124492940D03*
D12*
X240492120Y-125242940D03*
X239992120Y-125242940D03*
X239492120Y-125242940D03*
X238992120Y-125242940D03*
X238492120Y-125242940D03*
X237992120Y-125242940D03*
X237492120Y-125242940D03*
X236992120Y-125242940D03*
X236492120Y-125242940D03*
X235992120Y-125242940D03*
X235492120Y-125242940D03*
X234992120Y-125242940D03*
G36*
G01*
X231652120Y-117986690D02*
X231652120Y-118499190D01*
G75*
G02*
X231433370Y-118717940I-218750J0D01*
G01*
X230995870Y-118717940D01*
G75*
G02*
X230777120Y-118499190I0J218750D01*
G01*
X230777120Y-117986690D01*
G75*
G02*
X230995870Y-117767940I218750J0D01*
G01*
X231433370Y-117767940D01*
G75*
G02*
X231652120Y-117986690I0J-218750D01*
G01*
G37*
G36*
G01*
X233227120Y-117986690D02*
X233227120Y-118499190D01*
G75*
G02*
X233008370Y-118717940I-218750J0D01*
G01*
X232570870Y-118717940D01*
G75*
G02*
X232352120Y-118499190I0J218750D01*
G01*
X232352120Y-117986690D01*
G75*
G02*
X232570870Y-117767940I218750J0D01*
G01*
X233008370Y-117767940D01*
G75*
G02*
X233227120Y-117986690I0J-218750D01*
G01*
G37*
D13*
X267162120Y-116092940D03*
X267162120Y-111792940D03*
D14*
X254082120Y-80732940D03*
D15*
X253082120Y-78332940D03*
X253582120Y-78332940D03*
X254082120Y-78332940D03*
X254582120Y-78332940D03*
X255082120Y-78332940D03*
X255082120Y-83132940D03*
X254582120Y-83132940D03*
X254082120Y-83132940D03*
X253582120Y-83132940D03*
X253082120Y-83132940D03*
D16*
X221126080Y-124216140D03*
X219126080Y-125166140D03*
X219126080Y-123266140D03*
G36*
G01*
X267695840Y-80327200D02*
X266445840Y-80327200D01*
G75*
G02*
X266195840Y-80077200I0J250000D01*
G01*
X266195840Y-79327200D01*
G75*
G02*
X266445840Y-79077200I250000J0D01*
G01*
X267695840Y-79077200D01*
G75*
G02*
X267945840Y-79327200I0J-250000D01*
G01*
X267945840Y-80077200D01*
G75*
G02*
X267695840Y-80327200I-250000J0D01*
G01*
G37*
G36*
G01*
X267695840Y-83127200D02*
X266445840Y-83127200D01*
G75*
G02*
X266195840Y-82877200I0J250000D01*
G01*
X266195840Y-82127200D01*
G75*
G02*
X266445840Y-81877200I250000J0D01*
G01*
X267695840Y-81877200D01*
G75*
G02*
X267945840Y-82127200I0J-250000D01*
G01*
X267945840Y-82877200D01*
G75*
G02*
X267695840Y-83127200I-250000J0D01*
G01*
G37*
D17*
X240222120Y-70462940D03*
X240222120Y-74462940D03*
G36*
G01*
X220445950Y-121300400D02*
X220958450Y-121300400D01*
G75*
G02*
X221177200Y-121519150I0J-218750D01*
G01*
X221177200Y-121956650D01*
G75*
G02*
X220958450Y-122175400I-218750J0D01*
G01*
X220445950Y-122175400D01*
G75*
G02*
X220227200Y-121956650I0J218750D01*
G01*
X220227200Y-121519150D01*
G75*
G02*
X220445950Y-121300400I218750J0D01*
G01*
G37*
G36*
G01*
X220445950Y-119725400D02*
X220958450Y-119725400D01*
G75*
G02*
X221177200Y-119944150I0J-218750D01*
G01*
X221177200Y-120381650D01*
G75*
G02*
X220958450Y-120600400I-218750J0D01*
G01*
X220445950Y-120600400D01*
G75*
G02*
X220227200Y-120381650I0J218750D01*
G01*
X220227200Y-119944150D01*
G75*
G02*
X220445950Y-119725400I218750J0D01*
G01*
G37*
G36*
G01*
X205812950Y-117894900D02*
X206325450Y-117894900D01*
G75*
G02*
X206544200Y-118113650I0J-218750D01*
G01*
X206544200Y-118551150D01*
G75*
G02*
X206325450Y-118769900I-218750J0D01*
G01*
X205812950Y-118769900D01*
G75*
G02*
X205594200Y-118551150I0J218750D01*
G01*
X205594200Y-118113650D01*
G75*
G02*
X205812950Y-117894900I218750J0D01*
G01*
G37*
G36*
G01*
X205812950Y-116319900D02*
X206325450Y-116319900D01*
G75*
G02*
X206544200Y-116538650I0J-218750D01*
G01*
X206544200Y-116976150D01*
G75*
G02*
X206325450Y-117194900I-218750J0D01*
G01*
X205812950Y-117194900D01*
G75*
G02*
X205594200Y-116976150I0J218750D01*
G01*
X205594200Y-116538650D01*
G75*
G02*
X205812950Y-116319900I218750J0D01*
G01*
G37*
G36*
G01*
X207332950Y-117894900D02*
X207845450Y-117894900D01*
G75*
G02*
X208064200Y-118113650I0J-218750D01*
G01*
X208064200Y-118551150D01*
G75*
G02*
X207845450Y-118769900I-218750J0D01*
G01*
X207332950Y-118769900D01*
G75*
G02*
X207114200Y-118551150I0J218750D01*
G01*
X207114200Y-118113650D01*
G75*
G02*
X207332950Y-117894900I218750J0D01*
G01*
G37*
G36*
G01*
X207332950Y-116319900D02*
X207845450Y-116319900D01*
G75*
G02*
X208064200Y-116538650I0J-218750D01*
G01*
X208064200Y-116976150D01*
G75*
G02*
X207845450Y-117194900I-218750J0D01*
G01*
X207332950Y-117194900D01*
G75*
G02*
X207114200Y-116976150I0J218750D01*
G01*
X207114200Y-116538650D01*
G75*
G02*
X207332950Y-116319900I218750J0D01*
G01*
G37*
G36*
G01*
X259793450Y-78516900D02*
X259280950Y-78516900D01*
G75*
G02*
X259062200Y-78298150I0J218750D01*
G01*
X259062200Y-77860650D01*
G75*
G02*
X259280950Y-77641900I218750J0D01*
G01*
X259793450Y-77641900D01*
G75*
G02*
X260012200Y-77860650I0J-218750D01*
G01*
X260012200Y-78298150D01*
G75*
G02*
X259793450Y-78516900I-218750J0D01*
G01*
G37*
G36*
G01*
X259793450Y-80091900D02*
X259280950Y-80091900D01*
G75*
G02*
X259062200Y-79873150I0J218750D01*
G01*
X259062200Y-79435650D01*
G75*
G02*
X259280950Y-79216900I218750J0D01*
G01*
X259793450Y-79216900D01*
G75*
G02*
X260012200Y-79435650I0J-218750D01*
G01*
X260012200Y-79873150D01*
G75*
G02*
X259793450Y-80091900I-218750J0D01*
G01*
G37*
G36*
G01*
X250685920Y-89090790D02*
X250685920Y-89603290D01*
G75*
G02*
X250467170Y-89822040I-218750J0D01*
G01*
X250029670Y-89822040D01*
G75*
G02*
X249810920Y-89603290I0J218750D01*
G01*
X249810920Y-89090790D01*
G75*
G02*
X250029670Y-88872040I218750J0D01*
G01*
X250467170Y-88872040D01*
G75*
G02*
X250685920Y-89090790I0J-218750D01*
G01*
G37*
G36*
G01*
X252260920Y-89090790D02*
X252260920Y-89603290D01*
G75*
G02*
X252042170Y-89822040I-218750J0D01*
G01*
X251604670Y-89822040D01*
G75*
G02*
X251385920Y-89603290I0J218750D01*
G01*
X251385920Y-89090790D01*
G75*
G02*
X251604670Y-88872040I218750J0D01*
G01*
X252042170Y-88872040D01*
G75*
G02*
X252260920Y-89090790I0J-218750D01*
G01*
G37*
G36*
G01*
X248430070Y-88935040D02*
X248942570Y-88935040D01*
G75*
G02*
X249161320Y-89153790I0J-218750D01*
G01*
X249161320Y-89591290D01*
G75*
G02*
X248942570Y-89810040I-218750J0D01*
G01*
X248430070Y-89810040D01*
G75*
G02*
X248211320Y-89591290I0J218750D01*
G01*
X248211320Y-89153790D01*
G75*
G02*
X248430070Y-88935040I218750J0D01*
G01*
G37*
G36*
G01*
X248430070Y-87360040D02*
X248942570Y-87360040D01*
G75*
G02*
X249161320Y-87578790I0J-218750D01*
G01*
X249161320Y-88016290D01*
G75*
G02*
X248942570Y-88235040I-218750J0D01*
G01*
X248430070Y-88235040D01*
G75*
G02*
X248211320Y-88016290I0J218750D01*
G01*
X248211320Y-87578790D01*
G75*
G02*
X248430070Y-87360040I218750J0D01*
G01*
G37*
G36*
G01*
X263652200Y-76792401D02*
X263652200Y-74642399D01*
G75*
G02*
X263902199Y-74392400I249999J0D01*
G01*
X264752201Y-74392400D01*
G75*
G02*
X265002200Y-74642399I0J-249999D01*
G01*
X265002200Y-76792401D01*
G75*
G02*
X264752201Y-77042400I-249999J0D01*
G01*
X263902199Y-77042400D01*
G75*
G02*
X263652200Y-76792401I0J249999D01*
G01*
G37*
G36*
G01*
X259152200Y-76792401D02*
X259152200Y-74642399D01*
G75*
G02*
X259402199Y-74392400I249999J0D01*
G01*
X260252201Y-74392400D01*
G75*
G02*
X260502200Y-74642399I0J-249999D01*
G01*
X260502200Y-76792401D01*
G75*
G02*
X260252201Y-77042400I-249999J0D01*
G01*
X259402199Y-77042400D01*
G75*
G02*
X259152200Y-76792401I0J249999D01*
G01*
G37*
G36*
G01*
X251220620Y-81604830D02*
X251220620Y-81092330D01*
G75*
G02*
X251439370Y-80873580I218750J0D01*
G01*
X251876870Y-80873580D01*
G75*
G02*
X252095620Y-81092330I0J-218750D01*
G01*
X252095620Y-81604830D01*
G75*
G02*
X251876870Y-81823580I-218750J0D01*
G01*
X251439370Y-81823580D01*
G75*
G02*
X251220620Y-81604830I0J218750D01*
G01*
G37*
G36*
G01*
X249645620Y-81604830D02*
X249645620Y-81092330D01*
G75*
G02*
X249864370Y-80873580I218750J0D01*
G01*
X250301870Y-80873580D01*
G75*
G02*
X250520620Y-81092330I0J-218750D01*
G01*
X250520620Y-81604830D01*
G75*
G02*
X250301870Y-81823580I-218750J0D01*
G01*
X249864370Y-81823580D01*
G75*
G02*
X249645620Y-81604830I0J218750D01*
G01*
G37*
D18*
X262977600Y-91034000D03*
X267577600Y-91034000D03*
X265277600Y-91034000D03*
D19*
X265277600Y-84734000D03*
G36*
G01*
X249005600Y-69823200D02*
X247005600Y-69823200D01*
G75*
G02*
X246755600Y-69573200I0J250000D01*
G01*
X246755600Y-66573200D01*
G75*
G02*
X247005600Y-66323200I250000J0D01*
G01*
X249005600Y-66323200D01*
G75*
G02*
X249255600Y-66573200I0J-250000D01*
G01*
X249255600Y-69573200D01*
G75*
G02*
X249005600Y-69823200I-250000J0D01*
G01*
G37*
G36*
G01*
X249005600Y-76323200D02*
X247005600Y-76323200D01*
G75*
G02*
X246755600Y-76073200I0J250000D01*
G01*
X246755600Y-73073200D01*
G75*
G02*
X247005600Y-72823200I250000J0D01*
G01*
X249005600Y-72823200D01*
G75*
G02*
X249255600Y-73073200I0J-250000D01*
G01*
X249255600Y-76073200D01*
G75*
G02*
X249005600Y-76323200I-250000J0D01*
G01*
G37*
G36*
G01*
X242605870Y-117122940D02*
X243118370Y-117122940D01*
G75*
G02*
X243337120Y-117341690I0J-218750D01*
G01*
X243337120Y-117779190D01*
G75*
G02*
X243118370Y-117997940I-218750J0D01*
G01*
X242605870Y-117997940D01*
G75*
G02*
X242387120Y-117779190I0J218750D01*
G01*
X242387120Y-117341690D01*
G75*
G02*
X242605870Y-117122940I218750J0D01*
G01*
G37*
G36*
G01*
X242605870Y-115547940D02*
X243118370Y-115547940D01*
G75*
G02*
X243337120Y-115766690I0J-218750D01*
G01*
X243337120Y-116204190D01*
G75*
G02*
X243118370Y-116422940I-218750J0D01*
G01*
X242605870Y-116422940D01*
G75*
G02*
X242387120Y-116204190I0J218750D01*
G01*
X242387120Y-115766690D01*
G75*
G02*
X242605870Y-115547940I218750J0D01*
G01*
G37*
G36*
G01*
X244518370Y-116402940D02*
X244005870Y-116402940D01*
G75*
G02*
X243787120Y-116184190I0J218750D01*
G01*
X243787120Y-115746690D01*
G75*
G02*
X244005870Y-115527940I218750J0D01*
G01*
X244518370Y-115527940D01*
G75*
G02*
X244737120Y-115746690I0J-218750D01*
G01*
X244737120Y-116184190D01*
G75*
G02*
X244518370Y-116402940I-218750J0D01*
G01*
G37*
G36*
G01*
X244518370Y-117977940D02*
X244005870Y-117977940D01*
G75*
G02*
X243787120Y-117759190I0J218750D01*
G01*
X243787120Y-117321690D01*
G75*
G02*
X244005870Y-117102940I218750J0D01*
G01*
X244518370Y-117102940D01*
G75*
G02*
X244737120Y-117321690I0J-218750D01*
G01*
X244737120Y-117759190D01*
G75*
G02*
X244518370Y-117977940I-218750J0D01*
G01*
G37*
G36*
G01*
X242604620Y-114809190D02*
X242604620Y-114296690D01*
G75*
G02*
X242823370Y-114077940I218750J0D01*
G01*
X243260870Y-114077940D01*
G75*
G02*
X243479620Y-114296690I0J-218750D01*
G01*
X243479620Y-114809190D01*
G75*
G02*
X243260870Y-115027940I-218750J0D01*
G01*
X242823370Y-115027940D01*
G75*
G02*
X242604620Y-114809190I0J218750D01*
G01*
G37*
G36*
G01*
X241029620Y-114809190D02*
X241029620Y-114296690D01*
G75*
G02*
X241248370Y-114077940I218750J0D01*
G01*
X241685870Y-114077940D01*
G75*
G02*
X241904620Y-114296690I0J-218750D01*
G01*
X241904620Y-114809190D01*
G75*
G02*
X241685870Y-115027940I-218750J0D01*
G01*
X241248370Y-115027940D01*
G75*
G02*
X241029620Y-114809190I0J218750D01*
G01*
G37*
G36*
G01*
X244702120Y-113944690D02*
X244702120Y-114457190D01*
G75*
G02*
X244483370Y-114675940I-218750J0D01*
G01*
X244045870Y-114675940D01*
G75*
G02*
X243827120Y-114457190I0J218750D01*
G01*
X243827120Y-113944690D01*
G75*
G02*
X244045870Y-113725940I218750J0D01*
G01*
X244483370Y-113725940D01*
G75*
G02*
X244702120Y-113944690I0J-218750D01*
G01*
G37*
G36*
G01*
X246277120Y-113944690D02*
X246277120Y-114457190D01*
G75*
G02*
X246058370Y-114675940I-218750J0D01*
G01*
X245620870Y-114675940D01*
G75*
G02*
X245402120Y-114457190I0J218750D01*
G01*
X245402120Y-113944690D01*
G75*
G02*
X245620870Y-113725940I218750J0D01*
G01*
X246058370Y-113725940D01*
G75*
G02*
X246277120Y-113944690I0J-218750D01*
G01*
G37*
D20*
X260248400Y-91428600D03*
X260248400Y-86828600D03*
X260248400Y-89128600D03*
D21*
X253948400Y-89128600D03*
G36*
G01*
X251934900Y-128532950D02*
X251934900Y-129045450D01*
G75*
G02*
X251716150Y-129264200I-218750J0D01*
G01*
X251278650Y-129264200D01*
G75*
G02*
X251059900Y-129045450I0J218750D01*
G01*
X251059900Y-128532950D01*
G75*
G02*
X251278650Y-128314200I218750J0D01*
G01*
X251716150Y-128314200D01*
G75*
G02*
X251934900Y-128532950I0J-218750D01*
G01*
G37*
G36*
G01*
X253509900Y-128532950D02*
X253509900Y-129045450D01*
G75*
G02*
X253291150Y-129264200I-218750J0D01*
G01*
X252853650Y-129264200D01*
G75*
G02*
X252634900Y-129045450I0J218750D01*
G01*
X252634900Y-128532950D01*
G75*
G02*
X252853650Y-128314200I218750J0D01*
G01*
X253291150Y-128314200D01*
G75*
G02*
X253509900Y-128532950I0J-218750D01*
G01*
G37*
G36*
G01*
X239209870Y-130326940D02*
X239722370Y-130326940D01*
G75*
G02*
X239941120Y-130545690I0J-218750D01*
G01*
X239941120Y-130983190D01*
G75*
G02*
X239722370Y-131201940I-218750J0D01*
G01*
X239209870Y-131201940D01*
G75*
G02*
X238991120Y-130983190I0J218750D01*
G01*
X238991120Y-130545690D01*
G75*
G02*
X239209870Y-130326940I218750J0D01*
G01*
G37*
G36*
G01*
X239209870Y-128751940D02*
X239722370Y-128751940D01*
G75*
G02*
X239941120Y-128970690I0J-218750D01*
G01*
X239941120Y-129408190D01*
G75*
G02*
X239722370Y-129626940I-218750J0D01*
G01*
X239209870Y-129626940D01*
G75*
G02*
X238991120Y-129408190I0J218750D01*
G01*
X238991120Y-128970690D01*
G75*
G02*
X239209870Y-128751940I218750J0D01*
G01*
G37*
G36*
G01*
X235678370Y-129495440D02*
X235165870Y-129495440D01*
G75*
G02*
X234947120Y-129276690I0J218750D01*
G01*
X234947120Y-128839190D01*
G75*
G02*
X235165870Y-128620440I218750J0D01*
G01*
X235678370Y-128620440D01*
G75*
G02*
X235897120Y-128839190I0J-218750D01*
G01*
X235897120Y-129276690D01*
G75*
G02*
X235678370Y-129495440I-218750J0D01*
G01*
G37*
G36*
G01*
X235678370Y-131070440D02*
X235165870Y-131070440D01*
G75*
G02*
X234947120Y-130851690I0J218750D01*
G01*
X234947120Y-130414190D01*
G75*
G02*
X235165870Y-130195440I218750J0D01*
G01*
X235678370Y-130195440D01*
G75*
G02*
X235897120Y-130414190I0J-218750D01*
G01*
X235897120Y-130851690D01*
G75*
G02*
X235678370Y-131070440I-218750J0D01*
G01*
G37*
G36*
G01*
X258269450Y-78504400D02*
X257756950Y-78504400D01*
G75*
G02*
X257538200Y-78285650I0J218750D01*
G01*
X257538200Y-77848150D01*
G75*
G02*
X257756950Y-77629400I218750J0D01*
G01*
X258269450Y-77629400D01*
G75*
G02*
X258488200Y-77848150I0J-218750D01*
G01*
X258488200Y-78285650D01*
G75*
G02*
X258269450Y-78504400I-218750J0D01*
G01*
G37*
G36*
G01*
X258269450Y-80079400D02*
X257756950Y-80079400D01*
G75*
G02*
X257538200Y-79860650I0J218750D01*
G01*
X257538200Y-79423150D01*
G75*
G02*
X257756950Y-79204400I218750J0D01*
G01*
X258269450Y-79204400D01*
G75*
G02*
X258488200Y-79423150I0J-218750D01*
G01*
X258488200Y-79860650D01*
G75*
G02*
X258269450Y-80079400I-218750J0D01*
G01*
G37*
G36*
G01*
X256232950Y-79204400D02*
X256745450Y-79204400D01*
G75*
G02*
X256964200Y-79423150I0J-218750D01*
G01*
X256964200Y-79860650D01*
G75*
G02*
X256745450Y-80079400I-218750J0D01*
G01*
X256232950Y-80079400D01*
G75*
G02*
X256014200Y-79860650I0J218750D01*
G01*
X256014200Y-79423150D01*
G75*
G02*
X256232950Y-79204400I218750J0D01*
G01*
G37*
G36*
G01*
X256232950Y-77629400D02*
X256745450Y-77629400D01*
G75*
G02*
X256964200Y-77848150I0J-218750D01*
G01*
X256964200Y-78285650D01*
G75*
G02*
X256745450Y-78504400I-218750J0D01*
G01*
X256232950Y-78504400D01*
G75*
G02*
X256014200Y-78285650I0J218750D01*
G01*
X256014200Y-77848150D01*
G75*
G02*
X256232950Y-77629400I218750J0D01*
G01*
G37*
G36*
G01*
X215508450Y-123637900D02*
X214995950Y-123637900D01*
G75*
G02*
X214777200Y-123419150I0J218750D01*
G01*
X214777200Y-122981650D01*
G75*
G02*
X214995950Y-122762900I218750J0D01*
G01*
X215508450Y-122762900D01*
G75*
G02*
X215727200Y-122981650I0J-218750D01*
G01*
X215727200Y-123419150D01*
G75*
G02*
X215508450Y-123637900I-218750J0D01*
G01*
G37*
G36*
G01*
X215508450Y-125212900D02*
X214995950Y-125212900D01*
G75*
G02*
X214777200Y-124994150I0J218750D01*
G01*
X214777200Y-124556650D01*
G75*
G02*
X214995950Y-124337900I218750J0D01*
G01*
X215508450Y-124337900D01*
G75*
G02*
X215727200Y-124556650I0J-218750D01*
G01*
X215727200Y-124994150D01*
G75*
G02*
X215508450Y-125212900I-218750J0D01*
G01*
G37*
G36*
G01*
X216520950Y-124350400D02*
X217033450Y-124350400D01*
G75*
G02*
X217252200Y-124569150I0J-218750D01*
G01*
X217252200Y-125006650D01*
G75*
G02*
X217033450Y-125225400I-218750J0D01*
G01*
X216520950Y-125225400D01*
G75*
G02*
X216302200Y-125006650I0J218750D01*
G01*
X216302200Y-124569150D01*
G75*
G02*
X216520950Y-124350400I218750J0D01*
G01*
G37*
G36*
G01*
X216520950Y-122775400D02*
X217033450Y-122775400D01*
G75*
G02*
X217252200Y-122994150I0J-218750D01*
G01*
X217252200Y-123431650D01*
G75*
G02*
X217033450Y-123650400I-218750J0D01*
G01*
X216520950Y-123650400D01*
G75*
G02*
X216302200Y-123431650I0J218750D01*
G01*
X216302200Y-122994150D01*
G75*
G02*
X216520950Y-122775400I218750J0D01*
G01*
G37*
G36*
G01*
X217121580Y-111000290D02*
X217121580Y-111512790D01*
G75*
G02*
X216902830Y-111731540I-218750J0D01*
G01*
X216465330Y-111731540D01*
G75*
G02*
X216246580Y-111512790I0J218750D01*
G01*
X216246580Y-111000290D01*
G75*
G02*
X216465330Y-110781540I218750J0D01*
G01*
X216902830Y-110781540D01*
G75*
G02*
X217121580Y-111000290I0J-218750D01*
G01*
G37*
G36*
G01*
X218696580Y-111000290D02*
X218696580Y-111512790D01*
G75*
G02*
X218477830Y-111731540I-218750J0D01*
G01*
X218040330Y-111731540D01*
G75*
G02*
X217821580Y-111512790I0J218750D01*
G01*
X217821580Y-111000290D01*
G75*
G02*
X218040330Y-110781540I218750J0D01*
G01*
X218477830Y-110781540D01*
G75*
G02*
X218696580Y-111000290I0J-218750D01*
G01*
G37*
G36*
G01*
X217977330Y-113867040D02*
X218489830Y-113867040D01*
G75*
G02*
X218708580Y-114085790I0J-218750D01*
G01*
X218708580Y-114523290D01*
G75*
G02*
X218489830Y-114742040I-218750J0D01*
G01*
X217977330Y-114742040D01*
G75*
G02*
X217758580Y-114523290I0J218750D01*
G01*
X217758580Y-114085790D01*
G75*
G02*
X217977330Y-113867040I218750J0D01*
G01*
G37*
G36*
G01*
X217977330Y-112292040D02*
X218489830Y-112292040D01*
G75*
G02*
X218708580Y-112510790I0J-218750D01*
G01*
X218708580Y-112948290D01*
G75*
G02*
X218489830Y-113167040I-218750J0D01*
G01*
X217977330Y-113167040D01*
G75*
G02*
X217758580Y-112948290I0J218750D01*
G01*
X217758580Y-112510790D01*
G75*
G02*
X217977330Y-112292040I218750J0D01*
G01*
G37*
G36*
G01*
X216466030Y-113854340D02*
X216978530Y-113854340D01*
G75*
G02*
X217197280Y-114073090I0J-218750D01*
G01*
X217197280Y-114510590D01*
G75*
G02*
X216978530Y-114729340I-218750J0D01*
G01*
X216466030Y-114729340D01*
G75*
G02*
X216247280Y-114510590I0J218750D01*
G01*
X216247280Y-114073090D01*
G75*
G02*
X216466030Y-113854340I218750J0D01*
G01*
G37*
G36*
G01*
X216466030Y-112279340D02*
X216978530Y-112279340D01*
G75*
G02*
X217197280Y-112498090I0J-218750D01*
G01*
X217197280Y-112935590D01*
G75*
G02*
X216978530Y-113154340I-218750J0D01*
G01*
X216466030Y-113154340D01*
G75*
G02*
X216247280Y-112935590I0J218750D01*
G01*
X216247280Y-112498090D01*
G75*
G02*
X216466030Y-112279340I218750J0D01*
G01*
G37*
G36*
G01*
X247518370Y-126832940D02*
X247005870Y-126832940D01*
G75*
G02*
X246787120Y-126614190I0J218750D01*
G01*
X246787120Y-126176690D01*
G75*
G02*
X247005870Y-125957940I218750J0D01*
G01*
X247518370Y-125957940D01*
G75*
G02*
X247737120Y-126176690I0J-218750D01*
G01*
X247737120Y-126614190D01*
G75*
G02*
X247518370Y-126832940I-218750J0D01*
G01*
G37*
G36*
G01*
X247518370Y-128407940D02*
X247005870Y-128407940D01*
G75*
G02*
X246787120Y-128189190I0J218750D01*
G01*
X246787120Y-127751690D01*
G75*
G02*
X247005870Y-127532940I218750J0D01*
G01*
X247518370Y-127532940D01*
G75*
G02*
X247737120Y-127751690I0J-218750D01*
G01*
X247737120Y-128189190D01*
G75*
G02*
X247518370Y-128407940I-218750J0D01*
G01*
G37*
G36*
G01*
X253295870Y-118662940D02*
X253808370Y-118662940D01*
G75*
G02*
X254027120Y-118881690I0J-218750D01*
G01*
X254027120Y-119319190D01*
G75*
G02*
X253808370Y-119537940I-218750J0D01*
G01*
X253295870Y-119537940D01*
G75*
G02*
X253077120Y-119319190I0J218750D01*
G01*
X253077120Y-118881690D01*
G75*
G02*
X253295870Y-118662940I218750J0D01*
G01*
G37*
G36*
G01*
X253295870Y-117087940D02*
X253808370Y-117087940D01*
G75*
G02*
X254027120Y-117306690I0J-218750D01*
G01*
X254027120Y-117744190D01*
G75*
G02*
X253808370Y-117962940I-218750J0D01*
G01*
X253295870Y-117962940D01*
G75*
G02*
X253077120Y-117744190I0J218750D01*
G01*
X253077120Y-117306690D01*
G75*
G02*
X253295870Y-117087940I218750J0D01*
G01*
G37*
G36*
G01*
X226955870Y-116362940D02*
X227468370Y-116362940D01*
G75*
G02*
X227687120Y-116581690I0J-218750D01*
G01*
X227687120Y-117019190D01*
G75*
G02*
X227468370Y-117237940I-218750J0D01*
G01*
X226955870Y-117237940D01*
G75*
G02*
X226737120Y-117019190I0J218750D01*
G01*
X226737120Y-116581690D01*
G75*
G02*
X226955870Y-116362940I218750J0D01*
G01*
G37*
G36*
G01*
X226955870Y-114787940D02*
X227468370Y-114787940D01*
G75*
G02*
X227687120Y-115006690I0J-218750D01*
G01*
X227687120Y-115444190D01*
G75*
G02*
X227468370Y-115662940I-218750J0D01*
G01*
X226955870Y-115662940D01*
G75*
G02*
X226737120Y-115444190I0J218750D01*
G01*
X226737120Y-115006690D01*
G75*
G02*
X226955870Y-114787940I218750J0D01*
G01*
G37*
G36*
G01*
X224390950Y-116372900D02*
X224903450Y-116372900D01*
G75*
G02*
X225122200Y-116591650I0J-218750D01*
G01*
X225122200Y-117029150D01*
G75*
G02*
X224903450Y-117247900I-218750J0D01*
G01*
X224390950Y-117247900D01*
G75*
G02*
X224172200Y-117029150I0J218750D01*
G01*
X224172200Y-116591650D01*
G75*
G02*
X224390950Y-116372900I218750J0D01*
G01*
G37*
G36*
G01*
X224390950Y-114797900D02*
X224903450Y-114797900D01*
G75*
G02*
X225122200Y-115016650I0J-218750D01*
G01*
X225122200Y-115454150D01*
G75*
G02*
X224903450Y-115672900I-218750J0D01*
G01*
X224390950Y-115672900D01*
G75*
G02*
X224172200Y-115454150I0J218750D01*
G01*
X224172200Y-115016650D01*
G75*
G02*
X224390950Y-114797900I218750J0D01*
G01*
G37*
G36*
G01*
X252108120Y-84216530D02*
X252108120Y-84729030D01*
G75*
G02*
X251889370Y-84947780I-218750J0D01*
G01*
X251451870Y-84947780D01*
G75*
G02*
X251233120Y-84729030I0J218750D01*
G01*
X251233120Y-84216530D01*
G75*
G02*
X251451870Y-83997780I218750J0D01*
G01*
X251889370Y-83997780D01*
G75*
G02*
X252108120Y-84216530I0J-218750D01*
G01*
G37*
G36*
G01*
X253683120Y-84216530D02*
X253683120Y-84729030D01*
G75*
G02*
X253464370Y-84947780I-218750J0D01*
G01*
X253026870Y-84947780D01*
G75*
G02*
X252808120Y-84729030I0J218750D01*
G01*
X252808120Y-84216530D01*
G75*
G02*
X253026870Y-83997780I218750J0D01*
G01*
X253464370Y-83997780D01*
G75*
G02*
X253683120Y-84216530I0J-218750D01*
G01*
G37*
G36*
G01*
X250685820Y-87554090D02*
X250685820Y-88066590D01*
G75*
G02*
X250467070Y-88285340I-218750J0D01*
G01*
X250029570Y-88285340D01*
G75*
G02*
X249810820Y-88066590I0J218750D01*
G01*
X249810820Y-87554090D01*
G75*
G02*
X250029570Y-87335340I218750J0D01*
G01*
X250467070Y-87335340D01*
G75*
G02*
X250685820Y-87554090I0J-218750D01*
G01*
G37*
G36*
G01*
X252260820Y-87554090D02*
X252260820Y-88066590D01*
G75*
G02*
X252042070Y-88285340I-218750J0D01*
G01*
X251604570Y-88285340D01*
G75*
G02*
X251385820Y-88066590I0J218750D01*
G01*
X251385820Y-87554090D01*
G75*
G02*
X251604570Y-87335340I218750J0D01*
G01*
X252042070Y-87335340D01*
G75*
G02*
X252260820Y-87554090I0J-218750D01*
G01*
G37*
G36*
G01*
X215493450Y-113152900D02*
X214980950Y-113152900D01*
G75*
G02*
X214762200Y-112934150I0J218750D01*
G01*
X214762200Y-112496650D01*
G75*
G02*
X214980950Y-112277900I218750J0D01*
G01*
X215493450Y-112277900D01*
G75*
G02*
X215712200Y-112496650I0J-218750D01*
G01*
X215712200Y-112934150D01*
G75*
G02*
X215493450Y-113152900I-218750J0D01*
G01*
G37*
G36*
G01*
X215493450Y-114727900D02*
X214980950Y-114727900D01*
G75*
G02*
X214762200Y-114509150I0J218750D01*
G01*
X214762200Y-114071650D01*
G75*
G02*
X214980950Y-113852900I218750J0D01*
G01*
X215493450Y-113852900D01*
G75*
G02*
X215712200Y-114071650I0J-218750D01*
G01*
X215712200Y-114509150D01*
G75*
G02*
X215493450Y-114727900I-218750J0D01*
G01*
G37*
G36*
G01*
X269191450Y-81135840D02*
X268678950Y-81135840D01*
G75*
G02*
X268460200Y-80917090I0J218750D01*
G01*
X268460200Y-80479590D01*
G75*
G02*
X268678950Y-80260840I218750J0D01*
G01*
X269191450Y-80260840D01*
G75*
G02*
X269410200Y-80479590I0J-218750D01*
G01*
X269410200Y-80917090D01*
G75*
G02*
X269191450Y-81135840I-218750J0D01*
G01*
G37*
G36*
G01*
X269191450Y-82710840D02*
X268678950Y-82710840D01*
G75*
G02*
X268460200Y-82492090I0J218750D01*
G01*
X268460200Y-82054590D01*
G75*
G02*
X268678950Y-81835840I218750J0D01*
G01*
X269191450Y-81835840D01*
G75*
G02*
X269410200Y-82054590I0J-218750D01*
G01*
X269410200Y-82492090D01*
G75*
G02*
X269191450Y-82710840I-218750J0D01*
G01*
G37*
G36*
G01*
X252184420Y-76235850D02*
X252184420Y-76748350D01*
G75*
G02*
X251965670Y-76967100I-218750J0D01*
G01*
X251528170Y-76967100D01*
G75*
G02*
X251309420Y-76748350I0J218750D01*
G01*
X251309420Y-76235850D01*
G75*
G02*
X251528170Y-76017100I218750J0D01*
G01*
X251965670Y-76017100D01*
G75*
G02*
X252184420Y-76235850I0J-218750D01*
G01*
G37*
G36*
G01*
X253759420Y-76235850D02*
X253759420Y-76748350D01*
G75*
G02*
X253540670Y-76967100I-218750J0D01*
G01*
X253103170Y-76967100D01*
G75*
G02*
X252884420Y-76748350I0J218750D01*
G01*
X252884420Y-76235850D01*
G75*
G02*
X253103170Y-76017100I218750J0D01*
G01*
X253540670Y-76017100D01*
G75*
G02*
X253759420Y-76235850I0J-218750D01*
G01*
G37*
G36*
G01*
X252634800Y-127559550D02*
X252634800Y-127047050D01*
G75*
G02*
X252853550Y-126828300I218750J0D01*
G01*
X253291050Y-126828300D01*
G75*
G02*
X253509800Y-127047050I0J-218750D01*
G01*
X253509800Y-127559550D01*
G75*
G02*
X253291050Y-127778300I-218750J0D01*
G01*
X252853550Y-127778300D01*
G75*
G02*
X252634800Y-127559550I0J218750D01*
G01*
G37*
G36*
G01*
X251059800Y-127559550D02*
X251059800Y-127047050D01*
G75*
G02*
X251278550Y-126828300I218750J0D01*
G01*
X251716050Y-126828300D01*
G75*
G02*
X251934800Y-127047050I0J-218750D01*
G01*
X251934800Y-127559550D01*
G75*
G02*
X251716050Y-127778300I-218750J0D01*
G01*
X251278550Y-127778300D01*
G75*
G02*
X251059800Y-127559550I0J218750D01*
G01*
G37*
G36*
G01*
X236612120Y-127979190D02*
X236612120Y-127466690D01*
G75*
G02*
X236830870Y-127247940I218750J0D01*
G01*
X237268370Y-127247940D01*
G75*
G02*
X237487120Y-127466690I0J-218750D01*
G01*
X237487120Y-127979190D01*
G75*
G02*
X237268370Y-128197940I-218750J0D01*
G01*
X236830870Y-128197940D01*
G75*
G02*
X236612120Y-127979190I0J218750D01*
G01*
G37*
G36*
G01*
X235037120Y-127979190D02*
X235037120Y-127466690D01*
G75*
G02*
X235255870Y-127247940I218750J0D01*
G01*
X235693370Y-127247940D01*
G75*
G02*
X235912120Y-127466690I0J-218750D01*
G01*
X235912120Y-127979190D01*
G75*
G02*
X235693370Y-128197940I-218750J0D01*
G01*
X235255870Y-128197940D01*
G75*
G02*
X235037120Y-127979190I0J218750D01*
G01*
G37*
G36*
G01*
X255787740Y-84746810D02*
X255787740Y-84234310D01*
G75*
G02*
X256006490Y-84015560I218750J0D01*
G01*
X256443990Y-84015560D01*
G75*
G02*
X256662740Y-84234310I0J-218750D01*
G01*
X256662740Y-84746810D01*
G75*
G02*
X256443990Y-84965560I-218750J0D01*
G01*
X256006490Y-84965560D01*
G75*
G02*
X255787740Y-84746810I0J218750D01*
G01*
G37*
G36*
G01*
X254212740Y-84746810D02*
X254212740Y-84234310D01*
G75*
G02*
X254431490Y-84015560I218750J0D01*
G01*
X254868990Y-84015560D01*
G75*
G02*
X255087740Y-84234310I0J-218750D01*
G01*
X255087740Y-84746810D01*
G75*
G02*
X254868990Y-84965560I-218750J0D01*
G01*
X254431490Y-84965560D01*
G75*
G02*
X254212740Y-84746810I0J218750D01*
G01*
G37*
G36*
G01*
X232012120Y-126599190D02*
X232012120Y-126086690D01*
G75*
G02*
X232230870Y-125867940I218750J0D01*
G01*
X232668370Y-125867940D01*
G75*
G02*
X232887120Y-126086690I0J-218750D01*
G01*
X232887120Y-126599190D01*
G75*
G02*
X232668370Y-126817940I-218750J0D01*
G01*
X232230870Y-126817940D01*
G75*
G02*
X232012120Y-126599190I0J218750D01*
G01*
G37*
G36*
G01*
X230437120Y-126599190D02*
X230437120Y-126086690D01*
G75*
G02*
X230655870Y-125867940I218750J0D01*
G01*
X231093370Y-125867940D01*
G75*
G02*
X231312120Y-126086690I0J-218750D01*
G01*
X231312120Y-126599190D01*
G75*
G02*
X231093370Y-126817940I-218750J0D01*
G01*
X230655870Y-126817940D01*
G75*
G02*
X230437120Y-126599190I0J218750D01*
G01*
G37*
G36*
G01*
X232034620Y-123929190D02*
X232034620Y-123416690D01*
G75*
G02*
X232253370Y-123197940I218750J0D01*
G01*
X232690870Y-123197940D01*
G75*
G02*
X232909620Y-123416690I0J-218750D01*
G01*
X232909620Y-123929190D01*
G75*
G02*
X232690870Y-124147940I-218750J0D01*
G01*
X232253370Y-124147940D01*
G75*
G02*
X232034620Y-123929190I0J218750D01*
G01*
G37*
G36*
G01*
X230459620Y-123929190D02*
X230459620Y-123416690D01*
G75*
G02*
X230678370Y-123197940I218750J0D01*
G01*
X231115870Y-123197940D01*
G75*
G02*
X231334620Y-123416690I0J-218750D01*
G01*
X231334620Y-123929190D01*
G75*
G02*
X231115870Y-124147940I-218750J0D01*
G01*
X230678370Y-124147940D01*
G75*
G02*
X230459620Y-123929190I0J218750D01*
G01*
G37*
G36*
G01*
X259085600Y-84211450D02*
X259085600Y-84723950D01*
G75*
G02*
X258866850Y-84942700I-218750J0D01*
G01*
X258429350Y-84942700D01*
G75*
G02*
X258210600Y-84723950I0J218750D01*
G01*
X258210600Y-84211450D01*
G75*
G02*
X258429350Y-83992700I218750J0D01*
G01*
X258866850Y-83992700D01*
G75*
G02*
X259085600Y-84211450I0J-218750D01*
G01*
G37*
G36*
G01*
X260660600Y-84211450D02*
X260660600Y-84723950D01*
G75*
G02*
X260441850Y-84942700I-218750J0D01*
G01*
X260004350Y-84942700D01*
G75*
G02*
X259785600Y-84723950I0J218750D01*
G01*
X259785600Y-84211450D01*
G75*
G02*
X260004350Y-83992700I218750J0D01*
G01*
X260441850Y-83992700D01*
G75*
G02*
X260660600Y-84211450I0J-218750D01*
G01*
G37*
G36*
G01*
X241246370Y-129626940D02*
X240733870Y-129626940D01*
G75*
G02*
X240515120Y-129408190I0J218750D01*
G01*
X240515120Y-128970690D01*
G75*
G02*
X240733870Y-128751940I218750J0D01*
G01*
X241246370Y-128751940D01*
G75*
G02*
X241465120Y-128970690I0J-218750D01*
G01*
X241465120Y-129408190D01*
G75*
G02*
X241246370Y-129626940I-218750J0D01*
G01*
G37*
G36*
G01*
X241246370Y-131201940D02*
X240733870Y-131201940D01*
G75*
G02*
X240515120Y-130983190I0J218750D01*
G01*
X240515120Y-130545690D01*
G75*
G02*
X240733870Y-130326940I218750J0D01*
G01*
X241246370Y-130326940D01*
G75*
G02*
X241465120Y-130545690I0J-218750D01*
G01*
X241465120Y-130983190D01*
G75*
G02*
X241246370Y-131201940I-218750J0D01*
G01*
G37*
G36*
G01*
X223393450Y-115682900D02*
X222880950Y-115682900D01*
G75*
G02*
X222662200Y-115464150I0J218750D01*
G01*
X222662200Y-115026650D01*
G75*
G02*
X222880950Y-114807900I218750J0D01*
G01*
X223393450Y-114807900D01*
G75*
G02*
X223612200Y-115026650I0J-218750D01*
G01*
X223612200Y-115464150D01*
G75*
G02*
X223393450Y-115682900I-218750J0D01*
G01*
G37*
G36*
G01*
X223393450Y-117257900D02*
X222880950Y-117257900D01*
G75*
G02*
X222662200Y-117039150I0J218750D01*
G01*
X222662200Y-116601650D01*
G75*
G02*
X222880950Y-116382900I218750J0D01*
G01*
X223393450Y-116382900D01*
G75*
G02*
X223612200Y-116601650I0J-218750D01*
G01*
X223612200Y-117039150D01*
G75*
G02*
X223393450Y-117257900I-218750J0D01*
G01*
G37*
G36*
G01*
X236592120Y-132239190D02*
X236592120Y-131726690D01*
G75*
G02*
X236810870Y-131507940I218750J0D01*
G01*
X237248370Y-131507940D01*
G75*
G02*
X237467120Y-131726690I0J-218750D01*
G01*
X237467120Y-132239190D01*
G75*
G02*
X237248370Y-132457940I-218750J0D01*
G01*
X236810870Y-132457940D01*
G75*
G02*
X236592120Y-132239190I0J218750D01*
G01*
G37*
G36*
G01*
X235017120Y-132239190D02*
X235017120Y-131726690D01*
G75*
G02*
X235235870Y-131507940I218750J0D01*
G01*
X235673370Y-131507940D01*
G75*
G02*
X235892120Y-131726690I0J-218750D01*
G01*
X235892120Y-132239190D01*
G75*
G02*
X235673370Y-132457940I-218750J0D01*
G01*
X235235870Y-132457940D01*
G75*
G02*
X235017120Y-132239190I0J218750D01*
G01*
G37*
G36*
G01*
X250520620Y-82629030D02*
X250520620Y-83141530D01*
G75*
G02*
X250301870Y-83360280I-218750J0D01*
G01*
X249864370Y-83360280D01*
G75*
G02*
X249645620Y-83141530I0J218750D01*
G01*
X249645620Y-82629030D01*
G75*
G02*
X249864370Y-82410280I218750J0D01*
G01*
X250301870Y-82410280D01*
G75*
G02*
X250520620Y-82629030I0J-218750D01*
G01*
G37*
G36*
G01*
X252095620Y-82629030D02*
X252095620Y-83141530D01*
G75*
G02*
X251876870Y-83360280I-218750J0D01*
G01*
X251439370Y-83360280D01*
G75*
G02*
X251220620Y-83141530I0J218750D01*
G01*
X251220620Y-82629030D01*
G75*
G02*
X251439370Y-82410280I218750J0D01*
G01*
X251876870Y-82410280D01*
G75*
G02*
X252095620Y-82629030I0J-218750D01*
G01*
G37*
D22*
X263159240Y-82427220D03*
X263159240Y-78827220D03*
G36*
G01*
X215441980Y-117224140D02*
X215141980Y-117224140D01*
G75*
G02*
X214991980Y-117074140I0J150000D01*
G01*
X214991980Y-115424140D01*
G75*
G02*
X215141980Y-115274140I150000J0D01*
G01*
X215441980Y-115274140D01*
G75*
G02*
X215591980Y-115424140I0J-150000D01*
G01*
X215591980Y-117074140D01*
G75*
G02*
X215441980Y-117224140I-150000J0D01*
G01*
G37*
G36*
G01*
X216711980Y-117224140D02*
X216411980Y-117224140D01*
G75*
G02*
X216261980Y-117074140I0J150000D01*
G01*
X216261980Y-115424140D01*
G75*
G02*
X216411980Y-115274140I150000J0D01*
G01*
X216711980Y-115274140D01*
G75*
G02*
X216861980Y-115424140I0J-150000D01*
G01*
X216861980Y-117074140D01*
G75*
G02*
X216711980Y-117224140I-150000J0D01*
G01*
G37*
G36*
G01*
X217981980Y-117224140D02*
X217681980Y-117224140D01*
G75*
G02*
X217531980Y-117074140I0J150000D01*
G01*
X217531980Y-115424140D01*
G75*
G02*
X217681980Y-115274140I150000J0D01*
G01*
X217981980Y-115274140D01*
G75*
G02*
X218131980Y-115424140I0J-150000D01*
G01*
X218131980Y-117074140D01*
G75*
G02*
X217981980Y-117224140I-150000J0D01*
G01*
G37*
G36*
G01*
X219251980Y-117224140D02*
X218951980Y-117224140D01*
G75*
G02*
X218801980Y-117074140I0J150000D01*
G01*
X218801980Y-115424140D01*
G75*
G02*
X218951980Y-115274140I150000J0D01*
G01*
X219251980Y-115274140D01*
G75*
G02*
X219401980Y-115424140I0J-150000D01*
G01*
X219401980Y-117074140D01*
G75*
G02*
X219251980Y-117224140I-150000J0D01*
G01*
G37*
G36*
G01*
X219251980Y-122174140D02*
X218951980Y-122174140D01*
G75*
G02*
X218801980Y-122024140I0J150000D01*
G01*
X218801980Y-120374140D01*
G75*
G02*
X218951980Y-120224140I150000J0D01*
G01*
X219251980Y-120224140D01*
G75*
G02*
X219401980Y-120374140I0J-150000D01*
G01*
X219401980Y-122024140D01*
G75*
G02*
X219251980Y-122174140I-150000J0D01*
G01*
G37*
G36*
G01*
X217981980Y-122174140D02*
X217681980Y-122174140D01*
G75*
G02*
X217531980Y-122024140I0J150000D01*
G01*
X217531980Y-120374140D01*
G75*
G02*
X217681980Y-120224140I150000J0D01*
G01*
X217981980Y-120224140D01*
G75*
G02*
X218131980Y-120374140I0J-150000D01*
G01*
X218131980Y-122024140D01*
G75*
G02*
X217981980Y-122174140I-150000J0D01*
G01*
G37*
G36*
G01*
X216711980Y-122174140D02*
X216411980Y-122174140D01*
G75*
G02*
X216261980Y-122024140I0J150000D01*
G01*
X216261980Y-120374140D01*
G75*
G02*
X216411980Y-120224140I150000J0D01*
G01*
X216711980Y-120224140D01*
G75*
G02*
X216861980Y-120374140I0J-150000D01*
G01*
X216861980Y-122024140D01*
G75*
G02*
X216711980Y-122174140I-150000J0D01*
G01*
G37*
G36*
G01*
X215441980Y-122174140D02*
X215141980Y-122174140D01*
G75*
G02*
X214991980Y-122024140I0J150000D01*
G01*
X214991980Y-120374140D01*
G75*
G02*
X215141980Y-120224140I150000J0D01*
G01*
X215441980Y-120224140D01*
G75*
G02*
X215591980Y-120374140I0J-150000D01*
G01*
X215591980Y-122024140D01*
G75*
G02*
X215441980Y-122174140I-150000J0D01*
G01*
G37*
D23*
X253087120Y-121237940D03*
X253087120Y-122507940D03*
X253087120Y-123777940D03*
X253087120Y-125047940D03*
X247337120Y-125047940D03*
X247337120Y-123777940D03*
X247337120Y-122507940D03*
X247337120Y-121237940D03*
D24*
X250212120Y-123142940D03*
D13*
X267162120Y-104342940D03*
X267162120Y-108642940D03*
X256537460Y-75796140D03*
X256537460Y-71496140D03*
M02*
