<?xml version="1.0" standalone="no"?>
 <!DOCTYPE svg PUBLIC "-//W3C//DTD SVG 1.1//EN" 
 "http://www.w3.org/Graphics/SVG/1.1/DTD/svg11.dtd"> 
<svg
  xmlns:svg="http://www.w3.org/2000/svg"
  xmlns="http://www.w3.org/2000/svg"
  xmlns:xlink="http://www.w3.org/1999/xlink"
  version="1.1"
  width="29.700220cm" height="21.000720cm" viewBox="0 0 116930 82680">
<title>SVG Picture created as Kicad_Valve-hardware-F_Mask.svg date 2020/09/05 18:08:54 </title>
  <desc>Picture generated by PCBNEW </desc>
<g style="fill:#000000; fill-opacity:1;stroke:#000000; stroke-opacity:1;
stroke-linecap:round; stroke-linejoin:round;"
 transform="translate(0 0) scale(1 1)">
</g>
<g style="fill:#000000; fill-opacity:0.0; 
stroke:#000000; stroke-width:-0.000393701; stroke-opacity:1; 
stroke-linecap:round; stroke-linejoin:round;">
</g>
<g style="fill:#000000; fill-opacity:1.0; 
stroke:#000000; stroke-width:0; stroke-opacity:1; 
stroke-linecap:round; stroke-linejoin:round;">
<path style="fill:#000000; fill-opacity:1.0; 
stroke:#000000; stroke-width:0; stroke-opacity:1; 
stroke-linecap:round; stroke-linejoin:round;fill-rule:evenodd;"
d="M 94014.7,51429.5
94028.1,51433.6
94040.4,51440.2
94051.2,51449
94060.1,51459.8
94066.7,51472.2
94070.7,51485.6
94072.3,51501.9
94072.3,51768.1
94070.7,51784.4
94066.7,51797.8
94060.1,51810.2
94051.2,51821
94040.4,51829.8
94028.1,51836.4
94014.7,51840.5
93998.4,51842.1
93761.6,51842.1
93745.3,51840.5
93731.9,51836.4
93719.6,51829.8
93708.8,51821
93699.9,51810.2
93693.3,51797.8
93689.3,51784.4
93687.7,51768.1
93687.7,51501.9
93689.3,51485.6
93693.3,51472.2
93699.9,51459.8
93708.8,51449
93719.6,51440.2
93731.9,51433.6
93745.3,51429.5
93761.6,51427.9
93998.4,51427.9
Z" /> 
<path style="fill:#000000; fill-opacity:1.0; 
stroke:#000000; stroke-width:0; stroke-opacity:1; 
stroke-linecap:round; stroke-linejoin:round;fill-rule:evenodd;"
d="M 93394.6,51429.5
93408,51433.6
93420.3,51440.2
93431.1,51449
93440,51459.8
93446.6,51472.2
93450.6,51485.6
93452.2,51501.9
93452.2,51768.1
93450.6,51784.4
93446.6,51797.8
93440,51810.2
93431.1,51821
93420.3,51829.8
93408,51836.4
93394.6,51840.5
93378.3,51842.1
93141.6,51842.1
93125.2,51840.5
93111.9,51836.4
93099.5,51829.8
93088.7,51821
93079.9,51810.2
93073.3,51797.8
93069.2,51784.4
93067.6,51768.1
93067.6,51501.9
93069.2,51485.6
93073.3,51472.2
93079.9,51459.8
93088.7,51449
93099.5,51440.2
93111.9,51433.6
93125.2,51429.5
93141.6,51427.9
93378.3,51427.9
Z" /> 
<path style="fill:#000000; fill-opacity:1.0; 
stroke:#000000; stroke-width:0; stroke-opacity:1; 
stroke-linecap:round; stroke-linejoin:round;fill-rule:evenodd;"
d="M 97259.6,51274.5
97273,51278.6
97285.4,51285.2
97296.2,51294
97305,51304.8
97311.6,51317.2
97315.7,51330.6
97317.3,51346.9
97317.3,51613.1
97315.7,51629.4
97311.6,51642.8
97305,51655.2
97296.2,51666
97285.4,51674.8
97273,51681.4
97259.6,51685.5
97243.3,51687.1
97006.6,51687.1
96990.3,51685.5
96976.9,51681.4
96964.6,51674.8
96953.8,51666
96944.9,51655.2
96938.3,51642.8
96934.2,51629.4
96932.6,51613.1
96932.6,51346.9
96934.2,51330.6
96938.3,51317.2
96944.9,51304.8
96953.8,51294
96964.6,51285.2
96976.9,51278.6
96990.3,51274.5
97006.6,51272.9
97243.3,51272.9
Z" /> 
<path style="fill:#000000; fill-opacity:1.0; 
stroke:#000000; stroke-width:0; stroke-opacity:1; 
stroke-linecap:round; stroke-linejoin:round;fill-rule:evenodd;"
d="M 97879.7,51274.5
97893.1,51278.6
97905.4,51285.2
97916.2,51294
97925.1,51304.8
97931.7,51317.2
97935.8,51330.6
97937.4,51346.9
97937.4,51613.1
97935.8,51629.4
97931.7,51642.8
97925.1,51655.2
97916.2,51666
97905.4,51674.8
97893.1,51681.4
97879.7,51685.5
97863.4,51687.1
97626.7,51687.1
97610.4,51685.5
97597,51681.4
97584.6,51674.8
97573.8,51666
97565,51655.2
97558.4,51642.8
97554.3,51629.4
97552.7,51613.1
97552.7,51346.9
97554.3,51330.6
97558.4,51317.2
97565,51304.8
97573.8,51294
97584.6,51285.2
97597,51278.6
97610.4,51274.5
97626.7,51272.9
97863.4,51272.9
Z" /> 
<path style="fill:#000000; fill-opacity:1.0; 
stroke:#000000; stroke-width:0; stroke-opacity:1; 
stroke-linecap:round; stroke-linejoin:round;fill-rule:evenodd;"
d="M 91319.4,51173.3
91332.8,51177.4
91345.2,51184
91356,51192.8
91364.8,51203.6
91371.4,51216
91375.5,51229.4
91377.1,51245.7
91377.1,51482.4
91375.5,51498.7
91371.4,51512.1
91364.8,51524.4
91356,51535.2
91345.2,51544.1
91332.8,51550.7
91319.4,51554.8
91303.1,51556.4
91036.9,51556.4
91020.6,51554.8
91007.2,51550.7
90994.8,51544.1
90984,51535.2
90975.2,51524.4
90968.6,51512.1
90964.5,51498.7
90962.9,51482.4
90962.9,51245.7
90964.5,51229.4
90968.6,51216
90975.2,51203.6
90984,51192.8
90994.8,51184
91007.2,51177.4
91020.6,51173.3
91036.9,51171.7
91303.1,51171.7
Z" /> 
<path style="fill:#000000; fill-opacity:1.0; 
stroke:#000000; stroke-width:0; stroke-opacity:1; 
stroke-linecap:round; stroke-linejoin:round;fill-rule:evenodd;"
d="M 86888,50841.9
86948.5,50853.9
87013,50880.6
87071.1,50919.5
87120.5,50968.9
87159.4,51027
87186.1,51091.5
87197.8,51150.3
87199.7,51160.1
87199.7,51229.9
87198.5,51236.2
87186.1,51298.5
87159.4,51363
87120.5,51421.1
87071.1,51470.5
87013,51509.4
86948.5,51536.1
86889.7,51547.8
86879.9,51549.7
86810.1,51549.7
86800.3,51547.8
86741.5,51536.1
86677,51509.4
86618.9,51470.5
86569.5,51421.1
86530.6,51363
86503.9,51298.5
86491.5,51236.2
86490.3,51229.9
86490.3,51160.1
86492.2,51150.3
86503.9,51091.5
86530.6,51027
86569.5,50968.9
86618.9,50919.5
86677,50880.6
86741.5,50853.9
86802,50841.9
86810.1,50840.3
86879.9,50840.3
Z" /> 
<path style="fill:#000000; fill-opacity:1.0; 
stroke:#000000; stroke-width:0; stroke-opacity:1; 
stroke-linecap:round; stroke-linejoin:round;fill-rule:evenodd;"
d="M 84199.7,51549.7
83490.3,51549.7
83490.3,50840.3
84199.7,50840.3
Z" /> 
<path style="fill:#000000; fill-opacity:1.0; 
stroke:#000000; stroke-width:0; stroke-opacity:1; 
stroke-linecap:round; stroke-linejoin:round;fill-rule:evenodd;"
d="M 84888,50841.9
84948.5,50853.9
85013,50880.6
85071.1,50919.5
85120.5,50968.9
85159.4,51027
85186.1,51091.5
85197.8,51150.3
85199.7,51160.1
85199.7,51229.9
85198.5,51236.2
85186.1,51298.5
85159.4,51363
85120.5,51421.1
85071.1,51470.5
85013,51509.4
84948.5,51536.1
84889.7,51547.8
84879.9,51549.7
84810.1,51549.7
84800.3,51547.8
84741.5,51536.1
84677,51509.4
84618.9,51470.5
84569.5,51421.1
84530.6,51363
84503.9,51298.5
84491.5,51236.2
84490.3,51229.9
84490.3,51160.1
84492.2,51150.3
84503.9,51091.5
84530.6,51027
84569.5,50968.9
84618.9,50919.5
84677,50880.6
84741.5,50853.9
84802,50841.9
84810.1,50840.3
84879.9,50840.3
Z" /> 
<path style="fill:#000000; fill-opacity:1.0; 
stroke:#000000; stroke-width:0; stroke-opacity:1; 
stroke-linecap:round; stroke-linejoin:round;fill-rule:evenodd;"
d="M 85888,50841.9
85948.5,50853.9
86013,50880.6
86071.1,50919.5
86120.5,50968.9
86159.4,51027
86186.1,51091.5
86197.8,51150.3
86199.7,51160.1
86199.7,51229.9
86198.5,51236.2
86186.1,51298.5
86159.4,51363
86120.5,51421.1
86071.1,51470.5
86013,51509.4
85948.5,51536.1
85889.7,51547.8
85879.9,51549.7
85810.1,51549.7
85800.3,51547.8
85741.5,51536.1
85677,51509.4
85618.9,51470.5
85569.5,51421.1
85530.6,51363
85503.9,51298.5
85491.5,51236.2
85490.3,51229.9
85490.3,51160.1
85492.2,51150.3
85503.9,51091.5
85530.6,51027
85569.5,50968.9
85618.9,50919.5
85677,50880.6
85741.5,50853.9
85802,50841.9
85810.1,50840.3
85879.9,50840.3
Z" /> 
<path style="fill:#000000; fill-opacity:1.0; 
stroke:#000000; stroke-width:0; stroke-opacity:1; 
stroke-linecap:round; stroke-linejoin:round;fill-rule:evenodd;"
d="M 87888,50841.9
87948.5,50853.9
88013,50880.6
88071.1,50919.5
88120.5,50968.9
88159.4,51027
88186.1,51091.5
88197.8,51150.3
88199.7,51160.1
88199.7,51229.9
88198.5,51236.2
88186.1,51298.5
88159.4,51363
88120.5,51421.1
88071.1,51470.5
88013,51509.4
87948.5,51536.1
87889.7,51547.8
87879.9,51549.7
87810.1,51549.7
87800.3,51547.8
87741.5,51536.1
87677,51509.4
87618.9,51470.5
87569.5,51421.1
87530.6,51363
87503.9,51298.5
87491.5,51236.2
87490.3,51229.9
87490.3,51160.1
87492.2,51150.3
87503.9,51091.5
87530.6,51027
87569.5,50968.9
87618.9,50919.5
87677,50880.6
87741.5,50853.9
87802,50841.9
87810.1,50840.3
87879.9,50840.3
Z" /> 
<path style="fill:#000000; fill-opacity:1.0; 
stroke:#000000; stroke-width:0; stroke-opacity:1; 
stroke-linecap:round; stroke-linejoin:round;fill-rule:evenodd;"
d="M 88888,50841.9
88948.5,50853.9
89013,50880.6
89071.1,50919.5
89120.5,50968.9
89159.4,51027
89186.1,51091.5
89197.8,51150.3
89199.7,51160.1
89199.7,51229.9
89198.5,51236.2
89186.1,51298.5
89159.4,51363
89120.5,51421.1
89071.1,51470.5
89013,51509.4
88948.5,51536.1
88889.7,51547.8
88879.9,51549.7
88810.1,51549.7
88800.3,51547.8
88741.5,51536.1
88677,51509.4
88618.9,51470.5
88569.5,51421.1
88530.6,51363
88503.9,51298.5
88491.5,51236.2
88490.3,51229.9
88490.3,51160.1
88492.2,51150.3
88503.9,51091.5
88530.6,51027
88569.5,50968.9
88618.9,50919.5
88677,50880.6
88741.5,50853.9
88802,50841.9
88810.1,50840.3
88879.9,50840.3
Z" /> 
<path style="fill:#000000; fill-opacity:1.0; 
stroke:#000000; stroke-width:0; stroke-opacity:1; 
stroke-linecap:round; stroke-linejoin:round;fill-rule:evenodd;"
d="M 92223.4,51156.3
92236.8,51160.4
92249.2,51167
92260,51175.8
92268.8,51186.6
92275.4,51199
92279.5,51212.4
92281.1,51228.7
92281.1,51465.4
92279.5,51481.7
92275.4,51495.1
92268.8,51507.4
92260,51518.2
92249.2,51527.1
92236.8,51533.7
92223.4,51537.8
92207.1,51539.4
91940.9,51539.4
91924.6,51537.8
91911.2,51533.7
91898.8,51527.1
91888,51518.2
91879.2,51507.4
91872.6,51495.1
91868.5,51481.7
91866.9,51465.4
91866.9,51228.7
91868.5,51212.4
91872.6,51199
91879.2,51186.6
91888,51175.8
91898.8,51167
91911.2,51160.4
91924.6,51156.3
91940.9,51154.7
92207.1,51154.7
Z" /> 
<path style="fill:#000000; fill-opacity:1.0; 
stroke:#000000; stroke-width:0; stroke-opacity:1; 
stroke-linecap:round; stroke-linejoin:round;fill-rule:evenodd;"
d="M 93404.4,50874.3
93417.8,50878.3
93430.2,50884.9
93441,50893.8
93449.8,50904.6
93456.4,50916.9
93460.5,50930.3
93462.1,50946.6
93462.1,51183.4
93460.5,51199.7
93456.4,51213.1
93449.8,51225.4
93441,51236.2
93430.2,51245.1
93417.8,51251.7
93404.4,51255.7
93388.1,51257.3
93121.9,51257.3
93105.6,51255.7
93092.2,51251.7
93079.8,51245.1
93069,51236.2
93060.2,51225.4
93053.6,51213.1
93049.5,51199.7
93047.9,51183.4
93047.9,50946.6
93049.5,50930.3
93053.6,50916.9
93060.2,50904.6
93069,50893.8
93079.8,50884.9
93092.2,50878.3
93105.6,50874.3
93121.9,50872.7
93388.1,50872.7
Z" /> 
<path style="fill:#000000; fill-opacity:1.0; 
stroke:#000000; stroke-width:0; stroke-opacity:1; 
stroke-linecap:round; stroke-linejoin:round;fill-rule:evenodd;"
d="M 96204.8,50694.5
96218.1,50698.6
96230.5,50705.2
96241.3,50714
96250.1,50724.8
96256.7,50737.2
96260.8,50750.6
96262.4,50766.9
96262.4,51033.1
96260.8,51049.4
96256.7,51062.8
96250.1,51075.2
96241.3,51086
96230.5,51094.8
96218.1,51101.4
96204.8,51105.5
96188.4,51107.1
95951.7,51107.1
95935.4,51105.5
95922,51101.4
95909.7,51094.8
95898.9,51086
95890,51075.2
95883.4,51062.8
95879.4,51049.4
95877.8,51033.1
95877.8,50766.9
95879.4,50750.6
95883.4,50737.2
95890,50724.8
95898.9,50714
95909.7,50705.2
95922,50698.6
95935.4,50694.5
95951.7,50692.9
96188.4,50692.9
Z" /> 
<path style="fill:#000000; fill-opacity:1.0; 
stroke:#000000; stroke-width:0; stroke-opacity:1; 
stroke-linecap:round; stroke-linejoin:round;fill-rule:evenodd;"
d="M 95584.7,50694.5
95598.1,50698.6
95610.4,50705.2
95621.2,50714
95630.1,50724.8
95636.7,50737.2
95640.7,50750.6
95642.3,50766.9
95642.3,51033.1
95640.7,51049.4
95636.7,51062.8
95630.1,51075.2
95621.2,51086
95610.4,51094.8
95598.1,51101.4
95584.7,51105.5
95568.4,51107.1
95331.6,51107.1
95315.3,51105.5
95301.9,51101.4
95289.6,51094.8
95278.8,51086
95269.9,51075.2
95263.3,51062.8
95259.3,51049.4
95257.7,51033.1
95257.7,50766.9
95259.3,50750.6
95263.3,50737.2
95269.9,50724.8
95278.8,50714
95289.6,50705.2
95301.9,50698.6
95315.3,50694.5
95331.6,50692.9
95568.4,50692.9
Z" /> 
<path style="fill:#000000; fill-opacity:1.0; 
stroke:#000000; stroke-width:0; stroke-opacity:1; 
stroke-linecap:round; stroke-linejoin:round;fill-rule:evenodd;"
d="M 97879.7,50689.5
97893.1,50693.6
97905.4,50700.2
97916.2,50709
97925.1,50719.8
97931.7,50732.2
97935.7,50745.6
97937.3,50761.9
97937.3,51028.1
97935.7,51044.4
97931.7,51057.8
97925.1,51070.2
97916.2,51081
97905.4,51089.8
97893.1,51096.4
97879.7,51100.5
97863.4,51102.1
97626.6,51102.1
97610.3,51100.5
97596.9,51096.4
97584.6,51089.8
97573.8,51081
97564.9,51070.2
97558.3,51057.8
97554.3,51044.4
97552.7,51028.1
97552.7,50761.9
97554.3,50745.6
97558.3,50732.2
97564.9,50719.8
97573.8,50709
97584.6,50700.2
97596.9,50693.6
97610.3,50689.5
97626.6,50687.9
97863.4,50687.9
Z" /> 
<path style="fill:#000000; fill-opacity:1.0; 
stroke:#000000; stroke-width:0; stroke-opacity:1; 
stroke-linecap:round; stroke-linejoin:round;fill-rule:evenodd;"
d="M 97259.6,50689.5
97273,50693.6
97285.3,50700.2
97296.1,50709
97305,50719.8
97311.6,50732.2
97315.6,50745.6
97317.2,50761.9
97317.2,51028.1
97315.6,51044.4
97311.6,51057.8
97305,51070.2
97296.1,51081
97285.3,51089.8
97273,51096.4
97259.6,51100.5
97243.3,51102.1
97006.6,51102.1
96990.2,51100.5
96976.9,51096.4
96964.5,51089.8
96953.7,51081
96944.9,51070.2
96938.3,51057.8
96934.2,51044.4
96932.6,51028.1
96932.6,50761.9
96934.2,50745.6
96938.3,50732.2
96944.9,50719.8
96953.7,50709
96964.5,50700.2
96976.9,50693.6
96990.2,50689.5
97006.6,50687.9
97243.3,50687.9
Z" /> 
<path style="fill:#000000; fill-opacity:1.0; 
stroke:#000000; stroke-width:0; stroke-opacity:1; 
stroke-linecap:round; stroke-linejoin:round;fill-rule:evenodd;"
d="M 91319.4,50553.2
91332.8,50557.3
91345.2,50563.9
91356,50572.8
91364.8,50583.6
91371.4,50595.9
91375.5,50609.3
91377.1,50625.6
91377.1,50862.3
91375.5,50878.6
91371.4,50892
91364.8,50904.4
91356,50915.2
91345.2,50924
91332.8,50930.6
91319.4,50934.7
91303.1,50936.3
91036.9,50936.3
91020.6,50934.7
91007.2,50930.6
90994.8,50924
90984,50915.2
90975.2,50904.4
90968.6,50892
90964.5,50878.6
90962.9,50862.3
90962.9,50625.6
90964.5,50609.3
90968.6,50595.9
90975.2,50583.6
90984,50572.8
90994.8,50563.9
91007.2,50557.3
91020.6,50553.2
91036.9,50551.6
91303.1,50551.6
Z" /> 
<path style="fill:#000000; fill-opacity:1.0; 
stroke:#000000; stroke-width:0; stroke-opacity:1; 
stroke-linecap:round; stroke-linejoin:round;fill-rule:evenodd;"
d="M 92223.4,50536.2
92236.8,50540.3
92249.2,50546.9
92260,50555.8
92268.8,50566.6
92275.4,50578.9
92279.5,50592.3
92281.1,50608.6
92281.1,50845.3
92279.5,50861.6
92275.4,50875
92268.8,50887.4
92260,50898.2
92249.2,50907
92236.8,50913.6
92223.4,50917.7
92207.1,50919.3
91940.9,50919.3
91924.6,50917.7
91911.2,50913.6
91898.8,50907
91888,50898.2
91879.2,50887.4
91872.6,50875
91868.5,50861.6
91866.9,50845.3
91866.9,50608.6
91868.5,50592.3
91872.6,50578.9
91879.2,50566.6
91888,50555.8
91898.8,50546.9
91911.2,50540.3
91924.6,50536.2
91940.9,50534.6
92207.1,50534.6
Z" /> 
<path style="fill:#000000; fill-opacity:1.0; 
stroke:#000000; stroke-width:0; stroke-opacity:1; 
stroke-linecap:round; stroke-linejoin:round;fill-rule:evenodd;"
d="M 93404.4,50254.2
93417.8,50258.3
93430.2,50264.9
93441,50273.7
93449.8,50284.5
93456.4,50296.9
93460.5,50310.2
93462.1,50326.6
93462.1,50563.3
93460.5,50579.6
93456.4,50593
93449.8,50605.3
93441,50616.1
93430.2,50625
93417.8,50631.6
93404.4,50635.6
93388.1,50637.2
93121.9,50637.2
93105.6,50635.6
93092.2,50631.6
93079.8,50625
93069,50616.1
93060.2,50605.3
93053.6,50593
93049.5,50579.6
93047.9,50563.3
93047.9,50326.6
93049.5,50310.2
93053.6,50296.9
93060.2,50284.5
93069,50273.7
93079.8,50264.9
93092.2,50258.3
93105.6,50254.2
93121.9,50252.6
93388.1,50252.6
Z" /> 
<path style="fill:#000000; fill-opacity:1.0; 
stroke:#000000; stroke-width:0; stroke-opacity:1; 
stroke-linecap:round; stroke-linejoin:round;fill-rule:evenodd;"
d="M 96193.7,50391
95272.5,50391
95272.5,50139
96193.7,50139
Z" /> 
<path style="fill:#000000; fill-opacity:1.0; 
stroke:#000000; stroke-width:0; stroke-opacity:1; 
stroke-linecap:round; stroke-linejoin:round;fill-rule:evenodd;"
d="M 98457.5,50391
97536.3,50391
97536.3,50139
98457.5,50139
Z" /> 
<path style="fill:#000000; fill-opacity:1.0; 
stroke:#000000; stroke-width:0; stroke-opacity:1; 
stroke-linecap:round; stroke-linejoin:round;fill-rule:evenodd;"
d="M 96653.3,48857.4
96680.9,48868.9
96705.7,48885.5
96710.6,48890.3
96718.1,48896.5
96726.6,48901
96735.8,48903.8
96745.4,48904.8
96984.6,48904.8
96994.2,48903.8
97003.4,48901
97011.9,48896.5
97019.4,48890.3
97024.3,48885.5
97049.1,48868.9
97076.7,48857.4
97106,48851.6
97135.8,48851.6
97165.1,48857.4
97192.7,48868.9
97217.5,48885.5
97222.4,48890.3
97229.9,48896.5
97238.4,48901
97247.6,48903.8
97257.2,48904.8
97337.4,48904.8
97337.4,50125.2
97257.2,50125.2
97247.6,50126.2
97238.4,50129
97229.9,50133.5
97222.4,50139.7
97217.5,50144.5
97192.7,50161.1
97165.1,50172.6
97135.8,50178.4
97106,50178.4
97076.7,50172.6
97049.1,50161.1
97024.3,50144.5
97019.4,50139.7
97011.9,50133.5
97003.4,50129
96994.2,50126.2
96984.6,50125.2
96745.4,50125.2
96735.8,50126.2
96726.6,50129
96718.1,50133.5
96710.6,50139.7
96705.7,50144.5
96680.9,50161.1
96653.3,50172.6
96624,50178.4
96594.2,50178.4
96564.9,50172.6
96537.3,50161.1
96512.5,50144.5
96507.6,50139.7
96500.1,50133.5
96491.6,50129
96482.4,50126.2
96472.8,50125.2
96392.6,50125.2
96392.6,48904.8
96472.8,48904.8
96482.4,48903.8
96491.6,48901
96500.1,48896.5
96507.6,48890.3
96512.5,48885.5
96537.3,48868.9
96564.9,48857.4
96594.2,48851.6
96624,48851.6
Z" /> 
<path style="fill:#000000; fill-opacity:1.0; 
stroke:#000000; stroke-width:0; stroke-opacity:1; 
stroke-linecap:round; stroke-linejoin:round;fill-rule:evenodd;"
d="M 93388.7,49683.5
93402.1,49687.6
93414.4,49694.2
93425.2,49703
93434.1,49713.8
93440.7,49726.2
93444.7,49739.6
93446.3,49755.9
93446.3,50022.1
93444.7,50038.4
93440.7,50051.8
93434.1,50064.2
93425.2,50075
93414.4,50083.8
93402.1,50090.4
93388.7,50094.5
93372.4,50096.1
93135.6,50096.1
93119.3,50094.5
93105.9,50090.4
93093.6,50083.8
93082.8,50075
93073.9,50064.2
93067.3,50051.8
93063.3,50038.4
93061.7,50022.1
93061.7,49755.9
93063.3,49739.6
93067.3,49726.2
93073.9,49713.8
93082.8,49703
93093.6,49694.2
93105.9,49687.6
93119.3,49683.5
93135.6,49681.9
93372.4,49681.9
Z" /> 
<path style="fill:#000000; fill-opacity:1.0; 
stroke:#000000; stroke-width:0; stroke-opacity:1; 
stroke-linecap:round; stroke-linejoin:round;fill-rule:evenodd;"
d="M 94008.8,49683.5
94022.1,49687.6
94034.5,49694.2
94045.3,49703
94054.1,49713.8
94060.7,49726.2
94064.8,49739.6
94066.4,49755.9
94066.4,50022.1
94064.8,50038.4
94060.7,50051.8
94054.1,50064.2
94045.3,50075
94034.5,50083.8
94022.1,50090.4
94008.8,50094.5
93992.4,50096.1
93755.7,50096.1
93739.4,50094.5
93726,50090.4
93713.7,50083.8
93702.9,50075
93694,50064.2
93687.4,50051.8
93683.4,50038.4
93681.8,50022.1
93681.8,49755.9
93683.4,49739.6
93687.4,49726.2
93694,49713.8
93702.9,49703
93713.7,49694.2
93726,49687.6
93739.4,49683.5
93755.7,49681.9
93992.4,49681.9
Z" /> 
<path style="fill:#000000; fill-opacity:1.0; 
stroke:#000000; stroke-width:0; stroke-opacity:1; 
stroke-linecap:round; stroke-linejoin:round;fill-rule:evenodd;"
d="M 88747.4,49582.3
88760.8,49586.4
88773.2,49593
88784,49601.8
88792.8,49612.6
88799.4,49625
88803.5,49638.4
88805.1,49654.7
88805.1,49891.4
88803.5,49907.7
88799.4,49921.1
88792.8,49933.4
88784,49944.2
88773.2,49953.1
88760.8,49959.7
88747.4,49963.8
88731.1,49965.4
88464.9,49965.4
88448.6,49963.8
88435.2,49959.7
88422.8,49953.1
88412,49944.2
88403.2,49933.4
88396.6,49921.1
88392.5,49907.7
88390.9,49891.4
88390.9,49654.7
88392.5,49638.4
88396.6,49625
88403.2,49612.6
88412,49601.8
88422.8,49593
88435.2,49586.4
88448.6,49582.3
88464.9,49580.7
88731.1,49580.7
Z" /> 
<path style="fill:#000000; fill-opacity:1.0; 
stroke:#000000; stroke-width:0; stroke-opacity:1; 
stroke-linecap:round; stroke-linejoin:round;fill-rule:evenodd;"
d="M 91830,47166.1
91830.9,47175.7
91833.7,47185
91838.3,47193.5
91844.4,47200.9
91851.8,47207
91860.3,47211.6
91869.6,47214.4
91879.2,47215.3
92272.9,47215.3
92272.9,49519.3
91879.2,49519.3
91869.6,49520.2
91860.3,49523
91851.8,49527.6
91844.4,49533.7
91838.3,49541.1
91833.7,49549.6
91830.9,49558.9
91830,49568.5
91830,49962.2
89526,49962.2
89526,49568.5
89525.1,49558.9
89522.3,49549.6
89517.7,49541.1
89511.6,49533.7
89504.2,49527.6
89495.7,49523
89486.4,49520.2
89476.8,49519.3
89083.1,49519.3
89083.1,47255.5
89517,47255.5
89517,49479.1
89517.9,49488.7
89520.7,49497.9
89525.3,49506.5
89531.4,49513.9
89538.8,49520
89547.4,49524.6
89556.6,49527.4
89566.2,49528.3
91789.8,49528.3
91799.4,49527.4
91808.6,49524.6
91817.2,49520
91824.6,49513.9
91830.7,49506.5
91835.3,49497.9
91838.1,49488.7
91839,49479.1
91839,47255.5
91838.1,47245.9
91835.3,47236.7
91830.7,47228.1
91824.6,47220.7
91817.2,47214.6
91808.6,47210
91799.4,47207.2
91789.8,47206.3
89566.2,47206.3
89556.6,47207.2
89547.4,47210
89538.8,47214.6
89531.4,47220.7
89525.3,47228.1
89520.7,47236.7
89517.9,47245.9
89517,47255.5
89083.1,47255.5
89083.1,47215.3
89476.8,47215.3
89486.4,47214.4
89495.7,47211.6
89504.2,47207
89511.6,47200.9
89517.7,47193.5
89522.3,47185
89525.1,47175.7
89526,47166.1
89526,46772.4
91830,46772.4
Z" /> 
<path style="fill:#000000; fill-opacity:1.0; 
stroke:#000000; stroke-width:0; stroke-opacity:1; 
stroke-linecap:round; stroke-linejoin:round;fill-rule:evenodd;"
d="M 91639.3,49328.6
89716.7,49328.6
89716.7,47406
91639.3,47406
Z" /> 
<path style="fill:#000000; fill-opacity:1.0; 
stroke:#000000; stroke-width:0; stroke-opacity:1; 
stroke-linecap:round; stroke-linejoin:round;fill-rule:evenodd;"
d="M 84955.5,49892.6
84561.1,49892.6
84561.1,49537.5
84955.5,49537.5
Z" /> 
<path style="fill:#000000; fill-opacity:1.0; 
stroke:#000000; stroke-width:0; stroke-opacity:1; 
stroke-linecap:round; stroke-linejoin:round;fill-rule:evenodd;"
d="M 98457.5,49891
97536.3,49891
97536.3,49639
98457.5,49639
Z" /> 
<path style="fill:#000000; fill-opacity:1.0; 
stroke:#000000; stroke-width:0; stroke-opacity:1; 
stroke-linecap:round; stroke-linejoin:round;fill-rule:evenodd;"
d="M 96193.7,49891
95272.5,49891
95272.5,49639
96193.7,49639
Z" /> 
<path style="fill:#000000; fill-opacity:1.0; 
stroke:#000000; stroke-width:0; stroke-opacity:1; 
stroke-linecap:round; stroke-linejoin:round;fill-rule:evenodd;"
d="M 83983,49375.4
83996.4,49379.4
84008.7,49386
84019.5,49394.9
84028.4,49405.7
84035,49418
84039,49431.4
84040.6,49447.8
84040.6,49684.5
84039,49700.8
84035,49714.2
84028.4,49726.5
84019.5,49737.3
84008.7,49746.2
83996.4,49752.8
83983,49756.8
83966.7,49758.4
83700.4,49758.4
83684.1,49756.8
83670.7,49752.8
83658.4,49746.2
83647.6,49737.3
83638.7,49726.5
83632.1,49714.2
83628.1,49700.8
83626.5,49684.5
83626.5,49447.8
83628.1,49431.4
83632.1,49418
83638.7,49405.7
83647.6,49394.9
83658.4,49386
83670.7,49379.4
83684.1,49375.4
83700.4,49373.8
83966.7,49373.8
Z" /> 
<path style="fill:#000000; fill-opacity:1.0; 
stroke:#000000; stroke-width:0; stroke-opacity:1; 
stroke-linecap:round; stroke-linejoin:round;fill-rule:evenodd;"
d="M 83382.6,49370.5
83396,49374.5
83408.3,49381.1
83419.1,49390
83428,49400.8
83434.6,49413.1
83438.6,49426.5
83440.2,49442.8
83440.2,49679.5
83438.6,49695.9
83434.6,49709.2
83428,49721.6
83419.1,49732.4
83408.3,49741.2
83396,49747.8
83382.6,49751.9
83366.3,49753.5
83100,49753.5
83083.7,49751.9
83070.3,49747.8
83058,49741.2
83047.2,49732.4
83038.3,49721.6
83031.7,49709.2
83027.7,49695.9
83026.1,49679.5
83026.1,49442.8
83027.7,49426.5
83031.7,49413.1
83038.3,49400.8
83047.2,49390
83058,49381.1
83070.3,49374.5
83083.7,49370.5
83100,49368.9
83366.3,49368.9
Z" /> 
<path style="fill:#000000; fill-opacity:1.0; 
stroke:#000000; stroke-width:0; stroke-opacity:1; 
stroke-linecap:round; stroke-linejoin:round;fill-rule:evenodd;"
d="M 85742.9,49518.6
85348.5,49518.6
85348.5,49163.4
85742.9,49163.4
Z" /> 
<path style="fill:#000000; fill-opacity:1.0; 
stroke:#000000; stroke-width:0; stroke-opacity:1; 
stroke-linecap:round; stroke-linejoin:round;fill-rule:evenodd;"
d="M 96193.7,49391
95272.5,49391
95272.5,49139
96193.7,49139
Z" /> 
<path style="fill:#000000; fill-opacity:1.0; 
stroke:#000000; stroke-width:0; stroke-opacity:1; 
stroke-linecap:round; stroke-linejoin:round;fill-rule:evenodd;"
d="M 98457.5,49391
97536.3,49391
97536.3,49139
98457.5,49139
Z" /> 
<path style="fill:#000000; fill-opacity:1.0; 
stroke:#000000; stroke-width:0; stroke-opacity:1; 
stroke-linecap:round; stroke-linejoin:round;fill-rule:evenodd;"
d="M 88747.4,48962.2
88760.8,48966.3
88773.2,48972.9
88784,48981.8
88792.8,48992.6
88799.4,49004.9
88803.5,49018.3
88805.1,49034.6
88805.1,49271.3
88803.5,49287.6
88799.4,49301
88792.8,49313.4
88784,49324.2
88773.2,49333
88760.8,49339.6
88747.4,49343.7
88731.1,49345.3
88464.9,49345.3
88448.6,49343.7
88435.2,49339.6
88422.8,49333
88412,49324.2
88403.2,49313.4
88396.6,49301
88392.5,49287.6
88390.9,49271.3
88390.9,49034.6
88392.5,49018.3
88396.6,49004.9
88403.2,48992.6
88412,48981.8
88422.8,48972.9
88435.2,48966.3
88448.6,48962.2
88464.9,48960.6
88731.1,48960.6
Z" /> 
<path style="fill:#000000; fill-opacity:1.0; 
stroke:#000000; stroke-width:0; stroke-opacity:1; 
stroke-linecap:round; stroke-linejoin:round;fill-rule:evenodd;"
d="M 84955.5,49144.5
84561.1,49144.5
84561.1,48789.4
84955.5,48789.4
Z" /> 
<path style="fill:#000000; fill-opacity:1.0; 
stroke:#000000; stroke-width:0; stroke-opacity:1; 
stroke-linecap:round; stroke-linejoin:round;fill-rule:evenodd;"
d="M 83983,48755.3
83996.4,48759.4
84008.7,48766
84019.5,48774.8
84028.4,48785.6
84035,48798
84039,48811.3
84040.6,48827.7
84040.6,49064.4
84039,49080.7
84035,49094.1
84028.4,49106.4
84019.5,49117.2
84008.7,49126.1
83996.4,49132.7
83983,49136.7
83966.7,49138.3
83700.4,49138.3
83684.1,49136.7
83670.7,49132.7
83658.4,49126.1
83647.6,49117.2
83638.7,49106.4
83632.1,49094.1
83628.1,49080.7
83626.5,49064.4
83626.5,48827.7
83628.1,48811.3
83632.1,48798
83638.7,48785.6
83647.6,48774.8
83658.4,48766
83670.7,48759.4
83684.1,48755.3
83700.4,48753.7
83966.7,48753.7
Z" /> 
<path style="fill:#000000; fill-opacity:1.0; 
stroke:#000000; stroke-width:0; stroke-opacity:1; 
stroke-linecap:round; stroke-linejoin:round;fill-rule:evenodd;"
d="M 83382.6,48750.4
83396,48754.4
83408.3,48761
83419.1,48769.9
83428,48780.7
83434.6,48793
83438.6,48806.4
83440.2,48822.8
83440.2,49059.5
83438.6,49075.8
83434.6,49089.2
83428,49101.5
83419.1,49112.3
83408.3,49121.2
83396,49127.8
83382.6,49131.8
83366.3,49133.4
83100,49133.4
83083.7,49131.8
83070.3,49127.8
83058,49121.2
83047.2,49112.3
83038.3,49101.5
83031.7,49089.2
83027.7,49075.8
83026.1,49059.5
83026.1,48822.8
83027.7,48806.4
83031.7,48793
83038.3,48780.7
83047.2,48769.9
83058,48761
83070.3,48754.4
83083.7,48750.4
83100,48748.8
83366.3,48748.8
Z" /> 
<path style="fill:#000000; fill-opacity:1.0; 
stroke:#000000; stroke-width:0; stroke-opacity:1; 
stroke-linecap:round; stroke-linejoin:round;fill-rule:evenodd;"
d="M 93430.4,48620.3
93443.8,48624.4
93456.2,48631
93467,48639.8
93475.8,48650.6
93482.4,48663
93486.5,48676.4
93488.1,48692.7
93488.1,48929.4
93486.5,48945.7
93482.4,48959.1
93475.8,48971.4
93467,48982.2
93456.2,48991.1
93443.8,48997.7
93430.4,49001.8
93414.1,49003.4
93147.9,49003.4
93131.6,49001.8
93118.2,48997.7
93105.8,48991.1
93095,48982.2
93086.2,48971.4
93079.6,48959.1
93075.5,48945.7
93073.9,48929.4
93073.9,48692.7
93075.5,48676.4
93079.6,48663
93086.2,48650.6
93095,48639.8
93105.8,48631
93118.2,48624.4
93131.6,48620.3
93147.9,48618.7
93414.1,48618.7
Z" /> 
<path style="fill:#000000; fill-opacity:1.0; 
stroke:#000000; stroke-width:0; stroke-opacity:1; 
stroke-linecap:round; stroke-linejoin:round;fill-rule:evenodd;"
d="M 94032.4,48620.3
94045.8,48624.3
94058.2,48630.9
94069,48639.8
94077.8,48650.6
94084.4,48662.9
94088.5,48676.3
94090.1,48692.6
94090.1,48929.4
94088.5,48945.7
94084.4,48959.1
94077.8,48971.4
94069,48982.2
94058.2,48991.1
94045.8,48997.7
94032.4,49001.7
94016.1,49003.3
93749.9,49003.3
93733.6,49001.7
93720.2,48997.7
93707.8,48991.1
93697,48982.2
93688.2,48971.4
93681.6,48959.1
93677.5,48945.7
93675.9,48929.4
93675.9,48692.6
93677.5,48676.3
93681.6,48662.9
93688.2,48650.6
93697,48639.8
93707.8,48630.9
93720.2,48624.3
93733.6,48620.3
93749.9,48618.7
94016.1,48618.7
Z" /> 
<path style="fill:#000000; fill-opacity:1.0; 
stroke:#000000; stroke-width:0; stroke-opacity:1; 
stroke-linecap:round; stroke-linejoin:round;fill-rule:evenodd;"
d="M 98457.5,48891
97536.3,48891
97536.3,48639
98457.5,48639
Z" /> 
<path style="fill:#000000; fill-opacity:1.0; 
stroke:#000000; stroke-width:0; stroke-opacity:1; 
stroke-linecap:round; stroke-linejoin:round;fill-rule:evenodd;"
d="M 96193.7,48891
95272.5,48891
95272.5,48639
96193.7,48639
Z" /> 
<path style="fill:#000000; fill-opacity:1.0; 
stroke:#000000; stroke-width:0; stroke-opacity:1; 
stroke-linecap:round; stroke-linejoin:round;fill-rule:evenodd;"
d="M 101907,48800.8
100292,48800.8
100292,47579.5
101907,47579.5
Z" /> 
<path style="fill:#000000; fill-opacity:1.0; 
stroke:#000000; stroke-width:0; stroke-opacity:1; 
stroke-linecap:round; stroke-linejoin:round;fill-rule:evenodd;"
d="M 81522.7,48008.2
81581.5,48019.9
81646,48046.6
81704.1,48085.5
81753.5,48134.9
81792.4,48193
81819.1,48257.5
81828.7,48305.9
81832.7,48326.1
81832.7,48395.9
81830.9,48405
81819.1,48464.5
81792.4,48529
81753.5,48587.1
81704.1,48636.5
81646,48675.4
81581.5,48702.1
81522.7,48713.8
81512.9,48715.7
81443.1,48715.7
81433.3,48713.8
81374.5,48702.1
81310,48675.4
81251.9,48636.5
81202.5,48587.1
81163.6,48529
81136.9,48464.5
81125.1,48405
81123.3,48395.9
81123.3,48326.1
81127.3,48305.9
81136.9,48257.5
81163.6,48193
81202.5,48134.9
81251.9,48085.5
81310,48046.6
81374.5,48019.9
81433.3,48008.2
81443.1,48006.3
81512.9,48006.3
Z" /> 
<path style="fill:#000000; fill-opacity:1.0; 
stroke:#000000; stroke-width:0; stroke-opacity:1; 
stroke-linecap:round; stroke-linejoin:round;fill-rule:evenodd;"
d="M 85528.3,48174.6
85541.6,48178.7
85554,48185.2
85564.8,48194.1
85573.6,48204.9
85580.2,48217.3
85584.3,48230.6
85585.9,48247
85585.9,48483.7
85584.3,48500
85580.2,48513.4
85573.6,48525.7
85564.8,48536.5
85554,48545.4
85541.6,48552
85528.3,48556
85511.9,48557.6
85245.7,48557.6
85229.4,48556
85216,48552
85203.7,48545.4
85192.9,48536.5
85184,48525.7
85177.4,48513.4
85173.3,48500
85171.7,48483.7
85171.7,48247
85173.3,48230.6
85177.4,48217.3
85184,48204.9
85192.9,48194.1
85203.7,48185.2
85216,48178.7
85229.4,48174.6
85245.7,48173
85511.9,48173
Z" /> 
<path style="fill:#000000; fill-opacity:1.0; 
stroke:#000000; stroke-width:0; stroke-opacity:1; 
stroke-linecap:round; stroke-linejoin:round;fill-rule:evenodd;"
d="M 84351.1,47750.4
84359.4,47752.9
84367.1,47757
84373.8,47762.5
84379.3,47769.2
84383.4,47776.8
84385.9,47785.1
84387,47796.2
84387,48510.2
84385.9,48521.3
84383.4,48529.6
84379.3,48537.2
84373.8,48543.9
84367.1,48549.4
84359.4,48553.5
84351.1,48556.1
84340.1,48557.1
84157.5,48557.1
84146.5,48556.1
84138.2,48553.5
84130.5,48549.4
84123.8,48543.9
84118.3,48537.2
84114.2,48529.6
84111.7,48521.3
84110.6,48510.2
84110.6,47796.2
84111.7,47785.1
84114.2,47776.8
84118.3,47769.2
84123.8,47762.5
84130.5,47757
84138.2,47752.9
84146.5,47750.4
84157.5,47749.3
84340.1,47749.3
Z" /> 
<path style="fill:#000000; fill-opacity:1.0; 
stroke:#000000; stroke-width:0; stroke-opacity:1; 
stroke-linecap:round; stroke-linejoin:round;fill-rule:evenodd;"
d="M 84851.1,47750.4
84859.4,47752.9
84867.1,47757
84873.8,47762.5
84879.3,47769.2
84883.4,47776.8
84885.9,47785.1
84887,47796.2
84887,48510.2
84885.9,48521.3
84883.4,48529.6
84879.3,48537.2
84873.8,48543.9
84867.1,48549.4
84859.4,48553.5
84851.1,48556.1
84840.1,48557.1
84657.5,48557.1
84646.5,48556.1
84638.2,48553.5
84630.5,48549.4
84623.8,48543.9
84618.3,48537.2
84614.2,48529.6
84611.7,48521.3
84610.6,48510.2
84610.6,47796.2
84611.7,47785.1
84614.2,47776.8
84618.3,47769.2
84623.8,47762.5
84630.5,47757
84638.2,47752.9
84646.5,47750.4
84657.5,47749.3
84840.1,47749.3
Z" /> 
<path style="fill:#000000; fill-opacity:1.0; 
stroke:#000000; stroke-width:0; stroke-opacity:1; 
stroke-linecap:round; stroke-linejoin:round;fill-rule:evenodd;"
d="M 83851.1,47750.4
83859.4,47752.9
83867.1,47757
83873.8,47762.5
83879.3,47769.2
83883.4,47776.8
83885.9,47785.1
83887,47796.2
83887,48510.2
83885.9,48521.3
83883.4,48529.6
83879.3,48537.2
83873.8,48543.9
83867.1,48549.4
83859.4,48553.5
83851.1,48556.1
83840.1,48557.1
83657.5,48557.1
83646.5,48556.1
83638.2,48553.5
83630.5,48549.4
83623.8,48543.9
83618.3,48537.2
83614.2,48529.6
83611.7,48521.3
83610.6,48510.2
83610.6,47796.2
83611.7,47785.1
83614.2,47776.8
83618.3,47769.2
83623.8,47762.5
83630.5,47757
83638.2,47752.9
83646.5,47750.4
83657.5,47749.3
83840.1,47749.3
Z" /> 
<path style="fill:#000000; fill-opacity:1.0; 
stroke:#000000; stroke-width:0; stroke-opacity:1; 
stroke-linecap:round; stroke-linejoin:round;fill-rule:evenodd;"
d="M 83351.1,47750.4
83359.4,47752.9
83367.1,47757
83373.8,47762.5
83379.3,47769.2
83383.4,47776.8
83385.9,47785.1
83387,47796.2
83387,48510.2
83385.9,48521.3
83383.4,48529.6
83379.3,48537.2
83373.8,48543.9
83367.1,48549.4
83359.4,48553.5
83351.1,48556.1
83340.1,48557.1
83157.5,48557.1
83146.5,48556.1
83138.2,48553.5
83130.5,48549.4
83123.8,48543.9
83118.3,48537.2
83114.2,48529.6
83111.7,48521.3
83110.6,48510.2
83110.6,47796.2
83111.7,47785.1
83114.2,47776.8
83118.3,47769.2
83123.8,47762.5
83130.5,47757
83138.2,47752.9
83146.5,47750.4
83157.5,47749.3
83340.1,47749.3
Z" /> 
<path style="fill:#000000; fill-opacity:1.0; 
stroke:#000000; stroke-width:0; stroke-opacity:1; 
stroke-linecap:round; stroke-linejoin:round;fill-rule:evenodd;"
d="M 98965.4,48029.3
98978.8,48033.3
98991.2,48039.9
99002,48048.8
99010.8,48059.6
99017.4,48071.9
99021.5,48085.3
99023.1,48101.6
99023.1,48338.4
99021.5,48354.7
99017.4,48368.1
99010.8,48380.4
99002,48391.2
98991.2,48400.1
98978.8,48406.7
98965.4,48410.7
98949.1,48412.3
98682.9,48412.3
98666.6,48410.7
98653.2,48406.7
98640.8,48400.1
98630,48391.2
98621.2,48380.4
98614.6,48368.1
98610.5,48354.7
98608.9,48338.4
98608.9,48101.6
98610.5,48085.3
98614.6,48071.9
98621.2,48059.6
98630,48048.8
98640.8,48039.9
98653.2,48033.3
98666.6,48029.3
98682.9,48027.7
98949.1,48027.7
Z" /> 
<path style="fill:#000000; fill-opacity:1.0; 
stroke:#000000; stroke-width:0; stroke-opacity:1; 
stroke-linecap:round; stroke-linejoin:round;fill-rule:evenodd;"
d="M 93430.4,48000.2
93443.8,48004.3
93456.2,48010.9
93467,48019.8
93475.8,48030.6
93482.4,48042.9
93486.5,48056.3
93488.1,48072.6
93488.1,48309.3
93486.5,48325.6
93482.4,48339
93475.8,48351.4
93467,48362.2
93456.2,48371
93443.8,48377.6
93430.4,48381.7
93414.1,48383.3
93147.9,48383.3
93131.6,48381.7
93118.2,48377.6
93105.8,48371
93095,48362.2
93086.2,48351.4
93079.6,48339
93075.5,48325.6
93073.9,48309.3
93073.9,48072.6
93075.5,48056.3
93079.6,48042.9
93086.2,48030.6
93095,48019.8
93105.8,48010.9
93118.2,48004.3
93131.6,48000.2
93147.9,47998.6
93414.1,47998.6
Z" /> 
<path style="fill:#000000; fill-opacity:1.0; 
stroke:#000000; stroke-width:0; stroke-opacity:1; 
stroke-linecap:round; stroke-linejoin:round;fill-rule:evenodd;"
d="M 94032.4,48000.2
94045.8,48004.3
94058.2,48010.9
94069,48019.7
94077.8,48030.5
94084.4,48042.9
94088.5,48056.2
94090.1,48072.6
94090.1,48309.3
94088.5,48325.6
94084.4,48339
94077.8,48351.3
94069,48362.1
94058.2,48371
94045.8,48377.6
94032.4,48381.6
94016.1,48383.2
93749.9,48383.2
93733.6,48381.6
93720.2,48377.6
93707.8,48371
93697,48362.1
93688.2,48351.3
93681.6,48339
93677.5,48325.6
93675.9,48309.3
93675.9,48072.6
93677.5,48056.2
93681.6,48042.9
93688.2,48030.5
93697,48019.7
93707.8,48010.9
93720.2,48004.3
93733.6,48000.2
93749.9,47998.6
94016.1,47998.6
Z" /> 
<path style="fill:#000000; fill-opacity:1.0; 
stroke:#000000; stroke-width:0; stroke-opacity:1; 
stroke-linecap:round; stroke-linejoin:round;fill-rule:evenodd;"
d="M 97233.1,45708.3
97451.7,45798.9
97539.1,45857.3
97648.4,45930.3
97815.7,46097.7
97858.4,46161.5
97947.2,46294.4
98037.7,46513
98083.9,46745.1
98083.9,46981.7
98037.7,47213.7
97947.2,47432.3
97899.5,47503.8
97815.7,47629.1
97648.4,47796.4
97581.1,47841.4
97451.7,47927.8
97233.1,48018.4
97001,48064.5
96764.4,48064.5
96532.4,48018.4
96313.8,47927.8
96184.4,47841.4
96117,47796.4
95949.7,47629.1
95866,47503.8
95818.3,47432.3
95727.7,47213.7
95681.5,46981.7
95681.5,46745.1
95727.7,46513
95818.3,46294.4
95907.1,46161.5
95949.7,46097.7
96117,45930.3
96226.3,45857.3
96313.8,45798.9
96532.4,45708.3
96764.4,45662.2
97001,45662.2
Z" /> 
<path style="fill:#000000; fill-opacity:1.0; 
stroke:#000000; stroke-width:0; stroke-opacity:1; 
stroke-linecap:round; stroke-linejoin:round;fill-rule:evenodd;"
d="M 85528.3,47554.5
85541.6,47558.6
85554,47565.2
85564.8,47574
85573.6,47584.8
85580.2,47597.2
85584.3,47610.6
85585.9,47626.9
85585.9,47863.6
85584.3,47879.9
85580.2,47893.3
85573.6,47905.6
85564.8,47916.4
85554,47925.3
85541.6,47931.9
85528.3,47936
85511.9,47937.6
85245.7,47937.6
85229.4,47936
85216,47931.9
85203.7,47925.3
85192.9,47916.4
85184,47905.6
85177.4,47893.3
85173.3,47879.9
85171.7,47863.6
85171.7,47626.9
85173.3,47610.6
85177.4,47597.2
85184,47584.8
85192.9,47574
85203.7,47565.2
85216,47558.6
85229.4,47554.5
85245.7,47552.9
85511.9,47552.9
Z" /> 
<path style="fill:#000000; fill-opacity:1.0; 
stroke:#000000; stroke-width:0; stroke-opacity:1; 
stroke-linecap:round; stroke-linejoin:round;fill-rule:evenodd;"
d="M 98965.4,47409.2
98978.8,47413.3
98991.2,47419.9
99002,47428.7
99010.8,47439.5
99017.4,47451.9
99021.5,47465.2
99023.1,47481.6
99023.1,47718.3
99021.5,47734.6
99017.4,47748
99010.8,47760.3
99002,47771.1
98991.2,47780
98978.8,47786.6
98965.4,47790.6
98949.1,47792.2
98682.9,47792.2
98666.6,47790.6
98653.2,47786.6
98640.8,47780
98630,47771.1
98621.2,47760.3
98614.6,47748
98610.5,47734.6
98608.9,47718.3
98608.9,47481.6
98610.5,47465.2
98614.6,47451.9
98621.2,47439.5
98630,47428.7
98640.8,47419.9
98653.2,47413.3
98666.6,47409.2
98682.9,47407.6
98949.1,47407.6
Z" /> 
<path style="fill:#000000; fill-opacity:1.0; 
stroke:#000000; stroke-width:0; stroke-opacity:1; 
stroke-linecap:round; stroke-linejoin:round;fill-rule:evenodd;"
d="M 81522.7,47008.2
81581.5,47019.9
81646,47046.6
81704.1,47085.5
81753.5,47134.9
81792.4,47193
81819.1,47257.5
81832.7,47326.1
81832.7,47395.9
81819.1,47464.5
81792.4,47529
81753.5,47587.1
81704.1,47636.5
81646,47675.4
81581.5,47702.1
81522.7,47713.8
81512.9,47715.7
81443.1,47715.7
81433.3,47713.8
81374.5,47702.1
81310,47675.4
81251.9,47636.5
81202.5,47587.1
81163.6,47529
81136.9,47464.5
81123.3,47395.9
81123.3,47326.1
81136.9,47257.5
81163.6,47193
81202.5,47134.9
81251.9,47085.5
81310,47046.6
81374.5,47019.9
81433.3,47008.2
81443.1,47006.3
81512.9,47006.3
Z" /> 
<path style="fill:#000000; fill-opacity:1.0; 
stroke:#000000; stroke-width:0; stroke-opacity:1; 
stroke-linecap:round; stroke-linejoin:round;fill-rule:evenodd;"
d="M 104831,46796.7
103885,46796.7
103885,45772.3
104831,45772.3
Z" /> 
<path style="fill:#000000; fill-opacity:1.0; 
stroke:#000000; stroke-width:0; stroke-opacity:1; 
stroke-linecap:round; stroke-linejoin:round;fill-rule:evenodd;"
d="M 81522.7,46008.2
81581.5,46019.9
81646,46046.6
81704.1,46085.5
81753.5,46134.9
81792.4,46193
81819.1,46257.5
81832.7,46326.1
81832.7,46395.9
81819.1,46464.5
81792.4,46529
81753.5,46587.1
81704.1,46636.5
81646,46675.4
81581.5,46702.1
81522.7,46713.8
81512.9,46715.7
81443.1,46715.7
81433.3,46713.8
81374.5,46702.1
81310,46675.4
81251.9,46636.5
81202.5,46587.1
81163.6,46529
81136.9,46464.5
81123.3,46395.9
81123.3,46326.1
81136.9,46257.5
81163.6,46193
81202.5,46134.9
81251.9,46085.5
81310,46046.6
81374.5,46019.9
81433.3,46008.2
81443.1,46006.3
81512.9,46006.3
Z" /> 
<path style="fill:#000000; fill-opacity:1.0; 
stroke:#000000; stroke-width:0; stroke-opacity:1; 
stroke-linecap:round; stroke-linejoin:round;fill-rule:evenodd;"
d="M 84851.1,45801.5
84859.4,45804.1
84867.1,45808.1
84873.8,45813.6
84879.3,45820.4
84883.4,45828
84885.9,45836.3
84887,45847.4
84887,46561.4
84885.9,46572.5
84883.4,46580.8
84879.3,46588.4
84873.8,46595.1
84867.1,46600.6
84859.4,46604.7
84851.1,46607.2
84840.1,46608.3
84657.5,46608.3
84646.5,46607.2
84638.2,46604.7
84630.5,46600.6
84623.8,46595.1
84618.3,46588.4
84614.2,46580.8
84611.7,46572.5
84610.6,46561.4
84610.6,45847.4
84611.7,45836.3
84614.2,45828
84618.3,45820.4
84623.8,45813.6
84630.5,45808.1
84638.2,45804.1
84646.5,45801.5
84657.5,45800.4
84840.1,45800.4
Z" /> 
<path style="fill:#000000; fill-opacity:1.0; 
stroke:#000000; stroke-width:0; stroke-opacity:1; 
stroke-linecap:round; stroke-linejoin:round;fill-rule:evenodd;"
d="M 84351.1,45801.5
84359.4,45804.1
84367.1,45808.1
84373.8,45813.6
84379.3,45820.4
84383.4,45828
84385.9,45836.3
84387,45847.4
84387,46561.4
84385.9,46572.5
84383.4,46580.8
84379.3,46588.4
84373.8,46595.1
84367.1,46600.6
84359.4,46604.7
84351.1,46607.2
84340.1,46608.3
84157.5,46608.3
84146.5,46607.2
84138.2,46604.7
84130.5,46600.6
84123.8,46595.1
84118.3,46588.4
84114.2,46580.8
84111.7,46572.5
84110.6,46561.4
84110.6,45847.4
84111.7,45836.3
84114.2,45828
84118.3,45820.4
84123.8,45813.6
84130.5,45808.1
84138.2,45804.1
84146.5,45801.5
84157.5,45800.4
84340.1,45800.4
Z" /> 
<path style="fill:#000000; fill-opacity:1.0; 
stroke:#000000; stroke-width:0; stroke-opacity:1; 
stroke-linecap:round; stroke-linejoin:round;fill-rule:evenodd;"
d="M 83851.1,45801.5
83859.4,45804.1
83867.1,45808.1
83873.8,45813.6
83879.3,45820.4
83883.4,45828
83885.9,45836.3
83887,45847.4
83887,46561.4
83885.9,46572.5
83883.4,46580.8
83879.3,46588.4
83873.8,46595.1
83867.1,46600.6
83859.4,46604.7
83851.1,46607.2
83840.1,46608.3
83657.5,46608.3
83646.5,46607.2
83638.2,46604.7
83630.5,46600.6
83623.8,46595.1
83618.3,46588.4
83614.2,46580.8
83611.7,46572.5
83610.6,46561.4
83610.6,45847.4
83611.7,45836.3
83614.2,45828
83618.3,45820.4
83623.8,45813.6
83630.5,45808.1
83638.2,45804.1
83646.5,45801.5
83657.5,45800.4
83840.1,45800.4
Z" /> 
<path style="fill:#000000; fill-opacity:1.0; 
stroke:#000000; stroke-width:0; stroke-opacity:1; 
stroke-linecap:round; stroke-linejoin:round;fill-rule:evenodd;"
d="M 83351.1,45801.5
83359.4,45804.1
83367.1,45808.1
83373.8,45813.6
83379.3,45820.4
83383.4,45828
83385.9,45836.3
83387,45847.4
83387,46561.4
83385.9,46572.5
83383.4,46580.8
83379.3,46588.4
83373.8,46595.1
83367.1,46600.6
83359.4,46604.7
83351.1,46607.2
83340.1,46608.3
83157.5,46608.3
83146.5,46607.2
83138.2,46604.7
83130.5,46600.6
83123.8,46595.1
83118.3,46588.4
83114.2,46580.8
83111.7,46572.5
83110.6,46561.4
83110.6,45847.4
83111.7,45836.3
83114.2,45828
83118.3,45820.4
83123.8,45813.6
83130.5,45808.1
83138.2,45804.1
83146.5,45801.5
83157.5,45800.4
83340.1,45800.4
Z" /> 
<path style="fill:#000000; fill-opacity:1.0; 
stroke:#000000; stroke-width:0; stroke-opacity:1; 
stroke-linecap:round; stroke-linejoin:round;fill-rule:evenodd;"
d="M 87215.3,45943.3
87228.6,45947.4
87241,45954
87251.8,45962.8
87260.7,45973.6
87267.2,45986
87271.3,45999.3
87272.9,46015.7
87272.9,46252.4
87271.3,46268.7
87267.2,46282.1
87260.7,46294.4
87251.8,46305.2
87241,46314.1
87228.6,46320.7
87215.3,46324.7
87198.9,46326.3
86932.7,46326.3
86916.4,46324.7
86903,46320.7
86890.7,46314.1
86879.9,46305.2
86871,46294.4
86864.4,46282.1
86860.3,46268.7
86858.7,46252.4
86858.7,46015.7
86860.3,45999.3
86864.4,45986
86871,45973.6
86879.9,45962.8
86890.7,45954
86903,45947.4
86916.4,45943.3
86932.7,45941.7
87198.9,45941.7
Z" /> 
<path style="fill:#000000; fill-opacity:1.0; 
stroke:#000000; stroke-width:0; stroke-opacity:1; 
stroke-linecap:round; stroke-linejoin:round;fill-rule:evenodd;"
d="M 87809.8,45939.4
87823.1,45943.4
87835.5,45950
87846.3,45958.9
87855.1,45969.7
87861.7,45982
87865.8,45995.4
87867.4,46011.7
87867.4,46248.4
87865.8,46264.8
87861.7,46278.1
87855.1,46290.5
87846.3,46301.3
87835.5,46310.1
87823.1,46316.7
87809.8,46320.8
87793.4,46322.4
87527.2,46322.4
87510.9,46320.8
87497.5,46316.7
87485.2,46310.1
87474.4,46301.3
87465.5,46290.5
87458.9,46278.1
87454.8,46264.8
87453.2,46248.4
87453.2,46011.7
87454.8,45995.4
87458.9,45982
87465.5,45969.7
87474.4,45958.9
87485.2,45950
87497.5,45943.4
87510.9,45939.4
87527.2,45937.8
87793.4,45937.8
Z" /> 
<path style="fill:#000000; fill-opacity:1.0; 
stroke:#000000; stroke-width:0; stroke-opacity:1; 
stroke-linecap:round; stroke-linejoin:round;fill-rule:evenodd;"
d="M 88400.3,45939.4
88413.7,45943.4
88426,45950
88436.8,45958.9
88445.7,45969.7
88452.3,45982
88456.3,45995.4
88458,46011.7
88458,46248.4
88456.3,46264.8
88452.3,46278.1
88445.7,46290.5
88436.8,46301.3
88426,46310.1
88413.7,46316.7
88400.3,46320.8
88384,46322.4
88117.8,46322.4
88101.4,46320.8
88088,46316.7
88075.7,46310.1
88064.9,46301.3
88056,46290.5
88049.4,46278.1
88045.4,46264.8
88043.8,46248.4
88043.8,46011.7
88045.4,45995.4
88049.4,45982
88056,45969.7
88064.9,45958.9
88075.7,45950
88088,45943.4
88101.4,45939.4
88117.8,45937.8
88384,45937.8
Z" /> 
<path style="fill:#000000; fill-opacity:1.0; 
stroke:#000000; stroke-width:0; stroke-opacity:1; 
stroke-linecap:round; stroke-linejoin:round;fill-rule:evenodd;"
d="M 79704.2,45837.8
79717.6,45841.8
79730,45848.4
79740.8,45857.3
79749.6,45868.1
79756.2,45880.4
79760.3,45893.8
79761.9,45910.2
79761.9,46146.9
79760.3,46163.2
79756.2,46176.6
79749.6,46188.9
79740.8,46199.7
79730,46208.6
79717.6,46215.2
79704.2,46219.2
79687.9,46220.8
79421.7,46220.8
79405.4,46219.2
79392,46215.2
79379.6,46208.6
79368.8,46199.7
79360,46188.9
79353.4,46176.6
79349.3,46163.2
79347.7,46146.9
79347.7,45910.2
79349.3,45893.8
79353.4,45880.4
79360,45868.1
79368.8,45857.3
79379.6,45848.4
79392,45841.8
79405.4,45837.8
79421.7,45836.2
79687.9,45836.2
Z" /> 
<path style="fill:#000000; fill-opacity:1.0; 
stroke:#000000; stroke-width:0; stroke-opacity:1; 
stroke-linecap:round; stroke-linejoin:round;fill-rule:evenodd;"
d="M 80302.7,45837.8
80316.1,45841.8
80328.4,45848.4
80339.2,45857.3
80348.1,45868.1
80354.6,45880.4
80358.7,45893.8
80360.3,45910.2
80360.3,46146.9
80358.7,46163.2
80354.6,46176.6
80348.1,46188.9
80339.2,46199.7
80328.4,46208.6
80316.1,46215.2
80302.7,46219.2
80286.3,46220.8
80020.1,46220.8
80003.8,46219.2
79990.4,46215.2
79978.1,46208.6
79967.3,46199.7
79958.4,46188.9
79951.8,46176.6
79947.8,46163.2
79946.1,46146.9
79946.1,45910.2
79947.8,45893.8
79951.8,45880.4
79958.4,45868.1
79967.3,45857.3
79978.1,45848.4
79990.4,45841.8
80003.8,45837.8
80020.1,45836.2
80286.3,45836.2
Z" /> 
<path style="fill:#000000; fill-opacity:1.0; 
stroke:#000000; stroke-width:0; stroke-opacity:1; 
stroke-linecap:round; stroke-linejoin:round;fill-rule:evenodd;"
d="M 90682.6,45498.5
90696,45502.6
90708.4,45509.2
90719.2,45518
90728,45528.8
90734.6,45541.2
90738.7,45554.6
90740.3,45570.9
90740.3,45837.1
90738.7,45853.4
90734.6,45866.8
90728,45879.2
90719.2,45890
90708.4,45898.8
90696,45905.4
90682.6,45909.5
90666.3,45911.1
90429.6,45911.1
90413.3,45909.5
90399.9,45905.4
90387.6,45898.8
90376.8,45890
90367.9,45879.2
90361.3,45866.8
90357.2,45853.4
90355.6,45837.1
90355.6,45570.9
90357.2,45554.6
90361.3,45541.2
90367.9,45528.8
90376.8,45518
90387.6,45509.2
90399.9,45502.6
90413.3,45498.5
90429.6,45496.9
90666.3,45496.9
Z" /> 
<path style="fill:#000000; fill-opacity:1.0; 
stroke:#000000; stroke-width:0; stroke-opacity:1; 
stroke-linecap:round; stroke-linejoin:round;fill-rule:evenodd;"
d="M 91302.7,45498.5
91316.1,45502.6
91328.4,45509.2
91339.2,45518
91348.1,45528.8
91354.7,45541.2
91358.8,45554.6
91360.4,45570.9
91360.4,45837.1
91358.8,45853.4
91354.7,45866.8
91348.1,45879.2
91339.2,45890
91328.4,45898.8
91316.1,45905.4
91302.7,45909.5
91286.4,45911.1
91049.7,45911.1
91033.4,45909.5
91020,45905.4
91007.6,45898.8
90996.8,45890
90988,45879.2
90981.4,45866.8
90977.3,45853.4
90975.7,45837.1
90975.7,45570.9
90977.3,45554.6
90981.4,45541.2
90988,45528.8
90996.8,45518
91007.6,45509.2
91020,45502.6
91033.4,45498.5
91049.7,45496.9
91286.4,45496.9
Z" /> 
<path style="fill:#000000; fill-opacity:1.0; 
stroke:#000000; stroke-width:0; stroke-opacity:1; 
stroke-linecap:round; stroke-linejoin:round;fill-rule:evenodd;"
d="M 81832.7,45715.7
81123.3,45715.7
81123.3,45006.3
81832.7,45006.3
Z" /> 
<path style="fill:#000000; fill-opacity:1.0; 
stroke:#000000; stroke-width:0; stroke-opacity:1; 
stroke-linecap:round; stroke-linejoin:round;fill-rule:evenodd;"
d="M 87215.3,45323.2
87228.6,45327.3
87241,45333.9
87251.8,45342.7
87260.7,45353.5
87267.2,45365.9
87271.3,45379.3
87272.9,45395.6
87272.9,45632.3
87271.3,45648.6
87267.2,45662
87260.7,45674.3
87251.8,45685.1
87241,45694
87228.6,45700.6
87215.3,45704.7
87198.9,45706.3
86932.7,45706.3
86916.4,45704.7
86903,45700.6
86890.7,45694
86879.9,45685.1
86871,45674.3
86864.4,45662
86860.3,45648.6
86858.7,45632.3
86858.7,45395.6
86860.3,45379.3
86864.4,45365.9
86871,45353.5
86879.9,45342.7
86890.7,45333.9
86903,45327.3
86916.4,45323.2
86932.7,45321.6
87198.9,45321.6
Z" /> 
<path style="fill:#000000; fill-opacity:1.0; 
stroke:#000000; stroke-width:0; stroke-opacity:1; 
stroke-linecap:round; stroke-linejoin:round;fill-rule:evenodd;"
d="M 87809.8,45319.3
87823.1,45323.3
87835.5,45329.9
87846.3,45338.8
87855.1,45349.6
87861.7,45361.9
87865.8,45375.3
87867.4,45391.6
87867.4,45628.4
87865.8,45644.7
87861.7,45658.1
87855.1,45670.4
87846.3,45681.2
87835.5,45690.1
87823.1,45696.7
87809.8,45700.7
87793.4,45702.3
87527.2,45702.3
87510.9,45700.7
87497.5,45696.7
87485.2,45690.1
87474.4,45681.2
87465.5,45670.4
87458.9,45658.1
87454.8,45644.7
87453.2,45628.4
87453.2,45391.6
87454.8,45375.3
87458.9,45361.9
87465.5,45349.6
87474.4,45338.8
87485.2,45329.9
87497.5,45323.3
87510.9,45319.3
87527.2,45317.7
87793.4,45317.7
Z" /> 
<path style="fill:#000000; fill-opacity:1.0; 
stroke:#000000; stroke-width:0; stroke-opacity:1; 
stroke-linecap:round; stroke-linejoin:round;fill-rule:evenodd;"
d="M 88400.3,45319.3
88413.7,45323.3
88426,45329.9
88436.8,45338.8
88445.7,45349.6
88452.3,45361.9
88456.3,45375.3
88458,45391.6
88458,45628.4
88456.3,45644.7
88452.3,45658.1
88445.7,45670.4
88436.8,45681.2
88426,45690.1
88413.7,45696.7
88400.3,45700.7
88384,45702.3
88117.8,45702.3
88101.4,45700.7
88088,45696.7
88075.7,45690.1
88064.9,45681.2
88056,45670.4
88049.4,45658.1
88045.4,45644.7
88043.8,45628.4
88043.8,45391.6
88045.4,45375.3
88049.4,45361.9
88056,45349.6
88064.9,45338.8
88075.7,45329.9
88088,45323.3
88101.4,45319.3
88117.8,45317.7
88384,45317.7
Z" /> 
<path style="fill:#000000; fill-opacity:1.0; 
stroke:#000000; stroke-width:0; stroke-opacity:1; 
stroke-linecap:round; stroke-linejoin:round;fill-rule:evenodd;"
d="M 102497,45690.5
99701.2,45690.5
99701.2,44863
102497,44863
Z" /> 
<path style="fill:#000000; fill-opacity:1.0; 
stroke:#000000; stroke-width:0; stroke-opacity:1; 
stroke-linecap:round; stroke-linejoin:round;fill-rule:evenodd;"
d="M 84556.4,45248.1
84569.7,45252.1
84582.1,45258.7
84592.9,45267.6
84601.8,45278.4
84608.3,45290.7
84612.4,45304.1
84614,45320.4
84614,45557.1
84612.4,45573.5
84608.3,45586.9
84601.8,45599.2
84592.9,45610
84582.1,45618.9
84569.7,45625.5
84556.4,45629.5
84540,45631.1
84273.8,45631.1
84257.5,45629.5
84244.1,45625.5
84231.8,45618.9
84221,45610
84212.1,45599.2
84205.5,45586.9
84201.4,45573.5
84199.8,45557.1
84199.8,45320.4
84201.4,45304.1
84205.5,45290.7
84212.1,45278.4
84221,45267.6
84231.8,45258.7
84244.1,45252.1
84257.5,45248.1
84273.8,45246.5
84540,45246.5
Z" /> 
<path style="fill:#000000; fill-opacity:1.0; 
stroke:#000000; stroke-width:0; stroke-opacity:1; 
stroke-linecap:round; stroke-linejoin:round;fill-rule:evenodd;"
d="M 83961.4,45243.1
83974.7,45247.1
83987.1,45253.7
83997.9,45262.6
84006.8,45273.4
84013.3,45285.7
84017.4,45299.1
84019,45315.4
84019,45552.1
84017.4,45568.5
84013.3,45581.9
84006.8,45594.2
83997.9,45605
83987.1,45613.9
83974.7,45620.5
83961.4,45624.5
83945,45626.1
83678.8,45626.1
83662.5,45624.5
83649.1,45620.5
83636.8,45613.9
83626,45605
83617.1,45594.2
83610.5,45581.9
83606.4,45568.5
83604.8,45552.1
83604.8,45315.4
83606.4,45299.1
83610.5,45285.7
83617.1,45273.4
83626,45262.6
83636.8,45253.7
83649.1,45247.1
83662.5,45243.1
83678.8,45241.5
83945,45241.5
Z" /> 
<path style="fill:#000000; fill-opacity:1.0; 
stroke:#000000; stroke-width:0; stroke-opacity:1; 
stroke-linecap:round; stroke-linejoin:round;fill-rule:evenodd;"
d="M 83376.7,45242.5
83390.1,45246.6
83402.4,45253.2
83413.2,45262
83422.1,45272.8
83428.7,45285.2
83432.7,45298.5
83434.3,45314.9
83434.3,45551.6
83432.7,45567.9
83428.7,45581.3
83422.1,45593.6
83413.2,45604.4
83402.4,45613.3
83390.1,45619.9
83376.7,45623.9
83360.4,45625.6
83094.1,45625.6
83077.8,45623.9
83064.4,45619.9
83052.1,45613.3
83041.3,45604.4
83032.4,45593.6
83025.8,45581.3
83021.8,45567.9
83020.2,45551.6
83020.2,45314.9
83021.8,45298.5
83025.8,45285.2
83032.4,45272.8
83041.3,45262
83052.1,45253.2
83064.4,45246.6
83077.8,45242.5
83094.1,45240.9
83360.4,45240.9
Z" /> 
<path style="fill:#000000; fill-opacity:1.0; 
stroke:#000000; stroke-width:0; stroke-opacity:1; 
stroke-linecap:round; stroke-linejoin:round;fill-rule:evenodd;"
d="M 79704.2,45217.7
79717.6,45221.8
79730,45228.4
79740.8,45237.2
79749.6,45248
79756.2,45260.4
79760.3,45273.7
79761.9,45290.1
79761.9,45526.8
79760.3,45543.1
79756.2,45556.5
79749.6,45568.8
79740.8,45579.6
79730,45588.5
79717.6,45595.1
79704.2,45599.1
79687.9,45600.7
79421.7,45600.7
79405.4,45599.1
79392,45595.1
79379.6,45588.5
79368.8,45579.6
79360,45568.8
79353.4,45556.5
79349.3,45543.1
79347.7,45526.8
79347.7,45290.1
79349.3,45273.7
79353.4,45260.4
79360,45248
79368.8,45237.2
79379.6,45228.4
79392,45221.8
79405.4,45217.7
79421.7,45216.1
79687.9,45216.1
Z" /> 
<path style="fill:#000000; fill-opacity:1.0; 
stroke:#000000; stroke-width:0; stroke-opacity:1; 
stroke-linecap:round; stroke-linejoin:round;fill-rule:evenodd;"
d="M 80302.7,45217.7
80316.1,45221.8
80328.4,45228.4
80339.2,45237.2
80348.1,45248
80354.6,45260.4
80358.7,45273.7
80360.3,45290.1
80360.3,45526.8
80358.7,45543.1
80354.6,45556.5
80348.1,45568.8
80339.2,45579.6
80328.4,45588.5
80316.1,45595.1
80302.7,45599.1
80286.3,45600.7
80020.1,45600.7
80003.8,45599.1
79990.4,45595.1
79978.1,45588.5
79967.3,45579.6
79958.4,45568.8
79951.8,45556.5
79947.8,45543.1
79946.1,45526.8
79946.1,45290.1
79947.8,45273.7
79951.8,45260.4
79958.4,45248
79967.3,45237.2
79978.1,45228.4
79990.4,45221.8
80003.8,45217.7
80020.1,45216.1
80286.3,45216.1
Z" /> 
<path style="fill:#000000; fill-opacity:1.0; 
stroke:#000000; stroke-width:0; stroke-opacity:1; 
stroke-linecap:round; stroke-linejoin:round;fill-rule:evenodd;"
d="M 87188.7,44718.5
87202.1,44722.6
87214.4,44729.2
87225.2,44738
87234.1,44748.8
87240.7,44761.2
87244.8,44774.6
87246.4,44790.9
87246.4,45057.1
87244.8,45073.4
87240.7,45086.8
87234.1,45099.2
87225.2,45110
87214.4,45118.8
87202.1,45125.4
87188.7,45129.5
87172.4,45131.1
86935.7,45131.1
86919.4,45129.5
86906,45125.4
86893.6,45118.8
86882.8,45110
86874,45099.2
86867.4,45086.8
86863.3,45073.4
86861.7,45057.1
86861.7,44790.9
86863.3,44774.6
86867.4,44761.2
86874,44748.8
86882.8,44738
86893.6,44729.2
86906,44722.6
86919.4,44718.5
86935.7,44716.9
87172.4,44716.9
Z" /> 
<path style="fill:#000000; fill-opacity:1.0; 
stroke:#000000; stroke-width:0; stroke-opacity:1; 
stroke-linecap:round; stroke-linejoin:round;fill-rule:evenodd;"
d="M 86568.6,44718.5
86582,44722.6
86594.4,44729.2
86605.2,44738
86614,44748.8
86620.6,44761.2
86624.7,44774.6
86626.3,44790.9
86626.3,45057.1
86624.7,45073.4
86620.6,45086.8
86614,45099.2
86605.2,45110
86594.4,45118.8
86582,45125.4
86568.6,45129.5
86552.3,45131.1
86315.6,45131.1
86299.3,45129.5
86285.9,45125.4
86273.6,45118.8
86262.8,45110
86253.9,45099.2
86247.3,45086.8
86243.2,45073.4
86241.6,45057.1
86241.6,44790.9
86243.2,44774.6
86247.3,44761.2
86253.9,44748.8
86262.8,44738
86273.6,44729.2
86285.9,44722.6
86299.3,44718.5
86315.6,44716.9
86552.3,44716.9
Z" /> 
<path style="fill:#000000; fill-opacity:1.0; 
stroke:#000000; stroke-width:0; stroke-opacity:1; 
stroke-linecap:round; stroke-linejoin:round;fill-rule:evenodd;"
d="M 87767.6,44714.9
87781,44719
87793.3,44725.6
87804.1,44734.5
87813,44745.3
87819.6,44757.6
87823.6,44771
87825.2,44787.3
87825.2,45053.5
87823.6,45069.9
87819.6,45083.2
87813,45095.6
87804.1,45106.4
87793.3,45115.2
87781,45121.8
87767.6,45125.9
87751.3,45127.5
87514.6,45127.5
87498.2,45125.9
87484.9,45121.8
87472.5,45115.2
87461.7,45106.4
87452.9,45095.6
87446.3,45083.2
87442.2,45069.9
87440.6,45053.5
87440.6,44787.3
87442.2,44771
87446.3,44757.6
87452.9,44745.3
87461.7,44734.5
87472.5,44725.6
87484.9,44719
87498.2,44714.9
87514.6,44713.3
87751.3,44713.3
Z" /> 
<path style="fill:#000000; fill-opacity:1.0; 
stroke:#000000; stroke-width:0; stroke-opacity:1; 
stroke-linecap:round; stroke-linejoin:round;fill-rule:evenodd;"
d="M 88387.7,44714.9
88401.1,44719
88413.4,44725.6
88424.2,44734.5
88433.1,44745.3
88439.7,44757.6
88443.7,44771
88445.3,44787.3
88445.3,45053.5
88443.7,45069.9
88439.7,45083.2
88433.1,45095.6
88424.2,45106.4
88413.4,45115.2
88401.1,45121.8
88387.7,45125.9
88371.4,45127.5
88134.6,45127.5
88118.3,45125.9
88104.9,45121.8
88092.6,45115.2
88081.8,45106.4
88072.9,45095.6
88066.3,45083.2
88062.3,45069.9
88060.7,45053.5
88060.7,44787.3
88062.3,44771
88066.3,44757.6
88072.9,44745.3
88081.8,44734.5
88092.6,44725.6
88104.9,44719
88118.3,44714.9
88134.6,44713.3
88371.4,44713.3
Z" /> 
<path style="fill:#000000; fill-opacity:1.0; 
stroke:#000000; stroke-width:0; stroke-opacity:1; 
stroke-linecap:round; stroke-linejoin:round;fill-rule:evenodd;"
d="M 104831,45103.7
103885,45103.7
103885,44079.3
104831,44079.3
Z" /> 
<path style="fill:#000000; fill-opacity:1.0; 
stroke:#000000; stroke-width:0; stroke-opacity:1; 
stroke-linecap:round; stroke-linejoin:round;fill-rule:evenodd;"
d="M 84556.4,44628
84569.7,44632.1
84582.1,44638.7
84592.9,44647.5
84601.8,44658.3
84608.3,44670.7
84612.4,44684
84614,44700.4
84614,44937.1
84612.4,44953.4
84608.3,44966.8
84601.8,44979.1
84592.9,44989.9
84582.1,44998.8
84569.7,45005.4
84556.4,45009.4
84540,45011
84273.8,45011
84257.5,45009.4
84244.1,45005.4
84231.8,44998.8
84221,44989.9
84212.1,44979.1
84205.5,44966.8
84201.4,44953.4
84199.8,44937.1
84199.8,44700.4
84201.4,44684
84205.5,44670.7
84212.1,44658.3
84221,44647.5
84231.8,44638.7
84244.1,44632.1
84257.5,44628
84273.8,44626.4
84540,44626.4
Z" /> 
<path style="fill:#000000; fill-opacity:1.0; 
stroke:#000000; stroke-width:0; stroke-opacity:1; 
stroke-linecap:round; stroke-linejoin:round;fill-rule:evenodd;"
d="M 83961.4,44623
83974.7,44627.1
83987.1,44633.7
83997.9,44642.5
84006.8,44653.3
84013.3,44665.7
84017.4,44679
84019,44695.4
84019,44932.1
84017.4,44948.4
84013.3,44961.8
84006.8,44974.1
83997.9,44984.9
83987.1,44993.8
83974.7,45000.4
83961.4,45004.4
83945,45006
83678.8,45006
83662.5,45004.4
83649.1,45000.4
83636.8,44993.8
83626,44984.9
83617.1,44974.1
83610.5,44961.8
83606.4,44948.4
83604.8,44932.1
83604.8,44695.4
83606.4,44679
83610.5,44665.7
83617.1,44653.3
83626,44642.5
83636.8,44633.7
83649.1,44627.1
83662.5,44623
83678.8,44621.4
83945,44621.4
Z" /> 
<path style="fill:#000000; fill-opacity:1.0; 
stroke:#000000; stroke-width:0; stroke-opacity:1; 
stroke-linecap:round; stroke-linejoin:round;fill-rule:evenodd;"
d="M 83376.7,44622.4
83390.1,44626.5
83402.4,44633.1
83413.2,44642
83422.1,44652.8
83428.7,44665.1
83432.7,44678.5
83434.3,44694.8
83434.3,44931.5
83432.7,44947.8
83428.7,44961.2
83422.1,44973.5
83413.2,44984.3
83402.4,44993.2
83390.1,44999.8
83376.7,45003.9
83360.4,45005.5
83094.1,45005.5
83077.8,45003.9
83064.4,44999.8
83052.1,44993.2
83041.3,44984.3
83032.4,44973.5
83025.8,44961.2
83021.8,44947.8
83020.2,44931.5
83020.2,44694.8
83021.8,44678.5
83025.8,44665.1
83032.4,44652.8
83041.3,44642
83052.1,44633.1
83064.4,44626.5
83077.8,44622.4
83094.1,44620.8
83360.4,44620.8
Z" /> 
<path style="fill:#000000; fill-opacity:1.0; 
stroke:#000000; stroke-width:0; stroke-opacity:1; 
stroke-linecap:round; stroke-linejoin:round;fill-rule:evenodd;"
d="M 88391.7,44116.9
88405.1,44121
88417.4,44127.6
88428.2,44136.5
88437.1,44147.3
88443.7,44159.6
88447.7,44173
88449.3,44189.3
88449.3,44455.5
88447.7,44471.9
88443.7,44485.2
88437.1,44497.6
88428.2,44508.4
88417.4,44517.2
88405.1,44523.8
88391.7,44527.9
88375.4,44529.5
88138.6,44529.5
88122.3,44527.9
88108.9,44523.8
88096.6,44517.2
88085.8,44508.4
88076.9,44497.6
88070.3,44485.2
88066.3,44471.9
88064.7,44455.5
88064.7,44189.3
88066.3,44173
88070.3,44159.6
88076.9,44147.3
88085.8,44136.5
88096.6,44127.6
88108.9,44121
88122.3,44116.9
88138.6,44115.3
88375.4,44115.3
Z" /> 
<path style="fill:#000000; fill-opacity:1.0; 
stroke:#000000; stroke-width:0; stroke-opacity:1; 
stroke-linecap:round; stroke-linejoin:round;fill-rule:evenodd;"
d="M 87771.6,44116.9
87785,44121
87797.3,44127.6
87808.1,44136.5
87817,44147.3
87823.6,44159.6
87827.6,44173
87829.2,44189.3
87829.2,44455.5
87827.6,44471.9
87823.6,44485.2
87817,44497.6
87808.1,44508.4
87797.3,44517.2
87785,44523.8
87771.6,44527.9
87755.3,44529.5
87518.6,44529.5
87502.2,44527.9
87488.9,44523.8
87476.5,44517.2
87465.7,44508.4
87456.9,44497.6
87450.3,44485.2
87446.2,44471.9
87444.6,44455.5
87444.6,44189.3
87446.2,44173
87450.3,44159.6
87456.9,44147.3
87465.7,44136.5
87476.5,44127.6
87488.9,44121
87502.2,44116.9
87518.6,44115.3
87755.3,44115.3
Z" /> 
<path style="fill:#000000; fill-opacity:1.0; 
stroke:#000000; stroke-width:0; stroke-opacity:1; 
stroke-linecap:round; stroke-linejoin:round;fill-rule:evenodd;"
d="M 86584.6,44112.5
86598,44116.6
86610.4,44123.2
86621.2,44132
86630,44142.8
86636.6,44155.2
86640.7,44168.6
86642.3,44184.9
86642.3,44451.1
86640.7,44467.4
86636.6,44480.8
86630,44493.2
86621.2,44504
86610.4,44512.8
86598,44519.4
86584.6,44523.5
86568.3,44525.1
86331.6,44525.1
86315.3,44523.5
86301.9,44519.4
86289.6,44512.8
86278.8,44504
86269.9,44493.2
86263.3,44480.8
86259.2,44467.4
86257.6,44451.1
86257.6,44184.9
86259.2,44168.6
86263.3,44155.2
86269.9,44142.8
86278.8,44132
86289.6,44123.2
86301.9,44116.6
86315.3,44112.5
86331.6,44110.9
86568.3,44110.9
Z" /> 
<path style="fill:#000000; fill-opacity:1.0; 
stroke:#000000; stroke-width:0; stroke-opacity:1; 
stroke-linecap:round; stroke-linejoin:round;fill-rule:evenodd;"
d="M 87204.7,44112.5
87218.1,44116.6
87230.4,44123.2
87241.2,44132
87250.1,44142.8
87256.7,44155.2
87260.8,44168.6
87262.4,44184.9
87262.4,44451.1
87260.8,44467.4
87256.7,44480.8
87250.1,44493.2
87241.2,44504
87230.4,44512.8
87218.1,44519.4
87204.7,44523.5
87188.4,44525.1
86951.7,44525.1
86935.4,44523.5
86922,44519.4
86909.6,44512.8
86898.8,44504
86890,44493.2
86883.4,44480.8
86879.3,44467.4
86877.7,44451.1
86877.7,44184.9
86879.3,44168.6
86883.4,44155.2
86890,44142.8
86898.8,44132
86909.6,44123.2
86922,44116.6
86935.4,44112.5
86951.7,44110.9
87188.4,44110.9
Z" /> 
<path style="fill:#000000; fill-opacity:1.0; 
stroke:#000000; stroke-width:0; stroke-opacity:1; 
stroke-linecap:round; stroke-linejoin:round;fill-rule:evenodd;"
d="M 83931.6,44033.3
83944.9,44037.4
83957.3,44044
83968.1,44052.8
83976.9,44063.6
83983.5,44076
83987.6,44089.3
83989.2,44105.7
83989.2,44371.9
83987.6,44388.2
83983.5,44401.6
83976.9,44413.9
83968.1,44424.8
83957.3,44433.6
83944.9,44440.2
83931.6,44444.3
83915.2,44445.9
83678.5,44445.9
83662.2,44444.3
83648.8,44440.2
83636.5,44433.6
83625.7,44424.8
83616.8,44413.9
83610.2,44401.6
83606.2,44388.2
83604.6,44371.9
83604.6,44105.7
83606.2,44089.3
83610.2,44076
83616.8,44063.6
83625.7,44052.8
83636.5,44044
83648.8,44037.4
83662.2,44033.3
83678.5,44031.7
83915.2,44031.7
Z" /> 
<path style="fill:#000000; fill-opacity:1.0; 
stroke:#000000; stroke-width:0; stroke-opacity:1; 
stroke-linecap:round; stroke-linejoin:round;fill-rule:evenodd;"
d="M 84551.6,44033.3
84565,44037.4
84577.4,44044
84588.2,44052.8
84597,44063.6
84603.6,44076
84607.7,44089.3
84609.3,44105.7
84609.3,44371.9
84607.7,44388.2
84603.6,44401.6
84597,44413.9
84588.2,44424.8
84577.4,44433.6
84565,44440.2
84551.6,44444.3
84535.3,44445.9
84298.6,44445.9
84282.3,44444.3
84268.9,44440.2
84256.6,44433.6
84245.8,44424.8
84236.9,44413.9
84230.3,44401.6
84226.2,44388.2
84224.6,44371.9
84224.6,44105.7
84226.2,44089.3
84230.3,44076
84236.9,44063.6
84245.8,44052.8
84256.6,44044
84268.9,44037.4
84282.3,44033.3
84298.6,44031.7
84535.3,44031.7
Z" /> 
<path style="fill:#000000; fill-opacity:1.0; 
stroke:#000000; stroke-width:0; stroke-opacity:1; 
stroke-linecap:round; stroke-linejoin:round;fill-rule:evenodd;"
d="M 81832.7,44115.7
81123.3,44115.7
81123.3,43406.3
81832.7,43406.3
Z" /> 
<path style="fill:#000000; fill-opacity:1.0; 
stroke:#000000; stroke-width:0; stroke-opacity:1; 
stroke-linecap:round; stroke-linejoin:round;fill-rule:evenodd;"
d="M 104825,43896.7
103879,43896.7
103879,42872.3
104825,42872.3
Z" /> 
<path style="fill:#000000; fill-opacity:1.0; 
stroke:#000000; stroke-width:0; stroke-opacity:1; 
stroke-linecap:round; stroke-linejoin:round;fill-rule:evenodd;"
d="M 102497,43722
99701.2,43722
99701.2,42894.5
102497,42894.5
Z" /> 
<path style="fill:#000000; fill-opacity:1.0; 
stroke:#000000; stroke-width:0; stroke-opacity:1; 
stroke-linecap:round; stroke-linejoin:round;fill-rule:evenodd;"
d="M 81522.7,42408.2
81581.5,42419.9
81646,42446.6
81704.1,42485.5
81753.5,42534.9
81792.4,42593
81819.1,42657.5
81832.7,42726.1
81832.7,42795.9
81819.1,42864.5
81792.4,42929
81753.5,42987.1
81704.1,43036.5
81646,43075.4
81581.5,43102.1
81522.7,43113.8
81512.9,43115.7
81443.1,43115.7
81433.3,43113.8
81374.5,43102.1
81310,43075.4
81251.9,43036.5
81202.5,42987.1
81163.6,42929
81136.9,42864.5
81123.3,42795.9
81123.3,42726.1
81136.9,42657.5
81163.6,42593
81202.5,42534.9
81251.9,42485.5
81310,42446.6
81374.5,42419.9
81433.3,42408.2
81443.1,42406.3
81512.9,42406.3
Z" /> 
<path style="fill:#000000; fill-opacity:1.0; 
stroke:#000000; stroke-width:0; stroke-opacity:1; 
stroke-linecap:round; stroke-linejoin:round;fill-rule:evenodd;"
d="M 104825,42203.7
103879,42203.7
103879,41179.3
104825,41179.3
Z" /> 
<path style="fill:#000000; fill-opacity:1.0; 
stroke:#000000; stroke-width:0; stroke-opacity:1; 
stroke-linecap:round; stroke-linejoin:round;fill-rule:evenodd;"
d="M 81522.7,41408.2
81581.5,41419.9
81646,41446.6
81704.1,41485.5
81753.5,41534.9
81792.4,41593
81819.1,41657.5
81832.7,41726.1
81832.7,41795.9
81819.1,41864.5
81792.4,41929
81753.5,41987.1
81704.1,42036.5
81646,42075.4
81581.5,42102.1
81522.7,42113.8
81512.9,42115.7
81443.1,42115.7
81433.3,42113.8
81374.5,42102.1
81310,42075.4
81251.9,42036.5
81202.5,41987.1
81163.6,41929
81136.9,41864.5
81123.3,41795.9
81123.3,41726.1
81136.9,41657.5
81163.6,41593
81202.5,41534.9
81251.9,41485.5
81310,41446.6
81374.5,41419.9
81433.3,41408.2
81443.1,41406.3
81512.9,41406.3
Z" /> 
<path style="fill:#000000; fill-opacity:1.0; 
stroke:#000000; stroke-width:0; stroke-opacity:1; 
stroke-linecap:round; stroke-linejoin:round;fill-rule:evenodd;"
d="M 84276.4,38228
84495,38318.6
84495,38318.6
84691.7,38450
84859,38617.3
84859.1,38617.3
84990.5,38814.1
85081.1,39032.7
85127.2,39264.7
85127.2,39501.4
85081.1,39733.4
84990.5,39952
84990.5,39952
84859,40148.8
84691.7,40316.1
84592.7,40382.2
84495,40447.5
84276.4,40538.1
84044.3,40584.2
83807.7,40584.2
83575.7,40538.1
83357.1,40447.5
83259.4,40382.2
83160.3,40316.1
82993,40148.8
82861.6,39952
82861.6,39952
82771,39733.4
82724.9,39501.4
82724.9,39264.7
82771,39032.7
82861.6,38814.1
82993,38617.3
82993,38617.3
83160.3,38450
83357.1,38318.6
83357.1,38318.6
83575.7,38228
83807.7,38181.9
84044.3,38181.9
Z" /> 
<path style="fill:#000000; fill-opacity:1.0; 
stroke:#000000; stroke-width:0; stroke-opacity:1; 
stroke-linecap:round; stroke-linejoin:round;fill-rule:evenodd;"
d="M 84383.1,37336.2
82768.2,37336.2
82768.2,36114.9
84383.1,36114.9
Z" /> 
<path style="fill:#000000; fill-opacity:1.0; 
stroke:#000000; stroke-width:0; stroke-opacity:1; 
stroke-linecap:round; stroke-linejoin:round;fill-rule:evenodd;"
d="M 102874,36310.9
102046,36310.9
102046,35680.2
102874,35680.2
Z" /> 
<path style="fill:#000000; fill-opacity:1.0; 
stroke:#000000; stroke-width:0; stroke-opacity:1; 
stroke-linecap:round; stroke-linejoin:round;fill-rule:evenodd;"
d="M 103850,36253.9
103219,36253.9
103219,35426.4
103850,35426.4
Z" /> 
<path style="fill:#000000; fill-opacity:1.0; 
stroke:#000000; stroke-width:0; stroke-opacity:1; 
stroke-linecap:round; stroke-linejoin:round;fill-rule:evenodd;"
d="M 105661,36253.9
105030,36253.9
105030,35426.4
105661,35426.4
Z" /> 
<path style="fill:#000000; fill-opacity:1.0; 
stroke:#000000; stroke-width:0; stroke-opacity:1; 
stroke-linecap:round; stroke-linejoin:round;fill-rule:evenodd;"
d="M 104755,36253.9
104125,36253.9
104125,35426.4
104755,35426.4
Z" /> 
<path style="fill:#000000; fill-opacity:1.0; 
stroke:#000000; stroke-width:0; stroke-opacity:1; 
stroke-linecap:round; stroke-linejoin:round;fill-rule:evenodd;"
d="M 100393,35858.1
99565.9,35858.1
99565.9,34321.9
100393,34321.9
Z" /> 
<path style="fill:#000000; fill-opacity:1.0; 
stroke:#000000; stroke-width:0; stroke-opacity:1; 
stroke-linecap:round; stroke-linejoin:round;fill-rule:evenodd;"
d="M 102874,35405.4
102046,35405.4
102046,34774.6
102874,34774.6
Z" /> 
<path style="fill:#000000; fill-opacity:1.0; 
stroke:#000000; stroke-width:0; stroke-opacity:1; 
stroke-linecap:round; stroke-linejoin:round;fill-rule:evenodd;"
d="M 99277.8,34970.5
99291.1,34974.6
99303.5,34981.2
99314.3,34990
99323.1,35000.8
99329.7,35013.2
99333.8,35026.6
99335.4,35042.9
99335.4,35309.1
99333.8,35325.4
99329.7,35338.8
99323.1,35351.2
99314.3,35362
99303.5,35370.8
99291.1,35377.4
99277.8,35381.5
99261.4,35383.1
99024.7,35383.1
99008.4,35381.5
98995,35377.4
98982.7,35370.8
98971.9,35362
98963,35351.2
98956.4,35338.8
98952.4,35325.4
98950.8,35309.1
98950.8,35042.9
98952.4,35026.6
98956.4,35013.2
98963,35000.8
98971.9,34990
98982.7,34981.2
98995,34974.6
99008.4,34970.5
99024.7,34968.9
99261.4,34968.9
Z" /> 
<path style="fill:#000000; fill-opacity:1.0; 
stroke:#000000; stroke-width:0; stroke-opacity:1; 
stroke-linecap:round; stroke-linejoin:round;fill-rule:evenodd;"
d="M 98657.7,34970.5
98671.1,34974.6
98683.4,34981.2
98694.2,34990
98703.1,35000.8
98709.7,35013.2
98713.7,35026.6
98715.3,35042.9
98715.3,35309.1
98713.7,35325.4
98709.7,35338.8
98703.1,35351.2
98694.2,35362
98683.4,35370.8
98671.1,35377.4
98657.7,35381.5
98641.4,35383.1
98404.6,35383.1
98388.3,35381.5
98374.9,35377.4
98362.6,35370.8
98351.8,35362
98342.9,35351.2
98336.3,35338.8
98332.3,35325.4
98330.7,35309.1
98330.7,35042.9
98332.3,35026.6
98336.3,35013.2
98342.9,35000.8
98351.8,34990
98362.6,34981.2
98374.9,34974.6
98388.3,34970.5
98404.6,34968.9
98641.4,34968.9
Z" /> 
<path style="fill:#000000; fill-opacity:1.0; 
stroke:#000000; stroke-width:0; stroke-opacity:1; 
stroke-linecap:round; stroke-linejoin:round;fill-rule:evenodd;"
d="M 98057.4,34995.3
98070.8,34999.4
98083.2,35006
98094,35014.8
98102.8,35025.6
98109.4,35038
98113.5,35051.4
98115.1,35067.7
98115.1,35304.4
98113.5,35320.7
98109.4,35334.1
98102.8,35346.4
98094,35357.2
98083.2,35366.1
98070.8,35372.7
98057.4,35376.8
98041.1,35378.4
97774.9,35378.4
97758.6,35376.8
97745.2,35372.7
97732.8,35366.1
97722,35357.2
97713.2,35346.4
97706.6,35334.1
97702.5,35320.7
97700.9,35304.4
97700.9,35067.7
97702.5,35051.4
97706.6,35038
97713.2,35025.6
97722,35014.8
97732.8,35006
97745.2,34999.4
97758.6,34995.3
97774.9,34993.7
98041.1,34993.7
Z" /> 
<path style="fill:#000000; fill-opacity:1.0; 
stroke:#000000; stroke-width:0; stroke-opacity:1; 
stroke-linecap:round; stroke-linejoin:round;fill-rule:evenodd;"
d="M 98657.6,34365.5
98671,34369.6
98683.4,34376.2
98694.2,34385
98703,34395.8
98709.6,34408.2
98713.7,34421.6
98715.3,34437.9
98715.3,34704.1
98713.7,34720.4
98709.6,34733.8
98703,34746.2
98694.2,34757
98683.4,34765.8
98671,34772.4
98657.6,34776.5
98641.3,34778.1
98404.6,34778.1
98388.3,34776.5
98374.9,34772.4
98362.6,34765.8
98351.8,34757
98342.9,34746.2
98336.3,34733.8
98332.2,34720.4
98330.6,34704.1
98330.6,34437.9
98332.2,34421.6
98336.3,34408.2
98342.9,34395.8
98351.8,34385
98362.6,34376.2
98374.9,34369.6
98388.3,34365.5
98404.6,34363.9
98641.3,34363.9
Z" /> 
<path style="fill:#000000; fill-opacity:1.0; 
stroke:#000000; stroke-width:0; stroke-opacity:1; 
stroke-linecap:round; stroke-linejoin:round;fill-rule:evenodd;"
d="M 99277.7,34365.5
99291.1,34369.6
99303.4,34376.2
99314.2,34385
99323.1,34395.8
99329.7,34408.2
99333.8,34421.6
99335.4,34437.9
99335.4,34704.1
99333.8,34720.4
99329.7,34733.8
99323.1,34746.2
99314.2,34757
99303.4,34765.8
99291.1,34772.4
99277.7,34776.5
99261.4,34778.1
99024.7,34778.1
99008.4,34776.5
98995,34772.4
98982.6,34765.8
98971.8,34757
98963,34746.2
98956.4,34733.8
98952.3,34720.4
98950.7,34704.1
98950.7,34437.9
98952.3,34421.6
98956.4,34408.2
98963,34395.8
98971.8,34385
98982.6,34376.2
98995,34369.6
99008.4,34365.5
99024.7,34363.9
99261.4,34363.9
Z" /> 
<path style="fill:#000000; fill-opacity:1.0; 
stroke:#000000; stroke-width:0; stroke-opacity:1; 
stroke-linecap:round; stroke-linejoin:round;fill-rule:evenodd;"
d="M 98057.4,34375.2
98070.8,34379.3
98083.2,34385.9
98094,34394.8
98102.8,34405.6
98109.4,34417.9
98113.5,34431.3
98115.1,34447.6
98115.1,34684.3
98113.5,34700.6
98109.4,34714
98102.8,34726.4
98094,34737.2
98083.2,34746
98070.8,34752.6
98057.4,34756.7
98041.1,34758.3
97774.9,34758.3
97758.6,34756.7
97745.2,34752.6
97732.8,34746
97722,34737.2
97713.2,34726.4
97706.6,34714
97702.5,34700.6
97700.9,34684.3
97700.9,34447.6
97702.5,34431.3
97706.6,34417.9
97713.2,34405.6
97722,34394.8
97732.8,34385.9
97745.2,34379.3
97758.6,34375.2
97774.9,34373.6
98041.1,34373.6
Z" /> 
<path style="fill:#000000; fill-opacity:1.0; 
stroke:#000000; stroke-width:0; stroke-opacity:1; 
stroke-linecap:round; stroke-linejoin:round;fill-rule:evenodd;"
d="M 102874,34499.8
102046,34499.8
102046,33869.1
102874,33869.1
Z" /> 
<path style="fill:#000000; fill-opacity:1.0; 
stroke:#000000; stroke-width:0; stroke-opacity:1; 
stroke-linecap:round; stroke-linejoin:round;fill-rule:evenodd;"
d="M 84973.7,34226
82177.6,34226
82177.6,33398.4
84973.7,33398.4
Z" /> 
<path style="fill:#000000; fill-opacity:1.0; 
stroke:#000000; stroke-width:0; stroke-opacity:1; 
stroke-linecap:round; stroke-linejoin:round;fill-rule:evenodd;"
d="M 105208,33773.6
103672,33773.6
103672,32946.1
105208,32946.1
Z" /> 
<path style="fill:#000000; fill-opacity:1.0; 
stroke:#000000; stroke-width:0; stroke-opacity:1; 
stroke-linecap:round; stroke-linejoin:round;fill-rule:evenodd;"
d="M 100391,33058.5
100404,33062.6
100416,33069.2
100427,33078
100436,33088.8
100443,33101.2
100447,33114.6
100448,33130.9
100448,33397.1
100447,33413.4
100443,33426.8
100436,33439.2
100427,33450
100416,33458.8
100404,33465.4
100391,33469.5
100374,33471.1
100138,33471.1
100121,33469.5
100108,33465.4
100096,33458.8
100085,33450
100076,33439.2
100069,33426.8
100065,33413.4
100064,33397.1
100064,33130.9
100065,33114.6
100069,33101.2
100076,33088.8
100085,33078
100096,33069.2
100108,33062.6
100121,33058.5
100138,33056.9
100374,33056.9
Z" /> 
<path style="fill:#000000; fill-opacity:1.0; 
stroke:#000000; stroke-width:0; stroke-opacity:1; 
stroke-linecap:round; stroke-linejoin:round;fill-rule:evenodd;"
d="M 101011,33058.5
101024,33062.6
101036,33069.2
101047,33078
101056,33088.8
101063,33101.2
101067,33114.6
101068,33130.9
101068,33397.1
101067,33413.4
101063,33426.8
101056,33439.2
101047,33450
101036,33458.8
101024,33465.4
101011,33469.5
100994,33471.1
100758,33471.1
100741,33469.5
100728,33465.4
100716,33458.8
100705,33450
100696,33439.2
100689,33426.8
100685,33413.4
100684,33397.1
100684,33130.9
100685,33114.6
100689,33101.2
100696,33088.8
100705,33078
100716,33069.2
100728,33062.6
100741,33058.5
100758,33056.9
100994,33056.9
Z" /> 
<path style="fill:#000000; fill-opacity:1.0; 
stroke:#000000; stroke-width:0; stroke-opacity:1; 
stroke-linecap:round; stroke-linejoin:round;fill-rule:evenodd;"
d="M 99837.7,33051.5
99851.1,33055.6
99863.4,33062.2
99874.2,33071
99883.1,33081.8
99889.7,33094.2
99893.7,33107.6
99895.3,33123.9
99895.3,33390.1
99893.7,33406.4
99889.7,33419.8
99883.1,33432.2
99874.2,33443
99863.4,33451.8
99851.1,33458.4
99837.7,33462.5
99821.4,33464.1
99584.6,33464.1
99568.3,33462.5
99554.9,33458.4
99542.6,33451.8
99531.8,33443
99522.9,33432.2
99516.3,33419.8
99512.3,33406.4
99510.7,33390.1
99510.7,33123.9
99512.3,33107.6
99516.3,33094.2
99522.9,33081.8
99531.8,33071
99542.6,33062.2
99554.9,33055.6
99568.3,33051.5
99584.6,33049.9
99821.4,33049.9
Z" /> 
<path style="fill:#000000; fill-opacity:1.0; 
stroke:#000000; stroke-width:0; stroke-opacity:1; 
stroke-linecap:round; stroke-linejoin:round;fill-rule:evenodd;"
d="M 99217.6,33051.5
99231,33055.6
99243.3,33062.2
99254.1,33071
99263,33081.8
99269.6,33094.2
99273.6,33107.6
99275.2,33123.9
99275.2,33390.1
99273.6,33406.4
99269.6,33419.8
99263,33432.2
99254.1,33443
99243.3,33451.8
99231,33458.4
99217.6,33462.5
99201.3,33464.1
98964.6,33464.1
98948.2,33462.5
98934.9,33458.4
98922.5,33451.8
98911.7,33443
98902.9,33432.2
98896.3,33419.8
98892.2,33406.4
98890.6,33390.1
98890.6,33123.9
98892.2,33107.6
98896.3,33094.2
98902.9,33081.8
98911.7,33071
98922.5,33062.2
98934.9,33055.6
98948.2,33051.5
98964.6,33049.9
99201.3,33049.9
Z" /> 
<path style="fill:#000000; fill-opacity:1.0; 
stroke:#000000; stroke-width:0; stroke-opacity:1; 
stroke-linecap:round; stroke-linejoin:round;fill-rule:evenodd;"
d="M 102585,33049.5
102598,33053.6
102610,33060.2
102621,33069
102630,33079.8
102637,33092.2
102641,33105.6
102642,33121.9
102642,33388.1
102641,33404.4
102637,33417.8
102630,33430.2
102621,33441
102610,33449.8
102598,33456.4
102585,33460.5
102568,33462.1
102332,33462.1
102315,33460.5
102302,33456.4
102290,33449.8
102279,33441
102270,33430.2
102263,33417.8
102259,33404.4
102258,33388.1
102258,33121.9
102259,33105.6
102263,33092.2
102270,33079.8
102279,33069
102290,33060.2
102302,33053.6
102315,33049.5
102332,33047.9
102568,33047.9
Z" /> 
<path style="fill:#000000; fill-opacity:1.0; 
stroke:#000000; stroke-width:0; stroke-opacity:1; 
stroke-linecap:round; stroke-linejoin:round;fill-rule:evenodd;"
d="M 101965,33049.5
101978,33053.6
101990,33060.2
102001,33069
102010,33079.8
102017,33092.2
102021,33105.6
102022,33121.9
102022,33388.1
102021,33404.4
102017,33417.8
102010,33430.2
102001,33441
101990,33449.8
101978,33456.4
101965,33460.5
101948,33462.1
101712,33462.1
101695,33460.5
101682,33456.4
101670,33449.8
101659,33441
101650,33430.2
101643,33417.8
101639,33404.4
101638,33388.1
101638,33121.9
101639,33105.6
101643,33092.2
101650,33079.8
101659,33069
101670,33060.2
101682,33053.6
101695,33049.5
101712,33047.9
101948,33047.9
Z" /> 
<path style="fill:#000000; fill-opacity:1.0; 
stroke:#000000; stroke-width:0; stroke-opacity:1; 
stroke-linecap:round; stroke-linejoin:round;fill-rule:evenodd;"
d="M 97233.1,30747.7
97451.7,30838.3
97498.7,30869.7
97648.4,30969.7
97815.7,31137
97874.7,31225.3
97947.2,31333.8
98037.7,31552.4
98083.9,31784.4
98083.9,32021
98037.7,32253.1
97947.2,32471.7
97902.1,32539.1
97815.7,32668.4
97648.4,32835.8
97549.4,32901.9
97451.7,32967.2
97233.1,33057.8
97001,33103.9
96764.4,33103.9
96532.4,33057.8
96313.8,32967.2
96216.1,32901.9
96117,32835.8
95949.7,32668.4
95863.3,32539.1
95818.3,32471.7
95727.7,32253.1
95681.5,32021
95681.5,31784.4
95727.7,31552.4
95818.3,31333.8
95890.7,31225.3
95949.7,31137
96117,30969.7
96266.7,30869.7
96313.8,30838.3
96532.4,30747.7
96764.4,30701.6
97001,30701.6
Z" /> 
<path style="fill:#000000; fill-opacity:1.0; 
stroke:#000000; stroke-width:0; stroke-opacity:1; 
stroke-linecap:round; stroke-linejoin:round;fill-rule:evenodd;"
d="M 100505,32950.4
99559.5,32950.4
99559.5,32508.6
100505,32508.6
Z" /> 
<path style="fill:#000000; fill-opacity:1.0; 
stroke:#000000; stroke-width:0; stroke-opacity:1; 
stroke-linecap:round; stroke-linejoin:round;fill-rule:evenodd;"
d="M 99212.7,32426.5
99226.1,32430.6
99238.4,32437.2
99249.2,32446
99258.1,32456.8
99264.7,32469.2
99268.7,32482.6
99270.3,32498.9
99270.3,32765.1
99268.7,32781.4
99264.7,32794.8
99258.1,32807.2
99249.2,32818
99238.4,32826.8
99226.1,32833.4
99212.7,32837.5
99196.4,32839.1
98959.6,32839.1
98943.3,32837.5
98929.9,32833.4
98917.6,32826.8
98906.8,32818
98897.9,32807.2
98891.3,32794.8
98887.3,32781.4
98885.7,32765.1
98885.7,32498.9
98887.3,32482.6
98891.3,32469.2
98897.9,32456.8
98906.8,32446
98917.6,32437.2
98929.9,32430.6
98943.3,32426.5
98959.6,32424.9
99196.4,32424.9
Z" /> 
<path style="fill:#000000; fill-opacity:1.0; 
stroke:#000000; stroke-width:0; stroke-opacity:1; 
stroke-linecap:round; stroke-linejoin:round;fill-rule:evenodd;"
d="M 98592.6,32426.5
98606,32430.6
98618.3,32437.2
98629.1,32446
98638,32456.8
98644.6,32469.2
98648.6,32482.6
98650.2,32498.9
98650.2,32765.1
98648.6,32781.4
98644.6,32794.8
98638,32807.2
98629.1,32818
98618.3,32826.8
98606,32833.4
98592.6,32837.5
98576.3,32839.1
98339.6,32839.1
98323.2,32837.5
98309.9,32833.4
98297.5,32826.8
98286.7,32818
98277.9,32807.2
98271.3,32794.8
98267.2,32781.4
98265.6,32765.1
98265.6,32498.9
98267.2,32482.6
98271.3,32469.2
98277.9,32456.8
98286.7,32446
98297.5,32437.2
98309.9,32430.6
98323.2,32426.5
98339.6,32424.9
98576.3,32424.9
Z" /> 
<path style="fill:#000000; fill-opacity:1.0; 
stroke:#000000; stroke-width:0; stroke-opacity:1; 
stroke-linecap:round; stroke-linejoin:round;fill-rule:evenodd;"
d="M 104453,32767
102759,32767
102759,32136.3
104453,32136.3
Z" /> 
<path style="fill:#000000; fill-opacity:1.0; 
stroke:#000000; stroke-width:0; stroke-opacity:1; 
stroke-linecap:round; stroke-linejoin:round;fill-rule:evenodd;"
d="M 105449,32216.8
105463,32221.1
105476,32228.2
105488,32237.7
105497,32249.4
105504,32262.6
105509,32277
105511,32294.4
105511,32668
105509,32685.4
105504,32699.7
105497,32713
105488,32724.6
105476,32734.2
105463,32741.2
105449,32745.6
105431,32747.3
104861,32747.3
104843,32745.6
104829,32741.2
104816,32734.2
104804,32724.6
104795,32713
104788,32699.7
104783,32685.4
104781,32668
104781,32294.4
104783,32277
104788,32262.6
104795,32249.4
104804,32237.7
104816,32228.2
104829,32221.1
104843,32216.8
104861,32215
105431,32215
Z" /> 
<path style="fill:#000000; fill-opacity:1.0; 
stroke:#000000; stroke-width:0; stroke-opacity:1; 
stroke-linecap:round; stroke-linejoin:round;fill-rule:evenodd;"
d="M 106029,32200.4
106043,32204.4
106055,32211
106066,32219.9
106075,32230.7
106081,32243
106085,32256.4
106087,32272.7
106087,32509.4
106085,32525.8
106081,32539.1
106075,32551.5
106066,32562.3
106055,32571.1
106043,32577.7
106029,32581.8
106013,32583.4
105747,32583.4
105731,32581.8
105717,32577.7
105705,32571.1
105694,32562.3
105685,32551.5
105679,32539.1
105675,32525.8
105673,32509.4
105673,32272.7
105675,32256.4
105679,32243
105685,32230.7
105694,32219.9
105705,32211
105717,32204.4
105731,32200.4
105747,32198.8
106013,32198.8
Z" /> 
<path style="fill:#000000; fill-opacity:1.0; 
stroke:#000000; stroke-width:0; stroke-opacity:1; 
stroke-linecap:round; stroke-linejoin:round;fill-rule:evenodd;"
d="M 84973.7,32257.5
82177.6,32257.5
82177.6,31429.9
84973.7,31429.9
Z" /> 
<path style="fill:#000000; fill-opacity:1.0; 
stroke:#000000; stroke-width:0; stroke-opacity:1; 
stroke-linecap:round; stroke-linejoin:round;fill-rule:evenodd;"
d="M 99212.7,31821.5
99226.1,31825.6
99238.4,31832.2
99249.2,31841
99258.1,31851.8
99264.7,31864.2
99268.7,31877.6
99270.3,31893.9
99270.3,32160.1
99268.7,32176.4
99264.7,32189.8
99258.1,32202.2
99249.2,32213
99238.4,32221.8
99226.1,32228.4
99212.7,32232.5
99196.4,32234.1
98959.6,32234.1
98943.3,32232.5
98929.9,32228.4
98917.6,32221.8
98906.8,32213
98897.9,32202.2
98891.3,32189.8
98887.3,32176.4
98885.7,32160.1
98885.7,31893.9
98887.3,31877.6
98891.3,31864.2
98897.9,31851.8
98906.8,31841
98917.6,31832.2
98929.9,31825.6
98943.3,31821.5
98959.6,31819.9
99196.4,31819.9
Z" /> 
<path style="fill:#000000; fill-opacity:1.0; 
stroke:#000000; stroke-width:0; stroke-opacity:1; 
stroke-linecap:round; stroke-linejoin:round;fill-rule:evenodd;"
d="M 98592.6,31821.5
98606,31825.6
98618.3,31832.2
98629.1,31841
98638,31851.8
98644.6,31864.2
98648.6,31877.6
98650.2,31893.9
98650.2,32160.1
98648.6,32176.4
98644.6,32189.8
98638,32202.2
98629.1,32213
98618.3,32221.8
98606,32228.4
98592.6,32232.5
98576.3,32234.1
98339.6,32234.1
98323.2,32232.5
98309.9,32228.4
98297.5,32221.8
98286.7,32213
98277.9,32202.2
98271.3,32189.8
98267.2,32176.4
98265.6,32160.1
98265.6,31893.9
98267.2,31877.6
98271.3,31864.2
98277.9,31851.8
98286.7,31841
98297.5,31832.2
98309.9,31825.6
98323.2,31821.5
98339.6,31819.9
98576.3,31819.9
Z" /> 
<path style="fill:#000000; fill-opacity:1.0; 
stroke:#000000; stroke-width:0; stroke-opacity:1; 
stroke-linecap:round; stroke-linejoin:round;fill-rule:evenodd;"
d="M 100426,32145.3
99638.2,32145.3
99638.2,31424
100426,31424
Z" /> 
<path style="fill:#000000; fill-opacity:1.0; 
stroke:#000000; stroke-width:0; stroke-opacity:1; 
stroke-linecap:round; stroke-linejoin:round;fill-rule:evenodd;"
d="M 106029,31580.3
106043,31584.3
106055,31590.9
106066,31599.8
106075,31610.6
106081,31622.9
106085,31636.3
106087,31652.6
106087,31889.4
106085,31905.7
106081,31919.1
106075,31931.4
106066,31942.2
106055,31951.1
106043,31957.7
106029,31961.7
106013,31963.3
105747,31963.3
105731,31961.7
105717,31957.7
105705,31951.1
105694,31942.2
105685,31931.4
105679,31919.1
105675,31905.7
105673,31889.4
105673,31652.6
105675,31636.3
105679,31622.9
105685,31610.6
105694,31599.8
105705,31590.9
105717,31584.3
105731,31580.3
105747,31578.7
106013,31578.7
Z" /> 
<path style="fill:#000000; fill-opacity:1.0; 
stroke:#000000; stroke-width:0; stroke-opacity:1; 
stroke-linecap:round; stroke-linejoin:round;fill-rule:evenodd;"
d="M 105449,31114.4
105463,31118.8
105476,31125.8
105488,31135.4
105497,31147
105504,31160.3
105509,31174.6
105511,31192
105511,31565.6
105509,31583
105504,31597.4
105497,31610.6
105488,31622.3
105476,31631.8
105463,31638.9
105449,31643.2
105431,31645
104861,31645
104843,31643.2
104829,31638.9
104816,31631.8
104804,31622.3
104795,31610.6
104788,31597.4
104783,31583
104781,31565.6
104781,31192
104783,31174.6
104788,31160.3
104795,31147
104804,31135.4
104816,31125.8
104829,31118.8
104843,31114.4
104861,31112.7
105431,31112.7
Z" /> 
<path style="fill:#000000; fill-opacity:1.0; 
stroke:#000000; stroke-width:0; stroke-opacity:1; 
stroke-linecap:round; stroke-linejoin:round;fill-rule:evenodd;"
d="M 102329,31169.3
102343,31173.3
102355,31179.9
102366,31188.8
102375,31199.6
102381,31211.9
102385,31225.3
102387,31241.6
102387,31478.4
102385,31494.7
102381,31508.1
102375,31520.4
102366,31531.2
102355,31540.1
102343,31546.7
102329,31550.7
102313,31552.3
102047,31552.3
102031,31550.7
102017,31546.7
102005,31540.1
101994,31531.2
101985,31520.4
101979,31508.1
101975,31494.7
101973,31478.4
101973,31241.6
101975,31225.3
101979,31211.9
101985,31199.6
101994,31188.8
102005,31179.9
102017,31173.3
102031,31169.3
102047,31167.7
102313,31167.7
Z" /> 
<path style="fill:#000000; fill-opacity:1.0; 
stroke:#000000; stroke-width:0; stroke-opacity:1; 
stroke-linecap:round; stroke-linejoin:round;fill-rule:evenodd;"
d="M 101729,31164.4
101743,31168.4
101755,31175
101766,31183.9
101775,31194.7
101781,31207
101785,31220.4
101787,31236.7
101787,31473.4
101785,31489.8
101781,31503.1
101775,31515.5
101766,31526.3
101755,31535.1
101743,31541.7
101729,31545.8
101713,31547.4
101447,31547.4
101431,31545.8
101417,31541.7
101405,31535.1
101394,31526.3
101385,31515.5
101379,31503.1
101375,31489.8
101373,31473.4
101373,31236.7
101375,31220.4
101379,31207
101385,31194.7
101394,31183.9
101405,31175
101417,31168.4
101431,31164.4
101447,31162.8
101713,31162.8
Z" /> 
<path style="fill:#000000; fill-opacity:1.0; 
stroke:#000000; stroke-width:0; stroke-opacity:1; 
stroke-linecap:round; stroke-linejoin:round;fill-rule:evenodd;"
d="M 101129,31164.4
101143,31168.4
101155,31175
101166,31183.9
101175,31194.7
101181,31207
101185,31220.4
101187,31236.7
101187,31473.4
101185,31489.8
101181,31503.1
101175,31515.5
101166,31526.3
101155,31535.1
101143,31541.7
101129,31545.8
101113,31547.4
100847,31547.4
100831,31545.8
100817,31541.7
100805,31535.1
100794,31526.3
100785,31515.5
100779,31503.1
100775,31489.8
100773,31473.4
100773,31236.7
100775,31220.4
100779,31207
100785,31194.7
100794,31183.9
100805,31175
100817,31168.4
100831,31164.4
100847,31162.8
101113,31162.8
Z" /> 
<path style="fill:#000000; fill-opacity:1.0; 
stroke:#000000; stroke-width:0; stroke-opacity:1; 
stroke-linecap:round; stroke-linejoin:round;fill-rule:evenodd;"
d="M 104453,31349.7
102759,31349.7
102759,30719
104453,30719
Z" /> 
<path style="fill:#000000; fill-opacity:1.0; 
stroke:#000000; stroke-width:0; stroke-opacity:1; 
stroke-linecap:round; stroke-linejoin:round;fill-rule:evenodd;"
d="M 100505,31060.6
99559.5,31060.6
99559.5,30618.9
100505,30618.9
Z" /> 
<path style="fill:#000000; fill-opacity:1.0; 
stroke:#000000; stroke-width:0; stroke-opacity:1; 
stroke-linecap:round; stroke-linejoin:round;fill-rule:evenodd;"
d="M 95479.4,31044.6
94730.6,31044.6
94730.6,30020.2
95479.4,30020.2
Z" /> 
<path style="fill:#000000; fill-opacity:1.0; 
stroke:#000000; stroke-width:0; stroke-opacity:1; 
stroke-linecap:round; stroke-linejoin:round;fill-rule:evenodd;"
d="M 102329,30549.2
102343,30553.3
102355,30559.9
102366,30568.7
102375,30579.5
102381,30591.9
102385,30605.2
102387,30621.6
102387,30858.3
102385,30874.6
102381,30888
102375,30900.3
102366,30911.1
102355,30920
102343,30926.6
102329,30930.6
102313,30932.2
102047,30932.2
102031,30930.6
102017,30926.6
102005,30920
101994,30911.1
101985,30900.3
101979,30888
101975,30874.6
101973,30858.3
101973,30621.6
101975,30605.2
101979,30591.9
101985,30579.5
101994,30568.7
102005,30559.9
102017,30553.3
102031,30549.2
102047,30547.6
102313,30547.6
Z" /> 
<path style="fill:#000000; fill-opacity:1.0; 
stroke:#000000; stroke-width:0; stroke-opacity:1; 
stroke-linecap:round; stroke-linejoin:round;fill-rule:evenodd;"
d="M 101129,30544.3
101143,30548.3
101155,30554.9
101166,30563.8
101175,30574.6
101181,30586.9
101185,30600.3
101187,30616.6
101187,30853.4
101185,30869.7
101181,30883.1
101175,30895.4
101166,30906.2
101155,30915.1
101143,30921.7
101129,30925.7
101113,30927.3
100847,30927.3
100831,30925.7
100817,30921.7
100805,30915.1
100794,30906.2
100785,30895.4
100779,30883.1
100775,30869.7
100773,30853.4
100773,30616.6
100775,30600.3
100779,30586.9
100785,30574.6
100794,30563.8
100805,30554.9
100817,30548.3
100831,30544.3
100847,30542.7
101113,30542.7
Z" /> 
<path style="fill:#000000; fill-opacity:1.0; 
stroke:#000000; stroke-width:0; stroke-opacity:1; 
stroke-linecap:round; stroke-linejoin:round;fill-rule:evenodd;"
d="M 101729,30544.3
101743,30548.3
101755,30554.9
101766,30563.8
101775,30574.6
101781,30586.9
101785,30600.3
101787,30616.6
101787,30853.4
101785,30869.7
101781,30883.1
101775,30895.4
101766,30906.2
101755,30915.1
101743,30921.7
101729,30925.7
101713,30927.3
101447,30927.3
101431,30925.7
101417,30921.7
101405,30915.1
101394,30906.2
101385,30895.4
101379,30883.1
101375,30869.7
101373,30853.4
101373,30616.6
101375,30600.3
101379,30586.9
101385,30574.6
101394,30563.8
101405,30554.9
101417,30548.3
101431,30544.3
101447,30542.7
101713,30542.7
Z" /> 
<path style="fill:#000000; fill-opacity:1.0; 
stroke:#000000; stroke-width:0; stroke-opacity:1; 
stroke-linecap:round; stroke-linejoin:round;fill-rule:evenodd;"
d="M 101472,30353.2
100526,30353.2
100526,29328.8
101472,29328.8
Z" /> 
<path style="fill:#000000; fill-opacity:1.0; 
stroke:#000000; stroke-width:0; stroke-opacity:1; 
stroke-linecap:round; stroke-linejoin:round;fill-rule:evenodd;"
d="M 104291,29269.9
104305,29274.2
104318,29281.1
104330,29290.4
104339,29301.7
104346,29314.6
104350,29328.6
104352,29345.6
104352,30274.4
104350,30291.4
104346,30305.4
104339,30318.3
104330,30329.6
104318,30338.9
104305,30345.8
104291,30350.1
104274,30351.7
103857,30351.7
103840,30350.1
103826,30345.8
103813,30338.9
103802,30329.6
103793,30318.3
103786,30305.4
103782,30291.4
103780,30274.4
103780,29345.6
103782,29328.6
103786,29314.6
103793,29301.7
103802,29290.4
103813,29281.1
103826,29274.2
103840,29269.9
103857,29268.3
104274,29268.3
Z" /> 
<path style="fill:#000000; fill-opacity:1.0; 
stroke:#000000; stroke-width:0; stroke-opacity:1; 
stroke-linecap:round; stroke-linejoin:round;fill-rule:evenodd;"
d="M 102520,29269.9
102534,29274.2
102547,29281.1
102558,29290.4
102567,29301.7
102574,29314.6
102578,29328.6
102580,29345.6
102580,30274.4
102578,30291.4
102574,30305.4
102567,30318.3
102558,30329.6
102547,30338.9
102534,30345.8
102520,30350.1
102503,30351.7
102086,30351.7
102069,30350.1
102055,30345.8
102042,30338.9
102030,30329.6
102021,30318.3
102014,30305.4
102010,30291.4
102008,30274.4
102008,29345.6
102010,29328.6
102014,29314.6
102021,29301.7
102030,29290.4
102042,29281.1
102055,29274.2
102069,29269.9
102086,29268.3
102503,29268.3
Z" /> 
<path style="fill:#000000; fill-opacity:1.0; 
stroke:#000000; stroke-width:0; stroke-opacity:1; 
stroke-linecap:round; stroke-linejoin:round;fill-rule:evenodd;"
d="M 99247.6,29909.5
99261,29913.6
99273.4,29920.2
99284.2,29929
99293,29939.8
99299.6,29952.2
99303.7,29965.6
99305.3,29981.9
99305.3,30248.1
99303.7,30264.4
99299.6,30277.8
99293,30290.2
99284.2,30301
99273.4,30309.8
99261,30316.4
99247.6,30320.5
99231.3,30322.1
98994.6,30322.1
98978.3,30320.5
98964.9,30316.4
98952.6,30309.8
98941.8,30301
98932.9,30290.2
98926.3,30277.8
98922.2,30264.4
98920.6,30248.1
98920.6,29981.9
98922.2,29965.6
98926.3,29952.2
98932.9,29939.8
98941.8,29929
98952.6,29920.2
98964.9,29913.6
98978.3,29909.5
98994.6,29907.9
99231.3,29907.9
Z" /> 
<path style="fill:#000000; fill-opacity:1.0; 
stroke:#000000; stroke-width:0; stroke-opacity:1; 
stroke-linecap:round; stroke-linejoin:round;fill-rule:evenodd;"
d="M 99867.7,29909.5
99881.1,29913.6
99893.4,29920.2
99904.2,29929
99913.1,29939.8
99919.7,29952.2
99923.8,29965.6
99925.4,29981.9
99925.4,30248.1
99923.8,30264.4
99919.7,30277.8
99913.1,30290.2
99904.2,30301
99893.4,30309.8
99881.1,30316.4
99867.7,30320.5
99851.4,30322.1
99614.7,30322.1
99598.4,30320.5
99585,30316.4
99572.6,30309.8
99561.8,30301
99553,30290.2
99546.4,30277.8
99542.3,30264.4
99540.7,30248.1
99540.7,29981.9
99542.3,29965.6
99546.4,29952.2
99553,29939.8
99561.8,29929
99572.6,29920.2
99585,29913.6
99598.4,29909.5
99614.7,29907.9
99851.4,29907.9
Z" /> 
<path style="fill:#000000; fill-opacity:1.0; 
stroke:#000000; stroke-width:0; stroke-opacity:1; 
stroke-linecap:round; stroke-linejoin:round;fill-rule:evenodd;"
d="M 98101.4,28651.9
98113.2,28655.5
98124,28661.3
98133.6,28669.1
98141.4,28678.6
98147.2,28689.5
98150.8,28701.3
98152.2,28716
98152.2,30003.1
98150.8,30017.8
98147.2,30029.6
98141.4,30040.4
98133.6,30049.9
98124,30057.8
98113.2,30063.6
98101.4,30067.1
98086.7,30068.6
97193.3,30068.6
97178.6,30067.1
97166.8,30063.6
97156,30057.8
97146.4,30049.9
97138.6,30040.4
97132.8,30029.6
97129.2,30017.8
97127.8,30003.1
97127.8,28716
97129.2,28701.3
97132.8,28689.5
97138.6,28678.6
97146.4,28669.1
97156,28661.3
97166.8,28655.5
97178.6,28651.9
97193.3,28650.5
98086.7,28650.5
Z" /> 
<path style="fill:#000000; fill-opacity:1.0; 
stroke:#000000; stroke-width:0; stroke-opacity:1; 
stroke-linecap:round; stroke-linejoin:round;fill-rule:evenodd;"
d="M 95479.4,29469.8
94730.6,29469.8
94730.6,28445.4
95479.4,28445.4
Z" /> 
<path style="fill:#000000; fill-opacity:1.0; 
stroke:#000000; stroke-width:0; stroke-opacity:1; 
stroke-linecap:round; stroke-linejoin:round;fill-rule:evenodd;"
d="M 101472,28660.3
100526,28660.3
100526,27635.9
101472,27635.9
Z" /> 
<path style="fill:#000000; fill-opacity:1.0; 
stroke:#000000; stroke-width:0; stroke-opacity:1; 
stroke-linecap:round; stroke-linejoin:round;fill-rule:evenodd;"
d="M 98101.4,26092.9
98113.2,26096.4
98124,26102.2
98133.6,26110.1
98141.4,26119.6
98147.2,26130.4
98150.8,26142.2
98152.2,26156.9
98152.2,27444
98150.8,27458.7
98147.2,27470.5
98141.4,27481.4
98133.6,27490.9
98124,27498.7
98113.2,27504.5
98101.4,27508.1
98086.7,27509.5
97193.3,27509.5
97178.6,27508.1
97166.8,27504.5
97156,27498.7
97146.4,27490.9
97138.6,27481.4
97132.8,27470.5
97129.2,27458.7
97127.8,27444
97127.8,26156.9
97129.2,26142.2
97132.8,26130.4
97138.6,26119.6
97146.4,26110.1
97156,26102.2
97166.8,26096.4
97178.6,26092.9
97193.3,26091.4
98086.7,26091.4
Z" /> 
<path style="fill:#000000; fill-opacity:1.0; 
stroke:#000000; stroke-width:0; stroke-opacity:1; 
stroke-linecap:round; stroke-linejoin:round;fill-rule:evenodd;"
d="M 95077.5,27252.5
94092.5,27252.5
94092.5,26267.5
95077.5,26267.5
Z" /> 
<path style="fill:#000000; fill-opacity:1.0; 
stroke:#000000; stroke-width:0; stroke-opacity:1; 
stroke-linecap:round; stroke-linejoin:round;fill-rule:evenodd;"
d="M 93350.7,26286.4
93440.3,26323.5
93521,26377.4
93589.6,26446
93616.8,26486.7
93643.5,26526.7
93680.6,26616.3
93699.6,26711.5
93699.6,26808.5
93680.6,26903.7
93643.5,26993.3
93589.6,27074
93521,27142.6
93440.3,27196.5
93440.3,27196.5
93440.3,27196.5
93350.7,27233.6
93255.6,27252.5
93158.5,27252.5
93063.4,27233.6
92973.8,27196.5
92973.8,27196.5
92973.8,27196.5
92893.1,27142.6
92824.5,27074
92770.6,26993.3
92733.5,26903.7
92714.5,26808.5
92714.5,26711.5
92733.5,26616.3
92770.6,26526.7
92797.3,26486.7
92824.5,26446
92893.1,26377.4
92973.8,26323.5
93063.4,26286.4
93158.5,26267.5
93255.6,26267.5
Z" /> 
<path style="fill:#000000; fill-opacity:1.0; 
stroke:#000000; stroke-width:0; stroke-opacity:1; 
stroke-linecap:round; stroke-linejoin:round;fill-rule:evenodd;"
d="M 91972.8,26286.4
92062.4,26323.5
92143.1,26377.4
92211.7,26446
92238.8,26486.7
92265.6,26526.7
92302.7,26616.3
92321.6,26711.5
92321.6,26808.5
92302.7,26903.7
92265.6,26993.3
92211.7,27074
92143.1,27142.6
92062.4,27196.5
92062.4,27196.5
92062.4,27196.5
91972.8,27233.6
91877.6,27252.5
91780.6,27252.5
91685.4,27233.6
91595.8,27196.5
91595.8,27196.5
91595.8,27196.5
91515.1,27142.6
91446.5,27074
91392.6,26993.3
91355.5,26903.7
91336.6,26808.5
91336.6,26711.5
91355.5,26616.3
91392.6,26526.7
91419.4,26486.7
91446.5,26446
91515.1,26377.4
91595.8,26323.5
91685.4,26286.4
91780.6,26267.5
91877.6,26267.5
Z" /> 
<path style="fill:#000000; fill-opacity:1.0; 
stroke:#000000; stroke-width:0; stroke-opacity:1; 
stroke-linecap:round; stroke-linejoin:round;fill-rule:evenodd;"
d="M 90594.8,26286.4
90684.4,26323.5
90765.1,26377.4
90833.7,26446
90860.9,26486.7
90887.6,26526.7
90924.7,26616.3
90943.7,26711.5
90943.7,26808.5
90924.7,26903.7
90887.6,26993.3
90833.7,27074
90765.1,27142.6
90684.4,27196.5
90684.4,27196.5
90684.4,27196.5
90594.8,27233.6
90499.7,27252.5
90402.6,27252.5
90307.5,27233.6
90217.8,27196.5
90217.8,27196.5
90217.8,27196.5
90137.2,27142.6
90068.6,27074
90014.7,26993.3
89977.5,26903.7
89958.6,26808.5
89958.6,26711.5
89977.5,26616.3
90014.7,26526.7
90041.4,26486.7
90068.6,26446
90137.2,26377.4
90217.8,26323.5
90307.5,26286.4
90402.6,26267.5
90499.7,26267.5
Z" /> 
<path style="fill:#000000; fill-opacity:1.0; 
stroke:#000000; stroke-width:0; stroke-opacity:1; 
stroke-linecap:round; stroke-linejoin:round;fill-rule:evenodd;"
d="M 88792.5,27212.5
87807.5,27212.5
87807.5,26227.5
88792.5,26227.5
Z" /> 
<path style="fill:#000000; fill-opacity:1.0; 
stroke:#000000; stroke-width:0; stroke-opacity:1; 
stroke-linecap:round; stroke-linejoin:round;fill-rule:evenodd;"
d="M 87065.7,26246.4
87155.3,26283.5
87236,26337.4
87304.6,26406
87358.5,26486.7
87358.5,26486.7
87395.6,26576.3
87403.6,26616.3
87414.6,26671.5
87414.6,26768.5
87395.6,26863.7
87358.5,26953.3
87304.6,27034
87236,27102.6
87155.3,27156.5
87155.3,27156.5
87155.3,27156.5
87065.7,27193.6
86970.6,27212.5
86873.5,27212.5
86778.4,27193.6
86688.8,27156.5
86688.8,27156.5
86688.8,27156.5
86608.1,27102.6
86539.5,27034
86485.6,26953.3
86448.5,26863.7
86429.5,26768.5
86429.5,26671.5
86440.5,26616.3
86448.5,26576.3
86485.6,26486.7
86485.6,26486.7
86539.5,26406
86608.1,26337.4
86688.8,26283.5
86778.4,26246.4
86873.5,26227.5
86970.6,26227.5
Z" /> 
</g> 
</svg>
