<?xml version="1.0" standalone="no"?>
 <!DOCTYPE svg PUBLIC "-//W3C//DTD SVG 1.1//EN" 
 "http://www.w3.org/Graphics/SVG/1.1/DTD/svg11.dtd"> 
<svg
  xmlns:svg="http://www.w3.org/2000/svg"
  xmlns="http://www.w3.org/2000/svg"
  xmlns:xlink="http://www.w3.org/1999/xlink"
  version="1.1"
  width="29.700220cm" height="21.000720cm" viewBox="0 0 116930 82680">
<title>SVG Picture created as Kicad_Valve-hardware-F_SilkS.svg date 2020/09/05 18:08:54 </title>
  <desc>Picture generated by PCBNEW </desc>
<g style="fill:#000000; fill-opacity:1;stroke:#000000; stroke-opacity:1;
stroke-linecap:round; stroke-linejoin:round;"
 transform="translate(0 0) scale(1 1)">
</g>
<g style="fill:#000000; fill-opacity:0.0; 
stroke:#000000; stroke-width:-0.000393701; stroke-opacity:1; 
stroke-linecap:round; stroke-linejoin:round;">
</g>
<g style="fill:#000000; fill-opacity:0.0; 
stroke:#000000; stroke-width:118.11; stroke-opacity:1; 
stroke-linecap:round; stroke-linejoin:round;">
<text x="94678" y="25856.3"
textLength="807.93" font-size="787.402" lengthAdjust="spacingAndGlyphs"
text-anchor="middle" opacity="0">+</text>
<path d="M94453 25603
L94902 25603
" />
<path d="M94678 25828
L94678 25378
" />
<text x="93278" y="25856.3"
textLength="744.094" font-size="787.402" lengthAdjust="spacingAndGlyphs"
text-anchor="middle" opacity="0">B</text>
<path d="M93320 25518
L93404 25546
L93432 25575
L93460 25631
L93460 25715
L93432 25771
L93404 25800
L93348 25828
L93123 25828
L93123 25237
L93320 25237
L93376 25265
L93404 25293
L93432 25350
L93432 25406
L93404 25462
L93376 25490
L93320 25518
L93123 25518
" />
<text x="91878" y="25856.3"
textLength="659.73" font-size="787.402" lengthAdjust="spacingAndGlyphs"
text-anchor="middle" opacity="0">A</text>
<path d="M91737 25659
L92018 25659
" />
<path d="M91681 25828
L91878 25237
L92074 25828
" />
<text x="90478" y="25856.3"
textLength="1953.32" font-size="787.402" lengthAdjust="spacingAndGlyphs"
text-anchor="middle" opacity="0">GND</text>
<path d="M90028 25265
L89971 25237
L89887 25237
L89803 25265
L89746 25321
L89718 25378
L89690 25490
L89690 25575
L89718 25687
L89746 25743
L89803 25800
L89887 25828
L89943 25828
L90028 25800
L90056 25771
L90056 25575
L89943 25575
" />
<path d="M90309 25828
L90309 25237
L90646 25828
L90646 25237
" />
<path d="M90927 25828
L90927 25237
L91068 25237
L91152 25265
L91209 25321
L91237 25378
L91265 25490
L91265 25575
L91237 25687
L91209 25743
L91152 25800
L91068 25828
L90927 25828
" />
<g transform="rotate(-90 82078 36361)">
<text x="82078" y="36656.3"
textLength="2037.68" font-size="787.402" lengthAdjust="spacingAndGlyphs"
text-anchor="middle" opacity="0">COM</text>
</g>
<path d="M82288 36825
L82317 36853
L82345 36937
L82345 36993
L82317 37078
L82260 37134
L82204 37162
L82092 37190
L82007 37190
L81895 37162
L81838 37134
L81782 37078
L81754 36993
L81754 36937
L81782 36853
L81810 36825
" />
<path d="M81754 36459
L81754 36346
L81782 36290
L81838 36234
L81951 36206
L82148 36206
L82260 36234
L82317 36290
L82345 36346
L82345 36459
L82317 36515
L82260 36571
L82148 36600
L81951 36600
L81838 36571
L81782 36515
L81754 36459
" />
<path d="M82345 35953
L81754 35953
L82176 35756
L81754 35559
L82345 35559
" />
<g transform="rotate(-90 102478 47961)">
<text x="102478" y="48256.3"
textLength="2037.68" font-size="787.402" lengthAdjust="spacingAndGlyphs"
text-anchor="middle" opacity="0">COM</text>
</g>
<path d="M102688 48425
L102717 48453
L102745 48537
L102745 48593
L102717 48678
L102660 48734
L102604 48762
L102492 48790
L102407 48790
L102295 48762
L102238 48734
L102182 48678
L102154 48593
L102154 48537
L102182 48453
L102210 48425
" />
<path d="M102154 48059
L102154 47946
L102182 47890
L102238 47834
L102351 47806
L102548 47806
L102660 47834
L102717 47890
L102745 47946
L102745 48059
L102717 48115
L102660 48171
L102548 48200
L102351 48200
L102238 48171
L102182 48115
L102154 48059
" />
<path d="M102745 47553
L102154 47553
L102576 47356
L102154 47159
L102745 47159
" />
</g>
<g style="fill:#000000; fill-opacity:0.0; 
stroke:#000000; stroke-width:59.0551; stroke-opacity:1; 
stroke-linecap:round; stroke-linejoin:round;">
<g transform="rotate(-90 107428 42760)">
<text x="107428" y="42897.8"
textLength="1282.15" font-size="367.454" lengthAdjust="spacingAndGlyphs"
text-anchor="middle" opacity="0">OUT+</text>
</g>
<path d="M107277 43206
L107277 43153
L107290 43127
L107316 43101
L107368 43088
L107460 43088
L107513 43101
L107539 43127
L107552 43153
L107552 43206
L107539 43232
L107513 43258
L107460 43271
L107368 43271
L107316 43258
L107290 43232
L107277 43206
" />
<path d="M107277 42969
L107500 42969
L107526 42956
L107539 42943
L107552 42917
L107552 42864
L107539 42838
L107526 42825
L107500 42812
L107277 42812
" />
<path d="M107277 42720
L107277 42563
" />
<path d="M107552 42641
L107277 42641
" />
<path d="M107447 42471
L107447 42261
" />
<path d="M107552 42366
L107342 42366
" />
<g transform="rotate(-90 107406 40996)">
<text x="107406" y="41133.8"
textLength="1205.38" font-size="367.454" lengthAdjust="spacingAndGlyphs"
text-anchor="middle" opacity="0">OUT-</text>
</g>
<path d="M107255 41442
L107255 41389
L107268 41363
L107294 41337
L107346 41324
L107438 41324
L107491 41337
L107517 41363
L107530 41389
L107530 41442
L107517 41468
L107491 41494
L107438 41507
L107346 41507
L107294 41494
L107268 41468
L107255 41442
" />
<path d="M107255 41205
L107478 41205
L107504 41192
L107517 41179
L107530 41153
L107530 41100
L107517 41074
L107504 41061
L107478 41048
L107255 41048
" />
<path d="M107255 40956
L107255 40799
" />
<path d="M107530 40877
L107255 40877
" />
<path d="M107425 40707
L107425 40497
" />
<text x="83830" y="52163.8"
textLength="837.926" font-size="367.454" lengthAdjust="spacingAndGlyphs"
text-anchor="middle" opacity="0">3V3</text>
<path d="M83488 51875
L83659 51875
L83567 51980
L83606 51980
L83633 51993
L83646 52006
L83659 52032
L83659 52098
L83646 52124
L83633 52137
L83606 52150
L83528 52150
L83501 52137
L83488 52124
" />
<path d="M83738 51875
L83830 52150
L83921 51875
" />
<path d="M83987 51875
L84158 51875
L84066 51980
L84105 51980
L84131 51993
L84144 52006
L84158 52032
L84158 52098
L84144 52124
L84131 52137
L84105 52150
L84026 52150
L84000 52137
L83987 52124
" />
<text x="84878" y="52187.8"
textLength="916.667" font-size="367.454" lengthAdjust="spacingAndGlyphs"
text-anchor="middle" opacity="0">GND</text>
<path d="M84668 51912
L84641 51899
L84602 51899
L84563 51912
L84536 51938
L84523 51964
L84510 52017
L84510 52056
L84523 52109
L84536 52135
L84563 52161
L84602 52174
L84628 52174
L84668 52161
L84681 52148
L84681 52056
L84628 52056
" />
<path d="M84799 52174
L84799 51899
L84956 52174
L84956 51899
" />
<path d="M85087 52174
L85087 51899
L85153 51899
L85192 51912
L85219 51938
L85232 51964
L85245 52017
L85245 52056
L85232 52109
L85219 52135
L85192 52161
L85153 52174
L85087 52174
" />
<text x="85842" y="52181.8"
textLength="549.213" font-size="367.454" lengthAdjust="spacingAndGlyphs"
text-anchor="middle" opacity="0">TX</text>
<path d="M85632 51893
L85789 51893
" />
<path d="M85710 52168
L85710 51893
" />
<path d="M85855 51893
L86038 52168
" />
<path d="M86038 51893
L85855 52168
" />
<text x="86841" y="52151.8"
textLength="614.83" font-size="367.454" lengthAdjust="spacingAndGlyphs"
text-anchor="middle" opacity="0">RX</text>
<path d="M86795 52138
L86703 52007
" />
<path d="M86637 52138
L86637 51863
L86742 51863
L86768 51876
L86781 51889
L86795 51915
L86795 51954
L86781 51981
L86768 51994
L86742 52007
L86637 52007
" />
<path d="M86886 51863
L87070 52138
" />
<path d="M87070 51863
L86886 52138
" />
<text x="87847" y="52122.8"
textLength="759.186" font-size="367.454" lengthAdjust="spacingAndGlyphs"
text-anchor="middle" opacity="0">IO0</text>
<path d="M87571 52109
L87571 51834
" />
<path d="M87755 51834
L87807 51834
L87833 51847
L87860 51873
L87873 51925
L87873 52017
L87860 52070
L87833 52096
L87807 52109
L87755 52109
L87728 52096
L87702 52070
L87689 52017
L87689 51925
L87702 51873
L87728 51847
L87755 51834
" />
<path d="M88043 51834
L88070 51834
L88096 51847
L88109 51860
L88122 51886
L88135 51939
L88135 52004
L88122 52057
L88109 52083
L88096 52096
L88070 52109
L88043 52109
L88017 52096
L88004 52083
L87991 52057
L87978 52004
L87978 51939
L87991 51886
L88004 51860
L88017 51847
L88043 51834
" />
<text x="88892" y="52097.8"
textLength="614.83" font-size="367.454" lengthAdjust="spacingAndGlyphs"
text-anchor="middle" opacity="0">EN</text>
<path d="M88688 51940
L88780 51940
" />
<path d="M88819 52084
L88688 52084
L88688 51809
L88819 51809
" />
<path d="M88937 52084
L88937 51809
L89095 52084
L89095 51809
" />
</g>
<g style="fill:#000000; fill-opacity:0.0; 
stroke:#000000; stroke-width:19.685; stroke-opacity:1; 
stroke-linecap:round; stroke-linejoin:round;">
<path d="M83590 52255
L101580 52275
" />
</g>
<g style="fill:#000000; fill-opacity:0.0; 
stroke:#000000; stroke-width:118.11; stroke-opacity:1; 
stroke-linecap:round; stroke-linejoin:round;">
<path d="M92552 49497
L92414 49497
" />
<circle cx="92477.2" cy="49509" r="93.5815" /> 
</g>
<g style="fill:#000000; fill-opacity:0.0; 
stroke:#000000; stroke-width:59.0551; stroke-opacity:1; 
stroke-linecap:round; stroke-linejoin:round;">
<path d="M89250 49794
L89457 49794
" />
<path d="M89250 46940
L89457 46940
" />
<path d="M92105 46940
L91898 46940
" />
<path d="M92105 49794
L91898 49794
" />
<path d="M89250 46940
L89250 47146
" />
<path d="M92105 46940
L92105 47146
" />
<path d="M89250 49794
L89250 49587
" />
</g>
<g style="fill:#000000; fill-opacity:0.0; 
stroke:#000000; stroke-width:39.3701; stroke-opacity:1; 
stroke-linecap:round; stroke-linejoin:round;">
<path d="M91760 49449
L89595 49449
" />
<path d="M89595 47284
L89595 49449
" />
<path d="M91760 47284
L89595 47284
" />
<path d="M91760 47284
L91760 49449
" />
</g>
<g style="fill:#000000; fill-opacity:0.0; 
stroke:#000000; stroke-width:47.2441; stroke-opacity:1; 
stroke-linecap:round; stroke-linejoin:round;">
<path d="M85544 29875
L85544 37749
" />
<path d="M83575 28536
L84756 28536
" />
<path d="M84756 28536
L82394 28536
" />
<path d="M81607 37749
L81607 29875
" />
<path d="M84756 28536
L84756 29875
" />
<path d="M82394 28497
L82394 29875
" />
<path d="M81607 29875
L85544 29875
" />
<path d="M85544 37749
L81607 37749
" />
<path d="M103067 41339
L103067 49213
" />
<path d="M101099 40001
L102280 40001
" />
<path d="M102280 40001
L99918 40001
" />
<path d="M99130 49213
L99130 41339
" />
<path d="M102280 40001
L102280 41339
" />
<path d="M99918 39961
L99918 41339
" />
<path d="M99130 41339
L103067 41339
" />
<path d="M103067 49213
L99130 49213
" />
</g>
<g style="fill:#000000; fill-opacity:0.0; 
stroke:#000000; stroke-width:39.3701; stroke-opacity:1; 
stroke-linecap:round; stroke-linejoin:round;">
<path d="M100544 32375
L100622 32375
" />
<path d="M100544 31194
L100622 31194
" />
<path d="M99441 31194
L99520 31194
" />
<path d="M99520 32375
L99520 32926
" />
<path d="M99441 32375
L99520 32375
" />
</g>
<g style="fill:#000000; fill-opacity:0.0; 
stroke:#000000; stroke-width:59.0551; stroke-opacity:1; 
stroke-linecap:round; stroke-linejoin:round;">
<circle cx="99402.4" cy="32729.5" r="31.1248" /> 
</g>
<g style="fill:#000000; fill-opacity:0.0; 
stroke:#000000; stroke-width:39.3701; stroke-opacity:1; 
stroke-linecap:round; stroke-linejoin:round;">
<path d="M100622 32375
L100622 31194
" />
<path d="M99441 31194
L99441 32375
" />
</g>
<g style="fill:#000000; fill-opacity:1.0; 
stroke:#000000; stroke-width:3.93701; stroke-opacity:1; 
stroke-linecap:round; stroke-linejoin:round;">
<path style="fill:#000000; fill-opacity:1.0; 
stroke:#000000; stroke-width:3.93701; stroke-opacity:1; 
stroke-linecap:round; stroke-linejoin:round;fill-rule:evenodd;"
d="M 91940.1,31501.7
91957.7,31508.6
91973,31520.3
91984.8,31536.8
91985.7,31538.7
91992.5,31560.3
91993,31581.3
91987.9,31600.7
91977.5,31617.5
91962.5,31630.8
91943.2,31639.5
91932,31641.9
91921.7,31642.7
91913.3,31642.3
91913,31642.2
91903.7,31640.3
91898.4,31639.1
91888.9,31634.7
91877.9,31626
91867.5,31614.9
91859.6,31603.2
91859.4,31602.7
91854.2,31586.1
91853,31566.9
91856,31548
91859.2,31539.2
91870.3,31522.1
91885.2,31509.8
91902.6,31502.3
91921.3,31499.6
Z" /> 
<path style="fill:#000000; fill-opacity:1.0; 
stroke:#000000; stroke-width:3.93701; stroke-opacity:1; 
stroke-linecap:round; stroke-linejoin:round;fill-rule:evenodd;"
d="M 92350.8,31791.1
92365.3,31796.5
92380.7,31807.5
92391,31823.2
92396.1,31843.2
92396.2,31843.4
92395.2,31862.1
92388.6,31878.4
92377.5,31891.7
92363,31901.1
92346.2,31906
92328.2,31905.6
92310.8,31899.6
92296.5,31888.5
92286.8,31873.6
92282,31856.5
92282.3,31838.7
92287.8,31821.7
92298.3,31807.5
92314.9,31795.2
92332.4,31789.8
Z" /> 
<path style="fill:#000000; fill-opacity:1.0; 
stroke:#000000; stroke-width:3.93701; stroke-opacity:1; 
stroke-linecap:round; stroke-linejoin:round;fill-rule:evenodd;"
d="M 92383.6,31630.3
92386.4,31641.7
92389.3,31648.2
92393.7,31651.9
92400.5,31654.3
92412.4,31658.6
92424.6,31664
92425.7,31664.6
92438.3,31671
92454.1,31661.2
92463.6,31655.7
92470.8,31652.1
92473.3,31651.4
92477.4,31653.7
92484.7,31659.9
92494.1,31668.5
92504,31678.4
92513.3,31688.1
92520.6,31696.4
92524.4,31701.8
92526.1,31707.1
92524.8,31713.3
92519.8,31722.4
92518.1,31725.2
92507.9,31741.3
92514.3,31754.1
92519.8,31766.2
92524.5,31778.6
92524.9,31779.7
92529.2,31789
92535.9,31794.1
92541.7,31796.1
92551.6,31798.4
92559.2,31799.6
92560,31799.6
92564.5,31802.3
92567.6,31810.4
92569.4,31824.5
92569.9,31844.7
92569,31863.1
92566.5,31876.5
92562.5,31884.2
92558.8,31885.9
92552.8,31886.8
92543.5,31888.9
92541.7,31889.4
92533.6,31892.6
92528.5,31897.6
92524.3,31906.9
92523.5,31909.2
92519.2,31920.8
92514.7,31931.1
92513.2,31934.1
92510.8,31939.6
92510.9,31944.9
92513.9,31952.2
92518.5,31960.4
92528.6,31978.1
92515.1,31994.9
92506.9,32004.3
92497.2,32014.2
92487.3,32023.3
92478.7,32030.3
92472.8,32033.9
92471.9,32034.1
92468.1,32032.5
92460.4,32028.1
92453.9,32024.2
92437.9,32014.2
92416.9,32024.2
92404.8,32029.3
92394.1,32032.9
92387.7,32034.1
92384,32033.9
92381.7,32032.3
92380.5,32028.1
92380.3,32019.9
92380.6,32006.6
92380.8,32000.9
92382,31967.6
92397.5,31955.2
92419.9,31935.5
92436.6,31916.7
92448.4,31897.6
92456.3,31876.8
92459.4,31863
92461,31835.6
92456.2,31809
92445.5,31784.2
92429.5,31762.1
92408.6,31743.6
92391.4,31733.4
92378.8,31727.6
92368.5,31724.2
92357.6,31722.6
92343.3,31722.1
92339,31722.1
92311.3,31724.5
92287.3,31732.2
92265.5,31745.6
92257.1,31752.7
92239.5,31772.9
92227.1,31796.2
92220,31821.6
92218.1,31847.9
92221.4,31873.9
92230.1,31898.4
92244,31920.4
92254.6,31931.5
92266.1,31942
92277.9,31953
92284.1,31958.7
92297.5,31971.3
92297.5,32035
92286.5,32032.8
92277.1,32030.1
92264.8,32025.5
92257.6,32022.4
92239.6,32014.2
92224.6,32024.1
92215.3,32029.8
92208,32033.5
92205.5,32034.1
92201.4,32031.9
92193.8,32025.7
92184,32016.9
92179.2,32012.2
92166.1,31999.2
92157.6,31989.6
92153.2,31982.3
92152.3,31975.9
92154.5,31969.3
92159.3,31961.1
92159.6,31960.6
92169.6,31944.7
92161.2,31925.5
92156.6,31914.5
92153.6,31905.6
92152.7,31901.5
92151.5,31897
92147.1,31893.5
92138,31890.2
92129.1,31887.8
92118.3,31884.1
92112.6,31879.3
92110.9,31875.3
92109.3,31865.3
92108.4,31851
92108.4,31835.2
92109.1,31820.5
92110,31813
92112,31804.8
92116,31800.6
92124.2,31798.5
92125.9,31798.2
92141.1,31794.6
92150.1,31789.5
92152.7,31784.1
92154,31778.5
92157.5,31768.9
92161.2,31759.9
92169.7,31740.7
92159.7,31724.6
92153.9,31714.3
92152,31707.3
92153.3,31701.9
92157.6,31696
92165.2,31687.5
92174.8,31677.7
92184.9,31667.9
92194.3,31659.4
92201.7,31653.5
92205.5,31651.4
92210.5,31653.2
92218.9,31657.8
92224.7,31661.4
92239.7,31671.4
92260.9,31661.4
92272.2,31656.3
92281.3,31652.7
92286.1,31651.4
92289,31648.3
92292.1,31640.1
92294.3,31630.7
92298.4,31610
92379.3,31610
Z" /> 
<path style="fill:#000000; fill-opacity:1.0; 
stroke:#000000; stroke-width:3.93701; stroke-opacity:1; 
stroke-linecap:round; stroke-linejoin:round;fill-rule:evenodd;"
d="M 92602,31398.1
92606.8,31400.2
92616.9,31405.2
92631.5,31412.6
92649.9,31422.1
92671.2,31433.3
92694.7,31445.7
92710.9,31454.3
92740.4,31470.1
92764.4,31483.2
92783.2,31493.8
92797.4,31502.3
92807.7,31508.9
92814.4,31514
92818.2,31518
92818.7,31518.6
92819.8,31520.7
92820.8,31523.3
92821.7,31526.9
92822.4,31532
92823,31538.9
92823.5,31548.2
92824,31560.3
92824.3,31575.6
92824.6,31594.6
92824.8,31617.7
92824.9,31645.4
92825,31678.2
92825.1,31716.4
92825.1,31760.6
92825.1,31811.1
92825.1,31819.7
92825.1,31872.5
92825.1,31919
92825.1,31959.4
92825,31994.2
92824.8,32023.8
92824.4,32048.8
92823.9,32069.5
92823.2,32086.3
92822.3,32099.7
92821.1,32110.2
92819.5,32118.1
92817.7,32123.9
92815.5,32128.1
92812.9,32131.1
92809.8,32133.2
92806.3,32135
92802.3,32137
92801,32137.6
92788.5,32141.7
92772,32144.2
92753.6,32145.1
92735.5,32144.2
92719.8,32141.8
92708.7,32137.6
92698.9,32129.7
92690.8,32119.9
92690.6,32119.5
92689.3,32117.2
92688.2,32114.6
92687.2,32111
92686.4,32106.1
92685.7,32099.4
92685.2,32090.4
92684.8,32078.6
92684.4,32063.5
92684.2,32044.6
92684,32021.4
92683.9,31993.5
92683.8,31960.4
92683.8,31921.5
92683.7,31876.4
92683.7,31856.1
92683.7,31603.9
92610.8,31564.7
92585.2,31550.7
92563.9,31538.5
92547.4,31528.4
92536.2,31520.8
92530.8,31516
92525,31502.8
92524.1,31486.2
92527.5,31467.4
92535.1,31447.6
92546.5,31428
92556.4,31415.4
92568.1,31405.7
92582,31399.3
92595.6,31397.1
Z" /> 
<path style="fill:#000000; fill-opacity:1.0; 
stroke:#000000; stroke-width:3.93701; stroke-opacity:1; 
stroke-linecap:round; stroke-linejoin:round;fill-rule:evenodd;"
d="M 91994.1,32040.3
92067,32079.5
92090.6,32092.4
92111,32104
92127.5,32113.9
92139.4,32121.7
92146,32126.9
92146.7,32127.7
92153.6,32140.9
92155.3,32155.7
92151.9,32173
92143.3,32193.9
92143,32194.5
92131.4,32215.5
92119.9,32230.4
92107.9,32240
92097.3,32244.6
92090.2,32246.5
92084.2,32247.3
92078.2,32246.6
92070.6,32244
92060.1,32239.2
92045.5,32231.7
92038,32227.8
91994.5,32205
91957.2,32185
91926,32167.9
91900.8,32153.5
91881.5,32141.8
91868,32132.8
91860.3,32126.3
91858.7,32124.3
91857.5,32121.9
91856.5,32118.7
91855.6,32114.1
91854.9,32107.7
91854.3,32099
91853.8,32087.4
91853.4,32072.4
91853.1,32053.6
91852.9,32030.3
91852.8,32002.2
91852.7,31968.6
91852.7,31929.2
91852.7,31888.3
91852.7,31662.4
91872.5,31673.3
91883.2,31678.7
91892.2,31682
91902.2,31683.6
91915.6,31684.1
91921.9,31684.1
91937.5,31683.9
91948.7,31682.6
91958.4,31679.9
91969.1,31675.1
91972.8,31673.2
91994.1,31662.2
Z" /> 
<path style="fill:#000000; fill-opacity:1.0; 
stroke:#000000; stroke-width:3.93701; stroke-opacity:1; 
stroke-linecap:round; stroke-linejoin:round;fill-rule:evenodd;"
d="M 92865.2,32689.8
92875.1,32691.3
92882.2,32694.5
92884.7,32696.2
92892.2,32705.9
92895.8,32718.6
92895.6,32732.2
92891.8,32744.9
92884.6,32754.6
92878.5,32758.3
92870.3,32760.1
92858.1,32761.4
92847.3,32761.7
92825.1,32761.7
92825.1,32689.3
92850.5,32689.3
Z" /> 
<path style="fill:#000000; fill-opacity:1.0; 
stroke:#000000; stroke-width:3.93701; stroke-opacity:1; 
stroke-linecap:round; stroke-linejoin:round;fill-rule:evenodd;"
d="M 92150.7,32725
92152.7,32729.6
92155.8,32738.2
92160.2,32751.9
92164.1,32764.3
92176.2,32803.1
92122.3,32803.1
92134.4,32764.3
92139.3,32749
92143.4,32736.3
92146.5,32727.6
92147.9,32724.1
92149.2,32723.5
Z" /> 
<path style="fill:#000000; fill-opacity:1.0; 
stroke:#000000; stroke-width:3.93701; stroke-opacity:1; 
stroke-linecap:round; stroke-linejoin:round;fill-rule:evenodd;"
d="M 93345.8,32999.7
91380.3,32999.7
91380.3,32640.8
91707.9,32640.8
91707.9,32903.1
91773.4,32903.1
91773.2,32866
91772.9,32847
91772.2,32824.2
91771.1,32800.9
91770.2,32784.1
91769.1,32767.4
91768.4,32753.4
91768,32743.4
91767.9,32738.7
91768,32738.5
91769.2,32741.4
91772.5,32750
91777.3,32763.3
91783.6,32780.6
91790.8,32801
91797.7,32820.6
91826.7,32903.4
91849,32902.4
91871.2,32901.4
91898,32825.5
91905.7,32803.8
91912.6,32784.3
91918.5,32767.8
91923,32755.3
91925.7,32747.9
91926.4,32746.2
91926.7,32748.5
91926.9,32756.8
91926.9,32770.1
91926.7,32787.7
91926.3,32808.5
91926,32822.9
91924,32903.1
91990.6,32903.1
91990.6,32898.8
92022.6,32898.8
92023.5,32900.9
92028.8,32902.2
92039.2,32902.9
92055.5,32903.1
92090.1,32903.1
92098.4,32878.1
92106.7,32853.1
92191.8,32853.1
92200.1,32878.1
92208.4,32903.1
92243,32903.1
92259.5,32902.9
92269.9,32902.2
92275.1,32900.8
92276.1,32898.8
92274.6,32894.7
92270.9,32884.9
92265.3,32870.1
92258.1,32851
92249.6,32828.3
92239.9,32802.8
92229.4,32775.1
92226.7,32767.8
92178.7,32641
92304.4,32641
92304.4,32903.1
92369.9,32903.1
92369.9,32825.9
92380.8,32814.6
92391.7,32803.4
92448.1,32901.4
92486.6,32902.4
92502,32902.6
92514.4,32902.5
92522.6,32902.1
92525.1,32901.5
92523.3,32898.2
92518.4,32889.9
92510.8,32877.5
92501.2,32861.8
92489.9,32843.8
92484,32834.4
92471.9,32815.1
92460.8,32797.5
92451.4,32782.4
92444.3,32770.9
92440.1,32763.8
92439.3,32762.4
92438.5,32759.4
92439.4,32755.3
92442.5,32749.3
92448.3,32740.7
92457.2,32728.7
92469.7,32712.5
92478.6,32701.2
92491.7,32684.5
92503.2,32669.6
92512.4,32657.3
92518.8,32648.5
92521.6,32644.1
92521.7,32643.8
92518.4,32642.7
92509.7,32642
92496.8,32641.6
92482.9,32641.8
92444.1,32642.8
92371.7,32748.7
92370.7,32694.9
92369.8,32641
92545.8,32641
92545.8,32903.2
92557.1,32903.1
92759.6,32903.1
92825.1,32903.1
92825.1,32810
92856.2,32810
92879.4,32856.6
92902.6,32903.1
92936.3,32903.1
92952.3,32902.8
92963.6,32901.8
92969.4,32900.3
92969.9,32899.6
92968.4,32895.5
92964.3,32886.4
92958.1,32873.4
92950.3,32857.6
92945,32847
92936.4,32830.2
92929,32815.6
92923.3,32804.3
92919.8,32797.4
92919,32795.7
92920.9,32792.8
92927.1,32787.9
92930.2,32786
92943.8,32773.7
92954.1,32756.9
92960.5,32737.3
92962.2,32716.6
92959.7,32700.1
92952.4,32684.1
92940.3,32668.8
92925.2,32656.2
92912,32649.4
92904.3,32647.1
92894.3,32645.4
92881,32644
92863.3,32643
92840.2,32642.2
92827.7,32641.9
92759.6,32640.3
92759.6,32903.1
92557.1,32903.1
92726.8,32901.4
92726.8,32856.6
92669.1,32855.6
92611.3,32854.7
92611.3,32792.8
92707.9,32792.8
92707.9,32744.5
92611.3,32744.5
92611.3,32689.3
92725.1,32689.3
92725.1,32641
92545.8,32641
92369.8,32641
92304.4,32641
92178.7,32641
92149.3,32641
92119.9,32641
92072.1,32767.8
92061.5,32795.9
92051.6,32822
92042.7,32845.5
92035.1,32865.6
92029.1,32881.6
92024.9,32892.7
92022.7,32898.3
92022.6,32898.8
91990.6,32898.8
91990.6,32640.8
91906.3,32642.8
91878.6,32729.6
91871.2,32752.9
91864.4,32773.9
91858.4,32791.9
91853.7,32805.8
91850.5,32815
91849.1,32818.3
91847.6,32815.6
91844.4,32807.2
91839.7,32793.8
91833.8,32776.4
91827,32755.6
91819.6,32732.4
91819.3,32731.4
91791.4,32642.8
91707.9,32640.8
91380.3,32640.8
91380.3,31494.5
91707.9,31494.5
91707.9,32149.7
91717.8,32170.4
91725,32183.3
91733.4,32195.3
91739.3,32202
91743.5,32204.9
91753.2,32210.9
91767.7,32219.8
91786.7,32231.2
91809.6,32244.8
91835.9,32260.3
91865,32277.5
91896.5,32296
91929.7,32315.6
91964.3,32335.8
91999.7,32356.4
92035.3,32377.2
92070.6,32397.8
92105.2,32417.8
92138.5,32437.1
92169.9,32455.3
92199,32472
92225.3,32487.1
92248.2,32500.1
92267.2,32510.9
92281.7,32519
92291.4,32524.2
92292.1,32524.5
92315.7,32532.9
92341.5,32535.2
92368,32531.4
92372.5,32530.1
92377.1,32527.9
92387.2,32522.5
92402.4,32514.2
92422.3,32503.1
92446.3,32489.6
92474.1,32473.8
92505.2,32456.1
92539.2,32436.8
92575.6,32415.9
92614,32393.9
92654,32370.9
92655.3,32370.1
92703.9,32342
92747,32317.1
92784.8,32295.2
92817.7,32276
92846,32259.3
92870.2,32244.8
92890.6,32232.3
92907.6,32221.5
92921.4,32212.2
92932.6,32204.2
92941.4,32197.2
92948.2,32190.9
92953.3,32185.2
92957.2,32179.7
92960.1,32174.3
92962.6,32168.6
92964.8,32162.5
92965.3,32161
92966.4,32157.6
92967.3,32153.7
92968.2,32148.9
92968.9,32142.8
92969.5,32134.8
92970,32124.7
92970.4,32111.8
92970.8,32095.9
92971.1,32076.4
92971.3,32052.9
92971.4,32025.1
92971.5,31992.3
92971.6,31954.3
92971.6,31910.6
92971.7,31860.7
92971.7,31822.1
92971.7,31767.6
92971.6,31719.7
92971.6,31677.7
92971.5,31641.4
92971.4,31610.2
92971.2,31583.7
92971,31561.5
92970.7,31543.1
92970.3,31528.1
92969.9,31516.1
92969.3,31506.7
92968.7,31499.3
92967.9,31493.6
92967.1,31489.2
92966.1,31485.5
92965.3,31483.2
92963.1,31476.9
92960.7,31471.1
92957.8,31465.5
92954.1,31460
92949.2,31454.3
92942.6,31448.1
92934.1,31441.2
92923.4,31433.3
92909.9,31424.1
92893.3,31413.6
92873.4,31401.2
92849.6,31387
92821.7,31370.5
92789.3,31351.6
92752,31329.9
92709.4,31305.3
92663,31278.5
92623.5,31255.7
92585.3,31233.8
92549,31212.9
92515,31193.4
92483.9,31175.6
92456,31159.7
92431.8,31146
92411.8,31134.7
92396.5,31126.1
92386.3,31120.5
92382,31118.2
92364.3,31112.5
92343.6,31110
92322.7,31110.6
92304.2,31114.5
92299.2,31116.4
92292.4,31119.9
92280.3,31126.5
92263.5,31135.9
92242.5,31147.8
92217.8,31161.8
92190,31177.7
92159.6,31195.2
92127.1,31214
92092.9,31233.7
92057.7,31254.1
92022,31274.8
91986.2,31295.7
91950.9,31316.3
91916.6,31336.3
91883.9,31355.5
91853.2,31373.5
91825,31390.2
91800,31405
91778.6,31417.8
91761.3,31428.3
91748.6,31436
91741.1,31440.9
91739.3,31442.2
91731.5,31451.4
91723.2,31463.8
91717.8,31473.8
91707.9,31494.5
91380.3,31494.5
91380.3,31034.1
93345.8,31034.1
Z" /> 
</g>
<g style="fill:#000000; fill-opacity:1.0; 
stroke:#000000; stroke-width:47.2441; stroke-opacity:1; 
stroke-linecap:round; stroke-linejoin:round;">
</g>
<g style="fill:#000000; fill-opacity:0.0; 
stroke:#000000; stroke-width:47.2441; stroke-opacity:1; 
stroke-linecap:round; stroke-linejoin:round;">
<path d="M85451 49963
L84876 49963
" />
<path d="M85451 48718
L84600 48718
" />
<path d="M85451 48718
L85451 49085
" />
<path d="M85451 49963
L85451 49596
" />
<path d="M80954 44837
L81478 44837
" />
<path d="M80954 45361
L80954 44837
" />
<path d="M80954 45861
L82001 45861
" />
<path d="M82001 45861
L82001 48884
" />
<path d="M80954 45861
L80954 48884
" />
<path d="M80954 48884
L82001 48884
" />
<path d="M89244 25184
L88654 25184
" />
<path d="M89244 25869
L89244 25184
" />
<path d="M86071 28082
L86071 25279
" />
<path d="M89150 28082
L89150 25279
" />
<path d="M89150 25279
L86071 25279
" />
<path d="M89150 28082
L86071 28082
" />
<path d="M89150 25893
L86071 25893
" />
<circle cx="86922" cy="26720" r="612.205" /> 
<path d="M88539.4 26156.2 A612.491 612.491 0.0 0 0 88289.4 26107.6" />
<path d="M88863.8 26959.4 A612.491 612.491 0.0 0 0 88863.8 26480.7" />
<path d="M88060.6 27283.8 A612.491 612.491 0.0 0 0 88539.3 27283.8" />
<path d="M87736.2 26480.6 A612.491 612.491 0.0 0 0 87736.2 26959.3" />
<path d="M88300 26107.8 A612.205 612.205 0.0 0 0 88060.8 26156.5" />
<path d="M105504 32167
L105504 31692
" />
<path d="M104787 32167
L104787 31692
" />
<path d="M95529 25224
L94939 25224
" />
<path d="M95529 25909
L95529 25224
" />
<path d="M89600 28122
L89600 25319
" />
<path d="M95435 28122
L95435 25319
" />
<path d="M95435 25319
L89600 25319
" />
<path d="M95435 28122
L89600 28122
" />
<path d="M95435 25933
L89600 25933
" />
<circle cx="90451.1" cy="26760" r="612.205" /> 
<circle cx="91829.1" cy="26760" r="612.205" /> 
<circle cx="93207" cy="26760" r="612.205" /> 
<path d="M94824.4 26196.2 A612.491 612.491 0.0 0 0 94574.4 26147.6" />
<path d="M95148.8 26999.4 A612.491 612.491 0.0 0 0 95148.8 26520.7" />
<path d="M94345.6 27323.8 A612.491 612.491 0.0 0 0 94824.3 27323.8" />
<path d="M94021.2 26520.6 A612.491 612.491 0.0 0 0 94021.2 26999.3" />
<path d="M94585 26147.8 A612.205 612.205 0.0 0 0 94345.8 26196.5" />
<path d="M94455 31083
L94455 28957
" />
<path d="M95754 31083
L95754 28957
" />
<path d="M94455 31083
L95754 31083
" />
<path d="M85178 47991
L85178 48119
" />
<path d="M85579 47991
L85579 48119
" />
<path d="M79354 45654
L79354 45782
" />
<path d="M79755 45654
L79755 45782
" />
<path d="M79952 45654
L79952 45782
" />
<path d="M80354 45654
L80354 45782
" />
<path d="M82001 44284
L81478 44284
" />
<path d="M82001 43761
L82001 44284
" />
<path d="M82001 43261
L80954 43261
" />
<path d="M80954 43261
L80954 41237
" />
<path d="M82001 43261
L82001 41237
" />
<path d="M82001 41237
L80954 41237
" />
<path d="M102380 31114
L102380 30985
" />
<path d="M101979 31114
L101979 30985
" />
<path d="M98897 34975
L98768 34975
" />
<path d="M98897 35376
L98768 35376
" />
<path d="M97618 34291
L97618 35190
" />
<path d="M98197 34291
L97618 34291
" />
<path d="M98197 35190
L98197 34291
" />
<path d="M102628 30345
L103731 30345
" />
<path d="M102628 29274
L103731 29274
" />
<path d="M98703 32227
L98832 32227
" />
<path d="M98703 31826
L98832 31826
" />
<path d="M103097 36214
L103097 33848
" />
<path d="M105782 35328
L105782 33848
" />
<path d="M103097 33848
L103593 33848
" />
<path d="M105782 33848
L105286 33848
" />
<path d="M96454 30048
L96848 30048
" />
<path d="M96651 30245
L96651 29851
" />
<path d="M98898 29757
L99317 29338
" />
<path d="M96381 29757
L95962 29338
" />
<path d="M96381 29757
L97045 29757
" />
<path d="M98898 29757
L98234 29757
" />
<path d="M99317 29338
L99317 26402
" />
<path d="M95962 29338
L95962 26402
" />
<path d="M95962 26402
L97045 26402
" />
<path d="M99317 26402
L98234 26402
" />
<path d="M87878 45121
L88007 45121
" />
<path d="M87878 44719
L88007 44719
" />
<path d="M88011 44121
L87882 44121
" />
<path d="M88011 44523
L87882 44523
" />
<path d="M86159 45213
L87058 45213
" />
<path d="M86159 44634
L86159 45213
" />
<path d="M87058 44634
L86159 44634
" />
<path d="M86175 44607
L87074 44607
" />
<path d="M86175 44028
L86175 44607
" />
<path d="M87074 44028
L86175 44028
" />
<path d="M83321 51718
L83321 51195
" />
<path d="M83845 51718
L83321 51718
" />
<path d="M84345 51718
L84345 50671
" />
<path d="M84345 50671
L89368 50671
" />
<path d="M84345 51718
L89368 51718
" />
<path d="M89368 51718
L89368 50671
" />
<path d="M102834 36432
L100467 36432
" />
<path d="M101948 33747
L100467 33747
" />
<path d="M100467 36432
L100467 35936
" />
<path d="M100467 33747
L100467 34243
" />
<path d="M97499 51279
L97370 51279
" />
<path d="M97499 51680
L97370 51680
" />
<path d="M93080 48436
L93080 48565
" />
<path d="M93481 48436
L93481 48565
" />
<path d="M93455 50819
L93455 50690
" />
<path d="M93054 50819
L93054 50690
" />
<path d="M101780 31109
L101780 30980
" />
<path d="M101379 31109
L101379 30980
" />
<path d="M100779 30980
L100779 31109
" />
<path d="M101180 30980
L101180 31109
" />
<path d="M83433 49315
L83433 49187
" />
<path d="M83032 49315
L83032 49187
" />
<path d="M83632 49191
L83632 49320
" />
<path d="M84034 49191
L84034 49320
" />
<path d="M84171 44038
L84042 44038
" />
<path d="M84171 44439
L84042 44439
" />
<path d="M84206 45064
L84206 45192
" />
<path d="M84607 45064
L84607 45192
" />
<path d="M83611 45059
L83611 45187
" />
<path d="M84012 45059
L84012 45187
" />
<path d="M95695 51100
L95824 51100
" />
<path d="M95695 50699
L95824 50699
" />
<path d="M98615 47845
L98615 47974
" />
<path d="M99016 47845
L99016 47974
" />
<path d="M88050 45755
L88050 45884
" />
<path d="M88451 45755
L88451 45884
" />
<path d="M87459 45755
L87459 45884
" />
<path d="M87861 45755
L87861 45884
" />
<path d="M99457 33056
L99328 33056
" />
<path d="M99457 33457
L99328 33457
" />
<path d="M98897 34370
L98768 34370
" />
<path d="M98897 34771
L98768 34771
" />
<path d="M83428 45187
L83428 45059
" />
<path d="M83026 45187
L83026 45059
" />
<path d="M88798 49527
L88798 49398
" />
<path d="M88397 49527
L88397 49398
" />
<path d="M106080 32145
L106080 32016
" />
<path d="M105679 32145
L105679 32016
" />
<path d="M90922 45503
L90793 45503
" />
<path d="M90922 45904
L90793 45904
" />
<path d="M99487 29914
L99358 29914
" />
<path d="M99487 30315
L99358 30315
" />
<path d="M97370 51095
L97499 51095
" />
<path d="M97370 50694
L97499 50694
" />
<path d="M93499 50089
L93628 50089
" />
<path d="M93499 49688
L93628 49688
" />
<path d="M100501 33464
L100630 33464
" />
<path d="M100501 33063
L100630 33063
" />
<path d="M92274 51101
L92274 50972
" />
<path d="M91873 51101
L91873 50972
" />
<path d="M91370 51118
L91370 50989
" />
<path d="M90969 51118
L90969 50989
" />
<path d="M102204 33054
L102075 33054
" />
<path d="M102204 33455
L102075 33455
" />
<path d="M94083 48565
L94083 48436
" />
<path d="M93682 48565
L93682 48436
" />
<path d="M87266 45888
L87266 45759
" />
<path d="M86865 45888
L86865 45759
" />
<path d="M93505 51835
L93634 51835
" />
<path d="M93505 51434
L93634 51434
" />
<path d="M98832 32431
L98703 32431
" />
<path d="M98832 32832
L98703 32832
" />
<path d="M102582 30739
L102582 32746
" />
<path d="M104629 30739
L104629 32746
" />
<path d="M82990 47178
L82990 48537
" />
<path d="M82990 47178
L82990 46411
" />
<path d="M85006 47178
L85006 47946
" />
<path d="M85006 47178
L85006 46411
" />
</g>
<g style="fill:#000000; fill-opacity:0.0; 
stroke:#000000; stroke-width:59.0551; stroke-opacity:1; 
stroke-linecap:round; stroke-linejoin:round;">
<path d="M96048 48520
L95496 48520
" />
<path d="M96048 50528
L97681 50528
" />
<path d="M96048 48501
L97681 48501
" />
<path d="M96048 50528
L96048 50471
" />
<path d="M97681 50528
L97681 50471
" />
<path d="M97681 48501
L97681 48558
" />
<path d="M96048 48501
L96048 48520
" />
</g>
<g style="fill:#000000; fill-opacity:0.0; 
stroke:#000000; stroke-width:47.2441; stroke-opacity:1; 
stroke-linecap:round; stroke-linejoin:round;">
<path d="M103505 43935
L103505 41691
" />
<path d="M105198 43935
L105198 41691
" />
<path d="M103505 43935
L105198 43935
" />
<path d="M105204 44040
L105204 46284
" />
<path d="M103511 44040
L103511 46284
" />
<path d="M105204 44040
L103511 44040
" />
<path d="M101845 27596
L101845 29841
" />
<path d="M100152 27596
L100152 29841
" />
<path d="M101845 27596
L100152 27596
" />
</g>
<g style="fill:#000000; fill-opacity:0.0; 
stroke:#000000; stroke-width:59.0551; stroke-opacity:1; 
stroke-linecap:round; stroke-linejoin:round;">
<text x="92713.4" y="49178.3"
textLength="549.213" font-size="314.961" lengthAdjust="spacingAndGlyphs"
text-anchor="middle" opacity="0">U2</text>
<path d="M92533 48930
L92533 49122
L92544 49144
L92555 49155
L92578 49167
L92623 49167
L92645 49155
L92657 49144
L92668 49122
L92668 48930
" />
<path d="M92769 48953
L92780 48942
L92803 48930
L92859 48930
L92882 48942
L92893 48953
L92904 48975
L92904 48998
L92893 49032
L92758 49167
L92904 49167
" />
<g transform="rotate(-90 87118.9 35485.4)">
<text x="87118.9" y="35682.3"
textLength="864.173" font-size="524.934" lengthAdjust="spacingAndGlyphs"
text-anchor="middle" opacity="0">U9</text>
</g>
<path d="M86903 35785
L87222 35785
L87259 35766
L87278 35747
L87297 35710
L87297 35635
L87278 35597
L87259 35579
L87222 35560
L86903 35560
" />
<path d="M87297 35354
L87297 35279
L87278 35241
L87259 35222
L87203 35185
L87128 35166
L86978 35166
L86940 35185
L86922 35204
L86903 35241
L86903 35316
L86922 35354
L86940 35372
L86978 35391
L87072 35391
L87109 35372
L87128 35354
L87147 35316
L87147 35241
L87128 35204
L87109 35185
L87072 35166
" />
<g transform="rotate(-90 104643 46950)">
<text x="104643" y="47146.8"
textLength="864.173" font-size="524.934" lengthAdjust="spacingAndGlyphs"
text-anchor="middle" opacity="0">U8</text>
</g>
<path d="M104426 47249
L104745 47249
L104783 47231
L104801 47212
L104820 47174
L104820 47099
L104801 47062
L104783 47043
L104745 47024
L104426 47024
" />
<path d="M104595 46781
L104576 46818
L104558 46837
L104520 46856
L104501 46856
L104464 46837
L104445 46818
L104426 46781
L104426 46706
L104445 46668
L104464 46650
L104501 46631
L104520 46631
L104558 46650
L104576 46668
L104595 46706
L104595 46781
L104614 46818
L104633 46837
L104670 46856
L104745 46856
L104783 46837
L104801 46818
L104820 46781
L104820 46706
L104801 46668
L104783 46650
L104745 46631
L104670 46631
L104633 46650
L104614 46668
L104595 46706
" />
<g transform="rotate(-90 100229 31784.6)">
<text x="100229" y="31981.5"
textLength="864.173" font-size="524.934" lengthAdjust="spacingAndGlyphs"
text-anchor="middle" opacity="0">U1</text>
</g>
<path d="M100013 32084
L100332 32084
L100369 32065
L100388 32047
L100407 32009
L100407 31934
L100388 31897
L100369 31878
L100332 31859
L100013 31859
" />
<path d="M100407 31465
L100407 31690
" />
<path d="M100407 31578
L100013 31578
L100069 31615
L100107 31653
L100126 31690
" />
<g transform="rotate(-90 93571.7 39481.5)">
<text x="93571.7" y="39678.3"
textLength="864.173" font-size="524.934" lengthAdjust="spacingAndGlyphs"
text-anchor="middle" opacity="0">U3</text>
</g>
<path d="M93356 39781
L93674 39781
L93712 39762
L93731 39743
L93749 39706
L93749 39631
L93731 39593
L93712 39575
L93674 39556
L93356 39556
" />
<path d="M93356 39406
L93356 39162
L93506 39293
L93506 39237
L93524 39200
L93543 39181
L93581 39162
L93674 39162
L93712 39181
L93731 39200
L93749 39237
L93749 39350
L93731 39387
L93712 39406
" />
<text x="85152" y="48553.6"
textLength="864.173" font-size="524.934" lengthAdjust="spacingAndGlyphs"
text-anchor="middle" opacity="0">Q1</text>
<path d="M85114 48572
L85077 48553
L85039 48516
L84983 48459
L84945 48441
L84908 48441
" />
<path d="M84927 48534
L84889 48516
L84852 48478
L84833 48403
L84833 48272
L84852 48197
L84889 48159
L84927 48141
L85002 48141
L85039 48159
L85077 48197
L85095 48272
L85095 48403
L85077 48478
L85039 48516
L85002 48534
L84927 48534
" />
<path d="M85470 48534
L85245 48534
" />
<path d="M85358 48534
L85358 48141
L85320 48197
L85283 48234
L85245 48253
" />
<text x="82069.1" y="49412.4"
textLength="549.213" font-size="367.454" lengthAdjust="spacingAndGlyphs"
text-anchor="middle" opacity="0">J1</text>
<path d="M81977 49123
L81977 49320
L81964 49359
L81937 49386
L81898 49399
L81872 49399
" />
<path d="M82252 49399
L82095 49399
" />
<path d="M82174 49399
L82174 49123
L82147 49163
L82121 49189
L82095 49202
" />
<text x="89123" y="25018.8"
textLength="549.213" font-size="367.454" lengthAdjust="spacingAndGlyphs"
text-anchor="middle" opacity="0">J5</text>
<path d="M89031 24730
L89031 24926
L89018 24966
L88991 24992
L88952 25005
L88926 25005
" />
<path d="M89293 24730
L89162 24730
L89149 24861
L89162 24848
L89188 24835
L89254 24835
L89280 24848
L89293 24861
L89306 24887
L89306 24953
L89293 24979
L89280 24992
L89254 25005
L89188 25005
L89162 24992
L89149 24979
" />
<text x="105268" y="31015.8"
textLength="877.296" font-size="367.454" lengthAdjust="spacingAndGlyphs"
text-anchor="middle" opacity="0">C16</text>
<path d="M105090 30976
L105077 30989
L105038 31002
L105012 31002
L104972 30989
L104946 30963
L104933 30937
L104920 30884
L104920 30845
L104933 30792
L104946 30766
L104972 30740
L105012 30727
L105038 30727
L105077 30740
L105090 30753
" />
<path d="M105353 31002
L105195 31002
" />
<path d="M105274 31002
L105274 30727
L105248 30766
L105222 30792
L105195 30805
" />
<path d="M105589 30727
L105537 30727
L105510 30740
L105497 30753
L105471 30792
L105458 30845
L105458 30950
L105471 30976
L105484 30989
L105510 31002
L105563 31002
L105589 30989
L105602 30976
L105615 30950
L105615 30884
L105602 30858
L105589 30845
L105563 30832
L105510 30832
L105484 30845
L105471 30858
L105458 30884
" />
<text x="93986" y="28691.8"
textLength="549.213" font-size="367.454" lengthAdjust="spacingAndGlyphs"
text-anchor="middle" opacity="0">J2</text>
<path d="M93894 28403
L93894 28599
L93881 28639
L93854 28665
L93815 28678
L93789 28678
" />
<path d="M94012 28429
L94025 28416
L94051 28403
L94117 28403
L94143 28416
L94156 28429
L94169 28455
L94169 28481
L94156 28521
L93999 28678
L94169 28678
" />
<text x="95603" y="31467.8"
textLength="614.83" font-size="367.454" lengthAdjust="spacingAndGlyphs"
text-anchor="middle" opacity="0">D1</text>
<path d="M95399 31454
L95399 31179
L95465 31179
L95504 31192
L95530 31218
L95543 31244
L95557 31297
L95557 31336
L95543 31389
L95530 31415
L95504 31441
L95465 31454
L95399 31454
" />
<path d="M95819 31454
L95662 31454
" />
<path d="M95740 31454
L95740 31179
L95714 31218
L95688 31244
L95662 31257
" />
<text x="86088" y="48618.8"
textLength="877.296" font-size="367.454" lengthAdjust="spacingAndGlyphs"
text-anchor="middle" opacity="0">R12</text>
<path d="M85910 48605
L85818 48474
" />
<path d="M85753 48605
L85753 48330
L85858 48330
L85884 48343
L85897 48356
L85910 48382
L85910 48421
L85897 48448
L85884 48461
L85858 48474
L85753 48474
" />
<path d="M86173 48605
L86015 48605
" />
<path d="M86094 48605
L86094 48330
L86068 48369
L86042 48395
L86015 48408
" />
<path d="M86278 48356
L86291 48343
L86317 48330
L86383 48330
L86409 48343
L86422 48356
L86435 48382
L86435 48408
L86422 48448
L86265 48605
L86435 48605
" />
<text x="79458" y="46688.8"
textLength="614.83" font-size="367.454" lengthAdjust="spacingAndGlyphs"
text-anchor="middle" opacity="0">R3</text>
<path d="M79412 46675
L79320 46544
" />
<path d="M79254 46675
L79254 46400
L79359 46400
L79385 46413
L79398 46426
L79412 46452
L79412 46491
L79398 46518
L79385 46531
L79359 46544
L79254 46544
" />
<path d="M79503 46400
L79674 46400
L79582 46505
L79622 46505
L79648 46518
L79661 46531
L79674 46557
L79674 46623
L79661 46649
L79648 46662
L79622 46675
L79543 46675
L79517 46662
L79503 46649
" />
<text x="80148" y="46678.8"
textLength="614.83" font-size="367.454" lengthAdjust="spacingAndGlyphs"
text-anchor="middle" opacity="0">R2</text>
<path d="M80102 46665
L80010 46534
" />
<path d="M79944 46665
L79944 46390
L80049 46390
L80075 46403
L80088 46416
L80102 46442
L80102 46481
L80088 46508
L80075 46521
L80049 46534
L79944 46534
" />
<path d="M80207 46416
L80220 46403
L80246 46390
L80312 46390
L80338 46403
L80351 46416
L80364 46442
L80364 46468
L80351 46508
L80193 46665
L80364 46665
" />
<text x="80519" y="41376.7"
textLength="549.213" font-size="367.454" lengthAdjust="spacingAndGlyphs"
text-anchor="middle" opacity="0">J3</text>
<path d="M80427 41087
L80427 41284
L80413 41324
L80387 41350
L80348 41363
L80322 41363
" />
<path d="M80532 41087
L80702 41087
L80610 41192
L80650 41192
L80676 41206
L80689 41219
L80702 41245
L80702 41311
L80689 41337
L80676 41350
L80650 41363
L80571 41363
L80545 41350
L80532 41337
" />
<text x="102164" y="32003.8"
textLength="877.296" font-size="367.454" lengthAdjust="spacingAndGlyphs"
text-anchor="middle" opacity="0">C14</text>
<path d="M101986 31964
L101973 31977
L101934 31990
L101908 31990
L101868 31977
L101842 31951
L101829 31925
L101816 31872
L101816 31833
L101829 31780
L101842 31754
L101868 31728
L101908 31715
L101934 31715
L101973 31728
L101986 31741
" />
<path d="M102249 31990
L102091 31990
" />
<path d="M102170 31990
L102170 31715
L102144 31754
L102118 31780
L102091 31793
" />
<path d="M102485 31806
L102485 31990
" />
<path d="M102419 31701
L102354 31898
L102524 31898
" />
<text x="99205" y="35812.8"
textLength="614.83" font-size="367.454" lengthAdjust="spacingAndGlyphs"
text-anchor="middle" opacity="0">R8</text>
<path d="M99159 35799
L99067 35668
" />
<path d="M99001 35799
L99001 35524
L99106 35524
L99132 35537
L99145 35550
L99159 35576
L99159 35615
L99145 35642
L99132 35655
L99106 35668
L99001 35668
" />
<path d="M99316 35642
L99290 35629
L99277 35615
L99264 35589
L99264 35576
L99277 35550
L99290 35537
L99316 35524
L99369 35524
L99395 35537
L99408 35550
L99421 35576
L99421 35589
L99408 35615
L99395 35629
L99369 35642
L99316 35642
L99290 35655
L99277 35668
L99264 35694
L99264 35747
L99277 35773
L99290 35786
L99316 35799
L99369 35799
L99395 35786
L99408 35773
L99421 35747
L99421 35694
L99408 35668
L99395 35655
L99369 35642
" />
<text x="98024" y="35827.8"
textLength="614.83" font-size="367.454" lengthAdjust="spacingAndGlyphs"
text-anchor="middle" opacity="0">D4</text>
<path d="M97820 35814
L97820 35539
L97886 35539
L97925 35552
L97951 35578
L97964 35604
L97978 35657
L97978 35696
L97964 35749
L97951 35775
L97925 35801
L97886 35814
L97820 35814
" />
<path d="M98214 35630
L98214 35814
" />
<path d="M98148 35525
L98083 35722
L98253 35722
" />
<text x="103891" y="29130.8"
textLength="614.83" font-size="367.454" lengthAdjust="spacingAndGlyphs"
text-anchor="middle" opacity="0">R6</text>
<path d="M103845 29117
L103753 28986
" />
<path d="M103687 29117
L103687 28842
L103792 28842
L103818 28855
L103831 28868
L103845 28894
L103845 28933
L103831 28960
L103818 28973
L103792 28986
L103687 28986
" />
<path d="M104081 28842
L104028 28842
L104002 28855
L103989 28868
L103963 28907
L103950 28960
L103950 29065
L103963 29091
L103976 29104
L104002 29117
L104055 29117
L104081 29104
L104094 29091
L104107 29065
L104107 28999
L104094 28973
L104081 28960
L104055 28947
L104002 28947
L103976 28960
L103963 28973
L103950 28999
" />
<text x="97782" y="32301.8"
textLength="877.296" font-size="367.454" lengthAdjust="spacingAndGlyphs"
text-anchor="middle" opacity="0">C10</text>
<path d="M97604 32262
L97591 32275
L97552 32288
L97526 32288
L97486 32275
L97460 32249
L97447 32223
L97434 32170
L97434 32131
L97447 32078
L97460 32052
L97486 32026
L97526 32013
L97552 32013
L97591 32026
L97604 32039
" />
<path d="M97867 32288
L97709 32288
" />
<path d="M97788 32288
L97788 32013
L97762 32052
L97736 32078
L97709 32091
" />
<path d="M98037 32013
L98064 32013
L98090 32026
L98103 32039
L98116 32065
L98129 32118
L98129 32183
L98116 32236
L98103 32262
L98090 32275
L98064 32288
L98037 32288
L98011 32275
L97998 32262
L97985 32236
L97972 32183
L97972 32118
L97985 32065
L97998 32039
L98011 32026
L98037 32013
" />
<text x="105681" y="36742.8"
textLength="627.953" font-size="367.454" lengthAdjust="spacingAndGlyphs"
text-anchor="middle" opacity="0">U4</text>
<path d="M105471 36454
L105471 36677
L105484 36703
L105497 36716
L105523 36729
L105576 36729
L105602 36716
L105615 36703
L105628 36677
L105628 36454
" />
<path d="M105877 36545
L105877 36729
" />
<path d="M105812 36440
L105746 36637
L105917 36637
" />
<text x="99541" y="29677.8"
textLength="614.83" font-size="367.454" lengthAdjust="spacingAndGlyphs"
text-anchor="middle" opacity="0">C5</text>
<path d="M99495 29638
L99481 29651
L99442 29664
L99416 29664
L99376 29651
L99350 29625
L99337 29599
L99324 29546
L99324 29507
L99337 29454
L99350 29428
L99376 29402
L99416 29389
L99442 29389
L99481 29402
L99495 29415
" />
<path d="M99744 29389
L99613 29389
L99600 29520
L99613 29507
L99639 29494
L99705 29494
L99731 29507
L99744 29520
L99757 29546
L99757 29612
L99744 29638
L99731 29651
L99705 29664
L99639 29664
L99613 29651
L99600 29638
" />
<text x="88788" y="45178.8"
textLength="614.83" font-size="367.454" lengthAdjust="spacingAndGlyphs"
text-anchor="middle" opacity="0">R9</text>
<path d="M88742 45165
L88650 45034
" />
<path d="M88584 45165
L88584 44890
L88689 44890
L88715 44903
L88728 44916
L88742 44942
L88742 44981
L88728 45008
L88715 45021
L88689 45034
L88584 45034
" />
<path d="M88873 45165
L88925 45165
L88952 45152
L88965 45139
L88991 45100
L89004 45047
L89004 44942
L88991 44916
L88978 44903
L88952 44890
L88899 44890
L88873 44903
L88860 44916
L88847 44942
L88847 45008
L88860 45034
L88873 45047
L88899 45060
L88952 45060
L88978 45047
L88991 45034
L89004 45008
" />
<text x="88808" y="44588.8"
textLength="614.83" font-size="367.454" lengthAdjust="spacingAndGlyphs"
text-anchor="middle" opacity="0">R7</text>
<path d="M88762 44575
L88670 44444
" />
<path d="M88604 44575
L88604 44300
L88709 44300
L88735 44313
L88748 44326
L88762 44352
L88762 44391
L88748 44418
L88735 44431
L88709 44444
L88604 44444
" />
<path d="M88853 44300
L89037 44300
L88919 44575
" />
<text x="85818" y="45178.8"
textLength="614.83" font-size="367.454" lengthAdjust="spacingAndGlyphs"
text-anchor="middle" opacity="0">D5</text>
<path d="M85614 45165
L85614 44890
L85680 44890
L85719 44903
L85745 44929
L85758 44955
L85772 45008
L85772 45047
L85758 45100
L85745 45126
L85719 45152
L85680 45165
L85614 45165
" />
<path d="M86021 44890
L85890 44890
L85877 45021
L85890 45008
L85916 44995
L85982 44995
L86008 45008
L86021 45021
L86034 45047
L86034 45113
L86021 45139
L86008 45152
L85982 45165
L85916 45165
L85890 45152
L85877 45139
" />
<text x="85848" y="44548.8"
textLength="614.83" font-size="367.454" lengthAdjust="spacingAndGlyphs"
text-anchor="middle" opacity="0">D3</text>
<path d="M85644 44535
L85644 44260
L85710 44260
L85749 44273
L85775 44299
L85788 44325
L85802 44378
L85802 44417
L85788 44470
L85775 44496
L85749 44522
L85710 44535
L85644 44535
" />
<path d="M85893 44260
L86064 44260
L85972 44365
L86012 44365
L86038 44378
L86051 44391
L86064 44417
L86064 44483
L86051 44509
L86038 44522
L86012 44535
L85933 44535
L85907 44522
L85893 44509
" />
<text x="89838" y="51878.8"
textLength="549.213" font-size="367.454" lengthAdjust="spacingAndGlyphs"
text-anchor="middle" opacity="0">J4</text>
<path d="M89746 51590
L89746 51786
L89733 51826
L89706 51852
L89667 51865
L89641 51865
" />
<path d="M89995 51681
L89995 51865
" />
<path d="M89929 51576
L89864 51773
L90034 51773
" />
<text x="94928" y="52648.8"
textLength="824.803" font-size="367.454" lengthAdjust="spacingAndGlyphs"
text-anchor="middle" opacity="0">AE1</text>
<path d="M94606 52556
L94737 52556
" />
<path d="M94580 52635
L94672 52360
L94763 52635
" />
<path d="M94855 52491
L94947 52491
" />
<path d="M94987 52635
L94855 52635
L94855 52360
L94987 52360
" />
<path d="M95249 52635
L95092 52635
" />
<path d="M95170 52635
L95170 52360
L95144 52399
L95118 52425
L95092 52438
" />
<text x="102743" y="36867.8"
textLength="627.953" font-size="367.454" lengthAdjust="spacingAndGlyphs"
text-anchor="middle" opacity="0">U5</text>
<path d="M102533 36579
L102533 36802
L102546 36828
L102559 36841
L102585 36854
L102638 36854
L102664 36841
L102677 36828
L102690 36802
L102690 36579
" />
<path d="M102952 36579
L102821 36579
L102808 36710
L102821 36697
L102847 36684
L102913 36684
L102939 36697
L102952 36710
L102966 36736
L102966 36802
L102952 36828
L102939 36841
L102913 36854
L102847 36854
L102821 36841
L102808 36828
" />
<text x="97628" y="52128.8"
textLength="877.296" font-size="367.454" lengthAdjust="spacingAndGlyphs"
text-anchor="middle" opacity="0">C20</text>
<path d="M97450 52089
L97437 52102
L97398 52115
L97372 52115
L97332 52102
L97306 52076
L97293 52050
L97280 51997
L97280 51958
L97293 51905
L97306 51879
L97332 51853
L97372 51840
L97398 51840
L97437 51853
L97450 51866
" />
<path d="M97555 51866
L97568 51853
L97595 51840
L97660 51840
L97687 51853
L97700 51866
L97713 51892
L97713 51918
L97700 51958
L97542 52115
L97713 52115
" />
<path d="M97883 51840
L97910 51840
L97936 51853
L97949 51866
L97962 51892
L97975 51945
L97975 52010
L97962 52063
L97949 52089
L97936 52102
L97910 52115
L97883 52115
L97857 52102
L97844 52089
L97831 52063
L97818 52010
L97818 51945
L97831 51892
L97844 51866
L97857 51853
L97883 51840
" />
<text x="93298" y="49418.8"
textLength="614.83" font-size="367.454" lengthAdjust="spacingAndGlyphs"
text-anchor="middle" opacity="0">C4</text>
<path d="M93252 49379
L93238 49392
L93199 49405
L93173 49405
L93133 49392
L93107 49366
L93094 49340
L93081 49287
L93081 49248
L93094 49195
L93107 49169
L93133 49143
L93173 49130
L93199 49130
L93238 49143
L93252 49156
" />
<path d="M93488 49221
L93488 49405
" />
<path d="M93422 49116
L93357 49313
L93527 49313
" />
<text x="93788" y="51258.8"
textLength="562.336" font-size="367.454" lengthAdjust="spacingAndGlyphs"
text-anchor="middle" opacity="0">L1</text>
<path d="M93742 51245
L93610 51245
L93610 50970
" />
<path d="M93978 51245
L93820 51245
" />
<path d="M93899 51245
L93899 50970
L93873 51009
L93847 51035
L93820 51048
" />
<text x="101243" y="31988.8"
textLength="1126.64" font-size="367.454" lengthAdjust="spacingAndGlyphs"
text-anchor="middle" opacity="0">RFB1</text>
<path d="M100941 31975
L100849 31844
" />
<path d="M100783 31975
L100783 31700
L100888 31700
L100914 31713
L100928 31726
L100941 31752
L100941 31791
L100928 31818
L100914 31831
L100888 31844
L100783 31844
" />
<path d="M101151 31831
L101059 31831
" />
<path d="M101059 31975
L101059 31700
L101190 31700
" />
<path d="M101387 31831
L101426 31844
L101439 31857
L101452 31883
L101452 31923
L101439 31949
L101426 31962
L101400 31975
L101295 31975
L101295 31700
L101387 31700
L101413 31713
L101426 31726
L101439 31752
L101439 31778
L101426 31805
L101413 31818
L101387 31831
L101295 31831
" />
<path d="M101715 31975
L101557 31975
" />
<path d="M101636 31975
L101636 31700
L101610 31739
L101584 31765
L101557 31778
" />
<text x="100644" y="30405.8"
textLength="1126.64" font-size="367.454" lengthAdjust="spacingAndGlyphs"
text-anchor="middle" opacity="0">RFB2</text>
<path d="M100342 30392
L100250 30261
" />
<path d="M100184 30392
L100184 30117
L100289 30117
L100315 30130
L100329 30143
L100342 30169
L100342 30208
L100329 30235
L100315 30248
L100289 30261
L100184 30261
" />
<path d="M100552 30248
L100460 30248
" />
<path d="M100460 30392
L100460 30117
L100591 30117
" />
<path d="M100788 30248
L100827 30261
L100840 30274
L100853 30300
L100853 30340
L100840 30366
L100827 30379
L100801 30392
L100696 30392
L100696 30117
L100788 30117
L100814 30130
L100827 30143
L100840 30169
L100840 30195
L100827 30222
L100814 30235
L100788 30248
L100696 30248
" />
<path d="M100958 30143
L100972 30130
L100998 30117
L101063 30117
L101090 30130
L101103 30143
L101116 30169
L101116 30195
L101103 30235
L100945 30392
L101116 30392
" />
<text x="82998" y="50208.8"
textLength="877.296" font-size="367.454" lengthAdjust="spacingAndGlyphs"
text-anchor="middle" opacity="0">R14</text>
<path d="M82820 50195
L82728 50064
" />
<path d="M82663 50195
L82663 49920
L82768 49920
L82794 49933
L82807 49946
L82820 49972
L82820 50011
L82807 50038
L82794 50051
L82768 50064
L82663 50064
" />
<path d="M83083 50195
L82925 50195
" />
<path d="M83004 50195
L83004 49920
L82978 49959
L82952 49985
L82925 49998
" />
<path d="M83319 50011
L83319 50195
" />
<path d="M83253 49906
L83188 50103
L83358 50103
" />
<text x="83858" y="50208.8"
textLength="877.296" font-size="367.454" lengthAdjust="spacingAndGlyphs"
text-anchor="middle" opacity="0">R13</text>
<path d="M83680 50195
L83588 50064
" />
<path d="M83523 50195
L83523 49920
L83628 49920
L83654 49933
L83667 49946
L83680 49972
L83680 50011
L83667 50038
L83654 50051
L83628 50064
L83523 50064
" />
<path d="M83943 50195
L83785 50195
" />
<path d="M83864 50195
L83864 49920
L83838 49959
L83812 49985
L83785 49998
" />
<path d="M84035 49920
L84205 49920
L84113 50025
L84153 50025
L84179 50038
L84192 50051
L84205 50077
L84205 50143
L84192 50169
L84179 50182
L84153 50195
L84074 50195
L84048 50182
L84035 50169
" />
<text x="83864" y="43899.6"
textLength="877.296" font-size="367.454" lengthAdjust="spacingAndGlyphs"
text-anchor="middle" opacity="0">R17</text>
<path d="M83686 43886
L83594 43755
" />
<path d="M83529 43886
L83529 43610
L83634 43610
L83660 43624
L83673 43637
L83686 43663
L83686 43702
L83673 43728
L83660 43742
L83634 43755
L83529 43755
" />
<path d="M83949 43886
L83791 43886
" />
<path d="M83870 43886
L83870 43610
L83844 43650
L83818 43676
L83791 43689
" />
<path d="M84041 43610
L84224 43610
L84106 43886
" />
<text x="85088" y="45618.8"
textLength="877.296" font-size="367.454" lengthAdjust="spacingAndGlyphs"
text-anchor="middle" opacity="0">R16</text>
<path d="M84910 45605
L84818 45474
" />
<path d="M84753 45605
L84753 45330
L84858 45330
L84884 45343
L84897 45356
L84910 45382
L84910 45421
L84897 45448
L84884 45461
L84858 45474
L84753 45474
" />
<path d="M85173 45605
L85015 45605
" />
<path d="M85094 45605
L85094 45330
L85068 45369
L85042 45395
L85015 45408
" />
<path d="M85409 45330
L85357 45330
L85330 45343
L85317 45356
L85291 45395
L85278 45448
L85278 45553
L85291 45579
L85304 45592
L85330 45605
L85383 45605
L85409 45592
L85422 45579
L85435 45553
L85435 45487
L85422 45461
L85409 45448
L85383 45435
L85330 45435
L85304 45448
L85291 45461
L85278 45487
" />
<text x="83098" y="44448.8"
textLength="877.296" font-size="367.454" lengthAdjust="spacingAndGlyphs"
text-anchor="middle" opacity="0">R15</text>
<path d="M82920 44435
L82828 44304
" />
<path d="M82763 44435
L82763 44160
L82868 44160
L82894 44173
L82907 44186
L82920 44212
L82920 44251
L82907 44278
L82894 44291
L82868 44304
L82763 44304
" />
<path d="M83183 44435
L83025 44435
" />
<path d="M83104 44435
L83104 44160
L83078 44199
L83052 44225
L83025 44238
" />
<path d="M83432 44160
L83301 44160
L83288 44291
L83301 44278
L83327 44265
L83393 44265
L83419 44278
L83432 44291
L83445 44317
L83445 44383
L83432 44409
L83419 44422
L83393 44435
L83327 44435
L83301 44422
L83288 44409
" />
<text x="95998" y="51528.8"
textLength="877.296" font-size="367.454" lengthAdjust="spacingAndGlyphs"
text-anchor="middle" opacity="0">R10</text>
<path d="M95820 51515
L95728 51384
" />
<path d="M95663 51515
L95663 51240
L95768 51240
L95794 51253
L95807 51266
L95820 51292
L95820 51331
L95807 51358
L95794 51371
L95768 51384
L95663 51384
" />
<path d="M96083 51515
L95925 51515
" />
<path d="M96004 51515
L96004 51240
L95978 51279
L95952 51305
L95925 51318
" />
<path d="M96253 51240
L96280 51240
L96306 51253
L96319 51266
L96332 51292
L96345 51345
L96345 51410
L96332 51463
L96319 51489
L96306 51502
L96280 51515
L96253 51515
L96227 51502
L96214 51489
L96201 51463
L96188 51410
L96188 51345
L96201 51292
L96214 51266
L96227 51253
L96253 51240
" />
<text x="98918" y="48858.8"
textLength="877.296" font-size="367.454" lengthAdjust="spacingAndGlyphs"
text-anchor="middle" opacity="0">R11</text>
<path d="M98740 48845
L98648 48714
" />
<path d="M98583 48845
L98583 48570
L98688 48570
L98714 48583
L98727 48596
L98740 48622
L98740 48661
L98727 48688
L98714 48701
L98688 48714
L98583 48714
" />
<path d="M99003 48845
L98845 48845
" />
<path d="M98924 48845
L98924 48570
L98898 48609
L98872 48635
L98845 48648
" />
<path d="M99265 48845
L99108 48845
" />
<path d="M99187 48845
L99187 48570
L99160 48609
L99134 48635
L99108 48648
" />
<text x="88358" y="46743.8"
textLength="614.83" font-size="367.454" lengthAdjust="spacingAndGlyphs"
text-anchor="middle" opacity="0">R1</text>
<path d="M88312 46730
L88220 46599
" />
<path d="M88154 46730
L88154 46455
L88259 46455
L88285 46468
L88298 46481
L88312 46507
L88312 46546
L88298 46573
L88285 46586
L88259 46599
L88154 46599
" />
<path d="M88574 46730
L88417 46730
" />
<path d="M88495 46730
L88495 46455
L88469 46494
L88443 46520
L88417 46533
" />
<text x="87743" y="46733.8"
textLength="614.83" font-size="367.454" lengthAdjust="spacingAndGlyphs"
text-anchor="middle" opacity="0">R4</text>
<path d="M87697 46720
L87605 46589
" />
<path d="M87539 46720
L87539 46445
L87644 46445
L87670 46458
L87683 46471
L87697 46497
L87697 46536
L87683 46563
L87670 46576
L87644 46589
L87539 46589
" />
<path d="M87933 46536
L87933 46720
" />
<path d="M87867 46431
L87802 46628
L87972 46628
" />
<text x="98537" y="33565.8"
textLength="614.83" font-size="367.454" lengthAdjust="spacingAndGlyphs"
text-anchor="middle" opacity="0">R5</text>
<path d="M98491 33552
L98399 33421
" />
<path d="M98333 33552
L98333 33277
L98438 33277
L98464 33290
L98477 33303
L98491 33329
L98491 33368
L98477 33395
L98464 33408
L98438 33421
L98333 33421
" />
<path d="M98740 33277
L98609 33277
L98596 33408
L98609 33395
L98635 33382
L98701 33382
L98727 33395
L98740 33408
L98753 33434
L98753 33500
L98740 33526
L98727 33539
L98701 33552
L98635 33552
L98609 33539
L98596 33526
" />
<text x="99092" y="34191.8"
textLength="877.296" font-size="367.454" lengthAdjust="spacingAndGlyphs"
text-anchor="middle" opacity="0">C21</text>
<path d="M98914 34152
L98901 34165
L98862 34178
L98836 34178
L98796 34165
L98770 34139
L98757 34113
L98744 34060
L98744 34021
L98757 33968
L98770 33942
L98796 33916
L98836 33903
L98862 33903
L98901 33916
L98914 33929
" />
<path d="M99019 33929
L99032 33916
L99059 33903
L99124 33903
L99151 33916
L99164 33929
L99177 33955
L99177 33981
L99164 34021
L99006 34178
L99177 34178
" />
<path d="M99439 34178
L99282 34178
" />
<path d="M99361 34178
L99361 33903
L99334 33942
L99308 33968
L99282 33981
" />
<text x="82538" y="45718.8"
textLength="877.296" font-size="367.454" lengthAdjust="spacingAndGlyphs"
text-anchor="middle" opacity="0">C22</text>
<path d="M82360 45679
L82347 45692
L82308 45705
L82282 45705
L82242 45692
L82216 45666
L82203 45640
L82190 45587
L82190 45548
L82203 45495
L82216 45469
L82242 45443
L82282 45430
L82308 45430
L82347 45443
L82360 45456
" />
<path d="M82465 45456
L82478 45443
L82505 45430
L82570 45430
L82597 45443
L82610 45456
L82623 45482
L82623 45508
L82610 45548
L82452 45705
L82623 45705
" />
<path d="M82728 45456
L82741 45443
L82767 45430
L82833 45430
L82859 45443
L82872 45456
L82885 45482
L82885 45508
L82872 45548
L82715 45705
L82885 45705
" />
<text x="88718.2" y="50425.8"
textLength="877.296" font-size="367.454" lengthAdjust="spacingAndGlyphs"
text-anchor="middle" opacity="0">C15</text>
<path d="M88541 50386
L88527 50399
L88488 50412
L88462 50412
L88422 50399
L88396 50373
L88383 50347
L88370 50294
L88370 50255
L88383 50202
L88396 50176
L88422 50150
L88462 50137
L88488 50137
L88527 50150
L88541 50163
" />
<path d="M88803 50412
L88646 50412
" />
<path d="M88724 50412
L88724 50137
L88698 50176
L88672 50202
L88646 50215
" />
<path d="M89052 50137
L88921 50137
L88908 50268
L88921 50255
L88947 50242
L89013 50242
L89039 50255
L89052 50268
L89065 50294
L89065 50360
L89052 50386
L89039 50399
L89013 50412
L88947 50412
L88921 50399
L88908 50386
" />
<text x="106307" y="33031.8"
textLength="877.296" font-size="367.454" lengthAdjust="spacingAndGlyphs"
text-anchor="middle" opacity="0">C17</text>
<path d="M106129 32992
L106116 33005
L106077 33018
L106051 33018
L106011 33005
L105985 32979
L105972 32953
L105959 32900
L105959 32861
L105972 32808
L105985 32782
L106011 32756
L106051 32743
L106077 32743
L106116 32756
L106129 32769
" />
<path d="M106392 33018
L106234 33018
" />
<path d="M106313 33018
L106313 32743
L106287 32782
L106261 32808
L106234 32821
" />
<path d="M106484 32743
L106667 32743
L106549 33018
" />
<text x="91118" y="46328.8"
textLength="877.296" font-size="367.454" lengthAdjust="spacingAndGlyphs"
text-anchor="middle" opacity="0">C11</text>
<path d="M90940 46289
L90927 46302
L90888 46315
L90862 46315
L90822 46302
L90796 46276
L90783 46250
L90770 46197
L90770 46158
L90783 46105
L90796 46079
L90822 46053
L90862 46040
L90888 46040
L90927 46053
L90940 46066
" />
<path d="M91203 46315
L91045 46315
" />
<path d="M91124 46315
L91124 46040
L91098 46079
L91072 46105
L91045 46118
" />
<path d="M91465 46315
L91308 46315
" />
<path d="M91387 46315
L91387 46040
L91360 46079
L91334 46105
L91308 46118
" />
<text x="98759" y="30754.8"
textLength="877.296" font-size="367.454" lengthAdjust="spacingAndGlyphs"
text-anchor="middle" opacity="0">C13</text>
<path d="M98581 30715
L98568 30728
L98529 30741
L98503 30741
L98463 30728
L98437 30702
L98424 30676
L98411 30623
L98411 30584
L98424 30531
L98437 30505
L98463 30479
L98503 30466
L98529 30466
L98568 30479
L98581 30492
" />
<path d="M98844 30741
L98686 30741
" />
<path d="M98765 30741
L98765 30466
L98739 30505
L98713 30531
L98686 30544
" />
<path d="M98936 30466
L99106 30466
L99014 30571
L99054 30571
L99080 30584
L99093 30597
L99106 30623
L99106 30689
L99093 30715
L99080 30728
L99054 30741
L98975 30741
L98949 30728
L98936 30715
" />
<text x="98438" y="51144.8"
textLength="877.296" font-size="367.454" lengthAdjust="spacingAndGlyphs"
text-anchor="middle" opacity="0">C18</text>
<path d="M98260 51105
L98247 51118
L98208 51131
L98182 51131
L98142 51118
L98116 51092
L98103 51066
L98090 51013
L98090 50974
L98103 50921
L98116 50895
L98142 50869
L98182 50856
L98208 50856
L98247 50869
L98260 50882
" />
<path d="M98523 51131
L98365 51131
" />
<path d="M98444 51131
L98444 50856
L98418 50895
L98392 50921
L98365 50934
" />
<path d="M98680 50974
L98654 50961
L98641 50947
L98628 50921
L98628 50908
L98641 50882
L98654 50869
L98680 50856
L98733 50856
L98759 50869
L98772 50882
L98785 50908
L98785 50921
L98772 50947
L98759 50961
L98733 50974
L98680 50974
L98654 50987
L98641 51000
L98628 51026
L98628 51079
L98641 51105
L98654 51118
L98680 51131
L98733 51131
L98759 51118
L98772 51105
L98785 51079
L98785 51026
L98772 51000
L98759 50987
L98733 50974
" />
<text x="93898" y="50508.8"
textLength="614.83" font-size="367.454" lengthAdjust="spacingAndGlyphs"
text-anchor="middle" opacity="0">C6</text>
<path d="M93852 50469
L93838 50482
L93799 50495
L93773 50495
L93733 50482
L93707 50456
L93694 50430
L93681 50377
L93681 50338
L93694 50285
L93707 50259
L93733 50233
L93773 50220
L93799 50220
L93838 50233
L93852 50246
" />
<path d="M94088 50220
L94035 50220
L94009 50233
L93996 50246
L93970 50285
L93957 50338
L93957 50443
L93970 50469
L93983 50482
L94009 50495
L94062 50495
L94088 50482
L94101 50469
L94114 50443
L94114 50377
L94101 50351
L94088 50338
L94062 50325
L94009 50325
L93983 50338
L93970 50351
L93957 50377
" />
<text x="100929" y="32959.8"
textLength="614.83" font-size="367.454" lengthAdjust="spacingAndGlyphs"
text-anchor="middle" opacity="0">C9</text>
<path d="M100883 32920
L100869 32933
L100830 32946
L100804 32946
L100764 32933
L100738 32907
L100725 32881
L100712 32828
L100712 32789
L100725 32736
L100738 32710
L100764 32684
L100804 32671
L100830 32671
L100869 32684
L100883 32697
" />
<path d="M101014 32946
L101066 32946
L101093 32933
L101106 32920
L101132 32881
L101145 32828
L101145 32723
L101132 32697
L101119 32684
L101093 32671
L101040 32671
L101014 32684
L101001 32697
L100988 32723
L100988 32789
L101001 32815
L101014 32828
L101040 32841
L101093 32841
L101119 32828
L101132 32815
L101145 32789
" />
<text x="92118" y="51968.8"
textLength="614.83" font-size="367.454" lengthAdjust="spacingAndGlyphs"
text-anchor="middle" opacity="0">C2</text>
<path d="M92072 51929
L92058 51942
L92019 51955
L91993 51955
L91953 51942
L91927 51916
L91914 51890
L91901 51837
L91901 51798
L91914 51745
L91927 51719
L91953 51693
L91993 51680
L92019 51680
L92058 51693
L92072 51706
" />
<path d="M92177 51706
L92190 51693
L92216 51680
L92282 51680
L92308 51693
L92321 51706
L92334 51732
L92334 51758
L92321 51798
L92163 51955
L92334 51955
" />
<text x="91098" y="51968.8"
textLength="877.296" font-size="367.454" lengthAdjust="spacingAndGlyphs"
text-anchor="middle" opacity="0">C12</text>
<path d="M90920 51929
L90907 51942
L90868 51955
L90842 51955
L90802 51942
L90776 51916
L90763 51890
L90750 51837
L90750 51798
L90763 51745
L90776 51719
L90802 51693
L90842 51680
L90868 51680
L90907 51693
L90920 51706
" />
<path d="M91183 51955
L91025 51955
" />
<path d="M91104 51955
L91104 51680
L91078 51719
L91052 51745
L91025 51758
" />
<path d="M91288 51706
L91301 51693
L91327 51680
L91393 51680
L91419 51693
L91432 51706
L91445 51732
L91445 51758
L91432 51798
L91275 51955
L91445 51955
" />
<text x="101961" y="32925.8"
textLength="877.296" font-size="367.454" lengthAdjust="spacingAndGlyphs"
text-anchor="middle" opacity="0">C19</text>
<path d="M101783 32886
L101770 32899
L101731 32912
L101705 32912
L101665 32899
L101639 32873
L101626 32847
L101613 32794
L101613 32755
L101626 32702
L101639 32676
L101665 32650
L101705 32637
L101731 32637
L101770 32650
L101783 32663
" />
<path d="M102046 32912
L101888 32912
" />
<path d="M101967 32912
L101967 32637
L101941 32676
L101915 32702
L101888 32715
" />
<path d="M102177 32912
L102230 32912
L102256 32899
L102269 32886
L102295 32847
L102308 32794
L102308 32689
L102295 32663
L102282 32650
L102256 32637
L102203 32637
L102177 32650
L102164 32663
L102151 32689
L102151 32755
L102164 32781
L102177 32794
L102203 32807
L102256 32807
L102282 32794
L102295 32781
L102308 32755
" />
<text x="93998" y="49428.8"
textLength="614.83" font-size="367.454" lengthAdjust="spacingAndGlyphs"
text-anchor="middle" opacity="0">C3</text>
<path d="M93952 49389
L93938 49402
L93899 49415
L93873 49415
L93833 49402
L93807 49376
L93794 49350
L93781 49297
L93781 49258
L93794 49205
L93807 49179
L93833 49153
L93873 49140
L93899 49140
L93938 49153
L93952 49166
" />
<path d="M94043 49140
L94214 49140
L94122 49245
L94162 49245
L94188 49258
L94201 49271
L94214 49297
L94214 49363
L94201 49389
L94188 49402
L94162 49415
L94083 49415
L94057 49402
L94043 49389
" />
<text x="87118" y="46773.8"
textLength="614.83" font-size="367.454" lengthAdjust="spacingAndGlyphs"
text-anchor="middle" opacity="0">C8</text>
<path d="M87072 46734
L87058 46747
L87019 46760
L86993 46760
L86953 46747
L86927 46721
L86914 46695
L86901 46642
L86901 46603
L86914 46550
L86927 46524
L86953 46498
L86993 46485
L87019 46485
L87058 46498
L87072 46511
" />
<path d="M87229 46603
L87203 46590
L87190 46576
L87177 46550
L87177 46537
L87190 46511
L87203 46498
L87229 46485
L87282 46485
L87308 46498
L87321 46511
L87334 46537
L87334 46550
L87321 46576
L87308 46590
L87282 46603
L87229 46603
L87203 46616
L87190 46629
L87177 46655
L87177 46708
L87190 46734
L87203 46747
L87229 46760
L87282 46760
L87308 46747
L87321 46734
L87334 46708
L87334 46655
L87321 46629
L87308 46616
L87282 46603
" />
<text x="94018" y="52228.8"
textLength="614.83" font-size="367.454" lengthAdjust="spacingAndGlyphs"
text-anchor="middle" opacity="0">C1</text>
<path d="M93972 52189
L93958 52202
L93919 52215
L93893 52215
L93853 52202
L93827 52176
L93814 52150
L93801 52097
L93801 52058
L93814 52005
L93827 51979
L93853 51953
L93893 51940
L93919 51940
L93958 51953
L93972 51966
" />
<path d="M94234 52215
L94077 52215
" />
<path d="M94155 52215
L94155 51940
L94129 51979
L94103 52005
L94077 52018
" />
<text x="97881" y="32903.8"
textLength="614.83" font-size="367.454" lengthAdjust="spacingAndGlyphs"
text-anchor="middle" opacity="0">C7</text>
<path d="M97835 32864
L97821 32877
L97782 32890
L97756 32890
L97716 32877
L97690 32851
L97677 32825
L97664 32772
L97664 32733
L97677 32680
L97690 32654
L97716 32628
L97756 32615
L97782 32615
L97821 32628
L97835 32641
" />
<path d="M97926 32615
L98110 32615
L97992 32890
" />
<text x="104723" y="30510.8"
textLength="562.336" font-size="367.454" lengthAdjust="spacingAndGlyphs"
text-anchor="middle" opacity="0">L2</text>
<path d="M104677 30497
L104545 30497
L104545 30222
" />
<path d="M104755 30248
L104768 30235
L104795 30222
L104860 30222
L104887 30235
L104900 30248
L104913 30274
L104913 30300
L104900 30340
L104742 30497
L104913 30497
" />
<text x="82658" y="48568.8"
textLength="627.953" font-size="367.454" lengthAdjust="spacingAndGlyphs"
text-anchor="middle" opacity="0">U7</text>
<path d="M82448 48280
L82448 48503
L82461 48529
L82474 48542
L82500 48555
L82553 48555
L82579 48542
L82592 48529
L82605 48503
L82605 48280
" />
<path d="M82710 48280
L82894 48280
L82776 48555
" />
<text x="95510" y="48337.8"
textLength="627.953" font-size="367.454" lengthAdjust="spacingAndGlyphs"
text-anchor="middle" opacity="0">U6</text>
<path d="M95300 48049
L95300 48272
L95313 48298
L95326 48311
L95352 48324
L95405 48324
L95431 48311
L95444 48298
L95457 48272
L95457 48049
" />
<path d="M95706 48049
L95654 48049
L95628 48062
L95614 48075
L95588 48114
L95575 48167
L95575 48272
L95588 48298
L95601 48311
L95628 48324
L95680 48324
L95706 48311
L95719 48298
L95733 48272
L95733 48206
L95719 48180
L95706 48167
L95680 48154
L95628 48154
L95601 48167
L95588 48180
L95575 48206
" />
<text x="105478" y="43888.8"
textLength="614.83" font-size="367.454" lengthAdjust="spacingAndGlyphs"
text-anchor="middle" opacity="0">D7</text>
<path d="M105274 43875
L105274 43600
L105340 43600
L105379 43613
L105405 43639
L105418 43665
L105432 43718
L105432 43757
L105418 43810
L105405 43836
L105379 43862
L105340 43875
L105274 43875
" />
<path d="M105523 43600
L105707 43600
L105589 43875
" />
<text x="104965" y="47281.3"
textLength="614.83" font-size="367.454" lengthAdjust="spacingAndGlyphs"
text-anchor="middle" opacity="0">D6</text>
<path d="M104761 47268
L104761 46992
L104827 46992
L104866 47005
L104892 47031
L104905 47058
L104919 47110
L104919 47150
L104905 47202
L104892 47228
L104866 47255
L104827 47268
L104761 47268
" />
<path d="M105155 46992
L105102 46992
L105076 47005
L105063 47018
L105037 47058
L105024 47110
L105024 47215
L105037 47241
L105050 47255
L105076 47268
L105129 47268
L105155 47255
L105168 47241
L105181 47215
L105181 47150
L105168 47123
L105155 47110
L105129 47097
L105076 47097
L105050 47110
L105037 47123
L105024 47150
" />
<text x="100399" y="27513.7"
textLength="614.83" font-size="367.454" lengthAdjust="spacingAndGlyphs"
text-anchor="middle" opacity="0">D2</text>
<path d="M100195 27500
L100195 27224
L100261 27224
L100300 27238
L100327 27264
L100340 27290
L100353 27343
L100353 27382
L100340 27434
L100327 27461
L100300 27487
L100261 27500
L100195 27500
" />
<path d="M100458 27251
L100471 27238
L100497 27224
L100563 27224
L100589 27238
L100602 27251
L100615 27277
L100615 27303
L100602 27343
L100445 27500
L100615 27500
" />
<g >
</g>
</g> 
</svg>
