<?xml version="1.0" standalone="no"?>
 <!DOCTYPE svg PUBLIC "-//W3C//DTD SVG 1.1//EN" 
 "http://www.w3.org/Graphics/SVG/1.1/DTD/svg11.dtd"> 
<svg
  xmlns:svg="http://www.w3.org/2000/svg"
  xmlns="http://www.w3.org/2000/svg"
  xmlns:xlink="http://www.w3.org/1999/xlink"
  version="1.1"
  width="29.700220cm" height="21.000720cm" viewBox="0 0 116930 82680">
<title>SVG Picture created as Kicad_Valve-hardware-B_Mask.svg date 2020/09/05 18:08:54 </title>
  <desc>Picture generated by PCBNEW </desc>
<g style="fill:#000000; fill-opacity:1;stroke:#000000; stroke-opacity:1;
stroke-linecap:round; stroke-linejoin:round;"
 transform="translate(0 0) scale(1 1)">
</g>
<g style="fill:#000000; fill-opacity:0.0; 
stroke:#000000; stroke-width:-0.000393701; stroke-opacity:1; 
stroke-linecap:round; stroke-linejoin:round;">
</g>
<g style="fill:#000000; fill-opacity:1.0; 
stroke:#000000; stroke-width:0; stroke-opacity:1; 
stroke-linecap:round; stroke-linejoin:round;">
<path style="fill:#000000; fill-opacity:1.0; 
stroke:#000000; stroke-width:0; stroke-opacity:1; 
stroke-linecap:round; stroke-linejoin:round;fill-rule:evenodd;"
d="M 88889.7,50842.2
88948.5,50853.9
89013,50880.6
89071.1,50919.5
89120.5,50968.9
89159.4,51027
89186.1,51091.5
89199.7,51160.1
89199.7,51229.9
89186.1,51298.5
89159.4,51363
89120.5,51421.1
89071.1,51470.5
89013,51509.4
88948.5,51536.1
88889.7,51547.8
88879.9,51549.7
88810.1,51549.7
88800.3,51547.8
88741.5,51536.1
88677,51509.4
88618.9,51470.5
88569.5,51421.1
88530.6,51363
88503.9,51298.5
88490.3,51229.9
88490.3,51160.1
88503.9,51091.5
88530.6,51027
88569.5,50968.9
88618.9,50919.5
88677,50880.6
88741.5,50853.9
88800.3,50842.2
88810.1,50840.3
88879.9,50840.3
Z" /> 
<path style="fill:#000000; fill-opacity:1.0; 
stroke:#000000; stroke-width:0; stroke-opacity:1; 
stroke-linecap:round; stroke-linejoin:round;fill-rule:evenodd;"
d="M 87889.7,50842.2
87948.5,50853.9
88013,50880.6
88071.1,50919.5
88120.5,50968.9
88159.4,51027
88186.1,51091.5
88199.7,51160.1
88199.7,51229.9
88186.1,51298.5
88159.4,51363
88120.5,51421.1
88071.1,51470.5
88013,51509.4
87948.5,51536.1
87889.7,51547.8
87879.9,51549.7
87810.1,51549.7
87800.3,51547.8
87741.5,51536.1
87677,51509.4
87618.9,51470.5
87569.5,51421.1
87530.6,51363
87503.9,51298.5
87490.3,51229.9
87490.3,51160.1
87503.9,51091.5
87530.6,51027
87569.5,50968.9
87618.9,50919.5
87677,50880.6
87741.5,50853.9
87800.3,50842.2
87810.1,50840.3
87879.9,50840.3
Z" /> 
<path style="fill:#000000; fill-opacity:1.0; 
stroke:#000000; stroke-width:0; stroke-opacity:1; 
stroke-linecap:round; stroke-linejoin:round;fill-rule:evenodd;"
d="M 84199.7,51549.7
83490.3,51549.7
83490.3,50840.3
84199.7,50840.3
Z" /> 
<path style="fill:#000000; fill-opacity:1.0; 
stroke:#000000; stroke-width:0; stroke-opacity:1; 
stroke-linecap:round; stroke-linejoin:round;fill-rule:evenodd;"
d="M 84889.7,50842.2
84948.5,50853.9
85013,50880.6
85071.1,50919.5
85120.5,50968.9
85159.4,51027
85186.1,51091.5
85199.7,51160.1
85199.7,51229.9
85186.1,51298.5
85159.4,51363
85120.5,51421.1
85071.1,51470.5
85013,51509.4
84948.5,51536.1
84889.7,51547.8
84879.9,51549.7
84810.1,51549.7
84800.3,51547.8
84741.5,51536.1
84677,51509.4
84618.9,51470.5
84569.5,51421.1
84530.6,51363
84503.9,51298.5
84490.3,51229.9
84490.3,51160.1
84503.9,51091.5
84530.6,51027
84569.5,50968.9
84618.9,50919.5
84677,50880.6
84741.5,50853.9
84800.3,50842.2
84810.1,50840.3
84879.9,50840.3
Z" /> 
<path style="fill:#000000; fill-opacity:1.0; 
stroke:#000000; stroke-width:0; stroke-opacity:1; 
stroke-linecap:round; stroke-linejoin:round;fill-rule:evenodd;"
d="M 85889.7,50842.2
85948.5,50853.9
86013,50880.6
86071.1,50919.5
86120.5,50968.9
86159.4,51027
86186.1,51091.5
86199.7,51160.1
86199.7,51229.9
86186.1,51298.5
86159.4,51363
86120.5,51421.1
86071.1,51470.5
86013,51509.4
85948.5,51536.1
85889.7,51547.8
85879.9,51549.7
85810.1,51549.7
85800.3,51547.8
85741.5,51536.1
85677,51509.4
85618.9,51470.5
85569.5,51421.1
85530.6,51363
85503.9,51298.5
85490.3,51229.9
85490.3,51160.1
85503.9,51091.5
85530.6,51027
85569.5,50968.9
85618.9,50919.5
85677,50880.6
85741.5,50853.9
85800.3,50842.2
85810.1,50840.3
85879.9,50840.3
Z" /> 
<path style="fill:#000000; fill-opacity:1.0; 
stroke:#000000; stroke-width:0; stroke-opacity:1; 
stroke-linecap:round; stroke-linejoin:round;fill-rule:evenodd;"
d="M 86889.7,50842.2
86948.5,50853.9
87013,50880.6
87071.1,50919.5
87120.5,50968.9
87159.4,51027
87186.1,51091.5
87199.7,51160.1
87199.7,51229.9
87186.1,51298.5
87159.4,51363
87120.5,51421.1
87071.1,51470.5
87013,51509.4
86948.5,51536.1
86889.7,51547.8
86879.9,51549.7
86810.1,51549.7
86800.3,51547.8
86741.5,51536.1
86677,51509.4
86618.9,51470.5
86569.5,51421.1
86530.6,51363
86503.9,51298.5
86490.3,51229.9
86490.3,51160.1
86503.9,51091.5
86530.6,51027
86569.5,50968.9
86618.9,50919.5
86677,50880.6
86741.5,50853.9
86800.3,50842.2
86810.1,50840.3
86879.9,50840.3
Z" /> 
<path style="fill:#000000; fill-opacity:1.0; 
stroke:#000000; stroke-width:0; stroke-opacity:1; 
stroke-linecap:round; stroke-linejoin:round;fill-rule:evenodd;"
d="M 96653.3,49881.1
96680.9,49892.5
96705.7,49909.1
96726.8,49930.2
96743.4,49955
96754.8,49982.6
96760.7,50011.9
96760.7,50041.7
96754.8,50071
96743.4,50098.6
96726.8,50123.4
96705.7,50144.5
96680.9,50161.1
96653.3,50172.6
96624,50178.4
96594.2,50178.4
96564.9,50172.6
96537.3,50161.1
96512.5,50144.5
96491.4,50123.4
96474.8,50098.6
96463.3,50071
96457.5,50041.7
96457.5,50011.9
96463.3,49982.6
96474.8,49955
96491.4,49930.2
96512.5,49909.1
96537.3,49892.5
96564.9,49881.1
96594.2,49875.2
96624,49875.2
Z" /> 
<path style="fill:#000000; fill-opacity:1.0; 
stroke:#000000; stroke-width:0; stroke-opacity:1; 
stroke-linecap:round; stroke-linejoin:round;fill-rule:evenodd;"
d="M 97165.1,49881.1
97192.7,49892.5
97217.5,49909.1
97238.6,49930.2
97255.2,49955
97266.7,49982.6
97272.5,50011.9
97272.5,50041.7
97266.7,50071
97255.2,50098.6
97238.6,50123.4
97217.5,50144.5
97192.7,50161.1
97165.1,50172.6
97135.8,50178.4
97106,50178.4
97076.7,50172.6
97049.1,50161.1
97024.3,50144.5
97003.2,50123.4
96986.6,50098.6
96975.2,50071
96969.3,50041.7
96969.3,50011.9
96975.2,49982.6
96986.6,49955
97003.2,49930.2
97024.3,49909.1
97049.1,49892.5
97076.7,49881.1
97106,49875.2
97135.8,49875.2
Z" /> 
<path style="fill:#000000; fill-opacity:1.0; 
stroke:#000000; stroke-width:0; stroke-opacity:1; 
stroke-linecap:round; stroke-linejoin:round;fill-rule:evenodd;"
d="M 97165.1,49369.2
97192.7,49380.7
97217.5,49397.3
97238.6,49418.4
97255.2,49443.2
97266.7,49470.8
97272.5,49500.1
97272.5,49529.9
97266.7,49559.2
97255.2,49586.8
97238.6,49611.6
97217.5,49632.7
97192.7,49649.3
97165.1,49660.8
97135.8,49666.6
97106,49666.6
97076.7,49660.8
97049.1,49649.3
97024.3,49632.7
97003.2,49611.6
96986.6,49586.8
96975.2,49559.2
96969.3,49529.9
96969.3,49500.1
96975.2,49470.8
96986.6,49443.2
97003.2,49418.4
97024.3,49397.3
97049.1,49380.7
97076.7,49369.2
97106,49363.4
97135.8,49363.4
Z" /> 
<path style="fill:#000000; fill-opacity:1.0; 
stroke:#000000; stroke-width:0; stroke-opacity:1; 
stroke-linecap:round; stroke-linejoin:round;fill-rule:evenodd;"
d="M 96653.3,49369.2
96680.9,49380.7
96705.7,49397.3
96726.8,49418.4
96743.4,49443.2
96754.8,49470.8
96760.7,49500.1
96760.7,49529.9
96754.8,49559.2
96743.4,49586.8
96726.8,49611.6
96705.7,49632.7
96680.9,49649.3
96653.3,49660.8
96624,49666.6
96594.2,49666.6
96564.9,49660.8
96537.3,49649.3
96512.5,49632.7
96491.4,49611.6
96474.8,49586.8
96463.3,49559.2
96457.5,49529.9
96457.5,49500.1
96463.3,49470.8
96474.8,49443.2
96491.4,49418.4
96512.5,49397.3
96537.3,49380.7
96564.9,49369.2
96594.2,49363.4
96624,49363.4
Z" /> 
<path style="fill:#000000; fill-opacity:1.0; 
stroke:#000000; stroke-width:0; stroke-opacity:1; 
stroke-linecap:round; stroke-linejoin:round;fill-rule:evenodd;"
d="M 97165.1,48857.4
97192.7,48868.9
97217.5,48885.5
97238.6,48906.6
97255.2,48931.4
97266.7,48959
97272.5,48988.3
97272.5,49018.1
97266.7,49047.4
97255.2,49075
97238.6,49099.8
97217.5,49120.9
97192.7,49137.5
97165.1,49148.9
97135.8,49154.8
97106,49154.8
97076.7,49148.9
97049.1,49137.5
97024.3,49120.9
97003.2,49099.8
96986.6,49075
96975.2,49047.4
96969.3,49018.1
96969.3,48988.3
96975.2,48959
96986.6,48931.4
97003.2,48906.6
97024.3,48885.5
97049.1,48868.9
97076.7,48857.4
97106,48851.6
97135.8,48851.6
Z" /> 
<path style="fill:#000000; fill-opacity:1.0; 
stroke:#000000; stroke-width:0; stroke-opacity:1; 
stroke-linecap:round; stroke-linejoin:round;fill-rule:evenodd;"
d="M 96653.3,48857.4
96680.9,48868.9
96705.7,48885.5
96726.8,48906.6
96743.4,48931.4
96754.8,48959
96760.7,48988.3
96760.7,49018.1
96754.8,49047.4
96743.4,49075
96726.8,49099.8
96705.7,49120.9
96680.9,49137.5
96653.3,49148.9
96624,49154.8
96594.2,49154.8
96564.9,49148.9
96537.3,49137.5
96512.5,49120.9
96491.4,49099.8
96474.8,49075
96463.3,49047.4
96457.5,49018.1
96457.5,48988.3
96463.3,48959
96474.8,48931.4
96491.4,48906.6
96512.5,48885.5
96537.3,48868.9
96564.9,48857.4
96594.2,48851.6
96624,48851.6
Z" /> 
<path style="fill:#000000; fill-opacity:1.0; 
stroke:#000000; stroke-width:0; stroke-opacity:1; 
stroke-linecap:round; stroke-linejoin:round;fill-rule:evenodd;"
d="M 101907,48800.8
100292,48800.8
100292,47579.5
101907,47579.5
Z" /> 
<path style="fill:#000000; fill-opacity:1.0; 
stroke:#000000; stroke-width:0; stroke-opacity:1; 
stroke-linecap:round; stroke-linejoin:round;fill-rule:evenodd;"
d="M 81522.7,48008.2
81581.5,48019.9
81646,48046.6
81704.1,48085.5
81753.5,48134.9
81792.4,48193
81819.1,48257.5
81832.7,48326.1
81832.7,48395.9
81819.1,48464.5
81792.4,48529
81753.5,48587.1
81704.1,48636.5
81646,48675.4
81581.5,48702.1
81522.7,48713.8
81512.9,48715.7
81443.1,48715.7
81433.3,48713.8
81374.5,48702.1
81310,48675.4
81251.9,48636.5
81202.5,48587.1
81163.6,48529
81136.9,48464.5
81123.3,48395.9
81123.3,48326.1
81136.9,48257.5
81163.6,48193
81202.5,48134.9
81251.9,48085.5
81310,48046.6
81374.5,48019.9
81433.3,48008.2
81443.1,48006.3
81512.9,48006.3
Z" /> 
<path style="fill:#000000; fill-opacity:1.0; 
stroke:#000000; stroke-width:0; stroke-opacity:1; 
stroke-linecap:round; stroke-linejoin:round;fill-rule:evenodd;"
d="M 97233.1,45708.3
97451.7,45798.9
97451.7,45798.9
97648.4,45930.3
97815.7,46097.7
97879.4,46193
97947.2,46294.4
98037.7,46513
98083.9,46745.1
98083.9,46981.7
98037.7,47213.7
97947.2,47432.3
97947.2,47432.3
97815.7,47629.1
97648.4,47796.4
97549.4,47862.6
97451.7,47927.8
97233.1,48018.4
97001,48064.5
96764.4,48064.5
96532.4,48018.4
96313.8,47927.8
96216.1,47862.6
96117,47796.4
95949.7,47629.1
95818.3,47432.3
95818.3,47432.3
95727.7,47213.7
95681.5,46981.7
95681.5,46745.1
95727.7,46513
95818.3,46294.4
95886,46193
95949.7,46097.7
96117,45930.3
96313.8,45798.9
96313.8,45798.9
96532.4,45708.3
96764.4,45662.2
97001,45662.2
Z" /> 
<path style="fill:#000000; fill-opacity:1.0; 
stroke:#000000; stroke-width:0; stroke-opacity:1; 
stroke-linecap:round; stroke-linejoin:round;fill-rule:evenodd;"
d="M 81522.7,47008.2
81581.5,47019.9
81646,47046.6
81704.1,47085.5
81753.5,47134.9
81792.4,47193
81819.1,47257.5
81832.7,47326.1
81832.7,47395.9
81819.1,47464.5
81792.4,47529
81753.5,47587.1
81704.1,47636.5
81646,47675.4
81581.5,47702.1
81522.7,47713.8
81512.9,47715.7
81443.1,47715.7
81433.3,47713.8
81374.5,47702.1
81310,47675.4
81251.9,47636.5
81202.5,47587.1
81163.6,47529
81136.9,47464.5
81123.3,47395.9
81123.3,47326.1
81136.9,47257.5
81163.6,47193
81202.5,47134.9
81251.9,47085.5
81310,47046.6
81374.5,47019.9
81433.3,47008.2
81443.1,47006.3
81512.9,47006.3
Z" /> 
<path style="fill:#000000; fill-opacity:1.0; 
stroke:#000000; stroke-width:0; stroke-opacity:1; 
stroke-linecap:round; stroke-linejoin:round;fill-rule:evenodd;"
d="M 81522.7,46008.2
81581.5,46019.9
81646,46046.6
81704.1,46085.5
81753.5,46134.9
81792.4,46193
81819.1,46257.5
81832.7,46326.1
81832.7,46395.9
81819.1,46464.5
81792.4,46529
81753.5,46587.1
81704.1,46636.5
81646,46675.4
81581.5,46702.1
81522.7,46713.8
81512.9,46715.7
81443.1,46715.7
81433.3,46713.8
81374.5,46702.1
81310,46675.4
81251.9,46636.5
81202.5,46587.1
81163.6,46529
81136.9,46464.5
81123.3,46395.9
81123.3,46326.1
81136.9,46257.5
81163.6,46193
81202.5,46134.9
81251.9,46085.5
81310,46046.6
81374.5,46019.9
81433.3,46008.2
81443.1,46006.3
81512.9,46006.3
Z" /> 
<path style="fill:#000000; fill-opacity:1.0; 
stroke:#000000; stroke-width:0; stroke-opacity:1; 
stroke-linecap:round; stroke-linejoin:round;fill-rule:evenodd;"
d="M 81832.7,45715.7
81123.3,45715.7
81123.3,45006.3
81832.7,45006.3
Z" /> 
<path style="fill:#000000; fill-opacity:1.0; 
stroke:#000000; stroke-width:0; stroke-opacity:1; 
stroke-linecap:round; stroke-linejoin:round;fill-rule:evenodd;"
d="M 102497,45690.5
99701.2,45690.5
99701.2,44863
102497,44863
Z" /> 
<path style="fill:#000000; fill-opacity:1.0; 
stroke:#000000; stroke-width:0; stroke-opacity:1; 
stroke-linecap:round; stroke-linejoin:round;fill-rule:evenodd;"
d="M 81832.7,44115.7
81123.3,44115.7
81123.3,43406.3
81832.7,43406.3
Z" /> 
<path style="fill:#000000; fill-opacity:1.0; 
stroke:#000000; stroke-width:0; stroke-opacity:1; 
stroke-linecap:round; stroke-linejoin:round;fill-rule:evenodd;"
d="M 102497,43722
99701.2,43722
99701.2,42894.5
102497,42894.5
Z" /> 
<path style="fill:#000000; fill-opacity:1.0; 
stroke:#000000; stroke-width:0; stroke-opacity:1; 
stroke-linecap:round; stroke-linejoin:round;fill-rule:evenodd;"
d="M 81522.7,42408.2
81581.5,42419.9
81646,42446.6
81704.1,42485.5
81753.5,42534.9
81792.4,42593
81819.1,42657.5
81832.7,42726.1
81832.7,42795.9
81819.1,42864.5
81792.4,42929
81753.5,42987.1
81704.1,43036.5
81646,43075.4
81581.5,43102.1
81522.7,43113.8
81512.9,43115.7
81443.1,43115.7
81433.3,43113.8
81374.5,43102.1
81310,43075.4
81251.9,43036.5
81202.5,42987.1
81163.6,42929
81136.9,42864.5
81123.3,42795.9
81123.3,42726.1
81136.9,42657.5
81163.6,42593
81202.5,42534.9
81251.9,42485.5
81310,42446.6
81374.5,42419.9
81433.3,42408.2
81443.1,42406.3
81512.9,42406.3
Z" /> 
<path style="fill:#000000; fill-opacity:1.0; 
stroke:#000000; stroke-width:0; stroke-opacity:1; 
stroke-linecap:round; stroke-linejoin:round;fill-rule:evenodd;"
d="M 81522.7,41408.2
81581.5,41419.9
81646,41446.6
81704.1,41485.5
81753.5,41534.9
81792.4,41593
81819.1,41657.5
81832.7,41726.1
81832.7,41795.9
81819.1,41864.5
81792.4,41929
81753.5,41987.1
81704.1,42036.5
81646,42075.4
81581.5,42102.1
81522.7,42113.8
81512.9,42115.7
81443.1,42115.7
81433.3,42113.8
81374.5,42102.1
81310,42075.4
81251.9,42036.5
81202.5,41987.1
81163.6,41929
81136.9,41864.5
81123.3,41795.9
81123.3,41726.1
81136.9,41657.5
81163.6,41593
81202.5,41534.9
81251.9,41485.5
81310,41446.6
81374.5,41419.9
81433.3,41408.2
81443.1,41406.3
81512.9,41406.3
Z" /> 
<path style="fill:#000000; fill-opacity:1.0; 
stroke:#000000; stroke-width:0; stroke-opacity:1; 
stroke-linecap:round; stroke-linejoin:round;fill-rule:evenodd;"
d="M 84276.4,38228
84495,38318.6
84495,38318.6
84691.7,38450
84859,38617.3
84859.1,38617.3
84990.5,38814.1
85081.1,39032.7
85127.2,39264.7
85127.2,39501.4
85081.1,39733.4
84990.5,39952
84990.5,39952
84859,40148.8
84691.7,40316.1
84592.7,40382.2
84495,40447.5
84276.4,40538.1
84044.3,40584.2
83807.7,40584.2
83575.7,40538.1
83357.1,40447.5
83259.4,40382.2
83160.3,40316.1
82993,40148.8
82861.6,39952
82861.6,39952
82771,39733.4
82724.9,39501.4
82724.9,39264.7
82771,39032.7
82861.6,38814.1
82993,38617.3
82993,38617.3
83160.3,38450
83357.1,38318.6
83357.1,38318.6
83575.7,38228
83807.7,38181.9
84044.3,38181.9
Z" /> 
<path style="fill:#000000; fill-opacity:1.0; 
stroke:#000000; stroke-width:0; stroke-opacity:1; 
stroke-linecap:round; stroke-linejoin:round;fill-rule:evenodd;"
d="M 84383.1,37336.2
82768.2,37336.2
82768.2,36114.9
84383.1,36114.9
Z" /> 
<path style="fill:#000000; fill-opacity:1.0; 
stroke:#000000; stroke-width:0; stroke-opacity:1; 
stroke-linecap:round; stroke-linejoin:round;fill-rule:evenodd;"
d="M 84973.7,34226
82177.6,34226
82177.6,33398.4
84973.7,33398.4
Z" /> 
<path style="fill:#000000; fill-opacity:1.0; 
stroke:#000000; stroke-width:0; stroke-opacity:1; 
stroke-linecap:round; stroke-linejoin:round;fill-rule:evenodd;"
d="M 97233.1,30747.7
97451.7,30838.3
97451.7,30838.3
97648.4,30969.7
97815.7,31137
97815.7,31137
97947.2,31333.8
98037.7,31552.4
98083.9,31784.4
98083.9,32021
98037.7,32253.1
97947.2,32471.7
97947.2,32471.7
97815.7,32668.4
97648.4,32835.8
97549.4,32901.9
97451.7,32967.2
97233.1,33057.8
97001,33103.9
96764.4,33103.9
96532.4,33057.8
96313.8,32967.2
96216.1,32901.9
96117,32835.8
95949.7,32668.4
95818.3,32471.7
95818.3,32471.7
95727.7,32253.1
95681.5,32021
95681.5,31784.4
95727.7,31552.4
95818.3,31333.8
95949.7,31137
95949.7,31137
96117,30969.7
96313.8,30838.3
96313.8,30838.3
96532.4,30747.7
96764.4,30701.6
97001,30701.6
Z" /> 
<path style="fill:#000000; fill-opacity:1.0; 
stroke:#000000; stroke-width:0; stroke-opacity:1; 
stroke-linecap:round; stroke-linejoin:round;fill-rule:evenodd;"
d="M 84973.7,32257.5
82177.6,32257.5
82177.6,31429.9
84973.7,31429.9
Z" /> 
<path style="fill:#000000; fill-opacity:1.0; 
stroke:#000000; stroke-width:0; stroke-opacity:1; 
stroke-linecap:round; stroke-linejoin:round;fill-rule:evenodd;"
d="M 93350.7,26286.4
93440.3,26323.5
93521,26377.4
93589.6,26446
93616.8,26486.7
93643.5,26526.7
93680.6,26616.3
93699.6,26711.5
93699.6,26808.5
93680.6,26903.7
93643.5,26993.3
93589.6,27074
93521,27142.6
93440.3,27196.5
93440.3,27196.5
93440.3,27196.5
93350.7,27233.6
93255.6,27252.5
93158.5,27252.5
93063.4,27233.6
92973.8,27196.5
92973.8,27196.5
92973.8,27196.5
92893.1,27142.6
92824.5,27074
92770.6,26993.3
92733.5,26903.7
92714.5,26808.5
92714.5,26711.5
92733.5,26616.3
92770.6,26526.7
92797.3,26486.7
92824.5,26446
92893.1,26377.4
92973.8,26323.5
93063.4,26286.4
93158.5,26267.5
93255.6,26267.5
Z" /> 
<path style="fill:#000000; fill-opacity:1.0; 
stroke:#000000; stroke-width:0; stroke-opacity:1; 
stroke-linecap:round; stroke-linejoin:round;fill-rule:evenodd;"
d="M 95077.5,27252.5
94092.5,27252.5
94092.5,26267.5
95077.5,26267.5
Z" /> 
<path style="fill:#000000; fill-opacity:1.0; 
stroke:#000000; stroke-width:0; stroke-opacity:1; 
stroke-linecap:round; stroke-linejoin:round;fill-rule:evenodd;"
d="M 90594.8,26286.4
90684.4,26323.5
90765.1,26377.4
90833.7,26446
90860.9,26486.7
90887.6,26526.7
90924.7,26616.3
90943.7,26711.5
90943.7,26808.5
90924.7,26903.7
90887.6,26993.3
90833.7,27074
90765.1,27142.6
90684.4,27196.5
90684.4,27196.5
90684.4,27196.5
90594.8,27233.6
90499.7,27252.5
90402.6,27252.5
90307.5,27233.6
90217.8,27196.5
90217.8,27196.5
90217.8,27196.5
90137.2,27142.6
90068.6,27074
90014.7,26993.3
89977.5,26903.7
89958.6,26808.5
89958.6,26711.5
89977.5,26616.3
90014.7,26526.7
90041.4,26486.7
90068.6,26446
90137.2,26377.4
90217.8,26323.5
90307.5,26286.4
90402.6,26267.5
90499.7,26267.5
Z" /> 
<path style="fill:#000000; fill-opacity:1.0; 
stroke:#000000; stroke-width:0; stroke-opacity:1; 
stroke-linecap:round; stroke-linejoin:round;fill-rule:evenodd;"
d="M 91972.8,26286.4
92062.4,26323.5
92143.1,26377.4
92211.7,26446
92238.8,26486.7
92265.6,26526.7
92302.7,26616.3
92321.6,26711.5
92321.6,26808.5
92302.7,26903.7
92265.6,26993.3
92211.7,27074
92143.1,27142.6
92062.4,27196.5
92062.4,27196.5
92062.4,27196.5
91972.8,27233.6
91877.6,27252.5
91780.6,27252.5
91685.4,27233.6
91595.8,27196.5
91595.8,27196.5
91595.8,27196.5
91515.1,27142.6
91446.5,27074
91392.6,26993.3
91355.5,26903.7
91336.6,26808.5
91336.6,26711.5
91355.5,26616.3
91392.6,26526.7
91419.4,26486.7
91446.5,26446
91515.1,26377.4
91595.8,26323.5
91685.4,26286.4
91780.6,26267.5
91877.6,26267.5
Z" /> 
<path style="fill:#000000; fill-opacity:1.0; 
stroke:#000000; stroke-width:0; stroke-opacity:1; 
stroke-linecap:round; stroke-linejoin:round;fill-rule:evenodd;"
d="M 88792.5,27212.5
87807.5,27212.5
87807.5,26227.5
88792.5,26227.5
Z" /> 
<path style="fill:#000000; fill-opacity:1.0; 
stroke:#000000; stroke-width:0; stroke-opacity:1; 
stroke-linecap:round; stroke-linejoin:round;fill-rule:evenodd;"
d="M 87065.7,26246.4
87155.3,26283.5
87236,26337.4
87304.6,26406
87358.5,26486.7
87358.5,26486.7
87395.6,26576.3
87403.6,26616.3
87414.6,26671.5
87414.6,26768.5
87395.6,26863.7
87358.5,26953.3
87304.6,27034
87236,27102.6
87155.3,27156.5
87155.3,27156.5
87155.3,27156.5
87065.7,27193.6
86970.6,27212.5
86873.5,27212.5
86778.4,27193.6
86688.8,27156.5
86688.8,27156.5
86688.8,27156.5
86608.1,27102.6
86539.5,27034
86485.6,26953.3
86448.5,26863.7
86429.5,26768.5
86429.5,26671.5
86440.5,26616.3
86448.5,26576.3
86485.6,26486.7
86485.6,26486.7
86539.5,26406
86608.1,26337.4
86688.8,26283.5
86778.4,26246.4
86873.5,26227.5
86970.6,26227.5
Z" /> 
</g> 
</svg>
